<svg fill="none" height="32" viewBox="0 0 32 32" width="32" xmlns="http://www.w3.org/2000/svg" xmlns:xlink="http://www.w3.org/1999/xlink"><clipPath id="a"><path d="m0 0h32v32h-32z"/></clipPath><g clip-path="url(#a)"><path d="m31.1028 20.9925c0 2.0091-.5252 3.4351-1.3444 4.4745-.8271 1.0495-2.0166 1.784-3.4762 2.2907-2.9616 1.0281-6.7719 1.0379-10.1824 1.0379-3.4093 0-7.27255-.0094-10.28664-1.0393-1.48698-.5081-2.7015-1.2448-3.54601-2.2959-.83532-1.0396-1.370401-2.4634-1.370401-4.4679 0-3.7442.805701-7.6213 3.062911-10.5439 2.22495-2.88081 5.96452-4.96848 12.14014-4.96848 5.8587 0 9.5576 2.0958 11.8169 5.00038 2.2888 2.9423 3.1861 6.8267 3.1861 10.512z" fill="#fbc546" stroke="#000" stroke-width="1.7935"/><path d="m10.9229 21.4789s.0162.0486.0435.1314c.4838 1.4503 1.8403 2.4281 3.3691 2.4281l1.6355-1.7064 1.7772 1.7064c1.5288 0 2.8853-.9778 3.3691-2.4281.0273-.0828.0435-.1314.0435-.1314" stroke="#593604" stroke-linecap="round" stroke-miterlimit="1.5" stroke-width="1.70631"/><g clip-rule="evenodd" fill-rule="evenodd"><path d="m19.1851 18.0224 2.5595.8532c.4462.1493.93-.093 1.0793-.5392.1484-.4471-.093-.9308-.5401-1.0793l-2.5595-.8531c-.4462-.1493-.9299.0929-1.0792.5391-.1484.4471.093.9308.54 1.0793z" fill="#000"/><path d="m12.3599 16.404-2.55948.8531c-.44706.1485-.6885.6322-.54005 1.0793.1493.4462.63304.6885 1.07923.5392l2.5595-.8532c.447-.1485.6885-.6322.54-1.0793-.1493-.4462-.633-.6884-1.0792-.5391z" fill="#000"/><path d="m32.1878 0v11.2951l-3.7477 1.8748c-.4013.2002-.8431.3041-1.2915.3041-1.0799 0-5.7496 0-8.4367 0-1.0202 0-1.999-.4052-2.7208-1.127-.1501-.1501-.2868-.3118-.408-.4822l-9.38083 2.0846c0-2.0653-.43887-4.42329 1.24538-5.96991.26371-.24349.56206-.44849.88255-.60825 2.3474-1.17417 4.6947-2.34737 7.0421-3.52153h9.2816l3.8498-3.84971z" fill="#000"/><path d="m15.8277 5.77454h10.5867l3.5196 3.84971.0096.64195-2.3637 1.1819c-.1338.0664-.2811.101-.4302.101h-6.5118c-.4052 0-1.6111-.0115-2.2685-.359-1.0634-.5611-1.5793-1.56585-1.5793-1.56585v-.00193l-8.66187 1.92678v-.7353c0-.7285.41192-1.39551 1.06445-1.72081 2.11252-1.05675 6.63502-3.31845 6.63502-3.31845z" fill="#fbc546"/><path d="m25.452 5.77452 3.8497-3.84972h.9624v8.1806l-.3205.1608z" fill="#e59a10"/><path d="m16.7901 9.62624v-.00192c0-1.06252.8614-1.92486 1.9249-1.92486h4.8121v1.92486h-4.8121v.00192c0 1.06256.8613 1.92296 1.9229 1.92296h-1.9249c-.5101 0-.999-.2021-1.3599-.563-.3599-.361-.563-.8499-.563-1.35996z" fill="#7e5108"/></g><path d="m7.43823 7.26802c.77028-.77095.76875-2.01951.00029-2.78995l-.00092-.00091-1.92486-1.92486c-.7704-.7704-2.02109-.7704-2.79149 0l-.00092.00092c-.76868.77065-.76999 2.01967.00092 2.79058l1.92394 1.92394c.00018.00018.00036.00036.00055.00055.77056.77194 2.02204.77185 2.79249-.00027zm0 0c-.00021.00021-.00042.00043-.00063.00063l-.71531-.71531.71623.7144c-.0001.00009-.0002.00019-.00029.00028zm-4.28366 4.42868h1.92485c1.08996 0 1.97403-.8841 1.97403-1.97408 0-1.08995-.88407-1.97403-1.97403-1.97403h-1.92485c-1.08996 0-1.97403.88408-1.97403 1.97403 0 1.08998.88407 1.97408 1.97403 1.97408zm4.76296-6.78622c0 1.08995.88408 1.97403 1.97403 1.97403 1.08994 0 1.97404-.88408 1.97404-1.97403v-1.92486c0-1.08995-.8841-1.97403-1.97404-1.97403-1.08995 0-1.97403.88408-1.97403 1.97403z" fill="#fff" stroke="#000" stroke-width="2.02321"/></g></svg>