<svg fill="none" height="32" viewBox="0 0 32 32" width="32" xmlns="http://www.w3.org/2000/svg"><path clip-rule="evenodd" d="m32 8c0-4.418-3.582-8-8-8-4.887 0-11.113 0-16 0-4.418 0-8 3.582-8 8v16c0 4.418 3.582 8 8 8h16c4.418 0 8-3.582 8-8 0-4.887 0-11.113 0-16z" fill="#000" fill-rule="evenodd"/><path clip-rule="evenodd" d="m30 8c0-1.591-.632-3.117-1.757-4.243-1.126-1.125-2.652-1.757-4.243-1.757-4.724 0-11.276 0-16 0-1.591 0-3.117.632-4.243 1.757-1.125 1.126-1.757 2.652-1.757 4.243v16c0 1.591.632 3.117 1.757 4.243 1.126 1.125 2.652 1.757 4.243 1.757h16c1.591 0 3.117-.632 4.243-1.757 1.125-1.126 1.757-2.652 1.757-4.243 0-4.724 0-11.276 0-16z" fill="#fff" fill-rule="evenodd"/><g fill="#333"><path d="m10.039 13.775c.615.516.922 1.26.922 2.232v5.146h-1.86001v-.744c-.32.299-.661.514-1.023.643s-.801.194-1.318.194c-.971 0-1.707-.217-2.208-.651s-.752-1.049-.752-1.845c0-.765.266-1.348.798-1.751s1.3-.605 2.302-.605h2.154v-.48c0-.961-.568-1.442-1.705-1.442-.516 0-.891.093-1.123.279-.233.186-.349.424-.349.713v.047h-1.829v-.047c0-.765.302-1.367.907-1.806.604-.439 1.418-.658 2.441-.658 1.147 0 2.028.258 2.64301.775zm-.98501 4.433v-.496h-1.798c-.547 0-.95.08-1.209.24-.258.16-.387.411-.387.752 0 .32.127.568.38.744.253.175.633.263 1.139.263 1.25 0 1.875-.501 1.875-1.503z"/><path d="m14.275 20.273v.8786h-1.875v-10.7516h1.922v3.549c.258-.331.579-.589.961-.775s.811-.279 1.286-.279c.961 0 1.726.31 2.294.93.569.62.853 1.514.853 2.682v1.007c0 .775-.137 1.444-.411 2.007s-.648.99-1.124 1.279c-.475.289-1.017.434-1.627.434-.961 0-1.721-.32-2.279-.961zm3.085-1.279c.289-.346.434-.865.434-1.557v-.837c0-1.333-.574-2-1.721-2-.547 0-.976.173-1.286.519s-.465.83-.465 1.45v1.023c0 .589.16 1.056.48 1.402.321.346.755.52 1.302.52.548 0 .967-.174 1.256-.52z"/><path d="m21.977 20.194c-.651-.63-.977-1.55-.977-2.759v-.961c0-1.199.326-2.111.977-2.736s1.55-.938 2.697-.938c1.126 0 2.005.264 2.635.791s.945 1.255.945 2.185v.093h-1.875v-.062c0-.403-.147-.72-.442-.953-.294-.232-.7-.349-1.217-.349-.599 0-1.051.161-1.356.481s-.457.827-.457 1.519v.914c0 .703.155 1.212.465 1.527s.775.473 1.395.473c.496 0 .886-.111 1.17-.333s.426-.525.426-.907v-.062h1.876v.062c0 .92-.315 1.643-.946 2.17-.63.527-1.503.79-2.619.79-1.147 0-2.046-.315-2.697-.945z"/></g></svg>