<svg fill="none" height="32" viewBox="0 0 32 32" width="32" xmlns="http://www.w3.org/2000/svg"><path d="m31.1028 20.9925c0 2.0091-.5252 3.4351-1.3444 4.4745-.8271 1.0495-2.0166 1.7841-3.4762 2.2907-2.9616 1.0282-6.7719 1.0379-10.1824 1.0379-3.4093 0-7.27255-.0094-10.28664-1.0393-1.48698-.5081-2.7015-1.2447-3.54601-2.2958-.83532-1.0397-1.370401-2.4634-1.370401-4.468 0-3.748.807291-8.3097 3.108411-11.90376 2.26699-3.54072 6.01294-6.19919 12.09464-6.19919 5.7647 0 9.4692 2.66321 11.7712 6.23125 2.3312 3.6131 3.2318 8.1799 3.2318 11.8717z" fill="#fbc546" stroke="#000" stroke-width="1.7935"/><path d="m13.4824 23.4088h2.8964c1.9213 0 3.7155-.9606 4.782-2.5594" stroke="#593604" stroke-linecap="round" stroke-linejoin="round" stroke-miterlimit="1.5" stroke-width="1.70631"/><g clip-rule="evenodd" fill-rule="evenodd"><path d="m18.6013 14.0242 2.5595-.8532s2.3103 3.0714 2.9818 3.678c-.523.8642-1.4717 1.441-2.5552 1.441h-.0017c-.7918 0-1.5502-.3149-2.1099-.8745-.5597-.5597-.8745-1.3182-.8745-2.1099z" fill="#fff"/><path d="m24.2859 12.3177c.1877.3959.2875.8319.2875 1.2781v1.708c0 .5656-.157 1.0946-.4308 1.5451-.3123.3523-.7679.5733-1.2755.5733-.9427 0-1.7063-.7636-1.7063-1.7063v-1.6918h-2.5595v-.4266c.0009-.2031.0205-.4061.0614-.6058.0478-.2329.1246-.459.2261-.674z" fill="#000"/><path d="m7.51025 14.0242 2.55945-.8532s2.3104 3.0714 2.9818 3.678c-.523.8642-1.4717 1.441-2.5552 1.441h-.0017c-.79173 0-1.55019-.3149-2.10986-.8745-.55967-.5597-.87449-1.3182-.87449-2.1099z" fill="#fff"/><path d="m13.1948 12.3177c.1877.3959.2876.8319.2876 1.2781v1.708c0 .5656-.157 1.0946-.4309 1.5451-.3122.3523-.7678.5733-1.2755.5733-.9427 0-1.7063-.7636-1.7063-1.7063v-1.6918h-2.55945v-.4266c.00086-.2031.02048-.4061.06143-.6058.04778-.2329.12456-.459.22609-.674z" fill="#000"/></g></svg>