<svg fill="none" height="32" viewBox="0 0 32 32" width="32" xmlns="http://www.w3.org/2000/svg"><path d="m31.1028 20.9925c0 2.0091-.5252 3.4351-1.3444 4.4745-.8271 1.0495-2.0166 1.7841-3.4762 2.2907-2.9616 1.0282-6.7719 1.0379-10.1824 1.0379-3.4093 0-7.27255-.0094-10.28664-1.0393-1.48698-.5081-2.7015-1.2447-3.54601-2.2958-.83532-1.0397-1.370401-2.4634-1.370401-4.468 0-3.748.807291-8.3097 3.108411-11.90376 2.26699-3.54072 6.01294-6.19919 12.09464-6.19919 5.7647 0 9.4692 2.66321 11.7712 6.23125 2.3312 3.6131 3.2318 8.1799 3.2318 11.8717z" fill="#fbc546" stroke="#000" stroke-width="1.7935"/><g clip-rule="evenodd" fill-rule="evenodd"><path d="m10.8489 22.2122c-1.5997-1.2303-2.75061-3.0134-3.16695-5.0618h16.72015c-.4163 2.0484-1.5672 3.8315-3.1669 5.0618-.9487-1.0281-9.4376-1.0281-10.3863 0z" fill="#722245"/><path d="m10.8497 22.2121c.9487-1.028 2.3018-1.6491 3.7641-1.6491h2.8581c1.4623 0 2.8154.6211 3.7641 1.6491-1.4384 1.1057-3.2394 1.7635-5.1932 1.7635-1.9537 0-3.7547-.6578-5.1931-1.7635z" fill="#ca3b8f"/><path d="m10.498 16.2972c.7917 0 1.5502-.3148 2.1099-.8745.5596-.5597.8745-1.3181.8745-2.1099 0-.5605 0-1.1475 0-1.708 0-1.64913-1.3369-2.98603-2.9861-2.98603h-.0017c-.79173 0-1.55019.31482-2.10986.87449-.55967.55964-.87449 1.31814-.87449 2.10984v1.708c0 1.6492 1.3369 2.9861 2.98605 2.9861z" fill="#fff"/><path d="m9.21661 11.1782c0-.4521.18002-.8864.49995-1.20633.31994-.31993.75424-.49995 1.20634-.49995.4522 0 .8865.18002 1.2064.49995s.4999.75423.4999 1.20633v2.545c0 .453-.18.8864-.4999 1.2072-.3199.32-.7542.4991-1.2064.4991-.4521 0-.8864-.1791-1.20634-.4991-.31993-.3208-.49995-.7542-.49995-1.2072 0-.7977 0-1.7464 0-2.545z" fill="#000"/><path d="m21.5857 16.2972c-.7918 0-1.5502-.3148-2.1099-.8745s-.8745-1.3181-.8745-2.1099c0-.5605 0-1.1475 0-1.708 0-1.64913 1.3369-2.98603 2.9861-2.98603h.0017c.7917 0 1.5502.31482 2.1098.87449.5597.55964.8745 1.31814.8745 2.10984v1.708c0 1.6492-1.3369 2.9861-2.986 2.9861z" fill="#fff"/><path d="m22.8671 11.1782c0-.4521-.18-.8864-.5-1.20633-.3199-.31993-.7541-.49995-1.2063-.49995s-.8864.18002-1.2064.49995c-.3199.31993-.4999.75423-.4999 1.20633v2.545c0 .453.18.8864.4999 1.2072.32.32.7542.4991 1.2064.4991s.8864-.1791 1.2063-.4991c.32-.3208.5-.7542.5-1.2072 0-.7977 0-1.7464 0-2.545z" fill="#000"/></g></svg>