<svg fill="none" height="32" viewBox="0 0 32 32" width="32" xmlns="http://www.w3.org/2000/svg"><path d="m31.0361 20.8339c0 8.1661-8.5998 8.1661-14.9242 8.1661-6.32434 0-15.1119 0-15.1119-8.1661 0-7.2274 3.09745-17.8339 15.1119-17.8339 11.4513 0 14.9242 10.6802 14.9242 17.8339z" fill="#fbc546"/><path d="m10.8108 21.1981s.3285.3285.7499.7499c1.1586 1.1586 2.7301 1.8096 4.369 1.8096s3.2105-.651 4.3691-1.8096c.4214-.4214.7499-.7499.7499-.7499" stroke="#593604" stroke-linecap="round" stroke-miterlimit="1.5" stroke-width="1.70631"/><g clip-rule="evenodd" fill-rule="evenodd"><path d="m16.5807 15.8771c-.36-.3601-.9418-.3601-1.3019 0l-2.0117 2.0117c-.4803.4803-1.1313.7499-1.8104.7499h-3.20533c-.9052 0-1.77286-.3591-2.41273-.9999-.64072-.6398-.9999-1.5075-.9999-2.4127v-1.7063h-2.2481v-2.5595h26.70316v2.5595h-2.273v1.7063c0 .9052-.3592 1.7729-.9999 2.4127-.6398.6408-1.5075.9999-2.4127.9999h-3.2053c-.1587-.0008-.3157-.0145-.471-.0435-.3079-.058-.604-.1723-.8702-.3361-.1706-.1041-.3276-.2295-.4692-.3703z" fill="#262626"/><path d="m13.3699 12.24c.3396 0 .6647.1348.9052.3745.2398.2406.3746.5657.3746.9052v.6459c0 .3395-.1348.6654-.3746.9052-.5682.5682-1.3454 1.3454-1.9136 1.9136-.2397.2397-.5656.3745-.9052.3745h-3.2053c-.24656-.0059-.4863-.0418-.71921-.1245-.19622-.0708-.38221-.1698-.54943-.2944-1.1074-.819-.8651-2.2003-.86425-3.4203.00085-.7098.58271-1.2626 1.27974-1.2797zm11.0911 0c.3395 0 .6646.1348.9052.3745.2397.2406.3745.5657.3745.9052v1.7063c0 .5657-.2244 1.1083-.6245 1.5084-.4001.4002-.9427.6245-1.5084.6245h-3.2053c-.3395 0-.6654-.1348-.9052-.3745-.5682-.5682-1.3454-1.3454-1.9136-1.9136-.2397-.2398-.3745-.5657-.3745-.9052 0-.2014 0-.4206 0-.6459 0-.3395.1348-.6646.3745-.9052.2406-.2397.5656-.3745.9052-.3745z" fill="#0c0c0c"/><path d="m11.2372 12.24s3.2966.709 3.3571.9086c.0367.1194.0555.244.0555.3711v.6459c0 .3395-.1348.6654-.3745.9052-.5682.5682-1.3455 1.3454-1.9137 1.9136-.2397.2397-.5656.3745-.9052.3745h-1.0724s-3.5696-.5528-3.64126-.6245c-.83098-.8327-.62537-2.0919-.62452-3.2147.00086-.7098.58271-1.2626 1.27974-1.2797zm11.091 0s3.2966.709 3.3572.9086c.0367.1194.0554.244.0554.3711v1.7063c0 .5657-.2243 1.1083-.6245 1.5084-.4001.4002-.9427.6245-1.5084.6245h-2.1328s-2.5979-.9947-2.9341-1.3317c-.3369-.3362-.6731-.6723-.9572-.9564-.2397-.2398-.3745-.5657-.3745-.9052 0-.2014 0-.4206 0-.6459 0-.3395.1348-.6646.3745-.9052.2406-.2397.5656-.3745.9052-.3745z" fill="#0c0c0c"/><path d="m13.369 12.24c.3395 0 .6646.1348.9052.3745.1501.1502.2585.3345.319.5341l-4.2103 4.2103h-2.13288c-.19025-.0051-.38051-.0273-.56564-.0768-.35406-.0955-.67741-.2875-.93848-.5434l-.00426-.0043 4.49446-4.4944zm11.091 0c.3396 0 .6646.1348.9052.3745.1502.1502.2585.3345.3191.5341l-4.2103 4.2103h-1.0725c-.2414-.0017-.4794-.0691-.6842-.1979-.0802-.0503-.1536-.1101-.221-.1766l-.9563-.9572 3.7871-3.7872z" fill="#5f5f5f"/><path d="m29.0541 24.912c.6742-.8555 1.1519-2.0762 1.1519-3.9195 0-3.5729-.8762-7.9566-3.0885-11.38553-2.1542-3.33882-5.5881-5.82067-11.0177-5.82067-5.7635 0-9.23041 2.49199-11.33943 5.78597-2.17727 3.40063-2.96687 7.77413-2.96687 11.42023 0 1.8341.48504 3.0504 1.17271 3.9063.70605.8788 1.7543 1.5365 3.1369 2.0089 2.84545.9723 6.54709.9912 9.99669.9912 3.4521 0 7.0977-.0196 9.8883-.9883 1.3529-.4696 2.376-1.1232 3.066-1.9986zm-12.9543 4.7804c6.7377 0 15.8997 0 15.8997-8.6999 0-7.6214-3.6999-18.9997-15.8997-18.9997-12.79988 0-16.0998 11.2998-16.0998 18.9997 0 8.6999 9.36199 8.6999 16.0998 8.6999z" fill="#000"/></g></svg>