<svg fill="none" height="32" viewBox="0 0 32 32" width="32" xmlns="http://www.w3.org/2000/svg" xmlns:xlink="http://www.w3.org/1999/xlink"><clipPath id="a"><path d="m0 0h32v32h-32z"/></clipPath><g clip-path="url(#a)"><path d="m31.9995 21.1917c0 8.6999-9.162 8.6999-15.8997 8.6999-6.73781 0-16.09979997 0-16.0998-8.6999-.00000002-7.6999 3.29992-18.99968 16.0998-18.99968 12.1998 0 15.8997 11.37828 15.8997 18.99968z" fill="#000"/><path clip-rule="evenodd" d="m3.39147 7.67823c-.13731-.32759-.20302-.65812-.20302-.9808 0-.97687.6022-2.03417 1.98709-2.84627 2.02043-1.1848 6.07896-2.0577 10.76716-2.0577 4.6872 0 8.7458.8729 10.7662 2.0577 1.3849.8121 1.9871 1.8694 1.9871 2.84627 0 .32268-.0657.65321-.203.9808h-4.8726c.3089-.09808.5973-.20303.8631-.31288.4168-.17262.7689-.35603 1.0376-.55807.0403-.02942.0844-.06964.1246-.10985-.0402-.04021-.0843-.08042-.1246-.10985-.2687-.20204-.6208-.38545-1.0376-.55807-1.9263-.79935-5.0374-1.29367-8.5408-1.29367s-6.61546.49432-8.54076 1.29367c-.41782.17262-.76992.35603-1.03866.55807-.04021.02943-.08435.06964-.12456.10985.04021.04021.08435.08043.12456.10985.26874.20204.62084.38545 1.03866.55807.2658.10985.55415.2148.86212.31288z" fill="#1bb0e6" fill-rule="evenodd"/><path d="m30.0865 20.6662c0 7.1331-8.0437 7.638-13.9591 7.638s-14.13464 0-14.13463-7.638c0-6.76 2.89714-16.6806 14.13463-16.6806 10.7107 0 13.9591 9.9895 13.9591 16.6806z" fill="#fbc546"/><path clip-rule="evenodd" d="m26.4895 9.06713c-.1993-.79711.7971.99637 1.3949 2.09417-.2223.1515-.4751.2971-.7607.4344-2.1005 1.011-6.3199 1.7559-11.1929 1.7559-4.874 0-9.09341-.7449-11.19393-1.7559-.28754-.139-.44282-.2838-.66613-.4362.59783-1.29527 1.59422-2.69018 1.39494-2.09236l10.46512 2.09076z" fill="#e59a10" fill-rule="evenodd"/><path d="m9.90469 19.5249s.21071.2815.51191.6825c1.2891 1.7183 3.3119 2.7301 5.4602 2.7301 2.1482 0 4.1711-1.0118 5.4602-2.7301.3012-.401.5119-.6825.5119-.6825" stroke="#593604" stroke-linecap="round" stroke-miterlimit="1.5" stroke-width="1.70631"/><g clip-rule="evenodd" fill-rule="evenodd"><path d="m8.02137 16.2914c.16039.1595.37709.2491.60403.2491.22609 0 .44279-.0896.60319-.2491.00085-.0017.0017-.0026.0017-.0026.40525-.4052.95551-.633 1.52891-.633.5733 0 1.1236.2278 1.5288.633 0 0 .0009.0009.0026.0026.3327.3327.8727.3327 1.2055 0l.0008-.0009c.3328-.3327.3328-.8728 0-1.2055-.0017-.0017-.0025-.0025-.0025-.0025-.7252-.7252-1.7098-1.133-2.7352-1.133-1.02554 0-2.01009.4078-2.73527 1.133 0 0-.00086.0008-.00256.0025-.33273.3327-.33273.8728 0 1.2055z" fill="#000"/><path d="m23.7348 16.2914c-.1604.1595-.3771.2491-.604.2491-.2261 0-.4428-.0896-.6032-.2491-.0009-.0017-.0017-.0026-.0017-.0026-.4053-.4052-.9555-.633-1.5289-.633-.5733 0-1.1236.2278-1.5288.633 0 0-.0009.0009-.0026.0026-.3327.3327-.8728.3327-1.2055 0l-.0008-.0009c-.3328-.3327-.3328-.8728 0-1.2055.0017-.0017.0025-.0025.0025-.0025.7252-.7252 1.7097-1.133 2.7352-1.133s2.0101.4078 2.7353 1.133c0 0 .0008.0008.0025.0025.3327.3327.3327.8728 0 1.2055z" fill="#000"/><path d="m28.696 6.69751c0 .97687-.6022 2.03417-1.9871 2.84627-2.0204 1.18482-6.079 2.05772-10.7662 2.05772-4.6882 0-8.74673-.8729-10.76716-2.05772-1.38489-.8121-1.98709-1.8694-1.98709-2.84627h3.05027c.04021.04021.08435.08042.12456.10985.26874.20204.62084.38545 1.03866.55807 1.9253.79935 5.03736 1.29367 8.54076 1.29367s6.6145-.49432 8.5408-1.29367c.4168-.17262.7689-.35603 1.0376-.55807.0403-.02943.0844-.06964.1246-.10985z" fill="#1bb0e6"/></g></g></svg>