<svg fill="none" height="32" viewBox="0 0 32 32" width="32" xmlns="http://www.w3.org/2000/svg"><path d="m31.1028 20.9925c0 2.0091-.5252 3.4351-1.3444 4.4745-.8271 1.0495-2.0166 1.7841-3.4762 2.2907-2.9616 1.0282-6.7719 1.0379-10.1824 1.0379-3.4093 0-7.27255-.0094-10.28664-1.0393-1.48698-.5081-2.7015-1.2447-3.54601-2.2958-.83532-1.0397-1.370401-2.4634-1.370401-4.468 0-3.748.807291-8.3097 3.108411-11.90376 2.26699-3.54072 6.01294-6.19919 12.09464-6.19919 5.7647 0 9.4692 2.66321 11.7712 6.23125 2.3312 3.6131 3.2318 8.1799 3.2318 11.8717z" fill="#fbc546" stroke="#000" stroke-width="1.7935"/><g clip-rule="evenodd" fill-rule="evenodd"><path d="m22.9978 5.50307c.7502.45045 1.4591.97698 2.1143 1.57709 1.9474 1.77978 3.3023 4.08834 3.9186 6.61504-.4095.12-.8344.1908-1.2667.2101-1.4237.0637-2.8149-.4405-3.8665-1.4021 0 0-.0001-.001-.0011-.001-1.7037-1.5588-2.22-4.033-1.2802-6.14219z" fill="#e59a10"/><path d="m27.2926 1.19568s-1.7847 3.56948-2.9885 5.9769c-.6419 1.28396-.39 2.83402.6248 3.84882 0 0-.0001 0 .001.001.6267.6268 1.4759.9782 2.3627.9782s1.736-.3514 2.3627-.9782c.001-.001.001-.001.001-.001 1.0148-1.0148 1.2667-2.56486.6247-3.84882-1.2037-2.40742-2.9884-5.9769-2.9884-5.9769z" fill="#2ac2f9"/><path d="m10.7515 20.9315c-1.71311-1.4026-2.84269-3.4919-2.9647-5.8467h16.1878c-.122 2.3548-1.2516 4.4441-2.9647 5.8467-.9445-.9871-9.3139-.9871-10.2584 0z" fill="#722245"/><path d="m10.7512 20.9315c.9444-.9871 2.2702-1.5809 3.7001-1.5809h2.8581c1.4299 0 2.7557.5938 3.7001 1.5809-1.3974 1.1449-3.184 1.8317-5.1292 1.8317s-3.7317-.6868-5.1291-1.8317z" fill="#ca3b8f"/><path d="m8.02353 12.7061c.15954.1595.37624.2499.60233.2499.22609-.0008.44279-.0904.60233-.2499.00256-.0026.00427-.0043.00427-.0043.40525-.4053.95554-.6331 1.52884-.6331s1.1236.2278 1.5289.6331c0 0 .0017.0017.0042.0043.1596.1595.3763.2491.6024.2499.2261 0 .4428-.0904.6023-.2499.0008 0 .0008-.0009.0008-.0009.1604-.1595.25-.3771.25-.6032s-.0896-.4428-.25-.6032c-.0025-.0025-.0034-.0034-.0034-.0034-.7251-.7252-1.7097-1.133-2.7352-1.133-1.02548 0-2.01002.4078-2.73521 1.133 0 0-.0017.0017-.00426.0043-.15954.1595-.24998.3762-.24998.6023s.09044.4428.24998.6023z" fill="#000"/><path d="m23.7361 12.7061c-.1595.1595-.3762.2499-.6023.2499-.2261-.0008-.4428-.0904-.6023-.2499-.0026-.0026-.0043-.0043-.0043-.0043-.4052-.4053-.9555-.6331-1.5289-.6331-.5733 0-1.1236.2278-1.5288.6331 0 0-.0017.0017-.0043.0043-.1595.1595-.3762.2491-.6023.2499-.2261 0-.4428-.0904-.6023-.2499-.0009 0-.0009-.0009-.0009-.0009-.1604-.1595-.25-.3771-.25-.6032s.0896-.4428.25-.6032c.0026-.0025.0034-.0034.0034-.0034.7252-.7252 1.7098-1.133 2.7352-1.133 1.0255 0 2.0101.4078 2.7353 1.133 0 0 .0017.0017.0042.0043.1596.1595.25.3762.25.6023s-.0904.4428-.25.6023c-.0008.0009-.0008.0009-.0017.0018z" fill="#000"/></g></svg>