<svg fill="none" height="32" viewBox="0 0 32 32" width="32" xmlns="http://www.w3.org/2000/svg" xmlns:xlink="http://www.w3.org/1999/xlink"><clipPath id="a"><path d="m0 0h32v32h-32z"/></clipPath><g clip-path="url(#a)"><path d="m31.1028 20.9925c0 2.0091-.5252 3.4351-1.3444 4.4745-.8271 1.0495-2.0166 1.7841-3.4762 2.2907-2.9616 1.0282-6.7719 1.0379-10.1824 1.0379-3.4093 0-7.27255-.0094-10.28664-1.0393-1.48698-.5081-2.7015-1.2447-3.54601-2.2958-.83532-1.0397-1.370401-2.4634-1.370401-4.468 0-3.748.807291-8.3097 3.108411-11.90376 2.26699-3.54072 6.01294-6.19919 12.09464-6.19919 5.7647 0 9.4692 2.66321 11.7712 6.23125 2.3312 3.6131 3.2318 8.1799 3.2318 11.8717z" fill="#fbc546" stroke="#000" stroke-width="1.7935"/><g clip-rule="evenodd" fill-rule="evenodd"><path d="m21.034 15.0427 2.103.7013c.447.1484.6885.6322.54 1.0792-.1493.4462-.633.6885-1.0792.5392l-4.7222-1.5741 4.3886-4.3886c.3327-.3327.8736-.3327 1.2064 0 .3327.3327.3327.8736 0 1.2064zm-9.9837 0-2.43661-2.4366c-.33274-.3328-.33274-.8737 0-1.2064.33273-.3327.87363-.3327 1.20636 0l4.38865 4.3886-4.72223 1.5741c-.44621.1493-.92995-.093-1.07925-.5392-.14845-.447.093-.9308.54005-1.0792z" fill="#000"/><path d="m10.7401 23.5866c-1.62436-1.0664-2.89386-2.5816-3.36992-4.3315h17.34472c-.4761 1.7499-1.7456 3.2651-3.37 4.3315-.9521-1.1014-9.6526-1.1014-10.6048 0z" fill="#722245"/><path d="m10.743 23.5866c.9521-1.1014 2.3538-1.772 3.8733-1.772h2.8581c1.5195 0 2.9212.6706 3.8733 1.772-1.5681 1.0297-3.4672 1.6406-5.3023 1.6406-1.8352 0-3.7343-.6109-5.3024-1.6406z" fill="#ca3b8f"/><path d="m23.5048 16.9386s2.3033 2.9316 3.9075 4.9738c.8786 1.1183.8371 2.7049-.0996 3.7758-.0098.0108-.0197.0217-.0295.0325-1.0186 1.1646-2.7628 1.347-4.0013.4191-.0591-.0454-.1193-.0897-.1774-.1341-.9525-.7139-1.3844-1.9288-1.0955-3.0835.5837-2.3351 1.4958-5.9836 1.4958-5.9836z" fill="#e59a10"/><path d="m8.52524 16.9386s-2.30345 2.9316-3.90778 4.9737c-.87859 1.1182-.83717 2.7048.09959 3.7757.00986.0108.01972.0217.02958.0325 1.01861 1.1645 2.76296 1.347 4.00146.4191.05916-.0454.11931-.0898.17749-.1341.95254-.7139 1.38442-1.9288 1.09552-3.0835-.58375-2.335-1.49586-5.9834-1.49586-5.9834z" fill="#e59a10"/><path d="m23.5048 15.7429s2.3033 2.9317 3.9075 4.9739c.8786 1.1182.8371 2.7048-.0996 3.7757-.0098.0108-.0197.0217-.0295.0325-1.0186 1.1646-2.7628 1.347-4.0013.4191-.0591-.0453-.1193-.0897-.1774-.1341-.9525-.7139-1.3844-1.9288-1.0955-3.0835.5837-2.335 1.4958-5.9836 1.4958-5.9836z" fill="#1bb0e6"/><path d="m8.52554 15.743s-2.30345 2.9316-3.90778 4.9738c-.87858 1.1182-.83717 2.7047.0996 3.7756.00986.0109.01972.0217.02958.0325 1.01861 1.1646 2.76296 1.347 4.00145.4191.05917-.0453.11932-.0897.1775-.1341.95254-.7139 1.38441-1.9287 1.09551-3.0834-.58375-2.335-1.49586-5.9835-1.49586-5.9835z" fill="#1bb0e6"/></g></g></svg>