<svg fill="none" height="32" viewBox="0 0 32 32" width="32" xmlns="http://www.w3.org/2000/svg" xmlns:xlink="http://www.w3.org/1999/xlink"><clipPath id="a"><path d="m0 0h32v32h-32z"/></clipPath><g clip-path="url(#a)"><path d="m31.1028 20.9925c0 2.0091-.5252 3.4351-1.3444 4.4745-.8271 1.0495-2.0166 1.7841-3.4762 2.2907-2.9616 1.0282-6.7719 1.0379-10.1824 1.0379-3.4093 0-7.27255-.0094-10.28664-1.0393-1.48698-.5081-2.7015-1.2447-3.54601-2.2958-.83532-1.0397-1.370401-2.4634-1.370401-4.468 0-3.748.807291-8.3097 3.108411-11.90376 2.26699-3.54072 6.01294-6.19919 12.09464-6.19919 5.7647 0 9.4692 2.66321 11.7712 6.23125 2.3312 3.6131 3.2318 8.1799 3.2318 11.8717z" fill="#fbc546" stroke="#000" stroke-width="1.7935"/><path d="m10.8139 19.9775s.4804.6399 1.0247 1.3659c.9658 1.2883 2.4827 2.0468 4.0934 2.0468h.0009c1.6116 0 3.1285-.7585 4.0951-2.0476.5443-.7252 1.0238-1.3651 1.0238-1.3651" stroke="#593604" stroke-linecap="round" stroke-miterlimit="1.5" stroke-width="1.70631"/><g fill="#000"><path d="m24.6411 13.4025c.1604.1596.2499.3771.2499.6032s-.0895.4437-.2499.6032c-1.0639 1.0639-3.1627 3.1627-3.1627 3.1627s-2.0988-2.0988-3.1626-3.1627c-.1604-.1595-.25-.3771-.25-.6032s.0896-.4436.25-.6032c.3327-.3336.8736-.3336 1.2063 0 .7568.7568 1.9563 1.9563 1.9563 1.9563s1.1995-1.1995 1.9563-1.9563c.3327-.3336.8736-.3336 1.2064 0z"/><path d="m13.5509 13.4036c.3327.3327.3327.8719 0 1.2047-1.0639 1.0638-3.1635 3.1635-3.1635 3.1635s-2.09881-2.0988-3.16269-3.1627c-.1604-.1595-.24998-.3771-.24998-.6032s.08958-.4436.24998-.6032c.33273-.3335.87363-.3335 1.20636 0 .75675.7568 1.95633 1.9563 1.95633 1.9563s1.2004-1.2004 1.9571-1.9571c.3327-.3327.8719-.3327 1.2047 0 .0008.0008.0008.0008.0017.0017z"/></g></g></svg>