<svg fill="none" height="32" viewBox="0 0 32 32" width="32" xmlns="http://www.w3.org/2000/svg" xmlns:xlink="http://www.w3.org/1999/xlink"><clipPath id="a"><path d="m0 0h32v32h-32z"/></clipPath><g clip-path="url(#a)"><path d="m31.1028 20.9925c0 2.0091-.5252 3.4351-1.3444 4.4745-.8271 1.0495-2.0166 1.7841-3.4762 2.2907-2.9616 1.0282-6.7719 1.0379-10.1824 1.0379-3.4093 0-7.27255-.0094-10.28664-1.0393-1.48698-.5081-2.7015-1.2447-3.54601-2.2958-.83532-1.0397-1.370401-2.4634-1.370401-4.468 0-3.748.807291-8.3097 3.108411-11.90376 2.26699-3.54072 6.01294-6.19919 12.09464-6.19919 5.7647 0 9.4692 2.66321 11.7712 6.23125 2.3312 3.6131 3.2318 8.1799 3.2318 11.8717z" fill="#fbc546" stroke="#000" stroke-width="1.7935"/><g clip-rule="evenodd" fill-rule="evenodd"><path d="m10.5562 22.901c-1.60049-1.6995-2.43488-4.096-2.87425-6.2614h16.72015c-.4394 2.1654-1.2737 4.5619-2.8743 6.2614-.9504-1.2337-10.0212-1.2337-10.9716 0z" fill="#722245"/><path d="m10.5563 22.9011c.9505-1.2337 2.4367-1.9956 4.0568-1.9956h2.8581c1.6201 0 3.1063.7619 4.0567 1.9956-1.2771 1.3565-3.0432 2.2702-5.4858 2.2702s-4.2086-.9137-5.4858-2.2702z" fill="#ca3b8f"/><path d="m10.498 15.7866c.7917 0 1.5502-.3148 2.1099-.8745.5596-.5597.8745-1.3181.8745-2.1099 0-.8301 0-1.731 0-2.5611 0-1.6492-1.3369-2.9861-2.9861-2.9861-.0008 0-.0008 0-.0017 0-.79173 0-1.55019.31482-2.10986.87449s-.87449 1.31813-.87449 2.10981v2.5612c0 1.6492 1.3369 2.9861 2.98605 2.9861z" fill="#fff"/><path d="m9.21661 9.81447c0-.94274.76358-1.70632 1.70629-1.70632.9428 0 1.7063.76358 1.7063 1.70632v3.39813c0 .9427-.7635 1.7063-1.7063 1.7063-.94271 0-1.70629-.7636-1.70629-1.7063 0-1.0383 0-2.3598 0-3.39813z" fill="#000"/><path d="m21.5857 15.7866c-.7918 0-1.5502-.3148-2.1099-.8745s-.8745-1.3181-.8745-2.1099c0-.8301 0-1.731 0-2.5611 0-1.6492 1.3369-2.9861 2.9861-2.9861h.0017c.7917 0 1.5502.31482 2.1098.87449.5597.55967.8745 1.31813.8745 2.10981v2.5612c0 1.6492-1.3369 2.9861-2.986 2.9861-.0009 0-.0009 0-.0017 0z" fill="#fff"/><path d="m22.8671 9.81447c0-.94274-.7636-1.70632-1.7063-1.70632-.9428 0-1.7063.76358-1.7063 1.70632v3.39813c0 .9427.7635 1.7063 1.7063 1.7063.9427 0 1.7063-.7636 1.7063-1.7063 0-1.0383 0-2.3598 0-3.39813z" fill="#000"/></g></g></svg>