<svg fill="none" height="32" viewBox="0 0 32 32" width="32" xmlns="http://www.w3.org/2000/svg"><path d="m31.1028 20.9925c0 2.0091-.5252 3.4351-1.3444 4.4745-.8271 1.0495-2.0166 1.7841-3.4762 2.2907-2.9616 1.0282-6.7719 1.0379-10.1824 1.0379-3.4093 0-7.27255-.0094-10.28664-1.0393-1.48698-.5081-2.7015-1.2447-3.54601-2.2958-.83532-1.0397-1.370401-2.4634-1.370401-4.468 0-3.748.807291-8.3097 3.108411-11.90376 2.26699-3.54072 6.01294-6.19919 12.09464-6.19919 5.7647 0 9.4692 2.66321 11.7712 6.23125 2.3312 3.6131 3.2318 8.1799 3.2318 11.8717z" fill="#fbc546" stroke="#000" stroke-width="1.7935"/><g clip-rule="evenodd" fill-rule="evenodd"><path d="m24.2981 18.9314c-.79 3.179-4.2351 5.5747-8.3601 5.5747s-7.57003-2.3957-8.36006-5.5747z" stroke="#7e5108" stroke-miterlimit="3" stroke-width="1.70632"/><path d="m24.2106 19.2471c-.3694 1.1978-1.1193 2.2724-2.1388 3.1329-.4667-.4062-11.7301-.4404-12.20957-.0487-.01963.016-.0384.032-.05717.0487-1.01952-.8612-1.76944-1.9358-2.13886-3.1329.95639 1.1114 15.588 1.1114 16.5444 0z" fill="#7e5108"/><path d="m9.80468 22.3793c.01877-.0167.03754-.0327.05716-.0487.47946-.3917 1.13046-.4126 1.80866-.4126h8.5333c.7363 0 1.4009.0551 1.8676.4613-1.5519 1.3115-3.7266 2.1268-6.1334 2.1268-2.4067 0-4.5823-.816-6.13332-2.1268zm-2.13886-3.1329c-.03242-.1039-.06143-.2091-.08788-.315h16.72016c-.0264.1059-.0554.2111-.0879.315-.9563 1.1114-2.514 2.0763-4.1828 2.0763-2.3752 0-5.7963 0-8.1715 0-1.6688 0-3.23369-.9649-4.19008-2.0763z" fill="#fff"/><path d="m7.22577 14.8772c.15954.1595.37625.2491.60233.2491.22609 0 .44279-.0896.60233-.2491.00341-.0035.00597-.0052.00597-.0052.51872-.5187 1.22173-.8105 1.9554-.8105.7338 0 1.4368.2918 1.9555.8105 0 0 .0025.0017.0059.0052.1596.1595.3763.2491.6024.2491s.4428-.0896.6023-.2491c.0009 0 .0009-.0009.0009-.0009.3335-.3327.3335-.8736 0-1.2064-.0026-.0034-.0043-.0051-.0043-.0051-.8387-.8386-1.9768-1.3096-3.1627-1.3096-1.18585 0-2.32396.471-3.16261 1.3096 0 0-.00171.0017-.00427.0051-.33358.3328-.33358.8737 0 1.2064 0 0 0 .0009.00085.0009z" fill="#000"/><path d="m24.649 14.8772c-.1596.1595-.3763.2491-.6024.2491s-.4428-.0896-.6023-.2491c-.0034-.0035-.006-.0052-.006-.0052-.5187-.5187-1.2217-.8105-1.9554-.8105s-1.4367.2918-1.9555.8105c0 0-.0025.0017-.0059.0052-.1596.1595-.3763.2491-.6024.2491-.226 0-.4427-.0896-.6023-.2491-.0008 0-.0008-.0009-.0008-.0009-.3336-.3327-.3336-.8736 0-1.2064.0025-.0034.0042-.0051.0042-.0051.8387-.8386 1.9768-1.3096 3.1627-1.3096s2.324.471 3.1626 1.3096c0 0 .0017.0017.0043.0051.3336.3328.3336.8737 0 1.2064 0 0 0 .0009-.0008.0009z" fill="#000"/></g></svg>