<svg fill="none" height="32" viewBox="0 0 32 32" width="32" xmlns="http://www.w3.org/2000/svg" xmlns:xlink="http://www.w3.org/1999/xlink"><clipPath id="a"><path d="m0 0h32v32h-32z"/></clipPath><g clip-path="url(#a)"><path d="m31.1028 20.9925c0 2.0091-.5252 3.4351-1.3444 4.4745-.8271 1.0495-2.0166 1.7841-3.4762 2.2907-2.9616 1.0282-6.7719 1.0379-10.1824 1.0379-3.4093 0-7.27255-.0094-10.28664-1.0393-1.48698-.5081-2.7015-1.2447-3.54601-2.2958-.83532-1.0397-1.370401-2.4634-1.370401-4.468 0-3.748.807291-8.3097 3.108411-11.90376 2.26699-3.54072 6.01294-6.19919 12.09464-6.19919 5.7647 0 9.4692 2.66321 11.7712 6.23125 2.3312 3.6131 3.2318 8.1799 3.2318 11.8717z" fill="#fbc546" stroke="#000" stroke-width="1.7935"/><g clip-rule="evenodd" fill-rule="evenodd"><path d="m10.544 23.9946c-1.62443-1.0665-2.89393-2.5817-3.36999-4.3315h17.34469c-.4761 1.7498-1.7456 3.265-3.37 4.3315-.9521-1.1015-9.6526-1.1015-10.6047 0z" fill="#722245"/><path d="m10.5434 23.9945c.9521-1.1014 2.3539-1.772 3.8733-1.772h2.8581c1.5195 0 2.9212.6706 3.8733 1.772-1.5681 1.0298-3.4672 1.6407-5.3023 1.6407-1.8352 0-3.7343-.6109-5.3024-1.6407z" fill="#ca3b8f"/><path d="m10.8539 15.4506-2.43663-2.4366c-.33273-.3327-.33273-.8736 0-1.2063.33274-.3328.87364-.3328 1.20637 0l4.38866 4.3886-4.72225 1.5741c-.4462.1493-.92994-.093-1.07924-.5392-.14845-.4471.09299-.9308.54005-1.0793zm9.9836 0 2.1031.7013c.447.1485.6885.6322.54 1.0793-.1493.4462-.633.6885-1.0792.5392l-4.7222-1.5741 4.3886-4.3886c.3327-.3328.8736-.3328 1.2064 0 .3327.3327.3327.8736 0 1.2063z" fill="#000"/></g></g></svg>