<svg fill="none" height="32" viewBox="0 0 32 32" width="32" xmlns="http://www.w3.org/2000/svg" xmlns:xlink="http://www.w3.org/1999/xlink"><clipPath id="a"><path d="m0 0h32v32h-32z"/></clipPath><g clip-path="url(#a)"><path d="m31.1028 20.9925c0 2.0091-.5252 3.4351-1.3444 4.4745-.8271 1.0495-2.0166 1.7841-3.4762 2.2907-2.9616 1.0282-6.7719 1.0379-10.1824 1.0379-3.4093 0-7.27255-.0094-10.28664-1.0393-1.48698-.5081-2.7015-1.2447-3.54601-2.2958-.83532-1.0397-1.370401-2.4634-1.370401-4.468 0-3.748.807291-8.3097 3.108411-11.90376 2.26699-3.54072 6.01294-6.19919 12.09464-6.19919 5.7647 0 9.4692 2.66321 11.7712 6.23125 2.3312 3.6131 3.2318 8.1799 3.2318 11.8717z" fill="#fbc546" stroke="#000" stroke-width="1.7935"/><path d="m10.3313 19.9464s.2107.2816.5119.6825c1.2891 1.7183 3.312 2.7301 5.4602 2.7301 2.1483 0 4.1711-1.0118 5.4602-2.7301.3012-.4009.5119-.6825.5119-.6825" stroke="#593604" stroke-linecap="round" stroke-miterlimit="1.5" stroke-width="1.70631"/><g clip-rule="evenodd" fill-rule="evenodd"><path d="m10.7596 18.2402c.7917 0 1.5502-.3148 2.1098-.8745.5597-.5597.8745-1.3181.8745-2.1099 0-.5605 0-1.1475 0-1.708 0-1.6491-1.3369-2.986-2.986-2.986h-.0017c-.79177 0-1.55022.3148-2.10989.8745-.55967.5596-.87449 1.3181-.87449 2.1098v1.708c0 1.6492 1.3369 2.9861 2.98608 2.9861z" fill="#fff"/><path d="m9.47815 13.1212c0-.4521.18002-.8864.49995-1.2063.3199-.32.7542-.5 1.2064-.5.4521 0 .8864.18 1.2063.5.32.3199.5.7542.5 1.2063v2.545c0 .453-.18.8864-.5 1.2072-.3199.32-.7542.4991-1.2063.4991-.4522 0-.8865-.1791-1.2064-.4991-.31993-.3208-.49995-.7542-.49995-1.2072 0-.7977 0-1.7464 0-2.545z" fill="#000"/><path d="m22.0979 11.2383c.0759-.0751.1646-.1365.2628-.1791.2414-.105.5255-.0913.7558.0366.0811.0461.1553.105.2185.1741.0639.0708.116.1527.1527.2406.0409.0981.064.2039.0665.3105.0026.1101-.0162.2193-.0554.3225-.0427.1135-.1092.215-.1946.3012l-2.3828 2.3828h2.2062c.471 0 .8532.3823.8532.8532s-.3822.8532-.8532.8532h-4.8348l-.5964-.895z" fill="#000"/></g></g></svg>