<svg fill="none" height="32" viewBox="0 0 32 32" width="32" xmlns="http://www.w3.org/2000/svg"><path d="m31.1028 20.9925c0 2.0091-.5252 3.4351-1.3444 4.4745-.8271 1.0495-2.0166 1.7841-3.4762 2.2907-2.9616 1.0282-6.7719 1.0379-10.1824 1.0379-3.4093 0-7.27255-.0094-10.28664-1.0393-1.48698-.5081-2.7015-1.2447-3.54601-2.2958-.83532-1.0397-1.370401-2.4634-1.370401-4.468 0-3.748.807291-8.3097 3.108411-11.90376 2.26699-3.54072 6.01294-6.19919 12.09464-6.19919 5.7647 0 9.4692 2.66321 11.7712 6.23125 2.3312 3.6131 3.2318 8.1799 3.2318 11.8717z" fill="#fbc546" stroke="#000" stroke-width="1.7935"/><path clip-rule="evenodd" d="m27.1329 18.9999c0-.9427-.7636-1.7063-1.7063-1.7063-1.0426 0-2.3701 0-3.4126 0-.9428 0-1.7064.7636-1.7064 1.7063s.7636 1.7063 1.7064 1.7063h3.4126c.9427 0 1.7063-.7636 1.7063-1.7063z" fill="#ed6b44" fill-rule="evenodd"/><path clip-rule="evenodd" d="m11.7761 18.9999c0-.9427-.7636-1.7063-1.7064-1.7063-1.04251 0-2.37002 0-3.41258 0-.94274 0-1.70631.7636-1.70631 1.7063s.76357 1.7063 1.70631 1.7063h3.41258c.9428 0 1.7064-.7636 1.7064-1.7063z" fill="#ed6b44" fill-rule="evenodd"/><path d="m10.9229 19.853s.4795.6399 1.0238 1.3651c.9666 1.2891 2.4835 2.0476 4.0952 2.0476 1.6116 0 3.1285-.7585 4.0951-2.0476.5443-.7252 1.0238-1.3651 1.0238-1.3651" stroke="#593604" stroke-linecap="round" stroke-miterlimit="1.5" stroke-width="1.70631"/><g clip-rule="evenodd" fill="#000" fill-rule="evenodd"><path d="m7.32785 15.3465c.1604.1596.3771.25.60319.25.22608 0 .44279-.0904.60233-.25.00597-.006.00938-.0085.00938-.0085.51872-.5187 1.22172-.8105 1.95545-.8105.7337 0 1.4367.2918 1.9554.8105 0 0 .0034.0025.0094.0085.3327.3327.8719.3327 1.2055 0 0 0 0 0 0-.0008.3336-.3328.3336-.8728 0-1.2064-.0051-.0051-.0077-.0085-.0077-.0085-.8386-.8387-1.9767-1.3096-3.1626-1.3096s-2.32401.4709-3.16267 1.3096c0 0-.00256.0034-.00853.0093-.15954.1596-.24997.3763-.24997.6024s.09043.4428.24997.6032z"/><path d="m24.7589 15.3465c-.1603.1596-.3771.25-.6031.25-.2261 0-.4428-.0904-.6024-.25-.0059-.006-.0094-.0085-.0094-.0085-.5187-.5187-1.2217-.8105-1.9554-.8105s-1.4367.2918-1.9554.8105c0 0-.0034.0025-.0094.0085-.3327.3327-.8719.3327-1.2055 0 0 0 0 0 0-.0008-.3336-.3328-.3336-.8728 0-1.2064.0051-.0051.0077-.0085.0077-.0085.8386-.8387 1.9767-1.3096 3.1626-1.3096s2.324.4709 3.1627 1.3096c0 0 .0025.0034.0085.0093.1595.1596.25.3763.25.6024s-.0905.4428-.25.6032z"/></g></svg>