<svg fill="none" height="32" viewBox="0 0 32 32" width="32" xmlns="http://www.w3.org/2000/svg"><path d="m31.1028 20.9925c0 2.0091-.5252 3.4351-1.3444 4.4745-.8271 1.0495-2.0166 1.7841-3.4762 2.2907-2.9616 1.0282-6.7719 1.0379-10.1824 1.0379-3.4093 0-7.27255-.0094-10.28664-1.0393-1.48698-.5081-2.7015-1.2447-3.54601-2.2958-.83532-1.0397-1.370401-2.4634-1.370401-4.468 0-3.748.807291-8.3097 3.108411-11.90376 2.26699-3.54072 6.01294-6.19919 12.09464-6.19919 5.7647 0 9.4692 2.66321 11.7712 6.23125 2.3312 3.6131 3.2318 8.1799 3.2318 11.8717z" fill="#fbc546" stroke="#000" stroke-width="1.7935"/><path d="m9.21826 21.7026s.78574.7858 1.60304 1.6031c.4795.4795 1.1305.7491 1.8096.7491s1.3301-.2696 1.8095-.7491c.3618-.3617.7158-.7158.9999-.9999.1596-.1595.3771-.25.6032-.25s.4437.0905.6032.25c.2841.2841.6382.6382.9999.9999.4795.4795 1.1304.7491 1.8095.7491.6792 0 1.3301-.2696 1.8096-.7491.8173-.8173 1.6031-1.6031 1.6031-1.6031" stroke="#593604" stroke-linecap="round" stroke-miterlimit="1.5" stroke-width="1.70631"/><g clip-rule="evenodd" fill="#d92020" fill-rule="evenodd"><path d="m22.4112 19.9969s-2.6951-2.7071-4.6906-4.7111c-1.1629-1.1689-1.1603-3.0578.0051-4.2232.0119-.0119.0239-.0239.0358-.0358.5623-.5622 1.3241-.877 2.1193-.8753.7943.0008 1.5553.319 2.1158.8821.2474.25.4146.4181.4146.4181s.198-.1945.4838-.4761c1.1679-1.14748 3.0406-1.14236 4.2018.0111.0136.0137.0273.0273.0409.041.5648.5596.8822 1.3206.8839 2.1158.0009.7943-.314 1.557-.8762 2.1192-2.0134 2.0135-4.7342 4.7342-4.7342 4.7342z"/><path d="m9.61387 19.9969s-2.69512-2.7071-4.69065-4.7111c-1.16286-1.1689-1.1603-3.0578.00511-4.2232.01195-.0119.02389-.0239.03584-.0358.56223-.5622 1.3241-.877 2.11924-.8753.79429.0008 1.55531.319 2.11583.8821.24742.25.41463.4181.41463.4181s.19794-.1945.48373-.4761c1.168-1.14748 3.0407-1.14236 4.2018.0111.0137.0137.0273.0273.041.041.5648.5596.8821 1.3206.8838 2.1158.0009.7943-.3139 1.557-.8762 2.1192-2.0134 2.0135-4.73413 4.7342-4.73413 4.7342z"/></g></svg>