<svg fill="none" height="32" viewBox="0 0 32 32" width="32" xmlns="http://www.w3.org/2000/svg" xmlns:xlink="http://www.w3.org/1999/xlink"><clipPath id="a"><path d="m0 0h32v32h-32z"/></clipPath><g clip-path="url(#a)"><path d="m31.1028 20.9925c0 2.0091-.5252 3.4351-1.3444 4.4745-.8271 1.0495-2.0166 1.7841-3.4762 2.2907-2.9616 1.0282-6.7719 1.0379-10.1824 1.0379-3.4093 0-7.27255-.0094-10.28664-1.0393-1.48698-.5081-2.7015-1.2447-3.54601-2.2958-.83532-1.0397-1.370401-2.4634-1.370401-4.468 0-3.748.807291-8.3097 3.108411-11.90376 2.26699-3.54072 6.01294-6.19919 12.09464-6.19919 5.7647 0 9.4692 2.66321 11.7712 6.23125 2.3312 3.6131 3.2318 8.1799 3.2318 11.8717z" fill="#a253e2" stroke="#000" stroke-width="1.7935"/><path d="m24.5105 6.5974-.8198.36316.5124.73578 3.313 4.75776.505.7253.625-.625c1.4905-1.4905 2.3277-3.51173 2.3277-5.61916v-3.3482-1.78569l-1.2627 1.26267.523.52302-.523-.52301v.00002l-.0001.00009-.0004.00036-.0014.00144-.0056.00565-.022.02199-.0829.0829-.2911.29111-.8406.84057c-.518.51802-1.116.94904-1.7711 1.27659l-.0002.00012c-.382.19117-.9255.44318-1.3803.6503-.2259.10291-.4274.1936-.5725.25854l-.1708.07632-.046.02044-.0118.00524-.0029.0013-.0007.00031-.0002.00007zm-17.10984.97181.45525-.72027-.77711-.34948-.00001-.00001h-.00001l-.00013-.00006-.00057-.00026-.0024-.00108-.00975-.00439-.03824-.01726-.14332-.065c-.12222-.05558-.29341-.13381-.48904-.22427-.39299-.18173-.87804-.40979-1.26264-.60226l-.00024-.00012c-.65509-.32755-1.25307-.75857-1.77109-1.27659l-.00341-.00341-.00342-.00342-.00342-.00342-.00342-.00342-.00342-.00342-.00342-.00342-.00343-.00343-.00342-.00343-.00343-.00342-.00343-.00343-.00343-.00343-.00344-.00344-.00343-.00343-.00344-.00344-.00343-.00343-.00344-.00344-.00344-.00344-.00344-.00344-.00344-.00344-.00345-.00345-.00344-.00344-.00344-.00345-.00345-.00344-.00345-.00345-.00345-.00345-.00345-.00345-.00345-.00345-.00345-.00345-.00345-.00345-.00345-.00345-.00346-.00346-.00345-.00345-.00345-.00346-.00346-.00345-.00346-.00346-.00345-.00346-.00346-.00345-.00346-.00346-.00346-.00346-.00346-.00346-.00346-.00346-.00346-.00346-.00346-.00346-.00346-.00346-.00346-.00346-.00347-.00347-.00346-.00346-.00346-.00346-.00346-.00346-.00346-.00347-.00347-.00346-.00346-.00346-.00346-.00347-.00347-.00346-.00346-.00346-.00346-.00346-.00347-.00347-.00346-.00346-.00346-.00346-.00347-.00347-.00346-.00346-.00346-.00346-.00346-.00346-.00346-.00347-.00347-.00346-.00346-.00346-.00346-.00346-.00346-.00346-.00346-.00346-.00346-.00346-.00346-.00346-.00346-.00346-.00345-.00345-.00346-.00346-.00346-.00346-.00345-.00345-.00346-.00346-.00345-.00345-.00346-.00346-.00345-.00345-.00345-.00345-.00345-.00345-.00345-.00345-.00345-.00345-.00345-.00345-.00345-.00345-.00344-.00345-.00345-.00344-.00344-.00344-.00345-.00345-.00344-.00344-.00344-.00344-.00344-.00344-.00344-.00344-.00343-.00343-.00344-.00344-.00343-.00343-.00343-.00344-.00344-.00343-.00343-.00343-.00342-.00342-.00343-.00343-.00343-.00343-.00342-.00342-.00342-.00342-.00342-.00342-.00342-.00342-.00342-.00342-.00341-.00341-.00341-.00342-.00342-.00341-.00341-.00341-.0034-.0034-.00341-.00341-.0034-.0034-.0034-.0034-.0034-.0034-.0034-.0034-.0034-.0034-.00339-.00339-.00339-.00339-.00339-.00339-.00339-.00339-.00338-.00338-.00338-.00338-.00338-.00338-.00338-.00338-.00338-.00338-.00337-.00337-.00337-.00337-.00337-.00337-.00336-.00336-.00336-.00336-.00336-.00336-.00336-.00336-.00336-.00336-.00335-.00335-.00335-.00335-.00334-.00334-.00335-.00335-.00334-.00334-.00334-.00334-.00333-.00333-.00333-.00333-.00333-.00333-.00333-.00333-.00332-.00332-.00332-.00332-.00332-.00332-.00331-.00331-.00331-.00331-.00331-.00331-.00331-.00331-.0033-.0033-.00329-.0033-.0033-.00329-.00329-.00329-.00329-.00329-.00328-.00328-.00328-.00328-.00328-.00328-.00327-.00327-.00327-.00327-.00327-.00327-.00326-.00326-.00326-.00326-.00326-.00326-.00325-.00325-.00325-.00325-.00324-.00324-.00324-.00324-.00324-.00324-.00323-.00323-.00323-.00323-.00323-.00323-.00322-.00322-.00321-.00322-.00322-.00321-.00321-.00321-.0032-.0032-.0032-.0032-.0032-.0032-.00319-.00319-.00319-.00319-.00318-.00318-.00318-.00318-.00318-.00318-.00317-.00317-.00316-.00316-.00316-.00317-.00316-.00315-.00315-.00316-.00315-.00314-.00315-.00315-.00313-.00314-.00314-.00313-.00313-.00313-.00312-.00312-.00312-.00312-.00312-.00312-.00311-.00311-.00311-.00311-.0031-.0031-.00309-.00309-.00309-.00309-.00309-.00309-.00308-.00308-.00308-.00308-.00307-.00307-.00306-.00306-.00306-.00306-.00306-.00306-.00305-.00305-.00304-.00304-.00304-.00304-.00304-.00304-.00303-.00303-.00302-.00302-.00302-.00302-.00301-.00301-.00301-.00301-.003-.003-.003-.003-.00299-.00299-.00298-.00298-.00298-.00298-.00298-.00298-.00296-.00296-.00297-.00297-.00295-.00295-.00295-.00295-.00295-.00295-.00294-.00294-.00293-.00293-.00293-.00293-.00292-.00292-.00291-.00291-.00291-.00291-.00291-.00291-.00289-.00289-.00289-.00289-.00289-.00289-.00288-.00288-.00287-.00287-.00286-.00287-.00286-.00286-.00286-.00285-.00284-.00285-.00284-.00284-.00284-.00283-.00283-.00283-.00282-.00282-.00281-.00281-.00281-.00281-.0028-.0028-.0028-.0028-.00278-.00279-.00279-.00278-.00277-.00277-.00277-.00277-.00276-.00276-.00275-.00275-.00275-.00275-.00274-.00274-.00273-.00274-.00273-.00272-.00272-.00272-.00271-.00271-.00271-.00271-.0027-.0027-.00269-.00269-.00268-.00268-.00268-.00268-.00267-.00267-.00266-.00266-.00266-.00266-.00264-.00265-.00265-.00264-.00263-.00263-.00262-.00262-.00262-.00262-.00261-.00261-.00261-.00261-.00259-.00259-.00259-.00259-.00258-.00258-.00257-.00257-.00257-.00257-.00255-.00256-.00255-.00254-.00255-.00255-.00253-.00253-.00253-.00253-.00251-.00251-.00251-.00251-.00251-.00251-.00249-.00249-.00249-.00249-.00247-.00248-.00247-.00247-.00247-.00246-.00245-.00245-.00245-.00245-.00243-.00243-.00243-.00243-.00242-.00242-.00242-.00242-.0024-.0024-.0024-.0024-.00238-.00238-.00238-.00238-.00237-.00237-.00236-.00237-.00236-.00235-.00234-.00234-.00234-.00234-.00233-.00233-.00231-.00232-.00231-.00231-.00231-.0023-.00229-.00229-.00228-.00228-.00228-.00228-.00226-.00226-.00226-.00226-.00225-.00225-.00224-.00224-.00223-.00223-.00222-.00222-.00221-.00221-.0022-.0022-.0022-.0022-.00218-.00218-.00218-.00218-.00216-.00216-.00216-.00216-.00215-.00215-.00213-.00214-.00213-.00212-.00212-.00212-.00211-.00211-.0021-.0021-.00209-.00209-.00208-.00209-.00208-.00207-.00206-.00206-.00205-.00205-.00204-.00204-.00204-.00204-.00202-.00202-.00201-.00201-.00201-.00201-.00199-.00199-.00199-.00199-.00197-.00197-.00196-.00196-.00196-.00196-.00194-.00194-.00194-.00194-.00192-.00192-.00191-.00191-.00191-.00191-.00189-.00189-.00188-.00189-.00188-.00187-.00186-.00186-.00185-.00185-.00185-.00185-.00183-.00183-.00182-.00182-.00181-.00181-.0018-.0018-.00179-.00179-.00178-.00178-.00177-.00177-.00176-.00176-.00174-.00175-.00174-.00173-.00173-.00173-.00171-.00171-.00171-.00171-.00169-.00169-.00169-.00169-.00167-.00167-.00166-.00166-.00165-.00165-.00164-.00164-.00163-.00163-.00161-.00162-.00161-.0016-.0016-.0016-.00158-.00158-.00157-.00157-.00157-.00157-.00155-.00155-.00153-.00154-.00153-.00152-.00152-.00152-.0015-.00151-.0015-.00149-.00148-.00148-.00147-.00147-.00146-.00146-.00145-.00145-.00144-.00144-.00142-.00142-.00141-.00141-.0014-.00141-.00139-.00139-.00138-.00137-.00137-.00137-.00135-.00135-.00135-.00135-.00133-.00133-.00132-.00132-.0013-.0013-.0013-.0013-.00128-.00128-.00127-.00127-.00126-.00126-.00125-.00125-.00123-.00123-.00122-.00122-.00121-.00122-.0012-.00119-.00119-.00119-.00117-.00117-.00116-.00116-.00115-.00115-.00114-.00114-.00112-.00112-.00111-.00111-.0011-.0011-.00109-.00109-.00107-.00107-.00106-.00107-.00105-.00104-.00104-.00104-.00102-.00102-.00101-.00101-.001-.001-.00099-.00099-.00097-.00097-.00096-.00096-.00094-.00095-.00094-.00093-.00092-.00092-.00091-.00091-.00089-.00089-.00088-.00088-.00087-.00087-.00086-.00086-.00084-.00084-.00083-.00083-.00081-.00082-.00081-.0008-.00079-.00079-.00077-.00077-.00076-.00077-.00075-.00074-.00074-.00074-.00072-.00072-.00071-.00071-.0007-.0007-.00068-.00068-.00067-.00067-.00065-.00065-.00064-.00064-.00063-.00063-.00061-.00061-.0006-.0006-.00059-.00059-.00057-.00057-.00056-.00056-.00054-.00054-.00053-.00054-.00052-.00051-.0005-.0005-.00049-.00049-.00048-.00048-.00046-.00046-.00044-.00044-.00044-.00044-.00041-.00041-.00041-.00041-.00039-.00039-.00037-.00037-.00036-.00036-.00035-.00035-.00033-.00033-.00032-.00032-.0003-.0003-.00029-.00029-.00028-.00028-.00026-.00026-.00024-.00024-.00023-.00023-.00022-.00022-.0002-.0002-.00019-.00019-.00017-.00017-.00016-.00016-.00014-.00014-.00013-.00013-.00011-.00011-.0001-.0001-.00008-.00008-.00007-.00007-.00005-.00005-.00004-.00004-.00002-.00002-.52302.52301.52301-.52302-1.262667-1.26267v1.78569 3.3482c0 2.10743.837237 4.12866 2.327737 5.61916l.65406.6541.49419-.7819z" fill="#530f8a" stroke="#000" stroke-width="1.47931"/><path d="m30.0623 20.8245c0 7.5733-8.2017 7.0743-14.1599 7.0743-5.9583 0-14.23718.499-14.23718-7.0743 0-6.7028 2.91815-17.03825 14.23718-17.03825 11.4983 0 14.1599 10.40375 14.1599 17.03825z" fill="#a253e2"/><g clip-rule="evenodd" fill-rule="evenodd"><path d="m20.9025 22.2617 2.9238-3.6549c.2943-.3677.8318-.4274 1.1995-.1331.3677.2944.4275.8318.1331 1.1996l-3.9015 4.8766-2.6797-1.7874-2.6184 2.1816-2.6141-2.1927-2.6789 1.8002-3.90316-4.8783c-.29434-.3678-.23462-.9052.13309-1.1996.36771-.2943.9052-.2346 1.19954.1331l2.92203 3.6532 2.4401-1.6406 2.5048 2.1013 2.5006-2.0842z" fill="#3f0c69"/><path d="m22.6966 10.5618c.023.0213.046.0435.0682.0665.5597.5597.8745 1.3181.8745 2.1099v2.5612c0 1.6491-1.3369 2.986-2.986 2.986h-.0197c-1.6397-.0102-2.9664-1.3437-2.9664-2.986v-.4266z" fill="#000"/><path d="m21.8827 12.3813c.0332.1144.0503.2338.0503.355v2.5628c0 .3387-.1348.6638-.3745.9035-.2398.2398-.5648.3746-.9035.3746-.0009 0-.0026 0-.0034 0-.3387 0-.6638-.1348-.9035-.3746-.2398-.2397-.3746-.5648-.3746-.9035v-.7669z" fill="#f2c040"/><path d="m9.22521 10.5618c-.02304.0213-.04607.0435-.06825.0665-.55967.5597-.87449 1.3181-.87449 2.1099v2.5612c0 1.6491 1.3369 2.986 2.98603 2.986h.0196c1.6398-.0102 2.9665-1.3437 2.9665-2.986v-.4266z" fill="#000"/><path d="m10.0391 12.3813c-.0332.1144-.0503.2338-.0503.355v2.5628c0 .3387.1348.6638.3745.9035.2398.2398.5648.3746.9035.3746h.0034c.3387 0 .6638-.1348.9035-.3746.2398-.2397.3746-.5648.3746-.9035v-.7669z" fill="#f2c040"/></g></g></svg>