<svg fill="none" height="32" viewBox="0 0 32 32" width="32" xmlns="http://www.w3.org/2000/svg"><path d="m31.1028 20.9925c0 2.0091-.5252 3.4351-1.3444 4.4745-.8271 1.0495-2.0166 1.7841-3.4762 2.2907-2.9616 1.0282-6.7719 1.0379-10.1824 1.0379-3.4093 0-7.27255-.0094-10.28664-1.0393-1.48698-.5081-2.7015-1.2447-3.54601-2.2958-.83532-1.0397-1.370401-2.4634-1.370401-4.468 0-3.748.807291-8.3097 3.108411-11.90376 2.26699-3.54072 6.01294-6.19919 12.09464-6.19919 5.7647 0 9.4692 2.66321 11.7712 6.23125 2.3312 3.6131 3.2318 8.1799 3.2318 11.8717z" fill="#fbc546" stroke="#000" stroke-width="1.7935"/><g clip-rule="evenodd" fill-rule="evenodd"><path d="m10.9953 23.8066c-1.81741-1.151-3.21554-2.8799-3.62207-4.8807h17.21597c-.4065 2.0008-1.8046 3.7297-3.622 4.8807-.8904-1.0506-9.0815-1.0506-9.9719 0z" fill="#722245"/><path d="m10.9946 23.8066c.8904-1.0505 2.2144-1.6922 3.6508-1.6922h2.6703c1.4364 0 2.7604.6417 3.6508 1.6922-1.4858.9414-3.2522 1.4962-4.9859 1.4962-1.7338 0-3.5002-.5548-4.986-1.4962z" fill="#ca3b8f"/><path d="m7.84454 16.3057c.14905.1491.35152.2328.56275.2328.21124 0 .41371-.0837.56277-.2328.00318-.0032.00557-.0048.00557-.0048.48465-.4846 1.14147-.7572 1.82697-.7572s1.3423.2726 1.827.7572c0 0 .0024.0016.0056.0048.149.1491.3515.2328.5627.2328.2113 0 .4137-.0837.5628-.2328.0008 0 .0008-.0008.0008-.0008.3117-.3108.3117-.8162 0-1.1271-.0024-.0032-.004-.0048-.004-.0048-.7836-.7835-1.8469-1.2235-2.9549-1.2235-1.10797 0-2.17132.44-2.95488 1.2235 0 0-.00159.0016-.00398.0048-.31167.3109-.31167.8163 0 1.1271 0 0 0 .0008.0008.0008z" fill="#000"/><path d="m24.1231 16.3057c-.149.1491-.3515.2328-.5627.2328-.2113 0-.4137-.0837-.5628-.2328-.0032-.0032-.0056-.0048-.0056-.0048-.4846-.4846-1.1414-.7572-1.827-.7572-.6855 0-1.3423.2726-1.8269.7572 0 0-.0024.0016-.0056.0048-.1491.1491-.3515.2328-.5628.2328-.2112 0-.4137-.0837-.5627-.2328-.0008 0-.0008-.0008-.0008-.0008-.3117-.3108-.3117-.8162 0-1.1271.0024-.0032.004-.0048.004-.0048.7835-.7835 1.8469-1.2235 2.9548-1.2235 1.108 0 2.1714.44 2.9549 1.2235 0 0 .0016.0016.004.0048.3117.3109.3117.8163 0 1.1271 0 0 0 .0008-.0008.0008z" fill="#000"/></g></svg>