<svg fill="none" height="32" viewBox="0 0 32 32" width="32" xmlns="http://www.w3.org/2000/svg"><path d="m31.1028 20.9925c0 2.0091-.5252 3.4351-1.3444 4.4745-.8271 1.0495-2.0166 1.7841-3.4762 2.2907-2.9616 1.0282-6.7719 1.0379-10.1824 1.0379-3.4093 0-7.27255-.0094-10.28664-1.0393-1.48698-.5081-2.7015-1.2447-3.54601-2.2958-.83532-1.0397-1.370401-2.4634-1.370401-4.468 0-3.748.807291-8.3097 3.108411-11.90376 2.26699-3.54072 6.01294-6.19919 12.09464-6.19919 5.7647 0 9.4692 2.66321 11.7712 6.23125 2.3312 3.6131 3.2318 8.1799 3.2318 11.8717z" fill="#fbc546" stroke="#000" stroke-width="1.7935"/><path clip-rule="evenodd" d="m22.8668 19.1429-6.8252 3.4127s.383.767.8531 1.7063c.9428 1.8846 3.2343 2.649 5.119 1.7063 1.8846-.9427 2.649-3.2343 1.7063-5.1189-.4701-.9394-.8532-1.7064-.8532-1.7064z" fill="#dd34a2" fill-rule="evenodd"/><path d="m7.51004 17.437s.0802.0998.215.2688c2.02113 2.5262 5.08056 3.997 8.31576 3.997h.0017c3.2351 0 6.2946-1.4708 8.3157-3.997.1348-.169.215-.2688.215-.2688" stroke="#593604" stroke-linecap="round" stroke-miterlimit="1.5" stroke-width="1.70631"/><g clip-rule="evenodd" fill="#000" fill-rule="evenodd"><path d="m7.33121 14.6334c.15954.1595.37624.2491.60233.2491s.44279-.0896.60233-.2491c.00341-.0034.00597-.0051.00597-.0051.51872-.5188 1.22172-.8105 1.95546-.8105.7337 0 1.4367.2917 1.9554.8105 0 0 .0026.0017.006.0051.1595.1595.3762.2491.6023.2491s.4428-.0896.6023-.2491c.0009 0 .0009-.0009.0009-.0009.3336-.3327.3336-.8736 0-1.2063-.0026-.0034-.0043-.0052-.0043-.0052-.8386-.8386-1.9767-1.3095-3.1626-1.3095-1.18591 0-2.32402.4709-3.16268 1.3095 0 0-.0017.0018-.00426.0052-.33359.3327-.33359.8736 0 1.2063 0 0 0 .0009.00085.0009z"/><path d="m24.7545 14.6334c-.1596.1595-.3763.2491-.6024.2491-.226 0-.4427-.0896-.6023-.2491-.0034-.0034-.006-.0051-.006-.0051-.5187-.5188-1.2217-.8105-1.9554-.8105s-1.4367.2917-1.9554.8105c0 0-.0026.0017-.006.0051-.1595.1595-.3762.2491-.6023.2491s-.4428-.0896-.6024-.2491c-.0008 0-.0008-.0009-.0008-.0009-.3336-.3327-.3336-.8736 0-1.2063.0025-.0034.0042-.0052.0042-.0052.8387-.8386 1.9768-1.3095 3.1627-1.3095s2.324.4709 3.1627 1.3095c0 0 .0017.0018.0042.0052.3336.3327.3336.8736 0 1.2063 0 0 0 .0009-.0008.0009z"/></g></svg>