<svg fill="none" height="32" viewBox="0 0 32 32" width="32" xmlns="http://www.w3.org/2000/svg"><path d="m31.1028 20.9925c0 2.0091-.5252 3.4351-1.3444 4.4745-.8271 1.0495-2.0166 1.784-3.4762 2.2907-2.9616 1.0281-6.7719 1.0379-10.1824 1.0379-3.4093 0-7.27255-.0094-10.28664-1.0393-1.48698-.5081-2.7015-1.2448-3.54601-2.2959-.83532-1.0396-1.370401-2.4634-1.370401-4.4679 0-3.7442.805701-7.6213 3.062911-10.5439 2.22495-2.88081 5.96452-4.96848 12.14014-4.96848 5.8587 0 9.5576 2.0958 11.8169 5.00038 2.2888 2.9423 3.1861 6.8267 3.1861 10.512z" fill="#fbc546" stroke="#000" stroke-width="1.7935"/><g clip-rule="evenodd" fill-rule="evenodd"><path d="m22.0139 22.1571c0-.4709-.3822-.8531-.8531-.8531-2.1986 0-8.0393 0-10.2379 0-.471 0-.8532.3822-.8532.8531 0 .471.3822.8532.8532.8532h10.2379c.4709 0 .8531-.3822.8531-.8532z" fill="#593604"/><path d="m24.5734 16.1849c0-.226-.0896-.4436-.2499-.6031-.1596-.1604-.3771-.25-.6032-.25-1.1356 0-3.1303 0-4.2658 0-.2261 0-.4437.0896-.6032.25-.1604.1595-.25.3771-.25.6031 0 .2261.0896.4437.25.6032.1595.1604.3771.25.6032.25h4.2658c.2261 0 .4436-.0896.6032-.25.1603-.1595.2499-.3771.2499-.6032z" fill="#000"/><path d="m13.4824 16.1849c0-.226-.0896-.4436-.25-.6031-.1595-.1604-.3771-.25-.6032-.25-1.1355 0-3.13021 0-4.26576 0-.22608 0-.44364.0896-.60318.25-.16039.1595-.24998.3771-.24998.6031 0 .2261.08959.4437.24998.6032.15954.1604.3771.25.60318.25h4.26576c.2261 0 .4437-.0896.6032-.25.1604-.1595.25-.3771.25-.6032z" fill="#000"/></g></svg>