<svg fill="none" height="32" viewBox="0 0 32 32" width="32" xmlns="http://www.w3.org/2000/svg" xmlns:xlink="http://www.w3.org/1999/xlink"><clipPath id="a"><path d="m0 0h32v32h-32z"/></clipPath><g clip-path="url(#a)"><path d="m31.1028 20.9925c0 2.0091-.5252 3.4351-1.3444 4.4745-.8271 1.0495-2.0166 1.784-3.4762 2.2907-2.9616 1.0281-6.7719 1.0379-10.1824 1.0379-3.4093 0-7.27255-.0094-10.28664-1.0393-1.48698-.5081-2.7015-1.2448-3.54601-2.2959-.83532-1.0396-1.370401-2.4634-1.370401-4.4679 0-3.7442.805701-7.6213 3.062911-10.5439 2.22495-2.88081 5.96452-4.96848 12.14014-4.96848 5.8587 0 9.5576 2.0958 11.8169 5.00038 2.2888 2.9423 3.1861 6.8267 3.1861 10.512z" fill="#fbc546" stroke="#000" stroke-width="1.7935"/><path d="m9.87671 24.016s.01621-.0486.04351-.1314c.48378-1.4503 1.84028-2.4281 3.36908-2.4281l2.5595 2.5595 2.5595-2.5595c1.5288 0 2.8854.9778 3.3691 2.4281.0273.0828.0435.1314.0435.1314" stroke="#593604" stroke-linecap="round" stroke-miterlimit="1.5" stroke-width="1.70631"/><path clip-rule="evenodd" d="m10.8572 17.2441-2.43657-2.4366c-.33273-.3328-.33273-.8737 0-1.2064s.87363-.3327 1.20637 0l4.3886 4.3887-4.72219 1.574c-.4462.1493-.92994-.093-1.07924-.5392-.14845-.447.09299-.9308.54005-1.0792zm9.9837 0 2.103.7013c.4471.1484.6885.6322.5401 1.0792-.1493.4462-.6331.6885-1.0793.5392l-4.7222-1.574 4.3886-4.3887c.3328-.3327.8737-.3327 1.2064 0s.3327.8736 0 1.2064z" fill="#000" fill-rule="evenodd"/></g></svg>