<svg fill="none" height="32" viewBox="0 0 32 32" width="32" xmlns="http://www.w3.org/2000/svg"><path d="m31.1028 20.9924c0 2.0091-.5252 3.4351-1.3444 4.4745-.8271 1.0495-2.0166 1.784-3.4762 2.2907-2.9616 1.0281-6.7719 1.0379-10.1824 1.0379-3.4093 0-7.27255-.0094-10.28664-1.0393-1.48698-.5081-2.7015-1.2448-3.54601-2.2959-.83532-1.0396-1.370401-2.4634-1.370401-4.4679 0-3.748.807291-8.3098 3.108411-11.90378 2.26699-3.54072 6.01294-6.19919 12.09464-6.19919 5.7647 0 9.4692 2.66321 11.7712 6.23124 2.3312 3.61303 3.2318 8.17993 3.2318 11.87173z" fill="#fbc546" stroke="#000" stroke-width="1.7935"/><g clip-rule="evenodd" fill-rule="evenodd"><path d="m10.2626 22.7348c-1.35051-1.2021-2.31629-2.8274-2.68997-4.666h16.72017c-.3737 1.8386-1.3394 3.4639-2.69 4.666z" fill="#722245"/><path d="m10.262 22.7338.6441-.9667c.2022-.3028.4624-.5536.7602-.7422l1.7063 2.4008c0 .3208-.1971.6322-.4223.9308-.9974-.372-1.9077-.9265-2.6883-1.6227zm8.6518 1.6227c-.2252-.2986-.4223-.61-.4223-.9308l1.7063-2.4008c.2978.1886.558.4394.7602.7422l.6441.9667c-.7806.6962-1.6909 1.2507-2.6883 1.6227z" fill="#a1256c"/><path d="m18.8298 20.6284c.4931 0 .9666.1416 1.3702.3976v1.5476h-8.5316v-1.5476c.4035-.256.877-.3976 1.3702-.3976z" fill="#dd34a2"/><path d="m20.2 21.4816h-8.5316v1.9452c0 2.2241 1.8027 4.0269 4.0269 4.0269h.4778c2.2241 0 4.0269-1.8028 4.0269-4.0269 0-1.0759 0-1.9452 0-1.9452z" fill="#dd34a2"/><path d="m10.9425 13.8564-2.4366-2.4366c-.33273-.3328-.33273-.8737 0-1.2064.33273-.33272.87363-.33272 1.20636 0l4.38864 4.3887-4.72222 1.574c-.4462.1493-.92994-.093-1.07925-.5392-.14845-.447.093-.9308.54005-1.0792zm9.9837 0 2.103.7013c.447.1484.6885.6322.54 1.0792-.1493.4462-.633.6885-1.0792.5392l-4.7222-1.574 4.3886-4.3887c.3327-.33272.8736-.33272 1.2064 0 .3327.3327.3327.8736 0 1.2064z" fill="#000"/></g></svg>