<svg fill="none" height="32" viewBox="0 0 32 32" width="32" xmlns="http://www.w3.org/2000/svg"><path d="m31.1028 20.9925c0 2.0091-.5252 3.4351-1.3444 4.4745-.8271 1.0495-2.0166 1.7841-3.4762 2.2907-2.9616 1.0282-6.7719 1.0379-10.1824 1.0379-3.4093 0-7.27255-.0094-10.28664-1.0393-1.48698-.5081-2.7015-1.2447-3.54601-2.2958-.83532-1.0397-1.370401-2.4634-1.370401-4.468 0-3.748.807291-8.3097 3.108411-11.90376 2.26699-3.54072 6.01294-6.19919 12.09464-6.19919 5.7647 0 9.4692 2.66321 11.7712 6.23125 2.3312 3.6131 3.2318 8.1799 3.2318 11.8717z" fill="#fbc546" stroke="#000" stroke-width="1.7935"/><path d="m11.299 23.3155s.1247-.187.308-.463c.9534-1.4291 2.5567-2.2871 4.2745-2.2871h.0018c1.7179 0 3.3212.858 4.2745 2.2871.1833.276.308.463.308.463" stroke="#593604" stroke-linecap="round" stroke-linejoin="round" stroke-miterlimit="1.5" stroke-width="1.83335"/><g clip-rule="evenodd" fill-rule="evenodd"><path d="m10.3819 16.0604 1.6436-1.6436c.3575-.3575.9387-.3575 1.2962 0s.3575.9387 0 1.2962l-2.9398 2.9398-2.93979-2.9398c-.35751-.3575-.35751-.9387 0-1.2962.3575-.3575.93868-.3575 1.29618 0zm11.0001 0 1.6436-1.6436c.3575-.3575.9387-.3575 1.2962 0s.3575.9387 0 1.2962l-2.9398 2.9398-2.9398-2.9398c-.3575-.3575-.3575-.9387 0-1.2962s.9387-.3575 1.2962 0z" fill="#000"/><path d="m22.9169 5.48018c.9964.59783 1.7903 1.28955 2.3914 1.79349 1.9474 1.77978 2.7898 3.78623 3.7225 6.42153-.4095.1199-.8344.1908-1.2667.2101-1.4237.0637-2.8149-.4405-3.8665-1.4021 0 0-.0001-.001-.0011-.001-1.7037-1.5588-1.976-4.03288-1.2803-6.14221z" fill="#e59a10" fill-opacity=".5"/><path d="m27.2927 1.19568s-1.7848 3.56948-2.9885 5.9769c-.6419 1.28396-.39 2.83402.6247 3.84882 0 0 0 0 .0011.001.6267.6268 1.4759.9782 2.3627.9782s1.736-.3514 2.3627-.9782c.001-.001.001-.001.001-.001 1.0148-1.0148 1.2667-2.56486.6247-3.84882-1.2037-2.40742-2.9884-5.9769-2.9884-5.9769z" fill="#2ac2f9"/></g></svg>