<svg fill="none" height="32" viewBox="0 0 32 32" width="32" xmlns="http://www.w3.org/2000/svg"><path d="m31.1028 20.9925c0 2.0091-.5252 3.4351-1.3444 4.4745-.8271 1.0495-2.0166 1.7841-3.4762 2.2907-2.9616 1.0282-6.7719 1.0379-10.1824 1.0379-3.4093 0-7.27255-.0094-10.28664-1.0393-1.48698-.5081-2.7015-1.2447-3.54601-2.2958-.83532-1.0397-1.370401-2.4634-1.370401-4.468 0-3.748.807291-8.3097 3.108411-11.90376 2.26699-3.54072 6.01294-6.19919 12.09464-6.19919 5.7647 0 9.4692 2.66321 11.7712 6.23125 2.3312 3.6131 3.2318 8.1799 3.2318 11.8717z" fill="#fbc546" stroke="#000" stroke-width="1.7935"/><g clip-rule="evenodd" fill-rule="evenodd"><path d="m22.0139 21.9579c0-.4709-.3822-.8532-.8531-.8532-2.1986 0-8.0393 0-10.2379 0-.471 0-.8532.3823-.8532.8532s.3822.8532.8532.8532h10.2379c.4709 0 .8531-.3823.8531-.8532z" fill="#593604"/><path d="m10.361 18.2402c.7917 0 1.5502-.3148 2.1099-.8745.5596-.5597.8745-1.3181.8745-2.1099 0-.5605 0-1.1475 0-1.708 0-1.6491-1.3369-2.986-2.9861-2.986h-.0017c-.79172 0-1.55018.3148-2.10985.8745-.55967.5596-.87449 1.3181-.87449 2.1098v1.708c0 1.6492 1.3369 2.9861 2.98604 2.9861z" fill="#fff"/><path d="m9.07959 13.1212c0-.4521.18002-.8864.49995-1.2063.31993-.32.75416-.5 1.20636-.5s.8864.18 1.2064.5c.3199.3199.4999.7542.4999 1.2063v2.545c0 .453-.18.8864-.4999 1.2072-.32.32-.7542.4991-1.2064.4991s-.88643-.1791-1.20636-.4991c-.31993-.3208-.49995-.7542-.49995-1.2072 0-.7977 0-1.7464 0-2.545z" fill="#000"/><path d="m21.4487 18.2402c-.7918 0-1.5502-.3148-2.1099-.8745s-.8745-1.3181-.8745-2.1099c0-.5605 0-1.1475 0-1.708 0-1.6491 1.3369-2.986 2.9861-2.986h.0017c.7917 0 1.5502.3148 2.1098.8745.5597.5596.8745 1.3181.8745 2.1098v1.708c0 1.6492-1.3369 2.9861-2.986 2.9861z" fill="#fff"/><path d="m22.7301 13.1212c0-.4521-.18-.8864-.4999-1.2063-.32-.32-.7542-.5-1.2064-.5s-.8864.18-1.2064.5c-.3199.3199-.4999.7542-.4999 1.2063v2.545c0 .453.18.8864.4999 1.2072.32.32.7542.4991 1.2064.4991s.8864-.1791 1.2064-.4991c.3199-.3208.4999-.7542.4999-1.2072 0-.7977 0-1.7464 0-2.545z" fill="#000"/></g></svg>