<svg fill="none" height="32" viewBox="0 0 32 32" width="32" xmlns="http://www.w3.org/2000/svg"><path d="m31.1028 20.9925c0 2.0091-.5252 3.4351-1.3444 4.4745-.8271 1.0495-2.0166 1.784-3.4762 2.2907-2.9616 1.0281-6.7719 1.0379-10.1824 1.0379-3.4093 0-7.27255-.0094-10.28664-1.0393-1.48698-.5081-2.7015-1.2448-3.54601-2.2959-.83532-1.0396-1.370401-2.4634-1.370401-4.4679 0-3.7442.805701-7.6213 3.062911-10.5439 2.22495-2.88081 5.96452-4.96848 12.14014-4.96848 5.8587 0 9.5576 2.0958 11.8169 5.00038 2.2888 2.9423 3.1861 6.8267 3.1861 10.512z" fill="#fbc546" stroke="#000" stroke-width="1.7935"/><path d="m9.93274 24.1075s.78576-.7858 1.60306-1.6031c1.1586-1.1586 2.7301-1.8096 4.369-1.8096 1.639 0 3.2105.651 4.3691 1.8096.8173.8173 1.603 1.6031 1.603 1.6031" stroke="#593604" stroke-linecap="round" stroke-linejoin="round" stroke-miterlimit="1.5" stroke-width="1.70631"/><g clip-rule="evenodd" fill-rule="evenodd"><path d="m11.5427 12.3406.6723-.3839c.0895.0708.1749.1467.2559.2286.5597.5597.8745 1.3181.8745 2.1099v1.708c0 1.6491-1.3369 2.986-2.9861 2.986h-.0017c-.79169 0-1.55015-.3148-2.10982-.8744-.55967-.5597-.87449-1.3182-.87449-2.1099v-1.2814l1.71058-.9778c.48118.1144 2.46053-.8506 2.45883-1.4051z" fill="#fff"/><path d="m11.5427 12.3433c.1646.0819.3173.1902.4496.3233.3199.3199.4999.7542.4999 1.2064v2.5449c0 .4531-.18.8865-.4999 1.2073-.32.3199-.7542.4991-1.2064.4991s-.88643-.1792-1.20636-.4991c-.31993-.3208-.49995-.7542-.49995-1.2073 0-.7977 0-1.7464 0-2.5449 0-.0418.00171-.0836.00427-.1246z" fill="#000"/><path d="m20.267 12.3406-.6723-.3839c-.0896.0708-.1749.1467-.2559.2286-.5597.5597-.8745 1.3181-.8745 2.1099v1.708c0 1.6491 1.3369 2.986 2.986 2.986h.0018c.7917 0 1.5501-.3148 2.1098-.8744.5597-.5597.8745-1.3182.8745-2.1099v-1.2814l-1.7106-.9778c-.4812.1144-2.4605-.8506-2.4588-1.4051z" fill="#fff"/><path d="m20.267 12.3433c-.1647.0819-.3174.1902-.4496.3233-.3199.3199-.5.7542-.5 1.2064v2.5449c0 .4531.1801.8865.5 1.2073.3199.3199.7542.4991 1.2064.4991.4521 0 .8864-.1792 1.2063-.4991.32-.3208.5-.7542.5-1.2073 0-.7977 0-1.7464 0-2.5449 0-.0418-.0017-.0836-.0043-.1246z" fill="#000"/></g></svg>