<svg fill="none" height="32" viewBox="0 0 32 32" width="32" xmlns="http://www.w3.org/2000/svg"><path d="m31.1028 20.9925c0 2.0091-.5252 3.4351-1.3444 4.4745-.8271 1.0495-2.0166 1.784-3.4762 2.2907-2.9616 1.0281-6.7719 1.0379-10.1824 1.0379-3.4093 0-7.27255-.0094-10.28664-1.0393-1.48698-.5081-2.7015-1.2448-3.54601-2.2959-.83532-1.0396-1.370401-2.4634-1.370401-4.4679 0-3.7442.805701-7.6213 3.062911-10.5439 2.22495-2.88081 5.96452-4.96848 12.14014-4.96848 5.8587 0 9.5576 2.0958 11.8169 5.00038 2.2888 2.9423 3.1861 6.8267 3.1861 10.512z" fill="#fbc546" stroke="#000" stroke-width="1.7935"/><path d="m9.90472 24.1453s.78578-.7858 1.60308-1.6031c1.1586-1.1586 2.7301-1.8095 4.369-1.8095s3.2105.6509 4.369 1.8095c.8174.8173 1.6031 1.6031 1.6031 1.6031" stroke="#593604" stroke-linecap="round" stroke-linejoin="round" stroke-miterlimit="1.5" stroke-width="1.70631"/><g fill="#000"><path d="m23.5112 16.5568c.4215.2107.5921.7226.3814 1.1441v.0008c-.2107.4215-.7226.5921-1.1432.3814-1.0272-.5136-2.8428-1.4214-3.8597-1.9299-.198-.0989-.3473-.2713-.4172-.4803-.07-.209-.0538-.4377.0452-.6347v-.0009c.1041-.2073.2858-.3651.5059-.4385s.4599-.0563.668.0478c1.023.5119 2.8061 1.4026 3.8196 1.9102z"/><path d="m13.2277 15.0198c.2107.4214.0401.9333-.3814 1.144-1.0204.5111-2.8197 1.4103-3.84006 1.9205-.42061.2107-.9325.0401-1.14323-.3814 0 0-.00086-.0008-.00086-.0017-.21073-.4206-.0401-.9325.38136-1.1432 1.02038-.5102 2.82059-1.4103 3.84089-1.9205.4206-.2107.9325-.0401 1.1433.3814z"/></g></svg>