<svg fill="none" height="32" viewBox="0 0 32 32" width="32" xmlns="http://www.w3.org/2000/svg"><path d="m31.1028 20.9925c0 2.0091-.5252 3.4351-1.3444 4.4745-.8271 1.0495-2.0166 1.7841-3.4762 2.2907-2.9616 1.0282-6.7719 1.0379-10.1824 1.0379-3.4093 0-7.27255-.0094-10.28664-1.0393-1.48698-.5081-2.7015-1.2447-3.54601-2.2958-.83532-1.0397-1.370401-2.4634-1.370401-4.468 0-3.748.807291-8.3097 3.108411-11.90376 2.26699-3.54072 6.01294-6.19919 12.09464-6.19919 5.7647 0 9.4692 2.66321 11.7712 6.23125 2.3312 3.6131 3.2318 8.1799 3.2318 11.8717z" fill="#fbc546" stroke="#000" stroke-width="1.7935"/><g clip-rule="evenodd" fill-rule="evenodd"><path d="m17.9365 19.9649-3.0645-1.226c-.4377-.174-.6501-.6714-.4752-1.1082.174-.4377.6714-.6501 1.1082-.4752l4.2658 1.7063c.2662.1058.4615.3396.5196.6202.0571.2807-.0299.5717-.2329.7747l-1.1032 1.1031 1.1032 1.1032c.203.203.29.4939.2329.7746-.0581.2807-.2534.5145-.5196.6203l-4.2658 1.7063c-.4368.1749-.9342-.0375-1.1082-.4752-.1749-.4368.0375-.9342.4752-1.1083l3.0645-1.2259-.7917-.7918c-.3268-.3429-.3268-.8634 0-1.2063z" fill="#593604"/><path d="m7.32621 15.1472c.16039.1595.37709.2499.60318.2499s.44279-.0904.60233-.2499c.00597-.006.00938-.0086.00938-.0086.51872-.5187 1.22172-.8105 1.9554-.8105.7338 0 1.4368.2918 1.9555.8105 0 0 .0034.0026.0094.0086.3327.3327.8719.3327 1.2055 0 0 0 0 0 0-.0009.3336-.3327.3336-.8728 0-1.2063-.0051-.0052-.0077-.0086-.0077-.0086-.8387-.8386-1.9768-1.3096-3.1627-1.3096-1.18585 0-2.32396.471-3.16261 1.3096 0 0-.00256.0034-.00854.0094-.15954.1595-.24997.3762-.24997.6023s.09043.4428.24997.6032z" fill="#000"/><path d="m24.7573 15.1472c-.1604.1595-.3771.2499-.6032.2499s-.4428-.0904-.6023-.2499c-.006-.006-.0094-.0086-.0094-.0086-.5187-.5187-1.2217-.8105-1.9555-.8105-.7337 0-1.4367.2918-1.9554.8105 0 0-.0034.0026-.0094.0086-.3327.3327-.8719.3327-1.2055 0 0 0 0 0 0-.0009-.3336-.3327-.3336-.8728 0-1.2063.0051-.0052.0077-.0086.0077-.0086.8386-.8386 1.9768-1.3096 3.1626-1.3096 1.1859 0 2.324.471 3.1627 1.3096 0 0 .0026.0034.0085.0094.1596.1595.25.3762.25.6023s-.0904.4428-.25.6032z" fill="#000"/></g></svg>