<svg fill="none" height="32" viewBox="0 0 32 32" width="32" xmlns="http://www.w3.org/2000/svg"><path d="m31.1028 20.9925c0 2.0091-.5252 3.4351-1.3444 4.4745-.8271 1.0495-2.0166 1.7841-3.4762 2.2907-2.9616 1.0282-6.7719 1.0379-10.1824 1.0379-3.4093 0-7.27255-.0094-10.28664-1.0393-1.48698-.5081-2.7015-1.2447-3.54601-2.2958-.83532-1.0397-1.370401-2.4634-1.370401-4.468 0-3.748.807291-8.3097 3.108411-11.90376 2.26699-3.54072 6.01294-6.19919 12.09464-6.19919 5.7647 0 9.4692 2.66321 11.7712 6.23125 2.3312 3.6131 3.2318 8.1799 3.2318 11.8717z" fill="#fbc546" stroke="#000" stroke-width="1.7935"/><g clip-rule="evenodd" fill-rule="evenodd"><path d="m25.3911 28.6478s-2.8921-2.8922-4.8903-4.8903c-1.028-1.0281-1.03-2.6945-.0048-3.7254.0414-.0415.0829-.083.1244-.1244 1.0261-1.0319 2.6954-1.0367 3.7283-.0106.567.5632 1.0424 1.0357 1.0424 1.0357s.4687-.4687 1.0281-1.028c.4947-.4947 1.1659-.7725 1.8651-.7725.6991 0 1.3703.2778 1.8651.7725l.1273.1273c1.0299 1.0299 1.0299 2.7002 0 3.7302-1.9982 1.9982-4.8856 4.8855-4.8856 4.8855z" fill="#d92020"/><path d="m16.9464 21.1108-3.0646-1.226c-.4376-.174-.6501-.6714-.4752-1.1082.1741-.4377.6715-.6501 1.1083-.4752l4.2658 1.7063c.2662.1058.4615.3395.5196.6202.0571.2807-.0299.5716-.233.7747l-1.1031 1.1031 1.1031 1.1031c.2031.2031.2901.494.233.7747-.0581.2807-.2534.5145-.5196.6203l-4.2658 1.7063c-.4368.1749-.9342-.0376-1.1083-.4752-.1749-.4369.0376-.9342.4752-1.1083l3.0646-1.226-.7917-.7917c-.3268-.343-.3268-.8634 0-1.2064z" fill="#593604"/><path d="m10.361 18.2402c.7918 0 1.5502-.3148 2.1099-.8745s.8745-1.3181.8745-2.1099c0-.5605 0-1.1475 0-1.708 0-1.6491-1.3369-2.986-2.9861-2.986h-.0017c-.79169 0-1.55015.3148-2.10982.8745-.55967.5596-.87449 1.3181-.87449 2.1098v1.708c0 1.6492 1.3369 2.9861 2.98601 2.9861z" fill="#fff"/><path d="m9.07959 13.1212c0-.4521.18002-.8864.49995-1.2063.31993-.32.75416-.5 1.20636-.5s.8864.18 1.2064.5c.3199.3199.4999.7542.4999 1.2063v2.545c0 .453-.18.8864-.4999 1.2072-.32.32-.7542.4991-1.2064.4991s-.88643-.1791-1.20636-.4991c-.31993-.3208-.49995-.7542-.49995-1.2072 0-.7977 0-1.7464 0-2.545z" fill="#000"/><path d="m17.4337 14.2254c-.1595.1595-.2491.3762-.2491.6023s.0896.4428.2491.6024c.0008.0008.0008.0017.0008.0017.8387.8386 1.9768 1.3096 3.1627 1.3096s2.324-.471 3.1627-1.3096v-.0009c.3335-.3327.3335-.8736 0-1.2063-.3328-.3336-.8737-.3336-1.2064 0h-.0009c-.5187.5187-1.2217.8105-1.9554.8105s-1.4367-.2918-1.9554-.8105c0 0-.0009 0-.0017-.0009-.1596-.1595-.3763-.2491-.6024-.2491s-.4428.0896-.6023.2491z" fill="#000"/></g></svg>