<svg fill="none" height="32" viewBox="0 0 32 32" width="32" xmlns="http://www.w3.org/2000/svg"><path d="m31.1028 20.9925c0 2.0091-.5252 3.4351-1.3444 4.4745-.8271 1.0495-2.0166 1.7841-3.4762 2.2907-2.9616 1.0282-6.7719 1.0379-10.1824 1.0379-3.4093 0-7.27255-.0094-10.28664-1.0393-1.48698-.5081-2.7015-1.2447-3.54601-2.2958-.83532-1.0397-1.370401-2.4634-1.370401-4.468 0-3.748.807291-8.3097 3.108411-11.90376 2.26699-3.54072 6.01294-6.19919 12.09464-6.19919 5.7647 0 9.4692 2.66321 11.7712 6.23125 2.3312 3.6131 3.2318 8.1799 3.2318 11.8717z" fill="#fbc546" stroke="#000" stroke-width="1.7935"/><g clip-rule="evenodd" fill-rule="evenodd"><path d="m10.2332 22.6985c-1.35053-1.2021-2.3163-2.8274-2.68999-4.6659h16.72019c-.3737 1.8385-1.3395 3.4638-2.69 4.6659z" fill="#722245"/><path d="m10.2327 22.6992.6441-.9666c.2022-.3029.4624-.5537.7602-.7422l1.7063 2.4007c0 .3208-.1971.6322-.4223.9308-.9974-.3719-1.9077-.9265-2.6883-1.6227zm8.6518 1.6227c-.2252-.2986-.4223-.61-.4223-.9308l1.7063-2.4007c.2978.1885.558.4393.7602.7422l.6441.9666c-.7806.6962-1.6909 1.2508-2.6883 1.6227z" fill="#a1256c"/><path d="m18.8004 20.592c.4932 0 .9667.1417 1.3702.3976v1.5476h-8.5316v-1.5476c.4036-.2559.8771-.3976 1.3702-.3976z" fill="#dd34a2"/><path d="m20.1706 21.4452h-8.5316v1.9452c0 2.2242 1.8028 4.0269 4.0269 4.0269h.4778c2.2242 0 4.0269-1.8027 4.0269-4.0269 0-1.0758 0-1.9452 0-1.9452z" fill="#dd34a2"/><path d="m21.4503 17.0444c-1.6491 0-2.986-1.3369-2.986-2.9861v-1.7063c0-1.6491 1.3369-2.98603 2.986-2.98603h.0018c.7917 0 1.5501.31481 2.1098.87453.5597.5596.8745 1.3189.8745 2.1098v1.708c0 1.6492-1.3369 2.9861-2.9861 2.9861z" fill="#fff"/><path d="m22.7301 11.9254c0-.4521-.18-.8864-.5-1.2063-.3199-.32-.7542-.5-1.2063-.5-.4522 0-.8865.18-1.2064.5-.3199.3199-.5.7542-.5 1.2063v2.5459c0 .4521.1801.8864.5 1.2063.3199.32.7542.5 1.2064.5.4521 0 .8864-.18 1.2063-.5.32-.3199.5-.7542.5-1.2063 0-.7986 0-1.7473 0-2.5459z" fill="#000"/><path d="m10.3593 17.0444c1.6491 0 2.986-1.3369 2.986-2.9861v-1.7063c0-1.6491-1.3369-2.98603-2.986-2.98603h-.0017c-.79176 0-1.55021.31481-2.10988.87453-.55967.5596-.87449 1.3189-.87449 2.1098v1.708c0 1.6492 1.3369 2.9861 2.98607 2.9861z" fill="#fff"/><path d="m9.07953 11.9254c0-.4521.18002-.8864.49995-1.2063.31993-.32.75422-.5 1.20632-.5.4522 0 .8865.18 1.2064.5.3199.3199.5.7542.5 1.2063v2.5459c0 .4521-.1801.8864-.5 1.2063-.3199.32-.7542.5-1.2064.5-.4521 0-.88639-.18-1.20632-.5-.31993-.3199-.49995-.7542-.49995-1.2063 0-.7986 0-1.7473 0-2.5459z" fill="#000"/></g></svg>