<svg fill="none" height="32" viewBox="0 0 32 32" width="32" xmlns="http://www.w3.org/2000/svg"><path d="m31.1028 20.9925c0 2.0091-.5252 3.4351-1.3444 4.4745-.8271 1.0495-2.0166 1.7841-3.4762 2.2907-2.9616 1.0282-6.7719 1.0379-10.1824 1.0379-3.4093 0-7.27255-.0094-10.28664-1.0393-1.48698-.5081-2.7015-1.2447-3.54601-2.2958-.83532-1.0397-1.370401-2.4634-1.370401-4.468 0-3.748.807291-8.3097 3.108411-11.90376 2.26699-3.54072 6.01294-6.19919 12.09464-6.19919 5.7647 0 9.4692 2.66321 11.7712 6.23125 2.3312 3.6131 3.2318 8.1799 3.2318 11.8717z" fill="#fbc546" stroke="#000" stroke-width="1.7935"/><g clip-rule="evenodd" fill-rule="evenodd"><path d="m10.2333 22.6985c-1.35057-1.2021-2.31634-2.8274-2.69003-4.6659h16.72013c-.3736 1.8385-1.3394 3.4638-2.69 4.6659z" fill="#722245"/><path d="m10.2327 22.6992.6442-.9666c.2022-.3029.4624-.5537.7601-.7422l1.7063 2.4007c0 .3208-.197.6322-.4223.9308-.9973-.3719-1.9076-.9265-2.6883-1.6227zm8.6519 1.6227c-.2252-.2986-.4223-.61-.4223-.9308l1.7063-2.4007c.2977.1885.558.4393.7602.7422l.6441.9666c-.7806.6962-1.691 1.2508-2.6883 1.6227z" fill="#a1256c"/><path d="m18.8005 20.592c.4931 0 .9666.1417 1.3702.3976v1.5476h-8.5316v-1.5476c.4035-.2559.877-.3976 1.3702-.3976z" fill="#dd34a2"/><path d="m20.1707 21.4452h-8.5316v1.9452c0 2.2242 1.8027 4.0269 4.0269 4.0269h.4778c2.2242 0 4.0269-1.8027 4.0269-4.0269 0-1.0758 0-1.9452 0-1.9452z" fill="#dd34a2"/><path d="m21.701 11.0282c.0759-.075.1647-.1365.2628-.1791.2414-.105.5255-.0913.7559.0367.081.046.1552.1049.2184.174.064.0708.116.1527.1527.2406.0409.0981.064.2039.0665.3105.0026.1101-.0162.2193-.0554.3225-.0427.1135-.1092.215-.1945.3012l-2.3829 2.3829h2.2063c.4709 0 .8531.3822.8531.8531 0 .471-.3822.8532-.8531.8532h-4.8349l-.5963-.895z" fill="#000"/><path d="m10.3593 17.0445c1.6492 0 2.9861-1.3369 2.9861-2.986v-1.7064c0-1.6491-1.3369-2.98601-2.9861-2.98601h-.0017c-.79169 0-1.55015.31481-2.10982.87451-.55967.5596-.87449 1.319-.87449 2.1098v1.7081c0 1.6491 1.3369 2.986 2.98601 2.986z" fill="#fff"/><path d="m9.07959 11.9256c0-.4522.18002-.8865.49995-1.2064s.75416-.5 1.20636-.5.8864.1801 1.2064.5c.3199.3199.4999.7542.4999 1.2064v2.5458c0 .4521-.18.8864-.4999 1.2063-.32.32-.7542.5-1.2064.5s-.88643-.18-1.20636-.5c-.31993-.3199-.49995-.7542-.49995-1.2063 0-.7986 0-1.7473 0-2.5458z" fill="#000"/></g></svg>