<svg fill="none" height="32" viewBox="0 0 32 32" width="32" xmlns="http://www.w3.org/2000/svg"><path d="m31.1028 20.9925c0 2.0091-.5252 3.4351-1.3444 4.4745-.8271 1.0495-2.0166 1.7841-3.4762 2.2907-2.9616 1.0282-6.7719 1.0379-10.1824 1.0379-3.4093 0-7.27255-.0094-10.28664-1.0393-1.48698-.5081-2.7015-1.2447-3.54601-2.2958-.83532-1.0397-1.370401-2.4634-1.370401-4.468 0-3.748.807291-8.3097 3.108411-11.90376 2.26699-3.54072 6.01294-6.19919 12.09464-6.19919 5.7647 0 9.4692 2.66321 11.7712 6.23125 2.3312 3.6131 3.2318 8.1799 3.2318 11.8717z" fill="#fbc546" stroke="#000" stroke-width="1.7935"/><path clip-rule="evenodd" d="m15.9954 18.8959c2.0749 0 3.9719 1.1726 4.9003 3.0285.3397.6804.6158 1.2326.6158 1.2326.2312.4614.044 1.0248-.4183 1.255-.4614.2312-1.0248.044-1.255-.4183 0 0-.2761-.5522-.6168-1.2326-.6111-1.2213-1.8596-1.9934-3.226-1.9934s-2.6149.7721-3.226 1.9934c-.3407.6804-.6168 1.2326-.6168 1.2326-.2302.4623-.7936.6495-1.255.4183-.4623-.2302-.6495-.7936-.4183-1.255 0 0 .2761-.5522.6158-1.2326.9284-1.8559 2.8254-3.0285 4.9003-3.0285z" fill="#593604" fill-rule="evenodd"/><g fill="#000"><path d="m24.6411 13.4025c.1604.1596.2499.3771.2499.6032s-.0895.4437-.2499.6032c-1.0639 1.0639-3.1627 3.1627-3.1627 3.1627s-2.0988-2.0988-3.1626-3.1627c-.1604-.1595-.25-.3771-.25-.6032s.0896-.4436.25-.6032c.3327-.3336.8736-.3336 1.2063 0 .7568.7568 1.9563 1.9563 1.9563 1.9563s1.1995-1.1995 1.9563-1.9563c.3327-.3336.8736-.3336 1.2064 0z"/><path d="m13.5509 13.4036c.3327.3327.3327.8719 0 1.2047-1.0639 1.0638-3.1635 3.1635-3.1635 3.1635s-2.09881-2.0988-3.16269-3.1627c-.1604-.1595-.24998-.3771-.24998-.6032s.08958-.4436.24998-.6032c.33273-.3335.87363-.3335 1.20636 0 .75675.7568 1.95633 1.9563 1.95633 1.9563s1.2004-1.2004 1.9571-1.9571c.3327-.3327.8719-.3327 1.2047 0 .0008.0008.0008.0008.0017.0017z"/></g></svg>