<svg fill="none" height="32" viewBox="0 0 32 32" width="32" xmlns="http://www.w3.org/2000/svg"><path d="m31.1028 20.9925c0 2.0091-.5252 3.4351-1.3444 4.4745-.8271 1.0495-2.0166 1.784-3.4762 2.2907-2.9616 1.0281-6.7719 1.0379-10.1824 1.0379-3.4093 0-7.27255-.0094-10.28664-1.0393-1.48698-.5081-2.7015-1.2448-3.54601-2.2959-.83532-1.0396-1.370401-2.4634-1.370401-4.4679 0-3.7442.805701-7.6213 3.062911-10.5439 2.22495-2.88081 5.96452-4.96848 12.14014-4.96848 5.8587 0 9.5576 2.0958 11.8169 5.00038 2.2888 2.9423 3.1861 6.8267 3.1861 10.512z" fill="#fbc546" stroke="#000" stroke-width="1.7935"/><g clip-rule="evenodd" fill-rule="evenodd"><path d="m17.7715 19.4497-3.0645-1.226c-.4377-.1741-.6501-.6715-.4752-1.1083.174-.4376.6714-.6501 1.1082-.4752l4.2658 1.7063c.2662.1058.4616.3396.5196.6203.0571.2807-.0299.5716-.2329.7746l-1.1032 1.1032 1.1032 1.1031c.203.2031.29.494.2329.7747-.058.2807-.2534.5144-.5196.6202l-4.2658 1.7063c-.4368.1749-.9342-.0375-1.1082-.4752-.1749-.4368.0375-.9342.4752-1.1082l3.0645-1.226-.7917-.7917c-.3268-.343-.3268-.8634 0-1.2064z" fill="#593604"/><path d="m27.1329 18.9439c0-.9428-.7636-1.7064-1.7063-1.7064-1.0426 0-2.3701 0-3.4126 0-.9428 0-1.7064.7636-1.7064 1.7064 0 .9427.7636 1.7063 1.7064 1.7063h3.4126c.9427 0 1.7063-.7636 1.7063-1.7063z" fill="#ed6b44"/><path d="m11.7761 18.9439c0-.9428-.7636-1.7064-1.7064-1.7064-1.04251 0-2.37002 0-3.41258 0-.94274 0-1.70631.7636-1.70631 1.7064 0 .9427.76357 1.7063 1.70631 1.7063h3.41258c.9428 0 1.7064-.7636 1.7064-1.7063z" fill="#ed6b44"/></g><path d="m23.5108 14.963c.4214.2108.5921.7227.3813 1.1433 0 .0008-.0008.0017-.0008.0017-.2108.4214-.7227.5921-1.1433.3813-1.0203-.5102-2.8196-1.4094-3.84-1.9204-.4215-.2108-.5921-.7227-.3814-1.1441.2107-.4215.7226-.5921 1.1441-.3814 1.0212.5102 2.8197 1.4094 3.8401 1.9196z" fill="#000"/><path d="m13.2268 13.4248c.2107.4214.0401.9333-.3814 1.1441-1.0203.511-2.8196 1.4102-3.84002 1.9204-.4206.2108-.9325.0401-1.14323-.3813 0 0 0 0 0-.0009-.21073-.4214-.0401-.9333.38136-1.1441 1.02038-.5102 2.81879-1.4094 3.83919-1.9196.4215-.2107.9334-.0401 1.1441.3814z" fill="#000"/></svg>