<svg fill="none" height="32" viewBox="0 0 32 32" width="32" xmlns="http://www.w3.org/2000/svg"><path d="m31.1028 20.9925c0 2.0091-.5252 3.4351-1.3444 4.4745-.8271 1.0495-2.0166 1.7841-3.4762 2.2907-2.9616 1.0282-6.7719 1.0379-10.1824 1.0379-3.4093 0-7.27255-.0094-10.28664-1.0393-1.48698-.5081-2.7015-1.2447-3.54601-2.2958-.83532-1.0397-1.370401-2.4634-1.370401-4.468 0-3.748.807291-8.3097 3.108411-11.90376 2.26699-3.54072 6.01294-6.19919 12.09464-6.19919 5.7647 0 9.4692 2.66321 11.7712 6.23125 2.3312 3.6131 3.2318 8.1799 3.2318 11.8717z" fill="#fbc546" stroke="#000" stroke-width="1.7935"/><path d="m21.0238 19.9464h-5.4568c-1.4222 0-2.7864.5648-3.7923 1.5707-.8958.8958-1.84196 1.8419-1.84196 1.8419" stroke="#593604" stroke-linecap="round" stroke-linejoin="round" stroke-miterlimit="1.5" stroke-width="1.70631"/><g clip-rule="evenodd" fill-rule="evenodd"><path d="m10.361 18.2402c.7917 0 1.5502-.3148 2.1099-.8745.5596-.5597.8745-1.3181.8745-2.1099 0-.5605 0-1.1475 0-1.708 0-1.6491-1.3369-2.986-2.9861-2.986h-.0017c-.79172 0-1.55018.3148-2.10985.8745-.55967.5596-.87449 1.3181-.87449 2.1098v1.708c0 1.6492 1.3369 2.9861 2.98604 2.9861z" fill="#fff"/><path d="m9.07959 13.9744c0-.4522.18002-.8864.49995-1.2064.31993-.3199.75416-.4999 1.20636-.4999.9427 0 1.7063.7635 1.7063 1.7063v.8386c0 .4531-.18.8865-.4999 1.2073-.32.3199-.7542.499-1.2064.499-.94273 0-1.70631-.7635-1.70631-1.7063z" fill="#000"/><path d="m21.4487 18.2402c-.7918 0-1.5502-.3148-2.1099-.8745s-.8745-1.3181-.8745-2.1099c0-.5605 0-1.1475 0-1.708 0-1.6491 1.3369-2.986 2.9861-2.986h.0017c.7917 0 1.5502.3148 2.1098.8745.5597.5596.8745 1.3181.8745 2.1098v1.708c0 1.6492-1.3369 2.9861-2.986 2.9861z" fill="#fff"/><path d="m22.7301 13.9744c0-.4522-.18-.8864-.4999-1.2064-.32-.3199-.7542-.4999-1.2064-.4999-.9427 0-1.7063.7635-1.7063 1.7063v.8386c0 .4531.18.8865.4999 1.2073.32.3199.7542.499 1.2064.499.9427 0 1.7063-.7635 1.7063-1.7063z" fill="#000"/></g></svg>