<svg fill="none" height="32" viewBox="0 0 32 32" width="32" xmlns="http://www.w3.org/2000/svg"><path d="m31.1028 20.9924c0 2.0091-.5252 3.4351-1.3444 4.4745-.8271 1.0494-2.0166 1.784-3.4762 2.2907-2.9616 1.0281-6.7719 1.0379-10.1824 1.0379-3.4093 0-7.27255-.0095-10.28664-1.0393-1.48698-.5081-2.7015-1.2448-3.54601-2.2959-.83532-1.0396-1.370401-2.4634-1.370401-4.4679 0-3.7442.805701-7.6213 3.062911-10.5439 2.22495-2.88083 5.96452-4.9685 12.14014-4.9685 5.8587 0 9.5576 2.0958 11.8169 5.0004 2.2888 2.9423 3.1861 6.8267 3.1861 10.512z" fill="#fbc546" stroke="#000" stroke-width="1.7935"/><path clip-rule="evenodd" d="m17.7715 19.4495-3.0646-1.2259c-.4376-.1741-.6501-.6715-.4752-1.1083.1741-.4377.6714-.6501 1.1083-.4752l4.2658 1.7063c.2661.1058.4615.3396.5195.6203.0572.2806-.0298.5716-.2329.7746l-1.1031 1.1032 1.1031 1.1031c.2031.203.2901.494.2329.7747-.058.2806-.2534.5144-.5195.6202l-4.2658 1.7063c-.4369.1749-.9342-.0375-1.1083-.4752-.1749-.4368.0376-.9342.4752-1.1082l3.0646-1.226-.7918-.7918c-.3267-.3429-.3267-.8634 0-1.2063z" fill="#593604" fill-rule="evenodd"/><g fill="#000"><path d="m23.5108 14.9629c.4214.2107.5921.7226.3813 1.1432 0 .0009-.0008.0017-.0008.0017-.2108.4215-.7227.5921-1.1433.3814-1.0203-.5102-2.8196-1.4094-3.84-1.9205-.4215-.2107-.5921-.7226-.3814-1.144.2107-.4215.7226-.5921 1.1441-.3814 1.0212.5102 2.8197 1.4094 3.8401 1.9196z"/><path d="m13.2268 13.4247c.2107.4214.0401.9333-.3814 1.144-1.0203.5111-2.8196 1.4103-3.84002 1.9205-.4206.2107-.9325.0401-1.14323-.3814 0 0 0 0 0-.0008-.21073-.4215-.0401-.9334.38136-1.1441 1.02038-.5102 2.81879-1.4094 3.83919-1.9196.4215-.2107.9334-.0401 1.1441.3814z"/></g></svg>