<svg fill="none" height="32" viewBox="0 0 32 32" width="32" xmlns="http://www.w3.org/2000/svg" xmlns:xlink="http://www.w3.org/1999/xlink"><clipPath id="a"><path d="m0 0h32v32h-32z"/></clipPath><g clip-path="url(#a)"><path d="m31.1028 20.9925c0 2.0091-.5252 3.4351-1.3444 4.4745-.8271 1.0495-2.0166 1.784-3.4762 2.2907-2.9616 1.0281-6.7719 1.0379-10.1824 1.0379-3.4093 0-7.27255-.0094-10.28664-1.0393-1.48698-.5081-2.7015-1.2448-3.54601-2.2959-.83532-1.0396-1.370401-2.4634-1.370401-4.4679 0-3.7442.805701-7.6213 3.062911-10.5439 2.22495-2.88081 5.96452-4.96848 12.14014-4.96848 5.8587 0 9.5576 2.0958 11.8169 5.00038 2.2888 2.9423 3.1861 6.8267 3.1861 10.512z" fill="#fbc546" stroke="#000" stroke-width="1.7935"/><g clip-rule="evenodd" fill-rule="evenodd"><path d="m10.6028 23.191h-1.05282c-.29604 0-.56991-.1536-.72603-.4053-.15528-.2508-.16893-.5656-.03669-.8301.32249-.6458.73542-1.4717 1.14408-2.289 1.01186-2.0228 3.07986-3.3009 5.34166-3.3009h1.15c2.2617 0 4.3298 1.2781 5.3416 3.3009.4087.8173.8216 1.6432 1.1441 2.289.1323.2645.1186.5793-.0367.8301-.1561.2517-.43.4053-.726.4053h-1.0528c-.9513-1.0631-9.5391-1.0631-10.4904 0z" fill="#722245"/><path d="m10.6032 23.1909c.9513-1.063 2.3266-1.7063 3.8162-1.7063h2.8581c1.4896 0 2.8649.6433 3.8161 1.7063z" fill="#ca3b8f"/><path d="m9.4048 16.2758 3.4126-1.7063c.4215-.2108.5921-.7235.3814-1.145-.2099-.4206-.7235-.5921-1.1441-.3813l-3.41263 1.7063c-.42146.2107-.59209.7234-.38136 1.1449.20988.4215.72348.5921 1.14409.3814z" fill="#000"/><path d="m23.0553 14.7495-3.4126-1.7063c-.4206-.2108-.9342-.0393-1.1441.3813-.2107.4215-.0401.9342.3814 1.145l3.4126 1.7063c.4206.2107.9342.0401 1.1441-.3814.2107-.4215.0401-.9342-.3814-1.1449z" fill="#000"/></g></g></svg>