<svg fill="none" height="32" viewBox="0 0 32 32" width="32" xmlns="http://www.w3.org/2000/svg"><path d="m31.1028 20.9925c0 2.0091-.5252 3.4351-1.3444 4.4745-.8271 1.0495-2.0166 1.7841-3.4762 2.2907-2.9616 1.0282-6.7719 1.0379-10.1824 1.0379-3.4093 0-7.27255-.0094-10.28664-1.0393-1.48698-.5081-2.7015-1.2447-3.54601-2.2958-.83532-1.0397-1.370401-2.4634-1.370401-4.468 0-3.748.807291-8.3097 3.108411-11.90376 2.26699-3.54072 6.01294-6.19919 12.09464-6.19919 5.7647 0 9.4692 2.66321 11.7712 6.23125 2.3312 3.6131 3.2318 8.1799 3.2318 11.8717z" fill="#fbc546" stroke="#000" stroke-width="1.7935"/><path d="m9.93274 21.2615s.78576-.7858 1.60306-1.6031c1.1586-1.1586 2.7301-1.8095 4.369-1.8095 1.639 0 3.2105.6509 4.3691 1.8095.8173.8173 1.603 1.6031 1.603 1.6031" stroke="#593604" stroke-linecap="round" stroke-linejoin="round" stroke-miterlimit="1.5" stroke-width="1.70631"/><g clip-rule="evenodd" fill-rule="evenodd"><path d="m11.5427 10.3478.6723-.38393c.0895.07083.1749.14673.2559.22863.5597.5597.8745 1.3181.8745 2.1099v1.708c0 1.6491-1.3369 2.986-2.9861 2.986h-.0017c-.79169 0-1.55015-.3148-2.10982-.8744-.55967-.5597-.87449-1.3182-.87449-2.1099v-1.2814l1.71058-.9778c.48118.1144 2.46053-.8506 2.45883-1.4051z" fill="#fff"/><path d="m11.5427 10.3505c.1646.0819.3173.1902.4496.3233.3199.3199.4999.7542.4999 1.2064v2.5449c0 .4531-.18.8865-.4999 1.2073-.32.3199-.7542.4991-1.2064.4991s-.88643-.1792-1.20636-.4991c-.31993-.3208-.49995-.7542-.49995-1.2073 0-.7977 0-1.7464 0-2.5449 0-.0418.00171-.0836.00427-.1246z" fill="#000"/><path d="m20.2671 10.3478-.6723-.38393c-.0896.07083-.1749.14673-.256.22863-.5596.5597-.8744 1.3181-.8744 2.1099v1.708c0 1.6491 1.3369 2.986 2.986 2.986h.0017c.7917 0 1.5502-.3148 2.1099-.8744.5596-.5597.8745-1.3182.8745-2.1099v-1.2814l-1.7106-.9778c-.4812.1144-2.4605-.8506-2.4588-1.4051z" fill="#fff"/><path d="m20.2671 10.3505c-.1647.0819-.3174.1902-.4496.3233-.32.3199-.5.7542-.5 1.2064v2.5449c0 .4531.18.8865.5 1.2073.3199.3199.7541.4991 1.2063.4991s.8864-.1792 1.2064-.4991c.3199-.3208.4999-.7542.4999-1.2073 0-.7977 0-1.7464 0-2.5449 0-.0418-.0017-.0836-.0042-.1246z" fill="#000"/><path d="m24.4649 13.9495s-1.6787 3.3574-2.8109 5.6219c-.6039 1.2076-.3669 2.6657.5876 3.6202 0 0 0 0 .0009.0009.5895.5895 1.3883.9201 2.2224.9201s1.6329-.3306 2.2224-.9201c.0009-.0009.0009-.0009.0009-.0009.9545-.9545 1.1915-2.4126.5876-3.6202-1.1322-2.2645-2.8109-5.6219-2.8109-5.6219z" fill="#41b4de"/></g></svg>