<svg fill="none" height="32" viewBox="0 0 32 32" width="32" xmlns="http://www.w3.org/2000/svg"><path d="m31.1028 20.9925c0 2.0091-.5252 3.4351-1.3444 4.4745-.8271 1.0495-2.0166 1.7841-3.4762 2.2907-2.9616 1.0282-6.7719 1.0379-10.1824 1.0379-3.4093 0-7.27255-.0094-10.28664-1.0393-1.48698-.5081-2.7015-1.2447-3.54601-2.2958-.83532-1.0397-1.370401-2.4634-1.370401-4.468 0-3.748.807291-8.3097 3.108411-11.90376 2.26699-3.54072 6.01294-6.19919 12.09464-6.19919 5.7647 0 9.4692 2.66321 11.7712 6.23125 2.3312 3.6131 3.2318 8.1799 3.2318 11.8717z" fill="#fbc546" stroke="#000" stroke-width="1.7935"/><g clip-rule="evenodd" fill-rule="evenodd"><path d="m15.9954 17.8995c2.0749 0 3.9719 1.1727 4.9003 3.0286.3397.6804.6158 1.2325.6158 1.2325.2312.4614.044 1.0248-.4183 1.2551-.4614.2311-1.0248.0439-1.255-.4184 0 0-.2761-.5522-.6168-1.2325-.6111-1.2214-1.8596-1.9935-3.226-1.9935s-2.6149.7721-3.226 1.9935c-.3407.6803-.6168 1.2325-.6168 1.2325-.2302.4623-.7936.6495-1.255.4184-.4623-.2303-.6495-.7937-.4183-1.2551 0 0 .2761-.5521.6158-1.2325.9284-1.8559 2.8254-3.0286 4.9003-3.0286z" fill="#593604"/><path d="m13.1879 15.0883c0-.2499-.0992-.4885-.2752-.6645-.1759-.1768-.4155-.2751-.6645-.2751-1.0379 0-2.69813 0-3.73603 0-.24894 0-.48853.0983-.66448.2751-.17595.176-.27515.4146-.27515.6645 0 .249.0992.4885.27515.6645.17595.1759.41554.2751.66448.2751h3.73603c.249 0 .4886-.0992.6645-.2751.176-.176.2752-.4155.2752-.6645z" fill="#000"/><path d="m24.4185 15.0883c0-.2499-.0992-.4885-.2751-.6645-.176-.1768-.4156-.2751-.6645-.2751-1.0379 0-2.6982 0-3.7361 0-.2489 0-.4885.0983-.6644.2751-.176.176-.2752.4146-.2752.6645 0 .249.0992.4885.2752.6645.1759.1759.4155.2751.6644.2751h3.7361c.2489 0 .4885-.0992.6645-.2751.1759-.176.2751-.4155.2751-.6645z" fill="#000"/><path d="m22.9979 5.50307c.7502.45045 1.4591.97698 2.1143 1.57709 1.9474 1.77978 3.3023 4.08834 3.9186 6.61504-.4095.12-.8344.1908-1.2667.2101-1.4237.0637-2.8148-.4405-3.8665-1.4021 0 0-.0001-.001-.0011-.001-1.7037-1.5588-2.22-4.033-1.2802-6.14219z" fill="#e59a10"/><path d="m27.2927 1.19568s-1.7847 3.56948-2.9884 5.9769c-.642 1.28396-.3901 2.83402.6247 3.84882 0 0 0 0 .001.001.6267.6268 1.4759.9782 2.3627.9782s1.736-.3514 2.3627-.9782c.0011-.001.0011-.001.0011-.001 1.0147-1.0148 1.2666-2.56486.6247-3.84882-1.2037-2.40742-2.9885-5.9769-2.9885-5.9769z" fill="#2ac2f9"/></g></svg>