<svg fill="none" height="32" viewBox="0 0 32 32" width="32" xmlns="http://www.w3.org/2000/svg" xmlns:xlink="http://www.w3.org/1999/xlink"><clipPath id="a"><path d="m0 0h32v32h-32z"/></clipPath><g clip-path="url(#a)"><path d="m31.1028 20.9925c0 2.0091-.5252 3.4351-1.3444 4.4745-.8271 1.0495-2.0166 1.7841-3.4762 2.2907-2.9616 1.0282-6.7719 1.0379-10.1824 1.0379-3.4093 0-7.27255-.0094-10.28664-1.0393-1.48698-.5081-2.7015-1.2447-3.54601-2.2958-.83532-1.0397-1.370401-2.4634-1.370401-4.468 0-3.748.807291-8.3097 3.108411-11.90376 2.26699-3.54072 6.01294-6.19919 12.09464-6.19919 5.7647 0 9.4692 2.66321 11.7712 6.23125 2.3312 3.6131 3.2318 8.1799 3.2318 11.8717z" fill="#fbc546" stroke="#000" stroke-width="1.7935"/><g clip-rule="evenodd" fill-rule="evenodd"><path d="m13.7285 23.2553c-.2432-.3916-.3831-.8532-.3831-1.3472 0-.5579 0-1.1483 0-1.7063 0-1.4137 1.1458-2.5595 2.5595-2.5595s2.5594 1.1458 2.5594 2.5595v1.7063c0 .494-.1399.9556-.383 1.3472-.6655-.3191-3.6874-.3191-4.3528 0z" fill="#722245"/><path d="m13.7253 23.2552c.6655-.3191 1.4069-.494 2.1764-.494.7696 0 1.511.1749 2.1765.494-.4514.7278-1.2576 1.2123-2.1765 1.2123-.9188 0-1.725-.4845-2.1764-1.2123z" fill="#ca3b8f"/><path d="m10.361 17.6423c.7918 0 1.5502-.3148 2.1099-.8745s.8745-1.3181.8745-2.1099c0-.5605 0-1.1475 0-1.708 0-1.6491-1.3369-2.98603-2.9861-2.98603h-.0017c-.79169 0-1.55015.31483-2.10982.87453-.55967.5596-.87449 1.3181-.87449 2.1098v1.708c0 1.6492 1.3369 2.9861 2.98601 2.9861z" fill="#fff"/><path d="m9.07959 13.3765c0-.4522.18002-.8864.49995-1.2064.31993-.3199.75416-.4999 1.20636-.4999.9427 0 1.7063.7635 1.7063 1.7063v.8386c0 .4531-.18.8865-.4999 1.2073-.32.3199-.7542.499-1.2064.499-.94273 0-1.70631-.7635-1.70631-1.7063z" fill="#000"/><path d="m21.4487 17.6423c-.7917 0-1.5502-.3148-2.1099-.8745-.5596-.5597-.8744-1.3181-.8744-2.1099 0-.5605 0-1.1475 0-1.708 0-1.6491 1.3369-2.98603 2.986-2.98603h.0017c.7917 0 1.5502.31483 2.1099.87453.5596.5596.8745 1.3181.8745 2.1098v1.708c0 1.6492-1.3369 2.9861-2.9861 2.9861z" fill="#fff"/><path d="m22.7301 13.3765c0-.4522-.18-.8864-.4999-1.2064-.32-.3199-.7542-.4999-1.2064-.4999-.9427 0-1.7063.7635-1.7063 1.7063v.8386c0 .4531.18.8865.5 1.2073.3199.3199.7541.499 1.2063.499.9428 0 1.7063-.7635 1.7063-1.7063z" fill="#000"/></g><path d="m25.6713 7.73376c-.0537-.05461-.1083-.10835-.1638-.16125v2.03137c0 .78232.3439 1.38442.8968 1.85452-.5614.6083-.9964 1.499-.9964 2.3914 0 1.8803 1.9928 3.7862 4.3841 2.6902 0-2.9417-2.0407-6.72625-4.1207-8.80624z" fill="#e59a10"/><path clip-rule="evenodd" d="m28.4685 11.8504c1.1294 0 2.0459.9166 2.0459 2.046 0 1.1293-.9165 2.0459-2.0459 2.0459-1.1293 0-2.0459-.9166-2.0459-2.0459 0-1.1294.9166-2.046 2.0459-2.046zm1.023-10.58161c.5647 0 1.0229.45829 1.0229 1.02296v7.16071c0 .56464-.4582 1.02294-1.0229 1.02294-.625 0-1.4209 0-2.0459 0-.5647 0-1.023-.4583-1.023-1.02294 0-1.77176 0-5.38895 0-7.16071 0-.56467.4583-1.02296 1.023-1.02296z" fill="#f00" fill-rule="evenodd"/></g></svg>