<svg fill="none" height="32" viewBox="0 0 32 32" width="32" xmlns="http://www.w3.org/2000/svg"><path d="m31.0361 20.8339c0 8.1661-8.5998 8.1661-14.9242 8.1661-6.32434 0-15.1119 0-15.1119-8.1661 0-7.2274 3.09745-17.8339 15.1119-17.8339 11.4513 0 14.9242 10.6802 14.9242 17.8339z" fill="#fbc546"/><g clip-rule="evenodd" fill-rule="evenodd"><path d="m18.8629 28.0982v-11.4492l5.1189.8532v10.1974c-1.4469 1.0613-3.2087.3133-5.1189.3986zm-5.9721 0c-1.9102-.0853-3.67285.6627-5.11895-.3986v-10.1974l5.11895-.8532z" fill="#41b4de"/><path d="m10.7305 24.2208c-.3796-.1408-.703-.4155-.90345-.7823-.29946-.5478-.27557-1.2149.06228-1.7405.12797-.1988.25767-.4001.38567-.5998 1.0988-1.7097 2.992-2.7429 5.0242-2.7429h1.1569c2.0322 0 3.9254 1.0332 5.0242 2.7429.128.1997.2577.401.3856.5998.3379.5256.3618 1.1927.0623 1.7405-.2005.3668-.5238.6415-.9035.7823-.9461-.999-9.348-.999-10.2942 0z" fill="#722245"/><path d="m10.7312 24.2208c.9462-.9991 2.2796-1.5997 3.7181-1.5997h2.858c1.4385 0 2.7719.6006 3.7181 1.5997-.1877.0691-.3882.1066-.5938.1066-2.6567 0-6.4499 0-9.1066 0-.2056 0-.4061-.0375-.5938-.1066z" fill="#ca3b8f"/><path d="m10.4587 15.8492-2.43663-2.4366c-.33273-.3328-.33273-.8737 0-1.2064s.87363-.3327 1.20637 0l4.38866 4.3887-4.72225 1.574c-.4462.1493-.92994-.093-1.07924-.5392-.14845-.447.09299-.9308.54005-1.0792zm10.8368 0 2.103.7013c.4471.1484.6885.6322.5401 1.0792-.1493.4462-.6331.6885-1.0793.5392l-4.7222-1.574 4.3886-4.3887c.3328-.3327.8737-.3327 1.2064 0s.3327.8736 0 1.2064z" fill="#000"/><path d="m29.0541 24.912c.6742-.8555 1.1519-2.0762 1.1519-3.9195 0-3.5729-.8762-7.9566-3.0885-11.38553-2.1542-3.33882-5.5881-5.82067-11.0177-5.82067-5.7635 0-9.23041 2.49199-11.33943 5.78597-2.17727 3.40063-2.96687 7.77413-2.96687 11.42023 0 1.8341.48504 3.0504 1.17271 3.9063.70605.8788 1.7543 1.5365 3.1369 2.0089 2.84545.9723 6.54709.9912 9.99669.9912 3.4521 0 7.0977-.0196 9.8883-.9883 1.3529-.4696 2.376-1.1232 3.066-1.9986zm-12.9543 4.7804c6.7377 0 15.8997 0 15.8997-8.6999 0-7.6214-3.6999-18.9997-15.8997-18.9997-12.79988 0-16.0998 11.2998-16.0998 18.9997 0 8.6999 9.36199 8.6999 16.0998 8.6999z" fill="#000"/></g></svg>