<svg fill="none" height="32" viewBox="0 0 32 32" width="32" xmlns="http://www.w3.org/2000/svg"><path d="m31.1028 20.9925c0 2.0091-.5252 3.4351-1.3444 4.4745-.8271 1.0495-2.0166 1.7841-3.4762 2.2907-2.9616 1.0282-6.7719 1.0379-10.1824 1.0379-3.4093 0-7.27255-.0094-10.28664-1.0393-1.48698-.5081-2.7015-1.2447-3.54601-2.2958-.83532-1.0397-1.370401-2.4634-1.370401-4.468 0-3.748.807291-8.3097 3.108411-11.90376 2.26699-3.54072 6.01294-6.19919 12.09464-6.19919 5.7647 0 9.4692 2.66321 11.7712 6.23125 2.3312 3.6131 3.2318 8.1799 3.2318 11.8717z" fill="#fbc546" stroke="#000" stroke-width="1.7935"/><path d="m11.639 23.9269s.0094-.0367.0256-.1024c.4863-1.9452 2.2345-3.3102 4.2394-3.3102h.0017c2.0049 0 3.753 1.365 4.2393 3.3102.0162.0657.0256.1024.0256.1024" stroke="#593604" stroke-linecap="round" stroke-miterlimit="1.5" stroke-width="1.70631"/><g clip-rule="evenodd" fill-rule="evenodd"><path d="m22.0476 12.7531 1.1953-.5972c.1118.0836.2193.1766.3191.2773.5596.5596.8745 1.3181.8745 2.1098v1.708c0 1.6492-1.3369 2.9861-2.9861 2.9861h-.0017c-.7917 0-1.5502-.3148-2.1099-.8745-.5596-.5597-.8744-1.3181-.8744-2.1099v-1.708l.8531-.4266c0 .7986 2.7941-1.3172 2.7301-1.365z" fill="#fff"/><path d="m22.0476 12.7557c.064.0478.1254.1007.1826.1587.3199.32.4999.7542.4999 1.2064v2.545c0 .453-.18.8864-.4999 1.2072-.32.3199-.7542.4991-1.2064.4991s-.8864-.1792-1.2063-.4991c-.32-.3208-.5-.7542-.5-1.2072v-2.545z" fill="#000"/><path d="m9.76213 12.7539-1.19527-.5972c-.11177.0836-.21926.1766-.31908.2773-.55967.5597-.87449 1.3181-.87449 2.1099v1.708c0 1.6491 1.3369 2.986 2.98601 2.986h.0017c.7918 0 1.5502-.3148 2.1099-.8744.5597-.5597.8745-1.3182.8745-2.1099v-1.708l-.8532-.4266c0 .7986-2.79406-1.3173-2.73007-1.3651z" fill="#fff"/><path d="m9.76212 12.7557c-.06399.0478-.12542.1007-.18258.1587-.31993.32-.49995.7542-.49995 1.2064v2.545c0 .453.18002.8864.49995 1.2072.31993.3199.75416.4991 1.20636.4991s.8864-.1792 1.2064-.4991c.3199-.3208.4999-.7542.4999-1.2072v-2.545z" fill="#000"/></g><path d="m19.7285 4.29689s.6893.68935 1.3531 1.35311c.6663.66631.6663 1.74641 0 2.41273-.6638.66375-1.3531 1.3531-1.3531 1.3531m10.2377-5.11894s-.6893.68935-1.3531 1.35311c-.6663.66631-.6663 1.74641 0 2.41273.6638.66375 1.3531 1.3531 1.3531 1.3531m-7.6783 1.70617s.6894-.6893 1.3531-1.35306c.6664-.66632 1.7464-.66632 2.4128 0 .6637.66376 1.3531 1.35306 1.3531 1.35306m-5.119-8.53142s.6894.68935 1.3531 1.3531c.6664.66632 1.7464.66632 2.4128 0 .6637-.66375 1.3531-1.3531 1.3531-1.3531" stroke="#f00" stroke-linecap="round" stroke-miterlimit="1.5" stroke-width="1.70631"/></svg>