<svg fill="none" height="32" viewBox="0 0 32 32" width="32" xmlns="http://www.w3.org/2000/svg"><path d="m31.1028 20.9925c0 2.0091-.5252 3.4351-1.3444 4.4745-.8271 1.0495-2.0166 1.7841-3.4762 2.2907-2.9616 1.0282-6.7719 1.0379-10.1824 1.0379-3.4093 0-7.27255-.0094-10.28664-1.0393-1.48698-.5081-2.7015-1.2447-3.54601-2.2958-.83532-1.0397-1.370401-2.4634-1.370401-4.468 0-3.748.807291-8.3097 3.108411-11.90376 2.26699-3.54072 6.01294-6.19919 12.09464-6.19919 5.7647 0 9.4692 2.66321 11.7712 6.23125 2.3312 3.6131 3.2318 8.1799 3.2318 11.8717z" fill="#fbc546" stroke="#000" stroke-width="1.7935"/><path d="m11.583 23.2189s.116-.174.2867-.4308c.8873-1.3301 2.3794-2.1287 3.9782-2.1287h.0017c1.5989 0 3.091.7986 3.9783 2.1287.1707.2568.2867.4308.2867.4308" stroke="#593604" stroke-linecap="round" stroke-linejoin="round" stroke-miterlimit="1.5" stroke-width="1.70631"/><path clip-rule="evenodd" d="m20.8409 16.447 2.103.7013c.4471.1484.6885.6322.5401 1.0792-.1493.4462-.6331.6885-1.0793.5392l-4.7222-1.5741 4.3886-4.3886c.3328-.3327.8737-.3327 1.2064 0s.3327.8736 0 1.2064zm-9.9837 0-2.43657-2.4366c-.33273-.3328-.33273-.8737 0-1.2064s.87363-.3327 1.20637 0l4.3886 4.3886-4.72219 1.5741c-.4462.1493-.92994-.093-1.07924-.5392-.14845-.447.09299-.9308.54005-1.0792z" fill="#000" fill-rule="evenodd"/></svg>