<svg fill="none" height="32" viewBox="0 0 32 32" width="32" xmlns="http://www.w3.org/2000/svg"><path d="m31.1028 20.9925c0 2.0091-.5252 3.4351-1.3444 4.4745-.8271 1.0495-2.0166 1.7841-3.4762 2.2907-2.9616 1.0282-6.7719 1.0379-10.1824 1.0379-3.4093 0-7.27255-.0094-10.28664-1.0393-1.48698-.5081-2.7015-1.2447-3.54601-2.2958-.83532-1.0397-1.370401-2.4634-1.370401-4.468 0-3.748.807291-8.3097 3.108411-11.90376 2.26699-3.54072 6.01294-6.19919 12.09464-6.19919 5.7647 0 9.4692 2.66321 11.7712 6.23125 2.3312 3.6131 3.2318 8.1799 3.2318 11.8717z" fill="#fbc546" stroke="#000" stroke-width="1.7935"/><g clip-rule="evenodd" fill-rule="evenodd"><path d="m12.9921 23.0339c-.3173-.5179-.4999-1.1271-.4999-1.7797 0-1.8846 1.528-3.4126 3.4126-3.4126s3.4126 1.528 3.4126 3.4126c0 .6526-.1825 1.2618-.4999 1.7797-.8335-.5896-4.9918-.5896-5.8254 0z" fill="#722245"/><path d="m12.9921 23.0338c.8336-.5895 1.8454-.9265 2.9127-.9265s2.0791.337 2.9127.9265c-.5998.9795-1.6799 1.633-2.9127 1.633s-2.3129-.6535-2.9127-1.633z" fill="#ca3b8f"/><path d="m10.361 17.8416c.7918 0 1.5502-.3139 2.1099-.8736s.8745-1.319.8745-2.1107c0-.5605 0-1.1467 0-1.708 0-1.6492-1.3369-2.9861-2.9861-2.9861h-.0017c-.79169 0-1.55015.3148-2.10982.8745s-.87449 1.319-.87449 2.1099v1.708c0 1.6491 1.3369 2.986 2.98601 2.986z" fill="#fff"/><path d="m9.07959 12.7225c0-.4521.18002-.8864.49995-1.2063s.75416-.5 1.20636-.5.8864.1801 1.2064.5c.3199.3199.4999.7542.4999 1.2063v2.5459c0 .4521-.18.8864-.4999 1.2063-.32.32-.7542.5-1.2064.5s-.88643-.18-1.20636-.5c-.31993-.3199-.49995-.7542-.49995-1.2063 0-.7986 0-1.7473 0-2.5459z" fill="#000"/><path d="m21.4487 17.8416c-.7917 0-1.5502-.3139-2.1099-.8736-.5596-.5597-.8744-1.319-.8744-2.1107 0-.5605 0-1.1467 0-1.708 0-1.6492 1.3369-2.9861 2.986-2.9861h.0017c.7917 0 1.5502.3148 2.1099.8745.5596.5597.8745 1.319.8745 2.1099v1.708c0 1.6491-1.3369 2.986-2.9861 2.986z" fill="#fff"/><path d="m22.7301 12.7225c0-.4521-.18-.8864-.4999-1.2063-.32-.3199-.7542-.5-1.2064-.5s-.8864.1801-1.2063.5c-.32.3199-.5.7542-.5 1.2063v2.5459c0 .4521.18.8864.5 1.2063.3199.32.7541.5 1.2063.5s.8864-.18 1.2064-.5c.3199-.3199.4999-.7542.4999-1.2063 0-.7986 0-1.7473 0-2.5459z" fill="#000"/></g></svg>