<svg fill="none" height="32" viewBox="0 0 32 32" width="32" xmlns="http://www.w3.org/2000/svg"><path d="m31.1028 20.9925c0 2.0091-.5252 3.4351-1.3444 4.4745-.8271 1.0495-2.0166 1.7841-3.4762 2.2907-2.9616 1.0282-6.7719 1.0379-10.1824 1.0379-3.4093 0-7.27255-.0094-10.28664-1.0393-1.48698-.5081-2.7015-1.2447-3.54601-2.2958-.83532-1.0397-1.370401-2.4634-1.370401-4.468 0-3.748.807291-8.3097 3.108411-11.90376 2.26699-3.54072 6.01294-6.19919 12.09464-6.19919 5.7647 0 9.4692 2.66321 11.7712 6.23125 2.3312 3.6131 3.2318 8.1799 3.2318 11.8717z" fill="#fbc546" stroke="#000" stroke-width="1.7935"/><g clip-rule="evenodd" fill-rule="evenodd"><path d="m23.5566 22.4405c0-1.4137-1.1458-2.5595-2.5595-2.5595-2.8401 0-7.3977 0-10.2379 0-1.41364 0-2.55943 1.1458-2.55943 2.5595 0 1.4136 1.14579 2.5594 2.55943 2.5594h10.2379c1.4137 0 2.5595-1.1458 2.5595-2.5594z" fill="#7e5108"/><path d="m9.92543 23.9284c.46497-.4079 1.04557-.8122 1.66837-.8122h8.5332c.6467 0 1.2555.4171 1.7059.813-.2465.1382-.5315.2176-.8343.2176-2.6226 0-7.6153 0-10.2379 0-.3038 0-.5887-.0794-.83527-.2184zm-.61256-2.3914c.30201-.4821.83693-.8029 1.44783-.8029h10.2379c.6108 0 1.1458.3208 1.4478.8029-.6638.5699-1.5221.9034-2.4384.9034h-8.2568c-.9163 0-1.77458-.3335-2.43833-.9034z" fill="#fff"/><path d="m22.4554 13.0227 1.011-.8668c.023.0213.046.0435.0682.0665.5597.5597.8745 1.3182.8745 2.1099v1.708c0 1.6492-1.3369 2.9861-2.9861 2.9861h-.0017c-.7917 0-1.5501-.3149-2.1098-.8745-.4641-.4641-.7602-1.0648-.8472-1.708l.8259-.7082s1.9434-.8881 3.1652-2.713z" fill="#fff"/><path d="m22.456 13.0225c.1604.2644.2475.5699.2475.8847v2.545c0 .453-.1801.8864-.5 1.2072-.3199.3199-.7542.4991-1.2064.4991-.4521 0-.8864-.1792-1.2063-.4991-.32-.3208-.5-.7542-.5-1.2072v-.7167z" fill="#000"/><path d="m9.32702 13.0227-1.01099-.8668c-.02389.0213-.04607.0435-.06911.0665-.55967.5597-.87363 1.3182-.87363 2.1099v1.708c0 1.6492 1.3369 2.9861 2.98601 2.9861h.0017c.7918 0 1.5502-.3149 2.1099-.8745.4641-.4641.7602-1.0648.8472-1.708l-.8259-.7082s-1.9435-.8881-3.16518-2.713z" fill="#fff"/><path d="m9.32701 13.0225c-.1604.2644-.24742.5699-.24742.8847v2.545c0 .453.18002.8864.49995 1.2072.31993.3199.75336.4991 1.20636.4991.4522 0 .8864-.1792 1.2064-.4991.3199-.3208.4999-.7542.4999-1.2072v-.7167z" fill="#000"/></g><path d="m19.7285 4.29689s.6893.68935 1.3531 1.35311c.6663.66631.6663 1.74641 0 2.41273-.6638.66375-1.3531 1.3531-1.3531 1.3531m10.2377-5.11894s-.6893.68935-1.3531 1.35311c-.6663.66631-.6663 1.74641 0 2.41273.6638.66375 1.3531 1.3531 1.3531 1.3531m-7.6783 1.70617s.6894-.6893 1.3531-1.35306c.6663-.66632 1.7464-.66632 2.4128 0 .6637.66376 1.3531 1.35306 1.3531 1.35306m-5.119-8.53142s.6894.68935 1.3531 1.3531c.6663.66632 1.7464.66632 2.4128 0 .6637-.66375 1.3531-1.3531 1.3531-1.3531" stroke="#f00" stroke-linecap="round" stroke-miterlimit="1.5" stroke-width="1.70631"/></svg>