<svg fill="none" height="32" viewBox="0 0 32 32" width="32" xmlns="http://www.w3.org/2000/svg" xmlns:xlink="http://www.w3.org/1999/xlink"><clipPath id="a"><path d="m0 0h32v32h-32z"/></clipPath><g clip-path="url(#a)"><path d="m31.1028 20.9925c0 2.0091-.5252 3.4351-1.3444 4.4745-.8271 1.0495-2.0166 1.784-3.4762 2.2907-2.9616 1.0281-6.7719 1.0379-10.1824 1.0379-3.4093 0-7.27255-.0094-10.28664-1.0393-1.48698-.5081-2.7015-1.2448-3.54601-2.2959-.83532-1.0396-1.370401-2.4634-1.370401-4.4679 0-3.7442.805701-7.6213 3.062911-10.5439 2.22495-2.88081 5.96452-4.96848 12.14014-4.96848 5.8587 0 9.5576 2.0958 11.8169 5.00038 2.2888 2.9423 3.1861 6.8267 3.1861 10.512z" fill="#fbc546" stroke="#000" stroke-width="1.7935"/><g clip-rule="evenodd" fill-rule="evenodd"><path d="m10.6028 24.3274h-.1997c-.296 0-.56988-.1535-.726-.4052-.15528-.2508-.16893-.5656-.03669-.8301.21244-.4249.46159-.924.71749-1.4359 1.0119-2.0228 3.0799-3.3009 5.3416-3.3009h.2969c2.2618 0 4.3298 1.2781 5.3417 3.3009.2559.5119.505 1.011.7175 1.4359.1322.2645.1185.5793-.0367.8301-.1562.2517-.43.4052-.7261.4052h-.1996c-.9513-1.063-9.5392-1.063-10.4904 0z" fill="#722245"/><path d="m10.6032 24.3274c.9513-1.063 2.3266-1.7063 3.8162-1.7063h2.8581c1.4896 0 2.8649.6433 3.8161 1.7063z" fill="#ca3b8f"/><path d="m20.8401 15.8498 2.1031.7005c.447.1493.6885.633.54 1.0792-.1493.4471-.633.6885-1.0792.5401l-4.7222-1.5741 4.3886-4.3886c.3327-.3336.8736-.3336 1.2064 0 .3327.3327.3327.8736 0 1.2063z" fill="#000"/><path d="m10.8572 15.8498-2.4366-2.4366c-.33273-.3327-.33273-.8736 0-1.2063.33273-.3336.87363-.3336 1.20636 0l4.38864 4.3886-4.72222 1.5741c-.4462.1484-.92994-.093-1.07924-.5401-.14845-.4462.09299-.9299.54004-1.0792z" fill="#000"/></g></g></svg>