<svg fill="none" height="32" viewBox="0 0 32 32" width="32" xmlns="http://www.w3.org/2000/svg" xmlns:xlink="http://www.w3.org/1999/xlink"><clipPath id="a"><path d="m0 0h32v32h-32z"/></clipPath><g clip-path="url(#a)"><path d="m31.1028 20.9925c0 2.0091-.5252 3.4351-1.3444 4.4745-.8271 1.0495-2.0166 1.7841-3.4762 2.2907-2.9616 1.0282-6.7719 1.0379-10.1824 1.0379-3.4093 0-7.27255-.0094-10.28664-1.0393-1.48698-.5081-2.7015-1.2447-3.54601-2.2958-.83532-1.0397-1.370401-2.4634-1.370401-4.468 0-3.748.807291-8.3097 3.108411-11.90376 2.26699-3.54072 6.01294-6.19919 12.09464-6.19919 5.7647 0 9.4692 2.66321 11.7712 6.23125 2.3312 3.6131 3.2318 8.1799 3.2318 11.8717z" fill="#fbc546" stroke="#000" stroke-width="1.7935"/><g clip-rule="evenodd" fill-rule="evenodd"><path d="m18.5199 20.9012 1.9563-1.9563c.3328-.3336.8737-.3336 1.2064 0l3.4126 3.4126c.3328.3328.3328.8737 0 1.2064-.3327.3327-.8736.3327-1.2063 0l-2.8095-2.8095-1.9563 1.9563c-.3429.3268-.8634.3268-1.2063 0l-1.9563-1.9563-1.9563 1.9563c-.343.3268-.8634.3268-1.2064 0l-1.9563-1.9563-2.80942 2.8095c-.33273.3327-.87363.3327-1.20636 0s-.33273-.8736 0-1.2064l3.41258-3.4126c.3328-.3336.8737-.3336 1.2064 0l1.9563 1.9563 1.9563-1.9563c.343-.3268.8634-.3268 1.2064 0z" fill="#593604"/><path d="m10.4171 17.8416c.7917 0 1.5502-.3148 2.1098-.8745.5597-.5596.8745-1.3181.8745-2.1098 0-.5605 0-1.1475 0-1.708 0-1.6492-1.3369-2.9861-2.986-2.9861h-.0017c-.79176 0-1.55022.3148-2.10989.8745s-.87449 1.3181-.87449 2.1099v1.708c0 1.6491 1.3369 2.986 2.98608 2.986z" fill="#fff"/><path d="m9.13562 13.5758c0-.4522.18002-.8864.49995-1.2063.31993-.32.75423-.5 1.20633-.5.9428 0 1.7063.7636 1.7063 1.7063v.8387c0 .453-.18.8864-.4999 1.2072-.3199.3199-.7542.4991-1.2064.4991-.9427 0-1.70628-.7636-1.70628-1.7063z" fill="#000"/><path d="m21.5047 17.8416c-.7917 0-1.5502-.3148-2.1098-.8745-.5597-.5596-.8745-1.3181-.8745-2.1098 0-.5605 0-1.1475 0-1.708 0-1.6492 1.3369-2.9861 2.986-2.9861h.0017c.7918 0 1.5502.3148 2.1099.8745s.8745 1.3181.8745 2.1099v1.708c0 1.6491-1.3369 2.986-2.9861 2.986z" fill="#fff"/><path d="m22.7862 13.5758c0-.4522-.1801-.8864-.5-1.2063-.3199-.32-.7542-.5-1.2064-.5-.9427 0-1.7063.7636-1.7063 1.7063v.8387c0 .453.1801.8864.5 1.2072.3199.3199.7542.4991 1.2063.4991.9428 0 1.7064-.7636 1.7064-1.7063z" fill="#000"/></g></g></svg>