<svg fill="none" height="32" viewBox="0 0 32 32" width="32" xmlns="http://www.w3.org/2000/svg"><path d="m31.1028 20.9925c0 2.0091-.5252 3.4351-1.3444 4.4745-.8271 1.0495-2.0166 1.7841-3.4762 2.2907-2.9616 1.0282-6.7719 1.0379-10.1824 1.0379-3.4093 0-7.27255-.0094-10.28664-1.0393-1.48698-.5081-2.7015-1.2447-3.54601-2.2958-.83532-1.0397-1.370401-2.4634-1.370401-4.468 0-3.748.807291-8.3097 3.108411-11.90376 2.26699-3.54072 6.01294-6.19919 12.09464-6.19919 5.7647 0 9.4692 2.66321 11.7712 6.23125 2.3312 3.6131 3.2318 8.1799 3.2318 11.8717z" fill="#fbc546" stroke="#000" stroke-width="1.7935"/><g clip-rule="evenodd" fill-rule="evenodd"><path d="m24.4364 21.6527c0-.6782-.2696-1.3292-.7499-1.8095-.4795-.4803-1.1304-.7499-1.8095-.7499-3.2216 0-8.7227 0-11.94424 0-.67911 0-1.33007.2696-1.80954.7499-.48033.4803-.74993 1.1313-.74993 1.8095v.8532c0 .6791.2696 1.3301.74993 1.8104.47947.4795 1.13043.7491 1.80954.7491h11.94424c.6791 0 1.33-.2696 1.8095-.7491.4803-.4803.7499-1.1313.7499-1.8104 0-.2824 0-.5699 0-.8532z" fill="#7e5108"/><path d="m9.76507 24.2037c.00171-.4812.19452-.9436.53493-1.284.343-.343.8079-.5358 1.2925-.5358h8.6306c.4846 0 .9495.1928 1.2925.5358.3404.3404.5332.8028.5349 1.284-.0563.0059-.1134.0085-.1706.0085-2.9545 0-8.9897 0-11.9442 0-.05716 0-.11432-.0026-.17063-.0085zm-.66546-4.038c.25339-.1425.5409-.2193.83609-.2193h11.9442c.2952 0 .5827.0768.8361.2193-.5093.9828-1.5184 1.7548-2.6386 1.7548-2.2882 0-6.0318 0-8.32 0-1.1202 0-2.14846-.772-2.65779-1.7548z" fill="#fff"/><path d="m10.3593 18.2402c1.6492 0 2.9861-1.3369 2.9861-2.9861v-1.7063c0-1.6491-1.3369-2.986-2.9861-2.986h-.0017c-.79169 0-1.55015.3148-2.10982.8745-.55967.5596-.87449 1.3189-.87449 2.1098v1.708c0 1.6492 1.3369 2.9861 2.98601 2.9861z" fill="#fff"/><path d="m9.07959 13.1212c0-.4521.18002-.8864.49995-1.2063.31993-.32.75416-.5 1.20636-.5s.8864.18 1.2064.5c.3199.3199.4999.7542.4999 1.2063v2.5459c0 .4521-.18.8864-.4999 1.2063-.32.32-.7542.5-1.2064.5s-.88643-.18-1.20636-.5c-.31993-.3199-.49995-.7542-.49995-1.2063 0-.7986 0-1.7473 0-2.5459z" fill="#000"/><path d="m21.4503 18.2402c-1.6491 0-2.986-1.3369-2.986-2.9861v-1.7063c0-1.6491 1.3369-2.986 2.986-2.986h.0018c.7917 0 1.5501.3148 2.1098.8745.5597.5596.8745 1.3189.8745 2.1098v1.708c0 1.6492-1.3369 2.9861-2.9861 2.9861z" fill="#fff"/><path d="m22.7301 13.1212c0-.4521-.18-.8864-.4999-1.2063-.32-.32-.7542-.5-1.2064-.5s-.8864.18-1.2063.5c-.32.3199-.5.7542-.5 1.2063v2.5459c0 .4521.18.8864.5 1.2063.3199.32.7541.5 1.2063.5s.8864-.18 1.2064-.5c.3199-.3199.4999-.7542.4999-1.2063 0-.7986 0-1.7473 0-2.5459z" fill="#000"/></g></svg>