<svg fill="none" height="32" viewBox="0 0 32 32" width="32" xmlns="http://www.w3.org/2000/svg"><path d="m31.1028 20.9925c0 2.0091-.5252 3.4351-1.3444 4.4745-.8271 1.0495-2.0166 1.7841-3.4762 2.2907-2.9616 1.0282-6.7719 1.0379-10.1824 1.0379-3.4093 0-7.27255-.0094-10.28664-1.0393-1.48698-.5081-2.7015-1.2447-3.54601-2.2958-.83532-1.0397-1.370401-2.4634-1.370401-4.468 0-3.748.807291-8.3097 3.108411-11.90376 2.26699-3.54072 6.01294-6.19919 12.09464-6.19919 5.7647 0 9.4692 2.66321 11.7712 6.23125 2.3312 3.6131 3.2318 8.1799 3.2318 11.8717z" fill="#fbc546" stroke="#000" stroke-width="1.7935"/><g clip-rule="evenodd" fill-rule="evenodd"><path d="m10.5221 23.8335c-.2627.0325-.52978-.0597-.71833-.2551-.22779-.2363-.29945-.5835-.18428-.8915.1476-.3933.31055-.8293.47861-1.2755.8736-2.3308 3.1021-3.875 5.5916-3.875h.2542c2.4896 0 4.718 1.5442 5.5916 3.875.1681.4462.3311.8822.4787 1.2755.1151.308.0435.6552-.1843.8915-.1886.1954-.4556.2876-.7184.2551-.5597-.8685-2.9852-1.5271-5.2947-1.5459-2.411-.0196-4.7103.639-5.2947 1.5459z" fill="#722245"/><path d="m15.8173 20.9491c2.1662 0 4.1489 1.1091 5.2939 2.8845-.0555-.0068-.1118-.0196-.1664-.0375-.6015-.2005-1.2755-.4249-1.865-.622-1.0315-.3438-2.1107-.5187-3.1976-.5187h-.1314c-1.0869 0-2.1662.1749-3.1976.5187-.5896.1971-1.2636.4215-1.865.622-.0546.0179-.111.0307-.1664.0375 1.1449-1.7754 3.1277-2.8845 5.2938-2.8845z" fill="#ca3b8f"/><path d="m20.3345 9.76465 4.0687 2.32485c.0222.145.0333.2943.0333.4454v1.708c0 .7917-.3149 1.5502-.8745 2.1098-.5597.5597-1.3182.8745-2.1099.8745h-.0017c-1.6491 0-2.986-1.3369-2.986-2.986 0-.5606 0-1.1475 0-1.7081 0-.7917.3148-1.5501.8744-2.1098.2867-.2875.6263-.5102.9957-.65865z" fill="#fff"/><path d="m11.4753 9.76465-4.06874 2.32485c-.02218.145-.03327.2943-.03327.4454v1.708c0 .7917.31482 1.5502.87449 2.1098.55967.5597 1.31813.8745 2.10982.8745h.0017c1.6492 0 2.9861-1.3369 2.9861-2.986 0-.5606 0-1.1475 0-1.7081 0-.7917-.3148-1.5501-.8745-2.1098-.2867-.2875-.6262-.5102-.9956-.65865z" fill="#fff"/><path d="m19.3175 12.9639c0-.4522.18-.8864.5-1.2064.3199-.3199.7541-.4999 1.2063-.4999s.8864.18 1.2064.4999c.3199.32.4999.7542.4999 1.2064v.8531c0 .4522-.18.8865-.4999 1.2064-.32.3199-.7542.5-1.2064.5s-.8864-.1801-1.2063-.5c-.32-.3199-.5-.7542-.5-1.2064 0-.2806 0-.5724 0-.8531z" fill="#000"/><path d="m12.4922 12.9639c0-.4522-.18-.8864-.4999-1.2064-.32-.3199-.7542-.4999-1.2064-.4999s-.88643.18-1.20636.4999c-.31993.32-.49995.7542-.49995 1.2064v.8531c0 .4522.18002.8865.49995 1.2064s.75416.5 1.20636.5.8864-.1801 1.2064-.5c.3199-.3199.4999-.7542.4999-1.2064 0-.2806 0-.5724 0-.8531z" fill="#000"/></g><path d="m25.6713 7.73376c-.0537-.05461-.1083-.10835-.1638-.16125v2.03137c0 .78232.3439 1.38442.8968 1.85452-.5614.6083-.9964 1.499-.9964 2.3914 0 1.8803 1.9928 3.7862 4.3841 2.6902 0-2.9417-2.0407-6.72625-4.1207-8.80624z" fill="#e59a10"/><path clip-rule="evenodd" d="m28.4685 11.8504c1.1294 0 2.0459.9166 2.0459 2.046 0 1.1293-.9165 2.0459-2.0459 2.0459-1.1293 0-2.0459-.9166-2.0459-2.0459 0-1.1294.9166-2.046 2.0459-2.046zm1.023-10.58161c.5647 0 1.0229.45829 1.0229 1.02296v7.16071c0 .56464-.4582 1.02294-1.0229 1.02294-.625 0-1.4209 0-2.0459 0-.5647 0-1.023-.4583-1.023-1.02294 0-1.77176 0-5.38895 0-7.16071 0-.56467.4583-1.02296 1.023-1.02296z" fill="#f00" fill-rule="evenodd"/></svg>