<svg fill="none" height="32" viewBox="0 0 32 32" width="32" xmlns="http://www.w3.org/2000/svg" xmlns:xlink="http://www.w3.org/1999/xlink"><clipPath id="a"><path d="m0 0h32v32h-32z"/></clipPath><g clip-path="url(#a)"><path d="m31.1028 20.9925c0 2.0091-.5252 3.4351-1.3444 4.4745-.8271 1.0495-2.0166 1.7841-3.4762 2.2907-2.9616 1.0282-6.7719 1.0379-10.1824 1.0379-3.4093 0-7.27255-.0094-10.28664-1.0393-1.48698-.5081-2.7015-1.2447-3.54601-2.2958-.83532-1.0397-1.370401-2.4634-1.370401-4.468 0-3.748.807291-8.3097 3.108411-11.90376 2.26699-3.54072 6.01294-6.19919 12.09464-6.19919 5.7647 0 9.4692 2.66321 11.7712 6.23125 2.3312 3.6131 3.2318 8.1799 3.2318 11.8717z" fill="#fb4646" stroke="#000" stroke-width="1.7935"/><g clip-rule="evenodd" fill-rule="evenodd"><path d="m16.1755 16.5907.0827.0017.0828.0026.0827.0042.0828.0051.0819.0069.0819.0077.0819.0085.0819.0094.081.0111.0811.0119.081.0137.0802.0145.0802.0153.0802.0162.0794.0179.0793.0188.0794.0196.0785.0214.0784.0221.0785.0231.0777.0239.0768.0256.0767.0264.0768.0273.076.0282.0759.0298.0751.0299.0742.0316.0742.0332.0742.0333.0734.035.0725.035.0726.0366.0716.0376.0717.0392.0708.0393.07.0409.0699.0418.0691.0427.0683.0435.0682.0444.0674.0452.0666.0469.0665.0469.0657.0487.0648.0494.064.0504.064.0512.0623.052.0623.0529.0614.0538.0614.0546.0598.0563.0597.0563.0588.058.0572.058.0572.0597.0571.0597.0555.0615.0546.0614.0537.0631.0538.064.0503.0614 1.9171 2.3966.0375.0512.0341.0546.0299.0563.0256.058.0213.0606.0171.0614.0119.0623.0068.0639.0026.0632-.0026.064-.0068.064-.0119.0622-.0162.0615-.0214.0605-.0247.0581-.0299.0571-.0341.0538-.0375.0512-.0418.0486-.0452.0452-.0478.0418-.0512.0375-.0546.0342-.0563.0298-.058.0256-.0606.0214-.0614.017-.0623.012-.064.0068-.0631.0025-.064-.0025-.064-.0068-.0623-.012-.0614-.0162-.0606-.0213-.0589-.0248-.0563-.0298-.0537-.0342-.0512-.0375-.0486-.0418-.0453-.0452-.0418-.0478-1.9136-2.3922-.0384-.0478-.0375-.0452-.0384-.0444-.0393-.0435-.0392-.0435-.0401-.0427-.0401-.0418-.041-.0418-.0418-.0401-.0418-.0401-.0426-.0401-.0427-.0384-.0435-.0384-.0444-.0375-.0443-.0367-.0452-.0358-.0453-.0359-.046-.0349-.0461-.0342-.0469-.0341-.0478-.0324-.0478-.0324-.0478-.0316-.0486-.0307-.0486-.0299-.0495-.0298-.0495-.029-.0503-.0273-.0504-.0273-.0511-.0273-.0512-.0256-.0512-.0256-.0521-.0239-.0529-.0239-.052-.023-.0529-.0231-.0537-.0213-.0529-.0205-.0538-.0205-.0546-.0196-.0546-.0188-.0546-.017-.0546-.0179-.0555-.0162-.0554-.0154-.0555-.0145-.0563-.0145-.0563-.0128-.0563-.0128-.0563-.0119-.0572-.0111-.0563-.0103-.0571-.0094-.058-.0085-.0572-.0077-.058-.0068-.058-.006-.058-.0051-.0581-.0051-.058-.0034-.0588-.0034-.0589-.0017-.058-.0009-.0623-.0008h-.3191l-.0623.0008-.058.0009-.0589.0017-.0588.0034-.058.0034-.0581.0051-.058.0051-.058.006-.058.0068-.0572.0077-.058.0085-.0571.0094-.0563.0103-.0572.0111-.0563.0119-.0563.0128-.0563.0128-.0563.0145-.0555.0145-.0554.0154-.0555.0162-.0546.0179-.0546.017-.0546.0188-.0546.0196-.0538.0205-.0529.0205-.0537.0213-.0529.0231-.052.023-.0529.0239-.0521.0239-.0512.0256-.0512.0256-.0511.0273-.0504.0273-.0503.0273-.0495.029-.0495.0298-.0486.0299-.0486.0307-.0478.0316-.0478.0324-.0478.0333-.0469.0332-.0461.0342-.046.0349-.0453.0359-.0452.0358-.0443.0367-.0444.0375-.0435.0384-.0427.0384-.0426.0401-.0418.0401-.0418.0401-.041.0418-.0401.0418-.0401.0427-.0392.0426-.0393.0444-.0384.0444-.0375.0452-.0384.0478-1.9136 2.3922-.0418.0478-.0453.0452-.0486.0418-.0512.0375-.0537.0342-.0572.0298-.058.0248-.0606.0213-.0614.0162-.0631.012-.0632.0068-.06396.0025-.06313-.0025-.06399-.0068-.06228-.012-.06142-.017-.06058-.0214-.05801-.0256-.05631-.0298-.0546-.0342-.05119-.0375-.04778-.0418-.04522-.0452-.0418-.0486-.03754-.0512-.03413-.0538-.02986-.0571-.02474-.0581-.02133-.0605-.01621-.0615-.01194-.0622-.00683-.064-.00256-.064.00256-.0632.00683-.0639.01194-.0623.01706-.0614.02133-.0606.0256-.058.02986-.0563.03412-.0546.03754-.0512 1.91707-2.3966.0503-.0622.0538-.0632.0537-.0631.0546-.0614.0563-.0615.0563-.0597.0572-.0597.0572-.0589.0588-.0571.0597-.0563.0598-.0563.0614-.0546.0614-.0538.0623-.0529.0623-.052.064-.0512.064-.0504.0648-.0494.0657-.0487.0665-.0469.0666-.0469.0674-.0452.0682-.0444.0683-.0435.0691-.0427.0699-.0418.07-.0409.0708-.0393.0717-.0392.0716-.0376.0726-.0366.0725-.035.0734-.035.0742-.0333.0742-.0332.0742-.0316.0751-.0299.0759-.0298.076-.0282.0768-.0273.0767-.0264.0768-.0256.0777-.0239.0785-.0231.0784-.0221.0785-.0214.0794-.0196.0793-.0188.0794-.0179.0802-.0162.0802-.0153.0802-.0145.081-.0137.0811-.0119.081-.0111.0819-.0094.0819-.0085.0819-.0077.0819-.0069.0828-.0051.0827-.0042.0828-.0026.0827-.0017.0802-.0009h.3311z" fill="#5b1010"/><path d="m20.1956 16.1632 5.1189 2.5595h.9538c.4258 0 .8344.1689 1.1356.4701.3011.3011.4701.7098.4701 1.1355v.0017c0 .5836-.3293 1.1168-.8515 1.3779-.4274.2133-.8548.4274-.8548.4274s-.2142.4274-.4275.8549c-.261.5221-.7943.8514-1.3778.8514-.0009 0-.0009 0-.0017 0-.4258 0-.8344-.1689-1.1356-.4701-.3011-.3011-.4701-.7098-.4701-1.1355 0-.8856 0-1.807 0-1.807z" fill="#fff"/><path d="m11.664 16.1632-5.11896 2.5595s-.43938 0-.95383 0c-.42573 0-.83439.1689-1.13556.4701-.30116.3011-.47008.7098-.47008 1.1355v.0017c0 .5836.32931 1.1168.85145 1.3779.42743.2133.85486.4274.85486.4274s.21414.4274.42743.8549c.26107.5221.79429.8514 1.37785.8514h.00171c.42572 0 .83438-.1689 1.13555-.4701.30116-.3011.47009-.7098.47009-1.1355 0-.8856 0-1.807 0-1.807z" fill="#fff"/><path d="m22.7852 9.7655.0392.00171.0384.00426.0384.00598.0384.00682.0376.00939.0375.01109.0367.01279.0358.01365.035.01621.035.01707.0341.01962.0324.02048.0324.02218.0308.02303.0298.02474.029.02648.0273.0273.0265.029.0247.0298.023.0308.0222.0324.0205.0324.0196.0341.0171.035.0162.035.0137.0358.0127.0367.0111.0375.0094.0376.0069.0384.0059.0384.0043.0384.0017.0392.0008.0384-.0017.0392-.0025.0384-.0051.0384-.0069.0384-.0076.0384-.0103.0375-.0119.0367-.0137.0367-.0145.0358-.017.035-.018.0342-.0204.0332-.0214.0324-.0221.0316-.0248.0307-.0247.029-.0273.0282-2.4366 2.4366 2.103.7013.0367.0128.0358.0145.035.0171.035.0179.0332.0188.0325.0213.0324.023.0298.0239.0299.0247.0282.0265.0273.0281.0256.0291.0247.0298.023.0316.0214.0324.0204.0333.0179.0341.0171.035.0154.0358.0136.0358.012.0376.0111.0367.0085.0384.0068.0384.0051.0383.0034.0384.0017.0393v.0384l-.0025.0392-.0034.0384-.0051.0384-.0077.0384-.0086.0375-.0102.0376-.0128.0367-.0136.0366-.0154.035-.0179.035-.0179.0341-.0205.0333-.0222.0316-.023.0315-.0248.0299-.0256.029-.0273.0282-.029.0264-.029.0248-.0307.0238-.0324.0222-.0324.0205-.0342.0196-.0341.0179-.035.0162-.0366.0145-.0367.0128-.0367.0111-.0376.0094-.0383.0077-.0384.006-.0384.0042-.0393.0026-.0384.0009-.0392-.0009-.0384-.0026-.0384-.0042-.0384-.0069-.0384-.0076-.0375-.0103-.0367-.0111-4.34-1.4461-.0973-.4129 4.1037-4.1037.0282-.02728.029-.02474.0307-.02474.0316-.02218.0324-.02133.0332-.02048.0342-.01791.0349-.01707.0359-.0145.0367-.01365.0367-.01195.0375-.01023.0384-.00768.0384-.00683.0384-.00512.0384-.00256.0392-.0017z" fill="#000"/><path d="m9.15313 9.76635.03839.00256.03839.00512.0384.00683.03839.00768.03754.01023.03668.01195.03669.01365.03583.0145.03498.01707.03413.01791.03327.02048.03242.02133.03157.02218.03071.02474.02901.02474.02815.02728 4.10372 4.1037-.0973.4129-4.34 1.4461-.03669.0111-.03754.0103-.03839.0076-.03839.0069-.03839.0042-.0384.0026-.03924.0009-.03839-.0009-.03925-.0026-.03839-.0042-.03839-.006-.03839-.0077-.03754-.0094-.03669-.0111-.03668-.0128-.03669-.0145-.03498-.0162-.03413-.0179-.03412-.0196-.03242-.0205-.03242-.0222-.03072-.0238-.029-.0248-.02901-.0264-.0273-.0282-.0256-.029-.02474-.0299-.02303-.0315-.02219-.0316-.02047-.0333-.01792-.0341-.01791-.035-.01536-.035-.01365-.0366-.0128-.0367-.01024-.0376-.00853-.0375-.00768-.0384-.00512-.0384-.00341-.0384-.00256-.0392v-.0384l.00171-.0393.00341-.0384.00512-.0383.00683-.0384.00853-.0384.01109-.0367.01194-.0376.01365-.0358.01536-.0358.01706-.035.01792-.0341.02048-.0333.02132-.0324.02304-.0316.02474-.0298.0256-.0291.0273-.0281.02815-.0265.02986-.0247.02986-.0239.03242-.023.03242-.0213.03328-.0188.03497-.0179.03498-.0171.03584-.0145.03668-.0128 2.103-.7013-2.43658-2.4366-.0273-.0282-.02474-.029-.02475-.0307-.02218-.0316-.02133-.0324-.02047-.0332-.01792-.0342-.01706-.035-.01451-.0358-.01365-.0367-.01194-.0367-.01024-.0375-.00768-.0384-.00682-.0384-.00512-.0384-.00256-.0384-.00171-.0392.00086-.0384.0017-.0392.00427-.0384.00597-.0384.00683-.0384.00938-.0376.01109-.0375.0128-.0367.01365-.0358.01621-.035.01706-.035.01962-.0341.02048-.0324.02218-.0324.02304-.0308.02474-.0298.02645-.029.0273-.0273.02901-.02648.02986-.02474.03071-.02303.03242-.02218.03242-.02048.03413-.01962.03498-.01707.03498-.01621.03583-.01365.03668-.01279.03754-.01109.03754-.00939.03839-.00682.0384-.00598.03839-.00426.03924-.00171.03839-.00085z" fill="#000"/></g></g></svg>