<svg fill="none" height="32" viewBox="0 0 32 32" width="32" xmlns="http://www.w3.org/2000/svg"><path d="m31.1028 20.9925c0 2.0091-.5252 3.4351-1.3444 4.4745-.8271 1.0495-2.0166 1.7841-3.4762 2.2907-2.9616 1.0282-6.7719 1.0379-10.1824 1.0379-3.4093 0-7.27255-.0094-10.28664-1.0393-1.48698-.5081-2.7015-1.2447-3.54601-2.2958-.83532-1.0397-1.370401-2.4634-1.370401-4.468 0-3.748.807291-8.3097 3.108411-11.90376 2.26699-3.54072 6.01294-6.19919 12.09464-6.19919 5.7647 0 9.4692 2.66321 11.7712 6.23125 2.3312 3.6131 3.2318 8.1799 3.2318 11.8717z" fill="#fbc546" stroke="#000" stroke-width="1.7935"/><path d="m16.0998 1.9928c-7.72241 0-12.73601 6.30511-14.90412 11.2592 0 0 1.89314-2.491 14.90412-2.491 13.0109 0 14.6886 2.491 14.6886 2.491-2.2309-4.94444-7.3451-11.2592-14.6886-11.2592z" fill="#7aafff"/><g clip-rule="evenodd" fill-rule="evenodd"><path d="m24.5738 6.55731c.2602.21926.5119.44961.7542.69276.6953.69447 1.2951 1.46573 1.7924 2.29329v1.45974c0 .3396-.1348.6646-.3745.9052-.2406.2398-.5656.3745-.9052.3745-.3395 0-.6646-.1347-.9052-.3745-.2397-.2406-.3745-.5656-.3745-.9052 0-1.22 0-3.04576 0-4.26577 0-.06058.0042-.12115.0128-.18002zm-3.3401-1.9853c.871.34041 1.702.78405 2.4741 1.32154v4.25645c0 .3395-.1348.6646-.3745.9052-.2406.2397-.5657.3745-.9052.3745-.3396 0-.6646-.1348-.9052-.3745-.2398-.2406-.3746-.5657-.3746-.9052 0-1.42055 0-3.69848 0-5.11899 0-.15869.0291-.31396.0854-.459zm-3.4366-.78576c.8515.0657 1.6884.22183 2.4981.46327v5.04728c0 .33955-.1348.66461-.3745.9052-.2406.2397-.5657.3745-.9052.3745-.3396 0-.6647-.1348-.9052-.3745-.2398-.24059-.3746-.56565-.3746-.9052 0-1.42051 0-3.69844 0-5.11895 0-.13394.0213-.26618.0614-.3916z" fill="#3988ff"/><path d="m2.98915 13.3516c-.75806 0-1.13509.1993-1.89314.1993.29891-1.096 1.41718-3.70363 1.75207-4.28447 2.37265-4.11513 6.48445-7.27363 13.25162-7.27363 6.4338 0 10.5037 3.1645 12.9135 7.27363.3408.58104 2.0741 4.18487 1.7752 4.28447l-1.9928-.7971-1.9022-3.48737c-2.1855-3.19753-5.5986-5.48013-10.7937-5.48013-3.5248 0-6.14812.93227-8.11661 2.34084-1.20354.8612-2.18181 1.63037-3.00117 2.84037-.42011.70041-.49819.39856-1.99277 4.38409z" fill="#000"/><path d="m10.6097 23.6914c-.2628.0325-.5299-.0597-.7184-.2551-.22779-.2363-.29946-.5835-.18428-.8915.14759-.3933.31058-.8293.47858-1.2755.8737-2.3308 3.1021-3.875 5.5916-3.875h.2543c2.4895 0 4.7179 1.5442 5.5916 3.875.168.4462.331.8822.4786 1.2755.1152.308.0435.6552-.1843.8915-.1885.1954-.4556.2876-.7184.2551-.5596-.8685-2.9852-1.5271-5.2946-1.5459-2.4111-.0196-4.7103.639-5.2947 1.5459z" fill="#722245"/><path d="m15.9048 20.807c2.1662 0 4.1489 1.1091 5.2938 2.8845-.0554-.0068-.1117-.0196-.1663-.0375-.6015-.2005-1.2755-.4249-1.865-.622-1.0315-.3438-2.1107-.5187-3.1977-.5187h-.1313c-1.087 0-2.1662.1749-3.1977.5187-.5895.1971-1.2635.4215-1.865.622-.0546.0179-.1109.0307-.1663.0375 1.1449-1.7754 3.1276-2.8845 5.2938-2.8845z" fill="#ca3b8f"/><path d="m21.6773 11.5526.1135.1715.2576.0401 2.388 1.365v1.2815c0 .7917-.3148 1.5501-.8745 2.1098s-1.3181.8745-2.1098.8745h-.0018c-1.6491 0-2.986-1.3369-2.986-2.986 0-.5606 0-1.1475 0-1.7081 0-.7917.3148-1.5502.8745-2.1098.081-.0819.1663-.1579.2559-.2287z" fill="#fff"/><path d="m22.0484 11.7635c.4138.3114.6817.8071.6817 1.3651v.8386c0 .453-.18.8864-.5 1.2072-.3199.32-.7542.4991-1.2063.4991-.9428 0-1.7064-.7636-1.7064-1.7063v-.8386c0-.4522.1801-.8865.5-1.2064s.7542-.5 1.2064-.5c.2312 0 .4521.0461.6535.1297z" fill="#000"/><path d="m10.1324 11.5526-.1135.1715-.25762.0401-2.38799 1.365v1.2815c0 .7917.31482 1.5501.87449 2.1098s1.31813.8745 2.10982.8745h.0017c1.6492 0 2.9861-1.3369 2.9861-2.986 0-.5606 0-1.1475 0-1.7081 0-.7917-.3148-1.5502-.8745-2.1098-.081-.0819-.1664-.1579-.2559-.2287z" fill="#fff"/><path d="m9.76126 11.7635c-.41378.3114-.68167.8071-.68167 1.3651v.8386c0 .453.18002.8864.49995 1.2072.31993.32.75416.4991 1.20636.4991.9427 0 1.7063-.7636 1.7063-1.7063v-.8386c0-.4522-.18-.8865-.4999-1.2064-.32-.3199-.7542-.5-1.2064-.5-.2312 0-.4522.0461-.6535.1297z" fill="#000"/></g></svg>