<svg fill="none" height="32" viewBox="0 0 32 32" width="32" xmlns="http://www.w3.org/2000/svg"><path d="m31.1028 20.9925c0 2.0091-.5252 3.4351-1.3444 4.4745-.8271 1.0495-2.0166 1.7841-3.4762 2.2907-2.9616 1.0282-6.7719 1.0379-10.1824 1.0379-3.4093 0-7.27255-.0094-10.28664-1.0393-1.48698-.5081-2.7015-1.2447-3.54601-2.2958-.83532-1.0397-1.370401-2.4634-1.370401-4.468 0-3.748.807291-8.3097 3.108411-11.90376 2.26699-3.54072 6.01294-6.19919 12.09464-6.19919 5.7647 0 9.4692 2.66321 11.7712 6.23125 2.3312 3.6131 3.2318 8.1799 3.2318 11.8717z" fill="#fbc546" stroke="#000" stroke-width="1.7935"/><path d="m16.0998 1.9928c-7.72241 0-12.73601 6.30511-14.90412 11.2592 0 0 1.89314-3.48737 14.90412-3.48737 13.0109 0 14.6886 3.48737 14.6886 3.48737-2.2309-4.94444-7.3451-11.2592-14.6886-11.2592z" fill="#7aafff"/><path clip-rule="evenodd" d="m24.5738 6.55731c.2602.21926.5119.44961.7542.69276.6953.69447 1.2951 1.46573 1.7924 2.29329v.53574c0 .3395-.1348.6646-.3745.9052-.2406.2397-.5656.3745-.9052.3745-.3395 0-.6646-.1348-.9052-.3745-.2397-.2406-.3745-.5657-.3745-.9052 0-1.22005 0-2.12176 0-3.34177 0-.06058.0042-.12115.0128-.18002zm-3.3401-1.9853c.871.34041 1.702.78405 2.4741 1.32154v3.58769c0 .33955-.1348.66456-.3745.90516-.2406.2398-.5657.3746-.9052.3746-.3396 0-.6646-.1348-.9052-.3746-.2398-.2406-.3746-.56561-.3746-.90516 0-1.42051 0-3.02972 0-4.45023 0-.15869.0291-.31396.0854-.459zm-3.4366-.78576c.8515.0657 1.6884.22183 2.4981.46327v4.33497c0 .33955-.1348.66461-.3745.9052-.2406.23973-.5657.37453-.9052.37453-.3396 0-.6647-.1348-.9052-.37453-.2398-.24059-.3746-.56565-.3746-.9052 0-1.42051 0-2.98613 0-4.40664 0-.13394.0213-.26618.0614-.3916z" fill="#3988ff" fill-rule="evenodd"/><path clip-rule="evenodd" d="m2.98915 13.3516c-.75806 0-1.13509.1993-1.89314.1993.29891-1.096 1.41718-3.70363 1.75207-4.28447 2.37265-4.11513 6.48445-7.27363 13.25162-7.27363 6.4338 0 10.5037 3.1645 12.9135 7.27363.3408.58104 2.0741 4.18487 1.7752 4.28447l-1.9928-.7971-1.9022-3.48737c-2.1855-3.19753-5.5986-5.48013-10.7937-5.48013-3.5248 0-6.14812.93227-8.11661 2.34084-1.20354.8612-2.18181 1.63037-3.00117 2.84037-.42011.70041-.49819.39856-1.99277 4.38409z" fill="#000" fill-rule="evenodd"/><path d="m20.5444 28.7894v.9651h.9651 5.5092 1.236l-.2997-1.1991-.9363.234.9363-.234v-.0001l-.0001-.0003-.0003-.0012-.0012-.0049-.0048-.0191-.0183-.0734-.0673-.2693-.2209-.8834c-.1715-.6861-.3736-1.4941-.4959-1.9817-.0536-.2161-.0806-.4361-.0806-.6571v-1.8438c0-1.801-1.4595-3.2606-3.2606-3.2606-.8643 0-1.6939.3429-2.3058.9548s-.9548 1.4415-.9548 2.3058zm-10.0533.9651h.9651v-.9651-5.9683c0-.8643-.3429-1.6939-.9548-2.3058-.61185-.6119-1.44142-.9548-2.30577-.9548-1.80105 0-3.26061 1.4596-3.26061 3.2606v1.8438c0 .2209-.02696.4409-.08057.657-.12223.4876-.32436 1.2956-.49593 1.9818l-.22085.8834-.06731.2693-.01834.0734-.00478.0191-.00122.0049-.0003.0012-.00008.0003-.00002.0001.93631.234-.93632-.234-.29965 1.1991h1.23597z" fill="#fbc546" stroke="#7e5108" stroke-width="1.93023"/><g clip-rule="evenodd" fill-rule="evenodd"><path d="m13.8115 22.865c-.2295-.3899-.354-.8387-.354-1.2994v-3.4126c0-.6791.2696-1.3301.7499-1.8096.4795-.4803 1.1304-.7499 1.8095-.7499s1.3301.2696 1.8096.7499c.4803.4795.7499 1.1305.7499 1.8096v3.4126c0 .4607-.1246.9095-.3541 1.2994-.4402-.7943-3.9706-.7943-4.4108 0z" fill="#722245"/><path d="m13.8107 22.8649c.4403-.7943 1.2806-1.2993 2.2054-1.2993.9249 0 1.7652.505 2.2055 1.2993-.1093.1851-.2415.3566-.3959.5102-.4795.4803-1.1304.7499-1.8096.7499-.6791 0-1.33-.2696-1.8095-.7499-.1544-.1536-.2867-.3251-.3959-.5102z" fill="#ca3b8f"/><path d="m10.4697 16.4466c-.79173 0-1.55019-.3148-2.10986-.8745s-.87449-1.3181-.87449-2.1098c0-.5606 0-1.1475 0-1.7081 0-1.6491 1.3369-2.98601 2.98605-2.98601h.0017c.7917 0 1.5502.31481 2.1099.87448.5596.55963.8745 1.31813.8745 2.10983v1.7081c0 1.6491-1.3369 2.986-2.9861 2.986z" fill="#fff"/><path d="m12.6043 11.7542c0-.5656-.2244-1.1082-.6245-1.5084-.4002-.40008-.9428-.62446-1.5084-.62446-1.17822 0-2.1329.95466-2.1329 2.13286v1.6918c0 .5657.22438 1.1083.62451 1.5084.40013.4002.94274.6245 1.50839.6245 1.1782 0 2.1329-.9546 2.1329-2.1329z" fill="#000"/><path d="m21.5642 16.4466c.7917 0 1.5502-.3148 2.1098-.8745.5597-.5597.8745-1.3181.8745-2.1098 0-.5606 0-1.1475 0-1.7081 0-1.6491-1.3369-2.98601-2.986-2.98601h-.0017c-.7918 0-1.5502.31481-2.1099.87448-.5597.55963-.8745 1.31813-.8745 2.10983v1.7081c0 1.6491 1.3369 2.986 2.9861 2.986z" fill="#fff"/><path d="m19.4296 11.7542c0-.5656.2243-1.1082.6245-1.5084.4001-.40008.9427-.62446 1.5084-.62446 1.1782 0 2.1329.95466 2.1329 2.13286v1.6918c0 .5657-.2244 1.1083-.6246 1.5084-.4001.4002-.9427.6245-1.5083.6245-1.1783 0-2.1329-.9546-2.1329-2.1329z" fill="#000"/></g></svg>