<svg fill="none" height="32" viewBox="0 0 32 32" width="32" xmlns="http://www.w3.org/2000/svg" xmlns:xlink="http://www.w3.org/1999/xlink"><clipPath id="a"><path d="m0 0h32v32h-32z"/></clipPath><g clip-path="url(#a)"><path d="m31.1028 20.9925c0 2.0091-.5252 3.4351-1.3444 4.4745-.8271 1.0495-2.0166 1.784-3.4762 2.2907-2.9616 1.0281-6.7719 1.0379-10.1824 1.0379-3.4093 0-7.27255-.0094-10.28664-1.0393-1.48698-.5081-2.7015-1.2448-3.54601-2.2959-.83532-1.0396-1.370401-2.4634-1.370401-4.4679 0-3.7442.805701-7.6213 3.062911-10.5439 2.22495-2.88081 5.96452-4.96848 12.14014-4.96848 5.8587 0 9.5576 2.0958 11.8169 5.00038 2.2888 2.9423 3.1861 6.8267 3.1861 10.512z" fill="#fbc546" stroke="#000" stroke-width="1.7935"/><g clip-rule="evenodd" fill-rule="evenodd"><path d="m11.8197 24.3842c-.14-.07-.2603-.1775-.3456-.3148-.1553-.2517-.1689-.5657-.0367-.8301.0478-.0956.0964-.1937.1451-.2918.5784-1.156 1.76-1.8863 3.0526-1.8863h2.6072c1.2926 0 2.4742.7303 3.0526 1.8863.0486.0981.0973.1962.1451.2918.1322.2644.1185.5784-.0367.8301-.0853.1373-.2056.2448-.3456.3148-.79-.488-7.448-.488-8.238 0z" fill="#722245"/><path d="m11.8137 24.3842c.79-.488 1.7157-.7636 2.69-.7636h2.8581c.9743 0 1.9.2756 2.69.7636-.116.058-.2466.0896-.3805.0896-1.958 0-5.5191 0-7.4771 0-.1339 0-.2644-.0316-.3805-.0896z" fill="#ca3b8f"/><path d="m10.3869 18.1481 1.9563-1.9563c.3328-.3327.8737-.3327 1.2064 0s.3327.8736 0 1.2064l-3.1627 3.1626-3.16262-3.1626c-.33273-.3328-.33273-.8737 0-1.2064s.87363-.3327 1.20636 0z" fill="#000"/><path d="m21.478 18.1481 1.9563-1.9563c.3327-.3327.8736-.3327 1.2063 0 .3328.3327.3328.8736 0 1.2064l-3.1626 3.1626-3.1627-3.1626c-.3327-.3328-.3327-.8737 0-1.2064.3328-.3327.8737-.3327 1.2064 0z" fill="#000"/><path d="m24.3555 7.59478-3.5243-.71838c-.1993 0-1.1957-.19928-1.1957-.19928l-1.5886 1.53381v1.48673h6.3086z" fill="#e59a10"/><path d="m10.761 8.64486v-1.60399s2.0924-.56436 2.192-.36509c.0997.19928 4.1166-.13379 4.1166-.13379v1.48673l-2.719 2.71898h2.719v2.1029h-6.3086v-1.4867l2.719-2.71904z" fill="#e59a10"/><path d="m19.3681 4.86068v-1.96838h5.9051v1.39164l-2.5451 2.54511h2.5451v1.96838h-5.9051v-1.39164l2.5451-2.54511z" fill="#1d5dff"/><path d="m26.1122 1.96838v-1.96838h5.9051v1.39164l-2.5451 2.54511h2.5451v1.96838h-5.9051v-1.39164l2.5451-2.54511z" fill="#1d5dff"/><path d="m12.5545 7.81322v-1.96837h5.9051v1.39164l-2.5451 2.54511h2.5451v1.9684h-5.9051v-1.3917l2.5451-2.54508z" fill="#1d5dff"/></g></g></svg>