<svg fill="none" height="32" viewBox="0 0 32 32" width="32" xmlns="http://www.w3.org/2000/svg"><path d="m31.0361 20.8339c0 8.1661-8.5998 8.1661-14.9242 8.1661-6.32434 0-15.1119 0-15.1119-8.1661 0-7.2274 3.09745-17.8339 15.1119-17.8339 11.4513 0 14.9242 10.6802 14.9242 17.8339z" fill="#fbc546"/><path clip-rule="evenodd" d="m22.755 22.5801c0-1.6159-.9129-3.0927-2.3581-3.8153-.9743-.4871-2.0758-1.0374-2.9409-1.4708-.9606-.4804-2.0919-.4804-3.0525 0-.8651.4334-1.9666.9837-2.9409 1.4708-1.4452.7226-2.35811 2.1994-2.35811 3.8153v1.6296c0 1.8846 1.52801 3.4126 3.41261 3.4126h6.8253c1.8846 0 3.4126-1.528 3.4126-3.4126 0-.5469 0-1.1049 0-1.6296z" fill="#fff" fill-rule="evenodd"/><path clip-rule="evenodd" d="m16.0031 15.2283.0734.0017.0734.0025.0742.0034.0734.0052.0725.0051.0734.0068.0733.0085.0734.0086.0734.0102.0725.0111.0725.0119.0725.0137.0726.0136.0725.0154.0725.0162.0717.0179.0716.0188.0717.0188.0708.0213.0717.0213.0708.0231.0708.023.0699.0247.07.0265.07.0264.0691.0282.0691.029.0691.0299.0682.0315.0683.0324.0623.0299 2.9527 1.4768.0879.0444.093.0503.0922.0512.0904.0529.0904.0538.0888.0554.087.0572.0861.0588.0854.0598.0844.0614.0828.0623.081.064.0802.0648.0794.0674.0776.0674.0768.0691.0751.07.0733.0716.0734.0725.0708.0743.07.075.0682.076.0674.0776.0657.0777.0649.0793.0631.081.0614.0811.0598.0828.0588.0836.0572.0844.0563.0853.0546.0862.0529.087.0512.0888.0495.0887.0486.0896.0469.0913.0452.0912.0435.0922.0427.093.0401.0938.0392.0947.0376.0956.0358.0964.0341.0964.0325.0973.0315.0981.029.0989.0273.099.0256.0998.0248.1007.0222.1015.0204.1015.0197.1016.017.1023.0154.1033.0136.1032.012.1041.0102.1041.0085.1041.006.1049.0051.1058.0026.1049.0008.0981v1.6483l-.0017.1203-.0051.1306-.0077.1297-.0119.1296-.0145.1289-.0179.1271-.0205.1271-.0247.1254-.0273.1246-.0299.1237-.0333.122-.0358.1211-.0393.1203-.0409.1186-.0452.1169-.047.116-.0503.1144-.0529.1126-.0546.1117-.058.1092-.0606.1084-.0631.1066-.0648.1041-.0683.1033-.07.1015-.0725.0989-.0751.0973-.0767.0956-.0794.0938-.081.0921-.0836.0896-.0854.0879-.0878.0853-.0896.0836-.0922.0811-.0938.0793-.0956.0768-.0972.0751-.099.0725-.1015.07-.1032.0682-.1041.0649-.1067.0631-.1083.0606-.1092.058-.1118.0546-.1126.0529-.1143.0503-.1161.0469-.1168.0453-.1186.0409-.1203.0392-.1212.0359-.122.0333-.1237.0298-.1245.0273-.1255.0248-.1271.0204-.1271.0179-.1288.0146-.1289.0119-.1305.0077-.1305.0051-.1203.0017h-6.8475l-.1202-.0017-.1306-.0051-.1305-.0077-.1288-.0119-.1289-.0146-.1271-.0179-.1271-.0204-.1254-.0248-.1246-.0273-.1237-.0298-.122-.0333-.1211-.0359-.1203-.0392-.1186-.0409-.1169-.0453-.116-.0469-.1144-.0503-.1126-.0529-.1117-.0546-.1092-.058-.1084-.0606-.10664-.0631-.10409-.0649-.10323-.0682-.10152-.07-.09897-.0725-.09726-.0751-.09555-.0768-.09385-.0793-.09214-.0811-.08958-.0836-.08788-.0853-.08531-.0879-.08361-.0896-.08105-.0921-.07935-.0938-.07678-.0956-.07508-.0973-.07252-.0989-.06996-.1015-.06825-.1033-.06484-.1041-.06313-.1066-.06058-.1084-.05801-.1092-.0546-.1117-.0529-.1126-.05034-.1144-.04692-.116-.04522-.1169-.04095-.1186-.03924-.1203-.03584-.1211-.03327-.122-.02986-.1237-.0273-.1246-.02474-.1254-.02048-.1271-.01792-.1271-.0145-.1289-.01194-.1296-.00768-.1297-.00512-.1306-.00171-.1203v-1.6483l.00086-.0981.00256-.1049.00512-.1058.00597-.1049.00853-.1041.01024-.1041.01194-.1041.01365-.1032.01536-.1033.01706-.1023.01962-.1016.02048-.1015.02218-.1015.02474-.1007.0256-.0998.0273-.099.02901-.0989.03156-.0981.03242-.0973.03413-.0964.03583-.0964.03754-.0956.03925-.0947.04009-.0938.04266-.093.04351-.0922.04522-.0912.04692-.0913.04863-.0896.04949-.0887.05119-.0888.05289-.087.05461-.0862.0563-.0853.05716-.0844.05887-.0836.05972-.0828.06143-.0811.06313-.081.06484-.0793.0657-.0777.0674-.0776.06825-.076.06996-.075.07081-.0743.07337-.0725.07337-.0716.07508-.07.07679-.0691.07763-.0674.07935-.0674.08019-.0648.08105-.064.08276-.0623.08446-.0614.08532-.0598.08621-.0588.087-.0572.0887-.0554.0904-.0538.0905-.0529.0921-.0512.093-.0503.0879-.0444 2.9528-1.4768.0622-.0299.0683-.0324.0682-.0315.0692-.0299.0691-.029.0691-.0282.0699-.0264.07-.0265.0699-.0247.0709-.023.0708-.0231.0716-.0213.0708-.0213.0717-.0188.0717-.0188.0716-.0179.0726-.0162.0725-.0154.0725-.0136.0725-.0137.0725-.0119.0726-.0111.0733-.0102.0734-.0086.0734-.0085.0733-.0068.0726-.0051.0733-.0052.0743-.0034.0733-.0025.0734-.0017.0734-.0009zm-.122 1.7063-.0494.0008-.0487.0017-.0495.0026-.0486.0026-.0486.0042-.0495.0043-.0486.006-.0487.0059-.0486.006-.0486.0077-.0487.0085-.0486.0086-.0478.0093-.0486.0103-.0478.0111-.0477.0111-.0478.0128-.0478.0128-.0478.0136-.0477.0145-.047.0154-.0469.0153-.0469.0171-.0469.017-.0461.018-.0461.0187-.0461.0188-.046.0205-.0461.0205-.0452.0213-.0452.0222-2.9409 1.4708-.0674.0341-.0665.0359-.0657.0367-.0648.0375-.064.0384-.064.0401-.0623.0409-.0614.0418-.0606.0427-.0606.0435-.0588.0444-.0581.046-.0571.047-.0563.0469-.0563.0486-.0546.0495-.0529.0503-.0529.0504-.0521.052-.0512.0529-.0494.0538-.0495.0546-.0478.0546-.0469.0563-.0461.0563-.04521.058-.04352.058-.04351.0589-.0418.0597-.04095.0606-.0401.0605-.03839.0623-.0384.0623-.03668.0623-.03498.064-.03498.064-.03327.0648-.03242.0657-.03157.0657-.02986.0665-.02901.0674-.02815.0674-.02645.0683-.02559.0682-.02475.0691-.02303.07-.02218.07-.02048.0708-.01962.0708-.01877.0708-.01706.0717-.01621.0725-.01451.0725-.01365.0725-.0128.0734-.01109.0734-.00938.0742-.00853.0734-.00768.075-.00597.0743-.00427.075-.00341.0751-.00171.0759-.00085.0751v1.6296l.00085.0878.00341.0879.00598.087.00767.0862.00939.0853.01194.0853.01365.0845.01621.0836.01792.0828.02048.0827.02218.0811.02389.0802.02559.0802.02816.0784.029.0785.03157.0768.03327.076.03498.075.03754.0743.03839.0733.0401.0717.04181.0708.04351.07.04521.0682.04693.0683.04863.0657.04948.0657.05119.0631.0529.0631.0546.0614.05626.0598.0572.058.058.0571.0597.0564.0615.0546.0631.0529.0631.0511.0657.0495.0657.0487.0683.0469.0682.0452.07.0435.0708.0418.0717.0401.0733.0384.0743.0375.075.035.076.0333.0768.0316.0784.029.0785.0281.0802.0256.0802.0239.0811.0222.0827.0205.0828.0179.0836.0162.0845.0136.0853.012.0853.0094.0862.0076.087.006.0879.0034.0878.0009h6.8253l.0879-.0009.0878-.0034.0871-.006.0861-.0076.0854-.0094.0853-.012.0844-.0136.0836-.0162.0828-.0179.0828-.0205.081-.0222.0802-.0239.0802-.0256.0785-.0281.0785-.029.0768-.0316.0759-.0333.0751-.035.0742-.0375.0734-.0384.0716-.0401.0708-.0418.07-.0435.0683-.0452.0682-.0469.0657-.0487.0657-.0495.0631-.0511.0632-.0529.0614-.0546.0597-.0564.058-.0571.0572-.058.0563-.0598.0546-.0614.0529-.0631.0512-.0631.0495-.0657.0486-.0657.0469-.0683.0452-.0682.0435-.07.0419-.0708.0401-.0717.0383-.0733.0376-.0743.035-.075.0332-.076.0316-.0768.029-.0785.0282-.0784.0256-.0802.0238-.0802.0222-.0811.0205-.0827.0179-.0828.0162-.0836.0137-.0845.0119-.0853.0094-.0853.0077-.0862.006-.087.0034-.0879.0008-.0878v-1.6296l-.0008-.0751-.0017-.0759-.0034-.0751-.0043-.075-.006-.0743-.0077-.075-.0085-.0734-.0094-.0742-.0111-.0734-.0128-.0734-.0136-.0725-.0145-.0725-.0162-.0725-.0171-.0717-.0188-.0708-.0196-.0708-.0205-.0708-.0221-.07-.0231-.07-.0247-.0691-.0256-.0682-.0265-.0683-.0281-.0674-.029-.0674-.0299-.0665-.0316-.0657-.0324-.0657-.0332-.0648-.035-.064-.035-.064-.0367-.0623-.0384-.0623-.0384-.0623-.0401-.0605-.0409-.0606-.0418-.0597-.0435-.0589-.0436-.058-.0452-.058-.046-.0563-.047-.0563-.0477-.0546-.0495-.0546-.0495-.0538-.0512-.0529-.052-.052-.0529-.0504-.0529-.0503-.0546-.0495-.0563-.0486-.0563-.0469-.0572-.047-.058-.046-.0589-.0444-.0606-.0435-.0605-.0427-.0615-.0418-.0622-.0409-.064-.0401-.064-.0384-.0649-.0375-.0657-.0367-.0665-.0359-.0674-.0341-2.9408-1.4708-.0453-.0222-.0452-.0213-.046-.0205-.0461-.0205-.0461-.0188-.0461-.0187-.046-.018-.0469-.017-.047-.0171-.0469-.0153-.0469-.0154-.0478-.0145-.0478-.0136-.0477-.0128-.0478-.0128-.0478-.0111-.0478-.0111-.0486-.0103-.0478-.0093-.0486-.0086-.0486-.0085-.0487-.0077-.0486-.006-.0486-.0059-.0487-.006-.0494-.0043-.0487-.0042-.0486-.0026-.0495-.0026-.0486-.0017-.0495-.0008-.0486-.0009z" fill="#808080" fill-rule="evenodd"/><path d="m30.1905 18.2339-11.1288 5.4146-1.145-2.2898 11.9749-5.9147z" fill="#fff"/><path d="m2.0924 15.3444 11.8503 6.0143-1.1449 2.2898-11.10395-5.4146z" fill="#fff"/><path clip-rule="evenodd" d="m19.3424 20.7996c0-.471-.3822-.8532-.8531-.8532-1.3114 0-3.8077 0-5.119 0-.4709 0-.8531.3822-.8531.8532 0 .4709.3822.8531.8531.8531h5.119c.4709 0 .8531-.3822.8531-.8531z" fill="#ccc" fill-rule="evenodd"/><path clip-rule="evenodd" d="m20.1955 24.2123c0-.471-.3822-.8532-.8531-.8532-1.6347 0-5.1907 0-6.8253 0-.4709 0-.8532.3822-.8532.8532 0 .4709.3823.8531.8532.8531h6.8253c.4709 0 .8531-.3822.8531-.8531z" fill="#ccc" fill-rule="evenodd"/><g fill="#000"><path d="m23.9903 12.7853c.2022.1007.3566.2781.4282.4931.0717.2141.0546.4488-.0469.651v.0008c-.2107.4215-.7226.5921-1.1432.3814-1.11-.5546-3.1584-1.5792-4.2675-2.1338-.4215-.2107-.5921-.7226-.3814-1.1432 0-.0008 0-.0008.0009-.0008.1007-.2022.2781-.3567.4931-.4283.2142-.0717.4488-.0546.651.0469 1.1099.5545 3.1567 1.5775 4.2658 2.1329z"/><path d="m13.2817 11.0361c.1007.2022.116.4369.0444.651-.0726.215-.227.3916-.43.4923-1.11.5503-3.15671 1.5655-4.26667 2.1149-.42146.2099-.9325.0376-1.14152-.3847-.00086 0-.00086-.0009-.00086-.0017-.20902-.4215-.03668-.9325.38478-1.1416 1.10996-.5502 3.15667-1.5655 4.26667-2.1158.2022-.1007.4368-.116.6509-.0443.215.0725.3916.2269.4923.4299z"/><path clip-rule="evenodd" d="m29.0541 24.912c.6742-.8555 1.1519-2.0762 1.1519-3.9195 0-3.5729-.8762-7.9566-3.0885-11.38553-2.1542-3.33882-5.5881-5.82067-11.0177-5.82067-5.7635 0-9.23041 2.49199-11.33943 5.78597-2.17727 3.40063-2.96687 7.77413-2.96687 11.42023 0 1.8341.48504 3.0504 1.17271 3.9063.70605.8788 1.7543 1.5365 3.1369 2.0089 2.84545.9723 6.54709.9912 9.99669.9912 3.4521 0 7.0977-.0196 9.8883-.9883 1.3529-.4696 2.376-1.1232 3.066-1.9986zm-12.9543 4.7804c6.7377 0 15.8997 0 15.8997-8.6999 0-7.6214-3.6999-18.9997-15.8997-18.9997-12.79988 0-16.0998 11.2998-16.0998 18.9997 0 8.6999 9.36199 8.6999 16.0998 8.6999z" fill-rule="evenodd"/></g></svg>