<svg fill="none" height="32" viewBox="0 0 32 32" width="32" xmlns="http://www.w3.org/2000/svg" xmlns:xlink="http://www.w3.org/1999/xlink"><clipPath id="a"><path d="m0 0h32v32h-32z"/></clipPath><g clip-path="url(#a)"><path d="m31.1028 20.9925c0 2.0091-.5252 3.4351-1.3444 4.4745-.8271 1.0495-2.0166 1.7841-3.4762 2.2907-2.9616 1.0282-6.7719 1.0379-10.1824 1.0379-3.4093 0-7.27255-.0094-10.28664-1.0393-1.48698-.5081-2.7015-1.2447-3.54601-2.2958-.83532-1.0397-1.370401-2.4634-1.370401-4.468 0-3.748.807291-8.3097 3.108411-11.90376 2.26699-3.54072 6.01294-6.19919 12.09464-6.19919 5.7647 0 9.4692 2.66321 11.7712 6.23125 2.3312 3.6131 3.2318 8.1799 3.2318 11.8717z" fill="#fbc546" stroke="#000" stroke-width="1.7935"/><path clip-rule="evenodd" d="m22.9181 5.48018c.9964.59783 1.7903 1.28955 2.3913 1.79349 1.9475 1.77978 2.7899 3.78623 3.7226 6.42153-.4095.1199-.8344.1908-1.2667.2101-1.4238.0637-2.8149-.4405-3.8666-1.4021 0 0 0-.001-.0011-.001-1.7037-1.5588-1.9759-4.03288-1.2802-6.14221z" fill="#e59a10" fill-opacity=".5" fill-rule="evenodd"/><path d="m16.0998 1.9928c-7.72241 0-12.73601 6.30511-14.90412 11.2592 0 0 1.89314-2.491 14.90412-2.491 13.0109 0 14.6886 2.491 14.6886 2.491-2.2309-4.94444-7.3451-11.2592-14.6886-11.2592z" fill="#7aafff"/><g clip-rule="evenodd" fill-rule="evenodd"><path d="m24.5738 6.55731c.2602.21926.5119.44961.7542.69276.6953.69447 1.2951 1.46573 1.7924 2.29329v1.45974c0 .3396-.1348.6646-.3745.9052-.2406.2398-.5656.3745-.9052.3745-.3395 0-.6646-.1347-.9052-.3745-.2397-.2406-.3745-.5656-.3745-.9052 0-1.22 0-3.04576 0-4.26577 0-.06058.0042-.12115.0128-.18002zm-3.3401-1.9853c.871.34041 1.702.78405 2.4741 1.32154v4.25645c0 .3395-.1348.6646-.3745.9052-.2406.2397-.5657.3745-.9052.3745-.3396 0-.6646-.1348-.9052-.3745-.2398-.2406-.3746-.5657-.3746-.9052 0-1.42055 0-3.69848 0-5.11899 0-.15869.0291-.31396.0854-.459zm-3.4366-.78576c.8515.0657 1.6884.22183 2.4981.46327v5.04728c0 .33955-.1348.66461-.3745.9052-.2406.2397-.5657.3745-.9052.3745-.3396 0-.6647-.1348-.9052-.3745-.2398-.24059-.3746-.56565-.3746-.9052 0-1.42051 0-3.69844 0-5.11895 0-.13394.0213-.26618.0614-.3916z" fill="#3988ff"/><path d="m2.98915 13.3516c-.75806 0-1.13509.1993-1.89314.1993.29891-1.096 1.41718-3.70363 1.75207-4.28447 2.37265-4.11513 6.48445-7.27363 13.25162-7.27363 6.4338 0 10.5037 3.1645 12.9135 7.27363.3408.58104 2.0741 4.18487 1.7752 4.28447l-1.9928-.7971-1.9022-3.48737c-2.1855-3.19753-5.5986-5.48013-10.7937-5.48013-3.5248 0-6.14812.93227-8.11661 2.34084-1.20354.8612-2.18181 1.63037-3.00117 2.84037-.42011.70041-.49819.39856-1.99277 4.38409z" fill="#000"/><path d="m10.6097 23.6914c-.2628.0325-.5299-.0597-.7184-.2551-.22779-.2363-.29946-.5835-.18428-.8915.14759-.3933.31058-.8293.47858-1.2755.8737-2.3308 3.1021-3.875 5.5916-3.875h.2543c2.4895 0 4.7179 1.5442 5.5916 3.875.168.4462.331.8822.4786 1.2755.1152.308.0435.6552-.1843.8915-.1885.1954-.4556.2876-.7184.2551-.5724-.8872-2.9331-1.7174-5.2946-1.7174-2.3616 0-4.7223.8302-5.2947 1.7174z" fill="#722245"/><path d="m15.9048 20.807c2.1662 0 4.1489 1.1091 5.2938 2.8845-.0554-.0068-.1117-.0196-.1663-.0375-.8344-.2781-1.8079-.6023-2.5023-.8344-.6092-.203-1.2473-.3063-1.8889-.3063h-1.4743c-.6416 0-1.2797.1033-1.8889.3063-.6944.2321-1.6679.5563-2.5023.8344-.0546.0179-.1109.0307-.1663.0375 1.1449-1.7754 3.1276-2.8845 5.2938-2.8845z" fill="#ca3b8f"/><path d="m20.267 10.7463c-.3191.3388 2.3317 1.662 2.4588 1.4052l1.7106.9777v1.2815c0 .7917-.3148 1.5501-.8745 2.1098s-1.3181.8745-2.1098.8745h-.0018c-1.6491 0-2.986-1.3369-2.986-2.986 0-.5606 0-1.1475 0-1.7081 0-.7917.3148-1.5502.8745-2.1098.081-.0819.1663-.1579.2559-.2287z" fill="#fff"/><path d="m20.267 10.749 2.4588 1.4052c.0026.0409.0043.0827.0043.1245v2.545c0 .453-.18.8864-.5 1.2072-.3199.32-.7542.4991-1.2063.4991-.4522 0-.8865-.1791-1.2064-.4991-.3199-.3208-.5-.7542-.5-1.2072 0-.7977 0-1.7464 0-2.545 0-.4521.1801-.8864.5-1.2063.1322-.1331.2849-.2415.4496-.3234z" fill="#000"/><path d="m11.5427 10.7463c.3191.3388-2.33171 1.662-2.45883 1.4052l-1.71058.9777v1.2815c0 .7917.31482 1.5501.87449 2.1098s1.31813.8745 2.10982.8745h.0017c1.6492 0 2.9861-1.3369 2.9861-2.986 0-.5606 0-1.1475 0-1.7081 0-.7917-.3148-1.5502-.8745-2.1098-.081-.0819-.1664-.1579-.2559-.2287z" fill="#fff"/><path d="m11.5427 10.749-2.45884 1.4052c-.00256.0409-.00427.0827-.00427.1245v2.545c0 .453.18002.8864.49995 1.2072.31993.32.75416.4991 1.20636.4991s.8864-.1791 1.2064-.4991c.3199-.3208.4999-.7542.4999-1.2072 0-.7977 0-1.7464 0-2.545 0-.4521-.18-.8864-.4999-1.2063-.1323-.1331-.285-.2415-.4496-.3234z" fill="#000"/><path d="m27.2938 1.19568s-1.7847 3.56948-2.9884 5.9769c-.642 1.28396-.3901 2.83402.6247 3.84882 0 0 0 0 .001.001.6267.6268 1.4759.9782 2.3627.9782s1.736-.3514 2.3627-.9782c.0011-.001.0011-.001.0011-.001 1.0147-1.0148 1.2666-2.56486.6247-3.84882-1.2037-2.40742-2.9885-5.9769-2.9885-5.9769z" fill="#2ac2f9"/></g></g></svg>