<svg fill="none" height="32" viewBox="0 0 32 32" width="32" xmlns="http://www.w3.org/2000/svg" xmlns:xlink="http://www.w3.org/1999/xlink"><clipPath id="a"><path d="m0 0h32v32h-32z"/></clipPath><g clip-path="url(#a)"><path d="m31.1028 20.9925c0 2.0091-.5252 3.4351-1.3444 4.4745-.8271 1.0495-2.0166 1.7841-3.4762 2.2907-2.9616 1.0282-6.7719 1.0379-10.1824 1.0379-3.4093 0-7.27255-.0094-10.28664-1.0393-1.48698-.5081-2.7015-1.2447-3.54601-2.2958-.83532-1.0397-1.370401-2.4634-1.370401-4.468 0-3.748.807291-8.3097 3.108411-11.90376 2.26699-3.54072 6.01294-6.19919 12.09464-6.19919 5.7647 0 9.4692 2.66321 11.7712 6.23125 2.3312 3.6131 3.2318 8.1799 3.2318 11.8717z" fill="#fbc546" stroke="#000" stroke-width="1.7935"/><path clip-rule="evenodd" d="m16.311 20.0586c1.8274 0 3.4791 1.0895 4.1992 2.7693.2278.5316.459 1.0716.6655 1.5536.1296.3029.0742.6527-.1434.9001-.2175.2474-.5579.3464-.8745.256l-.4197-.1195c-.4368-.5997-2.132-1.0937-3.8273-1.0937-1.6952 0-3.3904.494-3.8272 1.0937l-.4198.1195c-.3165.0904-.6569-.0086-.8745-.256-.2175-.2474-.273-.5972-.1433-.9001.2065-.482.4377-1.022.6655-1.5536.72-1.6798 2.3717-2.7693 4.1992-2.7693z" fill="#722245" fill-rule="evenodd"/><path clip-rule="evenodd" d="m15.9113 23.4712c1.5417 0 2.9519.7465 3.8264 1.9469l-1.4887-.4249c-1.528-.4368-3.149-.4368-4.677 0l-1.4888.4249c.8745-1.2004 2.2847-1.9469 3.8264-1.9469z" fill="#ca3b8f" fill-rule="evenodd"/><circle cx="9.56628" cy="14.5473" fill="#982eee" r="5.57977"/><path clip-rule="evenodd" d="m9.31932 9.59021c2.52448 0 5.21108 2.68659 5.21108 5.21109v.0017c0 1.1637-.7849 2.6013-1.6073 3.4237-.8225.8225-2.2549 1.6014-3.4178 1.6014h-.43511c-.87107 0-2.55947-.9854-3.17545-1.6014s-1.22555-1.1619-1.11208-.7899c-.59783-.8968-.69747-1.8932-.69747-1.8932s-.57323-2.3941.89676-3.9886c.24059-.2611.99638-.9933 2.49096-1.3919z" fill="#fff" fill-rule="evenodd"/><path clip-rule="evenodd" d="m8.37399 9.08441c.36685-.07678.74736-.11688 1.1364-.11688 3.06031 0 5.54551 2.48527 5.54551 5.54557 0 3.0611-2.4852 5.5455-5.54551 5.5455-2.00151 0-3.75645-1.0622-4.73161-2.6533-.11347-.372-.17404-.7679-.17404-1.1774 0-.2867 0-.5759 0-.8634 0-1.0741.42657-2.1047 1.18674-2.864.75931-.7594 1.78992-1.1868 2.86405-1.1868h.76272c1.81805 0 3.29145 1.4743 3.29145 3.2915v.0017c0 .8241-.3267 1.6142-.9094 2.196-.5827.5827-1.3728.9095-2.19606.9095h-.43511c-.53152 0-1.04171-.2107-1.41795-.587-.37539-.3762-.58697-.8856-.58697-1.4179 0-.0248 0-.0495 0-.0751 0-.4667.18513-.9137.51531-1.2439.33017-.3293.77722-.5153 1.2439-.5153h.58697c.16978 0 .33273.0674.45217.1877.12034.1203.18774.2824.18774.4522 0 .354-.2867.6398-.63991.6398-.08873 0-.25253 0-.42658 0-.35321 0-.63987.2867-.63987.6399v.0008c0 .3532.28581.6391.63902.6391h.42743c1.06051 0 1.91961-.8592 1.91961-1.9196 0-.5085-.2022-.9974-.5622-1.3574-.3601-.3601-.8481-.5623-1.35741-.5623h-.58697c-.80624 0-1.5792.3208-2.1491.8907-.56991.57-.88985 1.3429-.88985 2.1483v.0751c0 .871.34638 1.7071.96236 2.3231s1.45122.9615 2.3223.9615h.43511c1.16286 0 2.27876-.4615 3.10126-1.284.8216-.8224 1.284-1.9375 1.284-3.1012 0 0 0-.0009 0-.0017 0-2.5245-2.0468-4.5712-4.57125-4.5712h-.76272c-.52299 0-1.0383.0768-1.52971.2244.38733-.42065.80452-.8131 1.24817-1.17399z" fill="#982eee" fill-rule="evenodd"/><circle fill="#982eee" r="5.57977" transform="matrix(-1 0 0 1 22.3181 14.5473)"/><g clip-rule="evenodd" fill-rule="evenodd"><path d="m22.5651 9.59021c-2.5245 0-5.2111 2.68659-5.2111 5.21109v.0017c0 1.1637.7849 2.6013 1.6074 3.4237.8224.8225 2.2549 1.6014 3.4177 1.6014h.4351c.8711 0 2.5595-.9854 3.1755-1.6014s1.2255-1.1619 1.1121-.7899c.5978-.8968.6974-1.8932.6974-1.8932s.5733-2.3941-.8967-3.9886c-.2406-.2611-.9964-.9933-2.491-1.3919z" fill="#fff"/><path d="m23.5104 9.08441c-.3668-.07678-.7474-.11688-1.1364-.11688-3.0603 0-5.5455 2.48527-5.5455 5.54557 0 3.0611 2.4852 5.5455 5.5455 5.5455 2.0015 0 3.7565-1.0622 4.7316-2.6533.1135-.372.1741-.7679.1741-1.1774 0-.2867 0-.5759 0-.8634 0-1.0741-.4266-2.1047-1.1868-2.864-.7593-.7594-1.7899-1.1868-2.864-1.1868h-.7628c-1.818 0-3.2914 1.4743-3.2914 3.2915v.0017c0 .8241.3267 1.6142.9094 2.196.5827.5827 1.3728.9095 2.1961.9095h.4351c.5315 0 1.0417-.2107 1.4179-.587.3754-.3762.587-.8856.587-1.4179 0-.0248 0-.0495 0-.0751 0-.4667-.1851-.9137-.5153-1.2439-.3302-.3293-.7772-.5153-1.2439-.5153h-.587c-.1698 0-.3327.0674-.4522.1877-.1203.1203-.1877.2824-.1877.4522 0 .354.2867.6398.6399.6398h.4266c.3532 0 .6399.2867.6399.6399v.0008c0 .3532-.2859.6391-.6391.6391h-.4274c-1.0605 0-1.9196-.8592-1.9196-1.9196 0-.5085.2022-.9974.5622-1.3574.3601-.3601.8481-.5623 1.3574-.5623h.587c.8062 0 1.5792.3208 2.1491.8907.5699.57.8898 1.3429.8898 2.1483v.0751c0 .871-.3464 1.7071-.9623 2.3231-.616.616-1.4513.9615-2.3223.9615h-.4351c-1.1629 0-2.2788-.4615-3.1013-1.284-.8216-.8224-1.284-1.9375-1.284-3.1012 0 0 0-.0009 0-.0017 0-2.5245 2.0468-4.5712 4.5712-4.5712h.7628c.523 0 1.0383.0768 1.5297.2244-.3873-.42065-.8045-.8131-1.2482-1.17399z" fill="#982eee"/></g></g></svg>