<svg fill="none" height="32" viewBox="0 0 32 32" width="32" xmlns="http://www.w3.org/2000/svg" xmlns:xlink="http://www.w3.org/1999/xlink"><clipPath id="a"><path d="m0 0h32v32h-32z"/></clipPath><g clip-path="url(#a)"><path d="m.896713 10.6927c0-2.00915.525177-3.43513 1.344387-4.47457.8271-1.04944 2.01656-1.78402 3.47616-2.2907 2.96166-1.0281 6.77194-1.03789 10.18244-1.03789 3.4093 0 7.2725.00945 10.2866 1.03932 1.487.50808 2.7015 1.24477 3.546 2.29586.8354 1.03965 1.3704 2.4634 1.3704 4.46798 0 3.748-.8073 8.3097-3.1084 11.9037-2.267 3.5408-6.0129 6.1992-12.0946 6.1992-5.7648 0-9.46918-2.6632-11.77126-6.2312-2.33113-3.6131-3.231727-8.1799-3.231727-11.8717z" fill="#fbc546" stroke="#000" stroke-width="1.7935"/><path d="m22.9199 11.7386s-.4377-.4376-.9999-.9999c-1.5451-1.54502-3.6404-2.41268-5.8254-2.41268-2.1849 0-4.2803.86766-5.8253 2.41268-.56225.5623-.99993.9999-.99993.9999" stroke="#593604" stroke-linecap="round" stroke-miterlimit="1.5" stroke-width="1.48213"/><g clip-rule="evenodd" fill-rule="evenodd"><path d="m21.6385 13.4451c-.7917 0-1.5502.3148-2.1099.8745-.5596.5597-.8744 1.3181-.8744 2.1099v1.708c0 1.6491 1.3368 2.986 2.986 2.986h.0017c.7917 0 1.5502-.3148 2.1099-.8745.5596-.5596.8745-1.3181.8745-2.1098 0-.5605 0-1.1475 0-1.708 0-1.6492-1.3369-2.9861-2.9861-2.9861z" fill="#fff"/><path d="m22.9199 18.5639c0 .4522-.18.8865-.4999 1.2064-.32.3199-.7542.5-1.2064.5s-.8864-.1801-1.2064-.5c-.3199-.3199-.4999-.7542-.4999-1.2064 0-.7985 0-1.7472 0-2.5449 0-.453.18-.8865.4999-1.2072.32-.32.7542-.4991 1.2064-.4991s.8864.1791 1.2064.4991c.3199.3208.4999.7542.4999 1.2072z" fill="#000"/><path d="m10.5509 13.4451c.7917 0 1.5502.3148 2.1098.8745.5597.5597.8745 1.3181.8745 2.1099v1.708c0 1.6491-1.3369 2.986-2.986 2.986h-.0017c-.79177 0-1.55023-.3148-2.1099-.8745-.55967-.5596-.87448-1.3181-.87448-2.1098 0-.5605 0-1.1475 0-1.708 0-1.6492 1.33689-2.9861 2.98608-2.9861z" fill="#fff"/><path d="m9.26941 18.5639c0 .4522.18001.8865.49995 1.2064s.75414.5 1.20634.5.8865-.1801 1.2064-.5.4999-.7542.4999-1.2064c0-.7985 0-1.7472 0-2.5449 0-.453-.18-.8864-.4999-1.2072-.3199-.32-.7542-.4991-1.2064-.4991-.4521 0-.8864.1791-1.20634.4991-.31993.3207-.49995.7542-.49995 1.2072z" fill="#000"/></g></g></svg>