<svg fill="none" height="32" viewBox="0 0 32 32" width="32" xmlns="http://www.w3.org/2000/svg" xmlns:xlink="http://www.w3.org/1999/xlink"><clipPath id="a"><path d="m0 0h32v32h-32z"/></clipPath><g clip-path="url(#a)"><path d="m31.1028 20.9925c0 2.0091-.5252 3.4351-1.3444 4.4745-.8271 1.0495-2.0166 1.7841-3.4762 2.2907-2.9616 1.0282-6.7719 1.0379-10.1824 1.0379-3.4093 0-7.27255-.0094-10.28664-1.0393-1.48698-.5081-2.7015-1.2447-3.54601-2.2958-.83532-1.0397-1.370401-2.4634-1.370401-4.468 0-3.748.807291-8.3097 3.108411-11.90376 2.26699-3.54072 6.01294-6.19919 12.09464-6.19919 5.7647 0 9.4692 2.66321 11.7712 6.23125 2.3312 3.6131 3.2318 8.1799 3.2318 11.8717z" fill="#fbc546" stroke="#000" stroke-width="1.7935"/><g clip-rule="evenodd" fill-rule="evenodd"><path d="m20.1706 21.5967c0-.471-.3822-.8532-.8531-.8532-1.6347 0-5.1907 0-6.8253 0-.4709 0-.8532.3822-.8532.8532 0 .4709.3823.8531.8532.8531h6.8253c.4709 0 .8531-.3822.8531-.8531z" fill="#593604"/><path d="m23.5423 12.212c.552.5418.8941 1.296.8941 2.1304v.8548c0 .7918-.3148 1.5511-.8745 2.1116-.5597.5597-1.3198.8745-2.1116.8745h-.0187c-.7849-.0051-1.5374-.3191-2.0928-.8745-.5597-.5605-.8745-1.3198-.8745-2.1116 0-.2832 0-.5699 0-.8531 0-.7918.3148-1.5511.8745-2.1116.0068-.006.0128-.0128.0196-.0188-.0273.134 4.2112.1331 4.1839-.0017z" fill="#fff"/><path d="m19.3585 12.2145c.5579-.5486 1.3087-.8557 2.0919-.8557h.0017c.8139 0 1.5519.3259 2.0902.854.0273.1348.041.2747.041.4172v.0025c0 1.174-.9513 2.1244-2.1244 2.1244-.0059 0-.0111 0-.017 0-1.1731 0-2.1244-.9504-2.1244-2.1244 0-.0008 0-.0017 0-.0025 0-.1425.0137-.2816.041-.4155z" fill="#000"/><path d="m12.4513 12.212c.552.5418.8941 1.296.8941 2.1304v.8548c0 .7918-.3148 1.5511-.8745 2.1116-.5597.5597-1.3198.8745-2.1116.8745h-.0187c-.78493-.0051-1.53742-.3191-2.09282-.8745-.55967-.5605-.87449-1.3198-.87449-2.1116 0-.2832 0-.5699 0-.8531 0-.7918.31482-1.5511.87449-2.1116.00682-.006.01279-.0128.01962-.0188-.0273.134 4.2112.1331 4.1839-.0017z" fill="#fff"/><path d="m8.26739 12.2145c.55797-.5486 1.30875-.8557 2.09191-.8557h.0017c.814 0 1.5519.3259 2.0903.854.0273.1348.0409.2747.0409.4172v.0025c0 1.174-.9512 2.1244-2.1243 2.1244-.006 0-.0111 0-.0171 0-1.17309 0-2.12436-.9504-2.12436-2.1244 0-.0008 0-.0017 0-.0025 0-.1425.01365-.2816.04095-.4155z" fill="#000"/></g></g></svg>