<svg fill="none" height="32" viewBox="0 0 32 32" width="32" xmlns="http://www.w3.org/2000/svg"><path d="m31.0361 20.8339c0 8.1661-8.5998 8.1661-14.9242 8.1661-6.32434 0-15.1119 0-15.1119-8.1661 0-7.2274 3.09745-17.8339 15.1119-17.8339 11.4513 0 14.9242 10.6802 14.9242 17.8339z" fill="#fbc546"/><path d="m10.7859 23.357s.36-.3601.8105-.8105c1.1202-1.1202 2.6388-1.749 4.2231-1.749h5.2043" stroke="#593604" stroke-linecap="round" stroke-linejoin="round" stroke-miterlimit="1.5" stroke-width="1.70631"/><g clip-rule="evenodd" fill-rule="evenodd"><path d="m20.4035 11.5324c-.2175.0844 2.3053 1.2797 2.2643 1.1313l1.7686.8847v1.708c0 .7917-.3148 1.5502-.8745 2.1099-.5597.5596-1.3181.8745-2.1098.8745h-.0018c-1.6491 0-2.986-1.3369-2.986-2.9861 0-.5605 0-1.1475 0-1.708 0-.7917.3148-1.5502.8745-2.1099.0998-.1007.2073-.1936.3191-.2773z" fill="#fff"/><path d="m20.4035 11.5328 2.2643 1.1313c.0409.1485.0623.302.0623.4582v2.5449c0 .4531-.18.8865-.5 1.2073-.3199.3199-.7542.4991-1.2063.4991-.4522 0-.8865-.1792-1.2064-.4991-.3199-.3208-.5-.7542-.5-1.2073 0-.7977 0-1.7464 0-2.5449 0-.4522.1801-.8865.5-1.2064.1681-.1689.3686-.2986.5861-.3831z" fill="#000"/><path d="m11.4061 11.5324c.2176.0844-2.30523 1.2797-2.26428 1.1313l-1.76859.8847v1.708c0 .7917.31482 1.5502.87449 2.1099.55967.5596 1.31812.8745 2.10988.8745h.0017c1.6491 0 2.986-1.3369 2.986-2.9861 0-.5605 0-1.1475 0-1.708 0-.7917-.3148-1.5502-.8745-2.1099-.0998-.1007-.2073-.1936-.319-.2773z" fill="#fff"/><path d="m11.4061 11.5328-2.26429 1.1313c-.04095.1485-.06228.302-.06228.4582v2.5449c0 .4531.18002.8865.49995 1.2073.31993.3199.75422.4991 1.20632.4991.4522 0 .8865-.1792 1.2064-.4991.3199-.3208.5-.7542.5-1.2073 0-.7977 0-1.7464 0-2.5449 0-.4522-.1801-.8865-.5-1.2064-.1681-.1689-.3686-.2986-.5861-.3831z" fill="#000"/></g><path d="m17.5364 3.48726c4.1848.29891 5.2808 1.89311 5.779 1.99275l-.991 1.25026-18.82113 10.06423h-1.90909c.39855-2.6902 1.7935-5.8343 3.38772-7.92674l11.1595-5.48015c.1711-.00641 1.2221.09965 1.395.09965z" fill="#fff"/><path d="m1.59418 16.8389 21.72122-11.3588c.5979.39856 1.2953.79711 1.9928 1.29531l-22.618 11.35889-.99639.4981z" fill="#c4c4c4"/><path clip-rule="evenodd" d="m29.0541 24.912c.6742-.8555 1.1519-2.0762 1.1519-3.9195 0-3.5729-.8762-7.9566-3.0885-11.38553-2.1542-3.33882-5.5881-5.82067-11.0177-5.82067-5.7635 0-9.23041 2.49199-11.33943 5.78597-2.17727 3.40063-2.96687 7.77413-2.96687 11.42023 0 1.8341.48504 3.0504 1.17271 3.9063.70605.8788 1.7543 1.5365 3.1369 2.0089 2.84545.9723 6.54709.9912 9.99669.9912 3.4521 0 7.0977-.0196 9.8883-.9883 1.3529-.4696 2.376-1.1232 3.066-1.9986zm-12.9543 4.7804c6.7377 0 15.8997 0 15.8997-8.6999 0-7.6214-3.6999-18.9997-15.8997-18.9997-12.79988 0-16.0998 11.2998-16.0998 18.9997 0 8.6999 9.36199 8.6999 16.0998 8.6999z" fill="#000" fill-rule="evenodd"/></svg>