<svg fill="none" height="32" viewBox="0 0 32 32" width="32" xmlns="http://www.w3.org/2000/svg"><path d="m31.1028 20.9925c0 2.0091-.5252 3.4351-1.3444 4.4745-.8271 1.0495-2.0166 1.7841-3.4762 2.2907-2.9616 1.0282-6.7719 1.0379-10.1824 1.0379-3.4093 0-7.27255-.0094-10.28664-1.0393-1.48698-.5081-2.7015-1.2447-3.54601-2.2958-.83532-1.0397-1.370401-2.4634-1.370401-4.468 0-3.748.807291-8.3097 3.108411-11.90376 2.26699-3.54072 6.01294-6.19919 12.09464-6.19919 5.7647 0 9.4692 2.66321 11.7712 6.23125 2.3312 3.6131 3.2318 8.1799 3.2318 11.8717z" fill="#fbc546" stroke="#000" stroke-width="1.7935"/><path clip-rule="evenodd" d="m8.83161 20.2429c.11944-.0453.24144-.0785.36685-.0973.2969-.0444.60319-.0085.88134.1024.1288.0503.2491.1177.3617.197l2.08 1.4854-4.35109.8532c0-.2841.72518-2.3701.65181-2.51l-.01194-.0222z" fill="#e59a10" fill-rule="evenodd"/><path d="m18.159 27.8888-3.3128-4.0751c.0947.2636-3.2633 3.4212-3.2633 3.4212v.6539h3.587z" fill="#e59a10"/><path d="m7.16691 20.2267.00396.8967c-.00396-.8967-.00436-.8967-.00478-.8967h-.00089-.002-.00485l-.013.0002c-.01012.0002-.02312.0006-.03882.0011-.03137.0011-.07367.003-.12535.0066-.10307.007-.24513.0206-.41355.0465-.33233.0513-.7904.1545-1.26035.3677-.47104.2138-.98263.5514-1.37696 1.0848-.40209.5438-.64225 1.2378-.64225 2.0866v4.1285c0 1.438 1.16506 2.603 2.60306 2.603h2.55947c.69028 0 1.35255-.2746 1.8405-.7626.4879-.4879.7626-1.1502.7626-1.8404v-1.6628h1.6627c.9662 0 1.7499-.7837 1.7499-1.7499 0-.4617-.1825-.908-.5127-1.2373-.3293-.3301-.7756-.5126-1.2372-.5126h-4.64879v-1.6627-.9007z" fill="#fbc546" stroke="#7e5108" stroke-width="1.7935"/><g clip-rule="evenodd" fill-rule="evenodd"><path d="m15.2911 16.3563c1.7993 0 3.5252.715 4.7973 1.987.4564.4556.8224.8225.8224.8225.3328.3327.3328.8736 0 1.2063-.3327.3328-.8736.3328-1.2063 0 0 0-.3669-.366-.8225-.8224-.9521-.9521-2.2438-1.4871-3.5909-1.4871h-3.515c-.471 0-.8532-.3822-.8532-.8531 0-.471.3822-.8532.8532-.8532z" fill="#593604"/><path d="m22.8526 11.6639c.0094.0964.8677.384.8677.8532v.2935c0 .7917-.3148 1.551-.8745 2.1107s-1.3181.8736-2.1099.8736h-.0017c-1.6491 0-2.986-1.3369-2.986-2.986v-.2918c0-.4701.8582-.7568.8676-.8532z" fill="#fff"/><path d="m12.4014 9.95764 1.081.85316v1.1449c0 1.6492-1.3369 2.9861-2.9861 2.9861h-.0017c-.79173 0-1.55019-.314-2.10986-.8736-.55967-.5597-.87449-1.319-.87449-2.1108 0-.3753 0-1.1466 0-1.1466l1.08095-.85316z" fill="#fff"/><path d="m23.7203 10.8108c.4709 0 .8531.3822.8531.8531 0 .471-.3822.8532-.8531.8532h-1.7063v.7047c0 .4522-.1801.8864-.5 1.2064-.3199.3199-.7542.4999-1.2064.4999h-.0085c-.9376 0-1.6978-.7601-1.6978-1.6978v-.7132h-.8531v-1.7063z" fill="#000"/><path d="m13.4824 9.10449v1.70631h-1.7063v1.5579c0 .9419-.7636 1.7063-1.7063 1.7063-.4522 0-.88646-.18-1.20639-.5-.31994-.3199-.49996-.7542-.49996-1.2063v-1.5579h-.85315c-.11944 0-.23718-.0247-.34638-.0734-.10153-.0452-.19452-.1109-.27131-.1911-.07337-.0768-.13224-.168-.17234-.2662-.03668-.0904-.05801-.1868-.06228-.28406-.00426-.09299.00683-.18684.03328-.27727.02303-.07935.05801-.15528.10323-.22524.09982-.15442.24997-.27386.42231-.337.09385-.03497.19367-.05204.29349-.05204z" fill="#000"/></g></svg>