<svg fill="none" height="32" viewBox="0 0 32 32" width="32" xmlns="http://www.w3.org/2000/svg" xmlns:xlink="http://www.w3.org/1999/xlink"><clipPath id="a"><path d="m0 0h32v32h-32z"/></clipPath><g clip-path="url(#a)"><path d="m31.1028 20.9925c0 2.0091-.5252 3.4351-1.3444 4.4745-.8271 1.0495-2.0166 1.7841-3.4762 2.2907-2.9616 1.0282-6.7719 1.0379-10.1824 1.0379-3.4093 0-7.27255-.0094-10.28664-1.0393-1.48698-.5081-2.7015-1.2447-3.54601-2.2958-.83532-1.0397-1.370401-2.4634-1.370401-4.468 0-3.748.807291-8.3097 3.108411-11.90376 2.26699-3.54072 6.01294-6.19919 12.09464-6.19919 5.7647 0 9.4692 2.66321 11.7712 6.23125 2.3312 3.6131 3.2318 8.1799 3.2318 11.8717z" fill="#77b84c" stroke="#000" stroke-width="1.7935"/><path d="m23.057 15.1485c.4215.2107.5921.7226.3814 1.1432 0 .0009-.0009.0017-.0009.0017-.2107.4215-.7226.5921-1.1432.3814-.9282-.4641-2.4861-1.2431-3.4143-1.7072-.4215-.2107-.5921-.7226-.3814-1.1432 0-.0009 0-.0009.0009-.0009.1006-.2022.2781-.3566.4931-.4282.2141-.0717.4487-.0546.6509.0469.9283.4641 2.4861 1.2422 3.4135 1.7063z" fill="#000"/><path d="m13.2008 13.826c.209.4224.0366.9343-.3857 1.1433-.9282.4598-2.4844 1.2319-3.4126 1.6918-.42231.2099-.93421.0367-1.14323-.3848 0-.0008 0-.0008 0-.0008-.20902-.4223-.03669-.9334.38477-1.1424.92824-.4607 2.48606-1.2328 3.41436-1.6927.4214-.209.9325-.0367 1.1415.3848.0009 0 .0009 0 .0009.0008z" fill="#000"/><g clip-rule="evenodd" fill-rule="evenodd"><path d="m16.9386 20.3679s2.8916-2.8917 6.8525-6.8525c1.281-1.2811 3.3574-1.2811 4.6384 0 .0016.0015.0016.0015.0031.0031 1.2811 1.2811 1.2811 3.3574 0 4.6385-3.5833 3.5833-4.76 4.76-4.76 4.76z" fill="#519424" fill-opacity=".5"/><path d="m18.3273 21.078s4.2154-4.2154 6.3995-6.3995c.7064-.7064 1.8514-.7064 2.5578 0 .0008.0008.0008.0008.0017.0017.7064.7064.7064 1.8514 0 2.5578-1.9759 1.9759-5.5464 5.5463-5.5464 5.5463z" fill="#fff"/><path d="m23.4462 16.8148 1.7063 1.7063-3.4126 3.4127-2.5595-.8532z" fill="#d92020"/><path d="m26.0492 14.1495.0435.0017.0427.0026.0435.0034.0435.0043.0426.006.0436.0068.0426.0077.0427.0085.0426.0102.0418.0111.0427.0111.0418.0137.0409.0136.0419.0154.0409.0153.0401.0171.041.0188.0401.0187.0392.0205.0392.0213.0384.0222.0384.023.0376.0239.0375.0256.0367.0265.0367.0273.0358.029.035.029.035.0307.0341.0316.035.0341.0324.0333.0316.0341.0307.035.029.035.029.0358.0273.0367.0264.0367.0256.0375.0239.0375.0231.0384.0221.0384.0214.0393.0204.0392.0188.0401.0188.041.017.0401.0154.0409.0154.0418.0136.041.0137.0418.0111.0426.011.0418.0103.0427.0085.0427.0077.0426.0068.0435.006.0427.0043.0435.0034.0435.0025.0427.0017.0435.0009.0435-.0009.0435-.0017.0435-.0025.0427-.0034.0435-.0043.0435-.006.0426-.0068.0436-.0077.0426-.0085.0427-.0103.0426-.011.0418-.0111.0427-.0137.0418-.0136.0409-.0154.0418-.0154.041-.017.0401-.0188.041-.0188.04-.0204.0393-.0214.0392-.0221.0384-.0231.0384-.0239.0376-.0256.0375-.0264.0367-.0273.0367-.029.0358-.029.035-.0307.035-.0316.0341-.0324.0333-5.5464 5.5463-3.4126-1.7063 6.3995-6.3995.0333-.0324.0341-.0316.035-.0307.035-.029.0358-.029.0367-.0273.0367-.0265.0375-.0256.0375-.0239.0384-.023.0384-.0222.0393-.0213.0392-.0205.0401-.0187.041-.0188.0401-.0171.0409-.0153.0418-.0154.041-.0136.0418-.0137.0426-.0111.0418-.0111.0427-.0102.0427-.0085.0426-.0077.0435-.0068.0427-.006.0435-.0043.0435-.0034.0427-.0026.0435-.0017.0435-.0008zm-.0666.8532h-.023l-.023.0017-.0231.0017-.023.0026-.023.0034-.0222.0034-.023.0043-.0222.0042-.0231.0051-.0221.006-.0222.006-.0222.0068-.0213.0077-.0222.0077-.0213.0085-.0214.0094-.0213.0094-.0205.0102-.0213.0102-.0205.0111-.0205.012-.0196.0119-.0196.0128-.0196.0137-.0197.0136-.0196.0145-.0187.0154-.0188.0153-.0188.0162-.0179.0171-.0213.0213-5.5592 5.5584 1.8044.9017 5.107-5.1078.0214-.0213.017-.0188.0162-.0179.0154-.0188.0153-.0188.0145-.0196.0137-.0188.0136-.0204.0128-.0196.012-.0197.0119-.0204.0111-.0205.0103-.0214.0102-.0204.0094-.0214.0094-.0213.0085-.0213.0077-.0222.0077-.0213.0068-.0222.006-.0222.0059-.0222.0051-.023.0043-.0222.0043-.023.0034-.0231.0034-.0221.0026-.0231.0017-.023.0017-.023v-.0231l.0008-.023-.0008-.0231v-.023l-.0017-.023-.0017-.0231-.0026-.023-.0034-.0222-.0034-.023-.0043-.023-.0043-.0222-.0051-.0231-.0059-.0221-.006-.0222-.0068-.0222-.0077-.0213-.0077-.0222-.0085-.0214-.0094-.0213-.0094-.0213-.0102-.0205-.0103-.0213-.0111-.0205-.0119-.0205-.012-.0196-.0128-.0196-.0136-.0205-.0137-.0188-.0145-.0196-.0153-.0187-.0154-.0188-.0162-.0179-.017-.0188-.018-.0188-.0187-.0179-.0179-.0171-.0188-.0162-.0188-.0153-.0188-.0154-.0196-.0145-.0196-.0136-.0196-.0137-.0196-.0128-.0197-.0119-.0204-.012-.0205-.0111-.0213-.0102-.0205-.0102-.0214-.0094-.0213-.0094-.0213-.0085-.0222-.0077-.0213-.0077-.0222-.0068-.0222-.006-.0222-.006-.023-.0051-.0222-.0042-.023-.0043-.0222-.0034-.023-.0034-.0231-.0026-.023-.0017-.023-.0017h-.0231l-.023-.0009z" fill="#fff"/><path d="m17.951 20.1777.0989.0017.099.0043.099.0043.0989.0068.099.0077.0981.0094.0981.0111.0981.0119.0981.0136.0973.0154.0973.0162.0972.0179.0973.0188.0964.0205.0964.0222.0956.023.0955.0247.0947.0265.0956.0273.0938.029.0939.0307.0938.0316.093.0324.093.035.0921.0349.0922.0376.0913.0384.0904.0392.0904.0418.0896.0418.0862.0427 3.0074 1.5041.0512.0273.0494.0316.047.0341.0443.0375.0418.041.0393.0435.0358.0461.0324.0478.029.0503.0256.052.0222.0546.0188.0546.0145.0563.0111.0581.0068.0571.0026.0589-.0009.058-.0051.058-.0094.0572-.0128.0571-.0171.0555-.0204.0546-.0248.0529-.0273.0512-.0315.0495-.0342.0469-.0375.0444-.041.0418-.0435.0392-.046.0358-.0478.0325-.0504.029-.052.0256-.0546.0221-.0546.0188-.0563.0145-.058.0111-.0572.0068-.0589.0026-.058-.0009-.058-.0051-.0571-.0094-.0572-.0128-.0555-.017-.0546-.0205-.0529-.0247-3.0022-1.5008-.07-.0341-.0665-.0315-.0683-.0308-.0674-.0298-.0691-.029-.0682-.0282-.0691-.0264-.07-.0256-.07-.0248-.0699-.0239-.0708-.023-.0708-.0213-.0709-.0205-.0716-.0196-.0717-.0188-.0716-.017-.0717-.0171-.0725-.0154-.0726-.0145-.0733-.0128-.0725-.0128-.0734-.0111-.0734-.0102-.0734-.0094-.0742-.0077-.0734-.0068-.0742-.006-.0742-.0051-.0742-.0034-.0743-.0025-.0742-.0018-.0776-.0008h-4.5593l-.058-.0017-.058-.006-.0572-.0102-.0571-.0137-.0555-.0179-.0537-.0213-.0529-.0248-.0512-.029-.0487-.0315-.046-.035-.0444-.0384-.0409-.041-.0384-.0443-.035-.0461-.0316-.0486-.029-.0512-.0247-.0529-.0214-.0538-.0179-.0554-.0136-.0572-.0103-.0571-.0059-.058-.0017-.0581.0017-.058.0059-.058.0103-.0572.0136-.0571.0179-.0555.0214-.0537.0247-.0529.029-.0512.0316-.0486.035-.0461.0384-.0444.0409-.0409.0444-.0384.046-.035.0487-.0316.0512-.029.0529-.0247.0537-.0213.0555-.018.0571-.0136.0572-.0102.058-.006.058-.0017h4.5653z" fill="#23480a"/></g></g></svg>