<svg fill="none" height="32" viewBox="0 0 32 32" width="32" xmlns="http://www.w3.org/2000/svg"><path d="m31.1028 20.9925c0 2.0091-.5252 3.4351-1.3444 4.4745-.8271 1.0495-2.0166 1.7841-3.4762 2.2907-2.9616 1.0282-6.7719 1.0379-10.1824 1.0379-3.4093 0-7.27255-.0094-10.28664-1.0393-1.48698-.5081-2.7015-1.2447-3.54601-2.2958-.83532-1.0397-1.370401-2.4634-1.370401-4.468 0-3.748.807291-8.3097 3.108411-11.90376 2.26699-3.54072 6.01294-6.19919 12.09464-6.19919 5.7647 0 9.4692 2.66321 11.7712 6.23125 2.3312 3.6131 3.2318 8.1799 3.2318 11.8717z" fill="#fbc546" stroke="#000" stroke-width="1.7935"/><g clip-rule="evenodd" fill-rule="evenodd"><path d="m22.7408 20.7995h2.2063c.4709 0 .8531.3822.8531.8532 0 .4709-.3822.8531-.8531.8531h-2.9127l-1.3531-1.3531-1.7063 1.7063-1.7063-1.7063-1.7064 1.7063-1.7063-1.7063-1.7063 1.7063-1.7063-1.7063-1.35311 1.3531h-2.05952c-.47094 0-.85316-.3822-.85316-.8531 0-.471.38222-.8532.85316-.8532h1.35311l2.05952-2.0595 1.7063 1.7063 1.7063-1.7063 1.7063 1.7063 1.7064-1.7063 1.7063 1.7063 1.7063-1.7063z" fill="#593604"/><path d="m20.7249 19.1306h3.4126s1.3719 1.3719 2.5595 2.5595c.453.453.7073 1.0664.7073 1.7063s-.2543 1.2533-.7073 1.7063-1.0665.7073-1.7063.7073c-.6399 0-1.2533-.2543-1.7063-.7073-1.1876-1.1876-2.5595-2.5595-2.5595-2.5595z" fill="#626262"/><path d="m10.0168 18.2402c1.6492 0 2.9861-1.3369 2.9861-2.9861v-1.7063c0-1.6491-1.3369-2.986-2.9861-2.986h-.0017c-.79172 0-1.55018.3148-2.10985.8745-.55967.5596-.87449 1.3181-.87449 2.1098v1.708c0 1.6492 1.3369 2.9861 2.98604 2.9861z" fill="#fff"/><path d="m8.73709 13.9744c0-.4522.18002-.8864.49995-1.2064.31994-.3199.75419-.4999 1.20636-.4999.4522 0 .8864.18 1.2064.4999.3199.32.4999.7542.4999 1.2064v.8531c0 .4522-.18.8865-.4999 1.2064-.32.3199-.7542.5-1.2064.5-.45217 0-.88642-.1801-1.20636-.5-.31993-.3199-.49995-.7542-.49995-1.2064 0-.2807 0-.5724 0-.8531z" fill="#000"/><path d="m21.1078 18.2402c-1.6491 0-2.986-1.3369-2.986-2.9861v-1.7063c0-1.6491 1.3369-2.986 2.986-2.986h.0018c.7917 0 1.5501.3148 2.1098.8745.5597.5596.8745 1.3181.8745 2.1098v1.708c0 1.6492-1.3369 2.9861-2.9861 2.9861z" fill="#fff"/><path d="m22.3876 13.9744c0-.4522-.18-.8864-.4999-1.2064-.32-.3199-.7542-.4999-1.2064-.4999s-.8864.18-1.2064.4999c-.3199.32-.4999.7542-.4999 1.2064v.8531c0 .4522.18.8865.4999 1.2064.32.3199.7542.5 1.2064.5s.8864-.1801 1.2064-.5c.3199-.3199.4999-.7542.4999-1.2064 0-.2807 0-.5724 0-.8531z" fill="#000"/></g></svg>