<svg fill="none" height="32" viewBox="0 0 32 32" width="32" xmlns="http://www.w3.org/2000/svg"><path d="m31.1028 20.9925c0 2.0091-.5252 3.4351-1.3444 4.4745-.8271 1.0495-2.0166 1.7841-3.4762 2.2907-2.9616 1.0282-6.7719 1.0379-10.1824 1.0379-3.4093 0-7.27255-.0094-10.28664-1.0393-1.48698-.5081-2.7015-1.2447-3.54601-2.2958-.83532-1.0397-1.370401-2.4634-1.370401-4.468 0-3.748.807291-8.3097 3.108411-11.90376 2.26699-3.54072 6.01294-6.19919 12.09464-6.19919 5.7647 0 9.4692 2.66321 11.7712 6.23125 2.3312 3.6131 3.2318 8.1799 3.2318 11.8717z" fill="#fbc546" stroke="#000" stroke-width="1.7935"/><path d="m11.6639 21.5095c1.0929 1.0929 2.574 1.7063 4.1191 1.7063h.2935c1.545 0 3.0261-.6134 4.119-1.7063" stroke="#593604" stroke-linecap="round" stroke-miterlimit="1.5" stroke-width="1.70631"/><g clip-rule="evenodd" fill-rule="evenodd"><path d="m12.5171 10.4185c.4522 0 .8864.18 1.2064.4999.3199.3199.4999.7542.4999 1.2064v2.3521c0 .6791-.2696 1.3301-.7499 1.8104-.3336.3336-.726.7261-1.0596 1.0596-.4804.4804-1.1313.75-1.8104.75h-2.35219c-.9052 0-1.77286-.3592-2.41273-.9999-.64072-.6399-.9999-1.5076-.9999-2.4128 0-1.2592 0-2.5799 0-3.4126 0-.4709.38222-.8531.85316-.8531zm13.6505 0c.471 0 .8532.3822.8532.8531v3.4126c0 .9052-.3592 1.7729-.9999 2.4128-.6399.6407-1.5076.9999-2.4128.9999h-2.3521c-.6791 0-1.3301-.2696-1.8104-.75-.3336-.3335-.726-.726-1.0596-1.0596-.4804-.4803-.75-1.1313-.75-1.8104 0-.6782 0-1.5749 0-2.3521 0-.4522.1801-.8865.5-1.2064s.7542-.4999 1.2064-.4999z" fill="#fff"/><path d="m15.0706 14.6843c-.0503.8292-.4027 1.615-.9939 2.2062-.3336.3336-.7261.7261-1.0596 1.0596-.6399.6408-1.5084.9999-2.4136.9999h-2.35218c-1.13129 0-2.2165-.4496-3.01676-1.249-.79941-.8002-1.24903-1.8855-1.24903-3.0167 0-1.2593 0-2.58 0-3.4127 0-.9427.76358-1.70629 1.70632-1.70629h6.82525c.6791 0 1.3301.2696 1.8096.74989.273.2722.4777.5998.6031.9564h1.9998c.1255-.3566.3302-.6842.6032-.9564.4795-.48029 1.1305-.74989 1.8096-.74989h6.8252c.9428 0 1.7063.76359 1.7063 1.70629v3.4127c0 1.1312-.4496 2.2165-1.249 3.0167-.8002.7994-1.8855 1.249-3.0167 1.249h-2.3522c-.9052 0-1.7737-.3591-2.4136-.9999-.3336-.3335-.726-.726-1.0596-1.0596-.5912-.5912-.9436-1.377-.9939-2.2062zm-9.37875 0c0 .6791.2696 1.33.74992 1.8095.47948.4803 1.13044.7499 1.80955.7499h2.35218c.453 0 .8864-.18 1.2072-.4999.3336-.3336.726-.7261 1.0596-1.0596.3199-.3208.5-.7542.5-1.2073 0-.6782 0-1.5749 0-2.3521 0-.2261-.0896-.4437-.25-.6032-.1596-.1604-.3771-.25-.6032-.25h-6.82525zm20.47575-3.4127h-6.8252c-.2261 0-.4437.0896-.6032.25-.1604.1595-.25.3771-.25.6032v2.3521c0 .4531.18.8865.5 1.2073l1.0596 1.0596c.3208.3199.7542.4999 1.2072.4999h2.3522c.6791 0 1.33-.2696 1.8095-.7499.4803-.4795.7499-1.1304.7499-1.8095z" fill="#000"/><path d="m11.664 13.4045c0-.3396-.1348-.6646-.3746-.9052-.2406-.2397-.5656-.3745-.9052-.3745-.3395 0-.66458.1348-.90517.3745-.23974.2406-.37454.5656-.37454.9052v1.7063c0 .3396.1348.6646.37454.9052.24059.2397.56567.3745.90517.3745.3396 0 .6646-.1348.9052-.3745.2398-.2406.3746-.5656.3746-.9052z" fill="#000"/><path d="m22.755 13.4045c0-.3396-.1348-.6646-.3745-.9052-.2406-.2397-.5657-.3745-.9052-.3745-.3396 0-.6646.1348-.9052.3745-.2397.2406-.3745.5656-.3745.9052v1.7063c0 .3396.1348.6646.3745.9052.2406.2397.5656.3745.9052.3745.3395 0 .6646-.1348.9052-.3745.2397-.2406.3745-.5656.3745-.9052z" fill="#000"/></g></svg>