<svg fill="none" height="32" viewBox="0 0 32 32" width="32" xmlns="http://www.w3.org/2000/svg"><path d="m31.1028 20.9925c0 2.0091-.5252 3.4351-1.3444 4.4745-.8271 1.0495-2.0166 1.7841-3.4762 2.2907-2.9616 1.0282-6.7719 1.0379-10.1824 1.0379-3.4093 0-7.27255-.0094-10.28664-1.0393-1.48698-.5081-2.7015-1.2447-3.54601-2.2958-.83532-1.0397-1.370401-2.4634-1.370401-4.468 0-3.748.807291-8.3097 3.108411-11.90376 2.26699-3.54072 6.01294-6.19919 12.09464-6.19919 5.7647 0 9.4692 2.66321 11.7712 6.23125 2.3312 3.6131 3.2318 8.1799 3.2318 11.8717z" fill="#fbc546" stroke="#000" stroke-width="1.7935"/><g clip-rule="evenodd" fill-rule="evenodd"><path d="m10.3487 22.6444c-1.35058-1.2021-2.31636-2.8273-2.69004-4.6659h16.72014c-.3736 1.8386-1.3394 3.4638-2.69 4.6659z" fill="#165011"/><path d="m12.6089 22.4823c0 .1033-.8489 1.0596-.8412 1.1629l.0017.023c-.5076-.2935-.9828-.6364-1.418-1.0246l.6442-.9667c.1109-.1646.2389-.3165.3839-.4521.116-.1084.2423-.2056.3762-.2901zm7.6784-1.5476c.2978.1885.558.4394.7602.7422l.6441.9667c-.4351.3882-.9103.7311-1.4179 1.0246l.0017-.023c.0076-.1033-.8412-1.0596-.8412-1.1629z" fill="#1d8016"/><path d="m20.2827 23.3364c0 .1041-.0042.2082-.0119.3097-.1578 2.0792-1.8949 3.7172-4.015 3.7172-.1587 0-.3191 0-.4777 0-2.2242 0-4.0269-1.8027-4.0269-4.0269v-2.4007c.2235-.1408.4675-.2483.7234-.3149.2116-.0546.4283-.0819.6467-.0827h5.7913c.4931 0 .9666.1416 1.3701.3976z" fill="#2abd20"/><path d="m26.2548 13.7128c0 .6791-.2696 1.3301-.7499 1.8096-.4795.4803-1.1304.7499-1.8095.7499h-1.2798v.8532c-.569 0-1.1372 0-1.7063 0v-.8532h-2.986c0-.5691 0-1.1373 0-1.7063h1.7063v-1.7063c-.6791 0-1.3301-.2696-1.8096-.75-.4803-.4794-.7499-1.1304-.7499-1.8095v-1.70631s1.8804-.85316 2.5595-.85316h1.2797v-.85316h1.7063v.85316h2.9861v1.70632h-2.9861v1.70635h1.2798c.6791 0 2.5594.8531 2.5594.8531zm-11.091 0c0 .6791-.2696 1.3301-.7499 1.8096-.4795.4803-1.1305.7499-1.8096.7499h-1.2797v.8532c-.5691 0-1.1373 0-1.70634 0v-.8532h-2.98605c0-.5691 0-1.1373 0-1.7063h1.70631v-1.7063c-.67911 0-1.33007-.2696-1.80954-.75-.48033-.4794-.74993-1.1304-.74993-1.8095v-1.70631s1.88036-.85316 2.55947-.85316h1.27974v-.85316h1.70634v.85316h2.986v1.70632h-1.7063v1.70635c.6791 0 2.5595.8531 2.5595.8531z" fill="#269710"/><path d="m20.7093 6.03443v-.85316h1.7063v.85316h2.9861v1.70632h-2.9861v1.70631h1.2798c.6791 0 1.33.2696 1.8095.74994.4803.4795.7499 1.1304.7499 1.8095s-.2696 1.3301-.7499 1.8096c-.4795.4803-1.1304.7499-1.8095.7499h-1.2798v.8532c-.569 0-1.1372 0-1.7063 0v-.8532h-2.986c0-.5691 0-1.1373 0-1.7063h2.986v-1.7063h-1.2797c-.6791 0-1.3301-.2696-1.8096-.7499-.4803-.47952-.7499-1.13048-.7499-1.8096 0-.67911.2696-1.33007.7499-1.80954.4795-.48033 1.1305-.74993 1.8096-.74993zm-11.09104 0v-.85316h1.70634v.85316h2.986v1.70632h-2.986v1.70631h1.2797c.6791 0 1.3301.2696 1.8096.74994.4803.4795.7499 1.1304.7499 1.8095s-.2696 1.3301-.7499 1.8096c-.4795.4803-1.1305.7499-1.8096.7499h-1.2797v.8532c-.5691 0-1.1373 0-1.70634 0v-.8532h-2.98605c0-.5691 0-1.1373 0-1.7063h2.98605v-1.7063h-1.27974c-.67911 0-1.33007-.2696-1.80954-.7499-.48033-.47952-.74993-1.13048-.74993-1.8096 0-.67911.2696-1.33007.74993-1.80954.47947-.48033 1.13043-.74993 1.80954-.74993zm12.79734 6.82527h1.2798c.226 0 .4436-.0896.6031-.25.1604-.1595.25-.3771.25-.6032s-.0896-.4436-.25-.6031c-.1595-.1604-.3771-.25-.6031-.25h-1.2798zm-9.8113-1.7063h-1.2797v1.7063h1.2797c.2261 0 .4437-.0896.6032-.25.1604-.1595.25-.3771.25-.6032s-.0896-.4436-.25-.6031c-.1595-.1604-.3771-.25-.6032-.25zm6.8253-1.70634h1.2797v-1.70631h-1.2797c-.2261 0-.4437.08958-.6032.24997-.1604.15954-.25.3771-.25.60318 0 .22609.0896.44365.25.60319.1595.16039.3771.24997.6032.24997zm-11.09108 0h1.27974v-1.70631h-1.27974c-.22608 0-.44364.08958-.60318.24997-.16039.15954-.24997.3771-.24997.60318 0 .22609.08958.44365.24997.60319.15954.16039.3771.24997.60318.24997z" fill="#6dec51"/></g></svg>