<svg fill="none" height="32" viewBox="0 0 32 32" width="32" xmlns="http://www.w3.org/2000/svg"><path d="m31.1028 20.9925c0 2.0091-.5252 3.4351-1.3444 4.4745-.8271 1.0495-2.0166 1.7841-3.4762 2.2907-2.9616 1.0282-6.7719 1.0379-10.1824 1.0379-3.4093 0-7.27255-.0094-10.28664-1.0393-1.48698-.5081-2.7015-1.2447-3.54601-2.2958-.83532-1.0397-1.370401-2.4634-1.370401-4.468 0-3.748.807291-8.3097 3.108411-11.90376 2.26699-3.54072 6.01294-6.19919 12.09464-6.19919 5.7647 0 9.4692 2.66321 11.7712 6.23125 2.3312 3.6131 3.2318 8.1799 3.2318 11.8717z" fill="#fbc546" stroke="#000" stroke-width="1.7935"/><g fill="#e59a10"><path clip-rule="evenodd" d="m8.64636 21.6217h.10665c.79711-.1992 2.11779.1681 2.60579.4266-.0384.0325-.0759.0666-.1117.1024l-.8847.894-1.19561-.9964c-.15954-.1604-.33444-.3029-.52043-.4266z" fill-rule="evenodd"/><path d="m23.8289 21.6217h.1067c-.186.1237-.3609.2662-.5205.4265l-1.1956.9964-.8846-.894c-.0359-.0358-.0734-.0699-.1118-.1023.488-.2585 1.8087-.6259 2.6058-.4266z"/><path d="m14.9458 27.8989.5979-2.5906.1993.4982h1.096l.1992-.4982.5979 2.5906z"/></g><path d="m12.1296 29.6624.0003-.0003c.0987-.0987.198-.1976.2971-.2963.638-.6354 1.2687-1.2636 1.6875-1.787.499-.6237.6826-1.2971.6119-1.9529-.0673-.6238-.3552-1.1498-.6488-1.5434-.2969-.398-.6392-.7138-.8968-.9251-.131-.1074-.2454-.1922-.329-.2514-.0419-.0297-.0764-.0532-.1018-.0702l-.0312-.0205-.0101-.0065-.0037-.0023-.0014-.0009-.0007-.0004c-.0002-.0002-.0005-.0004-.4747.7504l.4742-.7508-.6001-.379-.5019.5019-1.2732 1.2731-1.35481-1.3548c-.52277-.5228-1.23235-.8171-1.97188-.8171s-1.44911.2943-1.97188.8171l.62788.6279-.62788-.6279-1.11398 1.1139c-.52278.5228-.81708 1.2324-.81708 1.9719s.2943 1.4491.81708 1.9719l.62788-.6279-.62788.6279 1.75937 1.7593c1.78191 1.7819 4.67258 1.782 6.45468.0003.0001-.0001.0002-.0002.0003-.0003z" fill="#fbc546" stroke="#7e5108" stroke-linecap="round" stroke-width="1.77592"/><path d="m20.4556 29.6625-.0005-.0004c-.0987-.0987-.1979-.1976-.2971-.2963-.638-.6354-1.2687-1.2636-1.6874-1.787-.499-.6237-.6826-1.2971-.6119-1.9529.0673-.6238.3552-1.1498.6488-1.5434.2969-.398.6392-.7138.8968-.9251.131-.1074.2453-.1922.329-.2514.0419-.0297.0764-.0532.1018-.0702l.0312-.0205.0101-.0065.0037-.0023.0014-.0009.0006-.0004c.0003-.0002.0006-.0004.4747.7504l-.4741-.7508.6001-.379.5019.5019 1.2731 1.2731 1.3549-1.3548c.5228-.5228 1.2323-.8171 1.9719-.8171.7395 0 1.4491.2943 1.9719.8171l-.6279.6279.6279-.6279 1.1139 1.1139c.5228.5228.8171 1.2324.8171 1.9719s-.2943 1.4491-.8171 1.9719l-1.7593 1.7593c-1.7821 1.782-4.673 1.782-6.455 0z" fill="#fbc546" stroke="#7e5108" stroke-linecap="round" stroke-width="1.77592"/><path clip-rule="evenodd" d="m27.1129 16.1694c-.116.8285-.8284 1.4666-1.6892 1.4666-1.0426 0-2.3701 0-3.4127 0-.9427 0-1.7063-.7636-1.7063-1.7063s.7636-1.7063 1.7063-1.7063h3.4127c.755 0 1.3949.4897 1.6201 1.1688.0316.2568.0555.5153.0691.7772zm-22.07883-.7763c.22438-.6791.8651-1.1697 1.62015-1.1697h3.41258c.9428 0 1.7064.7636 1.7064 1.7063s-.7636 1.7063-1.7064 1.7063c-1.04251 0-2.37003 0-3.41258 0-.86084 0-1.57323-.6381-1.69011-1.4674.01451-.2611.03754-.5196.06996-.7755z" fill="#ed6b44" fill-rule="evenodd"/><path d="m10.9229 16.783s.3285.3284.7499.7499c1.1586 1.1586 2.7301 1.8095 4.3691 1.8095 1.6389 0 3.2104-.6509 4.369-1.8095.4214-.4215.7499-.7499.7499-.7499" stroke="#593604" stroke-linecap="round" stroke-miterlimit="1.5" stroke-width="1.70631"/><path clip-rule="evenodd" d="m8.61338 13.5476c.33273.3336.87363.3336 1.20636 0 .00086-.0008.00086-.0008.00086-.0008.4052-.4053.9555-.6331 1.5289-.6331.5733 0 1.1236.2278 1.5288.6331 0 0 0 .0008.0017.0017.1596.1595.3763.2491.6023.2491.2261 0 .4428-.0896.6024-.2491.0008 0 .0008-.0009.0008-.0009.3336-.3327.3336-.8736 0-1.2064-.0008-.0008-.0008-.0008-.0008-.0008-.7252-.7252-1.7098-1.133-2.7352-1.133-1.0255 0-2.01008.4078-2.73527 1.133 0 0-.00085 0-.0017.0017-.15955.1595-.24913.3762-.24913.6023s.08958.4428.24913.6024c0 .0008.00085.0008.00085.0008zm14.85692 0c-.3328.3336-.8737.3336-1.2064 0-.0009-.0008-.0009-.0008-.0009-.0008-.4052-.4053-.9555-.6331-1.5288-.6331s-1.1236.2278-1.5289.6331c0 0 0 .0008-.0017.0017-.1595.1595-.3762.2491-.6023.2491s-.4428-.0896-.6023-.2491c-.0009 0-.0009-.0009-.0009-.0009-.3336-.3327-.3336-.8736 0-1.2064.0009-.0008.0009-.0008.0009-.0008.7251-.7252 1.7097-1.133 2.7352-1.133s2.01.4078 2.7352 1.133c0 0 .0009 0 .0017.0017.1596.1595.2491.3762.2491.6023s-.0895.4428-.2491.6024c0 .0008-.0008.0008-.0008.0008z" fill="#000" fill-rule="evenodd"/></svg>