<svg fill="none" height="32" viewBox="0 0 32 32" width="32" xmlns="http://www.w3.org/2000/svg"><path d="m31.1028 20.9925c0 2.0091-.5252 3.4351-1.3444 4.4745-.8271 1.0495-2.0166 1.7841-3.4762 2.2907-2.9616 1.0282-6.7719 1.0379-10.1824 1.0379-3.4093 0-7.27255-.0094-10.28664-1.0393-1.48698-.5081-2.7015-1.2447-3.54601-2.2958-.83532-1.0397-1.370401-2.4634-1.370401-4.468 0-3.748.807291-8.3097 3.108411-11.90376 2.26699-3.54072 6.01294-6.19919 12.09464-6.19919 5.7647 0 9.4692 2.66321 11.7712 6.23125 2.3312 3.6131 3.2318 8.1799 3.2318 11.8717z" fill="#77b84c" stroke="#000" stroke-width="1.7935"/><g clip-rule="evenodd" fill-rule="evenodd"><path d="m9.98509 23.7295h-.43511c-.29604 0-.56991-.1527-.72603-.4043-.15528-.2517-.16893-.5657-.03669-.8302.21244-.4257.46156-.9248.71751-1.4358 1.01183-2.0237 3.07993-3.3018 5.34163-3.3018h2.0032c2.2617 0 4.3298 1.2781 5.3416 3.3018.256.511.5051 1.0101.7175 1.4358.1323.2645.1186.5785-.0367.8302-.1561.2516-.43.4043-.726.4043h-.4351c-.9009-1.5612-10.8249-1.5612-11.72581 0z" fill="#193804"/><path d="m9.98669 23.7296c.90091-1.5612 2.57991-2.5594 4.43391-2.5594h2.858c1.8539 0 3.533.9982 4.4339 2.5594z" fill="#2f6607"/><path d="m19.2614 22.9075-.8531-.8532h-5.119l-.8531 2.1329v2.1329s0 0-.0009 0c-.6774-.0034-1.3283.2628-1.8087.7397-.4803.4778-.74989 1.127-.74989 1.8044v.6177s.98389.2105 5.16879.2105c.3591.002-2.6903 0 1.5942 0s5.1812-.1683 5.1812-.1683 0 0 0-.6599c0-.6774-.2696-1.3266-.7499-1.8044-.4803-.4769-1.1313-.7431-1.8087-.7397-.0009 0-.0009 0-.0009 0z" fill="#e8e14f"/><path d="m19.2614 21.1702c0-.471-.3822-.8532-.8531-.8532-1.3113 0-3.8077 0-5.119 0-.2261 0-.4436.0896-.6032.25-.1604.1595-.2499.3771-.2499.6032v2.986c0 .7064.5733 1.2798 1.2797 1.2798h.0017c.3387 0 .6638-.1348.9035-.3746.2397-.2397.3745-.5648.3745-.9035 0-.6407 0-1.2814 0-1.2814h.8532v2.5595c0 .4709.3822.8531.8531.8531.471 0 .8532-.3822.8532-.8531 0-1.011 0-2.5595 0-2.5595h1.7063s0-.9615 0-1.7063z" fill="#b0aa35"/><path d="m22.7043 11.3596.0392.0017.0384.0043.0384.006.0384.0068.0375.0094.0376.0111.0367.0128.0358.0136.035.0162.0349.0171.0342.0196.0324.0205.0324.0222.0307.023.0299.0247.029.0265.0273.0273.0264.029.0248.0299.023.0307.0222.0324.0205.0324.0196.0341.0171.035.0162.035.0136.0358.0128.0367.0111.0376.0094.0375.0068.0384.006.0384.0043.0384.0017.0392.0008.0384-.0017.0393-.0026.0383-.0051.0384-.0068.0384-.0077.0384-.0102.0376-.012.0366-.0136.0367-.0145.0359-.0171.0349-.0179.0342-.0205.0332-.0213.0325-.0222.0315-.0247.0307-.0248.029-.0273.0282-2.4366 2.4366 2.1031.7013.0366.0128.0359.0145.035.0171.0349.0179.0333.0188.0324.0213.0324.023.0299.0239.0299.0248.0281.0264.0273.0282.0256.029.0248.0298.023.0316.0213.0324.0205.0333.0179.0341.0171.035.0153.0358.0137.0359.0119.0375.0111.0367.0086.0384.0068.0384.0051.0384.0034.0384.0017.0392v.0384l-.0025.0392-.0035.0384-.0051.0384-.0077.0384-.0085.0376-.0102.0375-.0128.0367-.0137.0367-.0153.0349-.0179.035-.018.0341-.0204.0333-.0222.0316-.0231.0316-.0247.0298-.0256.029-.0273.0282-.029.0264-.029.0248-.0307.0239-.0324.0221-.0325.0205-.0341.0196-.0341.018-.035.0162-.0367.0145-.0367.0128-.0366.0111-.0376.0093-.0384.0077-.0384.006-.0384.0043-.0392.0025-.0384.0009-.0392-.0009-.0384-.0025-.0384-.0043-.0384-.0068-.0384-.0077-.0376-.0103-.0366-.011-4.3401-1.4461-.0972-.413 4.1037-4.1037.0281-.0273.029-.0247.0308-.0247.0315-.0222.0324-.0214.0333-.0204.0341-.0179.035-.0171.0358-.0145.0367-.0137.0367-.0119.0376-.0102.0384-.0077.0383-.0069.0384-.0051.0384-.0025.0393-.0017z" fill="#000"/><path d="m9.0722 11.3605.03839.0025.03839.0051.03839.0069.0384.0077.03753.0102.03669.0119.03669.0137.03583.0145.03498.0171.03412.0179.03328.0204.03242.0214.03156.0222.03072.0247.02901.0247.02815.0273 4.10365 4.1037-.0972.413-4.34003 1.4461-.03669.011-.03754.0103-.03839.0077-.03839.0068-.0384.0043-.03839.0025-.03924.0009-.03839-.0009-.03925-.0025-.03839-.0043-.03839-.006-.0384-.0077-.03754-.0093-.03668-.0111-.03669-.0128-.03668-.0145-.03498-.0162-.03413-.018-.03413-.0196-.03241-.0205-.03242-.0221-.03072-.0239-.02901-.0248-.029-.0264-.0273-.0282-.0256-.029-.02474-.0298-.02304-.0316-.02218-.0316-.02047-.0333-.01792-.0341-.01792-.035-.01535-.0349-.01365-.0367-.0128-.0367-.01024-.0375-.00853-.0376-.00768-.0384-.00512-.0384-.00341-.0384-.00256-.0392v-.0384l.00171-.0392.00341-.0384.00512-.0384.00682-.0384.00854-.0384.01109-.0367.01194-.0375.01365-.0359.01536-.0358.01706-.035.01792-.0341.02047-.0333.02133-.0324.02304-.0316.02474-.0298.02559-.029.0273-.0282.02816-.0264.02986-.0248.02986-.0239.03242-.023.03242-.0213.03327-.0188.03498-.0179.03498-.0171.03583-.0145.03669-.0128 2.10303-.7013-2.43661-2.4366-.02731-.0282-.02474-.029-.02474-.0307-.02218-.0315-.02133-.0325-.02048-.0332-.01791-.0342-.01707-.0349-.0145-.0359-.01365-.0367-.01194-.0366-.01024-.0376-.00768-.0384-.00682-.0384-.00512-.0384-.00256-.0383-.00171-.0393.00085-.0384.00171-.0392.00427-.0384.00597-.0384.00682-.0384.00939-.0375.01109-.0376.0128-.0367.01365-.0358.01621-.035.01706-.035.01962-.0341.02048-.0324.02218-.0324.02304-.0307.02474-.0299.02644-.029.02731-.0273.029-.0265.02986-.0247.03072-.023.03242-.0222.03242-.0205.03412-.0196.03498-.0171.03498-.0162.03583-.0136.03669-.0128.03754-.0111.03754-.0094.03839-.0068.03839-.006.03839-.0043.03925-.0017.03839-.0008z" fill="#000"/></g></svg>