<svg fill="none" height="32" viewBox="0 0 32 32" width="32" xmlns="http://www.w3.org/2000/svg" xmlns:xlink="http://www.w3.org/1999/xlink"><clipPath id="a"><path d="m0 0h32v32h-32z"/></clipPath><g clip-path="url(#a)"><path d="m31.1028 20.9925c0 2.0091-.5252 3.4351-1.3444 4.4745-.8271 1.0495-2.0166 1.7841-3.4762 2.2907-2.9616 1.0282-6.7719 1.0379-10.1824 1.0379-3.4093 0-7.27255-.0094-10.28664-1.0393-1.48698-.5081-2.7015-1.2447-3.54601-2.2958-.83532-1.0397-1.370401-2.4634-1.370401-4.468 0-3.748.807291-8.3097 3.108411-11.90376 2.26699-3.54072 6.01294-6.19919 12.09464-6.19919 5.7647 0 9.4692 2.66321 11.7712 6.23125 2.3312 3.6131 3.2318 8.1799 3.2318 11.8717z" fill="#fbc546" stroke="#000" stroke-width="1.7935"/><path clip-rule="evenodd" d="m20.1717 22.1276c.0103.0093.0205.0196.0307.0298l4.2091 5.1437c.3986.0996-3.0888.5978-5.9783.5978 0 0 1.6225-4.1819 1.7308-5.779z" fill="#e59a10" fill-rule="evenodd"/><path d="m10.1723 27.617c-.90508-.9051-.89571-.6979-1.42491-1.3594-1.7199-2.1498.95325-4.6603.95325-4.6603l1.87186 1.7558 2.3631-2.363c.4248-.4248 1.0014-.6638 1.6018-.6638s1.177.239 1.6018.6638l1.3276 1.3277c.4249.4248.6639 1.0014.6639 1.6018 0 .6003-.239 1.1769-.6639 1.6017l-2.0968 2.0969c-1.7106 1.7105-4.486 1.7105-6.1965 0z" fill="#fbc546"/><g clip-rule="evenodd" fill-rule="evenodd"><path d="m8.9042 28.8853.00114.0011c2.41096 2.4108 6.32196 2.4109 8.73286 0l2.0969-2.0968c.7608-.7608 1.1891-1.7934 1.1891-2.87s-.4283-2.1092-1.1891-2.87l-1.3277-1.3276c-.7608-.7608-1.7934-1.1892-2.87-1.1892s-2.1092.4284-2.87 1.1892l-1.1347 1.1347-1.83275-1.7191-1.22706 1.1524 1.2278 1.3073 1.87191 1.7559 2.363-2.363c.4248-.4248 1.0014-.6639 1.6018-.6639s1.177.2391 1.6018.6639l1.3277 1.3276c.4248.4248.6638 1.0014.6638 1.6018s-.239 1.177-.6638 1.6018l-2.0969 2.0968c-1.7105 1.7105-4.4859 1.7105-6.1965 0l-.0011-.0011c-.41814-.4182-.64111-.5989-.81217-.7376-.19924-.1615-.32806-.2659-.61279-.6218-.88538-1.1067-.60659-2.309-.12759-3.2152.24833-.4698.55048-.86.77212-1.116.1813-.2095.30872-.3292.30872-.3292-1.2278-1.3073-1.22829-1.3068-1.22879-1.3064l-.00105.001-.00229.0022-.00534.005c-.00389.0037-.00844.0081-.01362.0131-.01036.0099-.02326.0225-.03847.0375-.03039.03-.07018.0701-.1175.1195-.09431.0985-.22036.2361-.36254.407-.2791.3355-.64631.8303-.95247 1.4357-.6031 1.1926-1.12257 3.2026.36834 5.0662.34993.4374.57149.6405.83984.8589.01419.0116.02847.0231.04298.0349.14805.1198.32023.2592.67442.6134z" fill="#9d6e17"/><path d="m10.498 17.4929c.7917 0 1.5502-.3148 2.1099-.8745.5596-.5597.8745-1.3181.8745-2.1099 0-.5605 0-1.1475 0-1.708 0-1.6491-1.3369-2.98605-2.9861-2.98605h-.0017c-.79173 0-1.55019.31485-2.10986.87445-.55967.5597-.87449 1.3182-.87449 2.1099v1.708c0 1.6492 1.3369 2.9861 2.98605 2.9861z" fill="#fff"/><path d="m9.21661 12.3739c0-.4522.18002-.8864.49995-1.2063.31994-.32.75424-.5 1.20634-.5.4522 0 .8865.18 1.2064.5.3199.3199.4999.7541.4999 1.2063v2.545c0 .453-.18.8864-.4999 1.2072-.3199.3199-.7542.4991-1.2064.4991-.4521 0-.8864-.1792-1.20634-.4991-.31993-.3208-.49995-.7542-.49995-1.2072 0-.7977 0-1.7464 0-2.545z" fill="#000"/><path d="m21.5857 17.4929c-.7918 0-1.5502-.3148-2.1099-.8745s-.8745-1.3181-.8745-2.1099c0-.5605 0-1.1475 0-1.708 0-1.6491 1.3369-2.98605 2.9861-2.98605h.0017c.7917 0 1.5502.31485 2.1098.87445.5597.5597.8745 1.3182.8745 2.1099v1.708c0 1.6492-1.3369 2.9861-2.986 2.9861z" fill="#fff"/><path d="m22.8671 12.3739c0-.4522-.18-.8864-.5-1.2063-.3199-.32-.7541-.5-1.2063-.5s-.8864.18-1.2064.5c-.3199.3199-.4999.7541-.4999 1.2063v2.545c0 .453.18.8864.4999 1.2072.32.3199.7542.4991 1.2064.4991s.8864-.1792 1.2063-.4991c.32-.3208.5-.7542.5-1.2072 0-.7977 0-1.7464 0-2.545z" fill="#000"/></g></g></svg>