<svg fill="none" height="32" viewBox="0 0 32 32" width="32" xmlns="http://www.w3.org/2000/svg"><path d="m31.1028 20.9925c0 2.0091-.5252 3.4351-1.3444 4.4745-.8271 1.0495-2.0166 1.7841-3.4762 2.2907-2.9616 1.0282-6.7719 1.0379-10.1824 1.0379-3.4093 0-7.27255-.0094-10.28664-1.0393-1.48698-.5081-2.7015-1.2447-3.54601-2.2958-.83532-1.0397-1.370401-2.4634-1.370401-4.468 0-3.748.807291-8.3097 3.108411-11.90376 2.26699-3.54072 6.01294-6.19919 12.09464-6.19919 5.7647 0 9.4692 2.66321 11.7712 6.23125 2.3312 3.6131 3.2318 8.1799 3.2318 11.8717z" fill="#fbc546" stroke="#000" stroke-width="1.7935"/><g clip-rule="evenodd" fill-rule="evenodd"><path d="m10.2926 24.6692c-1.35051-1.2029-2.31629-2.8274-2.68997-4.6668h16.72017c-.3737 1.8394-1.3395 3.4639-2.69 4.6668z" fill="#722245"/><path d="m12.5528 24.5095c0 .1041-.8489 1.0605-.8412 1.1637l.0017.0222c-.5076-.2926-.9828-.6364-1.4179-1.0238l.6441-.9674c.1109-.1647.2389-.3166.3839-.4522.1161-.1075.2423-.2048.3763-.2901zm7.6784-1.5476c.2978.1886.558.4402.7602.7423l.6441.9674c-.4351.3874-.9103.7312-1.4179 1.0238l.0017-.0222c.0077-.1032-.8412-1.0596-.8412-1.1637z" fill="#a1256c"/><path d="m20.2267 25.3604c0 .1049-.0043.2081-.012.3105-.1578 2.0792-1.8948 3.7164-4.0149 3.7164-.1587 0-.3191 0-.4778 0-2.2242 0-4.0269-1.8028-4.0269-4.0269v-2.4008c.2235-.1408.4675-.2474.7235-.3148.2116-.0546.4283-.0819.6467-.0828h5.7912c.4931 0 .9666.1416 1.3702.3976z" fill="#dd34a2"/><path d="m11.4827 11.8175c.3378.1647.6484.3848.9188.6552.6408.6399.9999 1.5076.9999 2.4128v.0017c0 1.8837-1.5271 3.4109-3.41089 3.4109h-.00342c-1.88377 0-3.41092-1.5272-3.41092-3.4109v-.0034c0-.8669.32335-1.6586.85657-2.2601-.00256.0401 4.18646-.5264 4.04996-.8062z" fill="#fff"/><path d="m9.98879 11.4709c.52301 0 1.03321.1203 1.49391.3447.1365.2799.2124.5947.2124.9266v.0034c0 1.1731-.9513 2.1243-2.12435 2.1243h-.01707c-1.17309 0-2.12436-.9512-2.12436-2.1243 0-.0009 0-.0026 0-.0034 0-.0401.00085-.0802.00341-.1203.62452-.7056 1.53739-1.151 2.55436-1.151z" fill="#000"/><path d="m22.8134 9.87793c1.4581.38817 2.5322 1.71657 2.5322 3.29657v1.708c0 .9052-.3592 1.7738-.9999 2.4136-.6399.6399-1.5075.9991-2.4127.9991h-.0017c-1.8838 0-3.4109-1.5272-3.4109-3.4109 0-.5631 0-1.1467 0-1.7098 0-.5989.1544-1.162.4257-1.6508.2192.9393 4.084-1.313 3.8673-1.64577z" fill="#fff"/><path d="m21.9355 9.76465c.3038 0 .5981.0401.8788.11432.2167.33273.343.73033.343 1.15693v.0034c-.0009 1.1731-.9513 2.1243-2.1253 2.1243-.0051 0-.011 0-.0162 0-1.0067 0-1.8496-.6996-2.0689-1.6389.5819-1.0494 1.7004-1.76005 2.9852-1.76005z" fill="#000"/></g></svg>