<svg fill="none" height="32" viewBox="0 0 32 32" width="32" xmlns="http://www.w3.org/2000/svg" xmlns:xlink="http://www.w3.org/1999/xlink"><clipPath id="a"><path d="m0 0h32v32h-32z"/></clipPath><g clip-path="url(#a)"><path d="m31.1028 20.9924c0 2.0092-.5252 3.4351-1.3444 4.4746-.8271 1.0494-2.0166 1.784-3.4762 2.2907-2.9616 1.0281-6.7719 1.0379-10.1824 1.0379-3.4093 0-7.27255-.0095-10.28664-1.0394-1.48698-.508-2.7015-1.2447-3.54601-2.2958-.83532-1.0397-1.370401-2.4634-1.370401-4.468 0-4.1241.976181-9.2085 3.821861-12.92207h22.41209c2.8781 3.73877 3.9721 8.85017 3.9721 12.92207z" fill="#fbc546" stroke="#000" stroke-width="1.7935"/><path d="m10.7299 20.6875s.3284.3285.7499.7499c1.1586 1.1586 2.7301 1.8096 4.369 1.8096s3.2104-.651 4.369-1.8096c.4215-.4214.7499-.7499.7499-.7499" stroke="#593604" stroke-linecap="round" stroke-miterlimit="1.5" stroke-width="1.70631"/><g clip-rule="evenodd" fill-rule="evenodd"><path d="m10.7316 18.9811c.6782 0 1.3292-.2696 1.8087-.749.4795-.4795.7491-1.1305.7491-1.8087 0-.546 0-1.1228 0-1.6705 0-1.4342-1.1629-2.597-2.5971-2.597-.0008 0-.0008 0-.0017 0-1.39146 0-2.52019 1.1287-2.52019 2.5202v1.7456c0 1.4137 1.14579 2.5594 2.55949 2.5594z" fill="#fff"/><path d="m9.87671 14.2888c0-.3396.13479-.6646.37449-.9052.2406-.2398.5657-.3746.9052-.3746.3396 0 .6647.1348.9052.3746.2398.2406.3746.5656.3746.9052v2.5449c0 .3396-.1348.6655-.3746.9052-.2405.2398-.5656.3746-.9052.3746-.3395 0-.6646-.1348-.9052-.3746-.2397-.2397-.37449-.5656-.37449-.9052 0-.7772 0-1.7669 0-2.5449z" fill="#000"/><path d="m20.966 18.9811c-.6782 0-1.3292-.2696-1.8087-.749-.4794-.4795-.749-1.1305-.749-1.8087 0-.546 0-1.1228 0-1.6705 0-1.4342 1.1628-2.597 2.597-2.597h.0017c1.3915 0 2.5202 1.1287 2.5202 2.5202v1.7456c0 1.4137-1.1458 2.5594-2.5595 2.5594-.0008 0-.0008 0-.0017 0z" fill="#fff"/><path d="m21.8209 14.2871c0-.3387-.1348-.6638-.3745-.9035-.2398-.2398-.5648-.3746-.9035-.3746h-.0035c-.3387 0-.6637.1348-.9035.3746-.2397.2397-.3745.5648-.3745.9035v2.5483c0 .3396.1348.6647.3745.9044.2398.2389.5648.3737.9035.3737h.0035c.3387 0 .6637-.1348.9035-.3737.2397-.2397.3745-.5648.3745-.9044z" fill="#000"/><path d="m7.14771 6.12813 1.19808-.6934h15.09731l1.1981.6934.9587 2.15676h-19.41087zm.4788-1.07838 1.39111-3.12839c.37636-.84761 1.09778-1.49248 1.98098-1.770703.8843-.279301 1.8451-.1671493 2.6399.310574 1.1862.711729 2.256 1.353369 2.256 1.353369s1.0697-.64164 2.2559-1.353369c.7948-.4777233 1.7556-.589875 2.6399-.310574.8832.278223 1.6047.923093 1.981 1.770703l1.3911 3.12839-.7193.6934h-15.09731z" fill="#6c5935"/><path d="m24.643 6.12489h-17.49352l.4788-1.07838h16.53592z" fill="#978156"/><path d="m5.09447 5.75988c1.41699.94466 3.08202 1.44935 4.78478 1.44935h12.03045c1.7027 0 3.3678-.50469 4.7848-1.44935.5553-.3688 1.156-.76996 1.7286-1.15171.5068-.33861 1.1593-.36988 1.6963-.08196.537.28685.8724.84761.8724 1.4569v.00108c0 .89721-.3559 1.75668-.991 2.39077-.6341.63517-1.4936.99103-2.3908.99103-5.8103 0-17.62075 0-23.43108 0-.89721 0-1.75668-.35586-2.39077-.99103-.63516-.63409-.991031-1.49356-.991031-2.39077v-.00108c0-.60929.335381-1.17005.872411-1.4569.53703-.28792 1.18946-.25665 1.69629.08196.57263.38175 1.17328.78291 1.72865 1.15171z" fill="#4e4024"/></g></g></svg>