<svg fill="none" height="32" viewBox="0 0 32 32" width="32" xmlns="http://www.w3.org/2000/svg"><path d="m31.1028 20.9925c0 2.0091-.5252 3.4351-1.3444 4.4745-.8271 1.0495-2.0166 1.7841-3.4762 2.2907-2.9616 1.0282-6.7719 1.0379-10.1824 1.0379-3.4093 0-7.27255-.0094-10.28664-1.0393-1.48698-.5081-2.7015-1.2447-3.54601-2.2958-.83532-1.0397-1.370401-2.4634-1.370401-4.468 0-3.748.807291-8.3097 3.108411-11.90376 2.26699-3.54072 6.01294-6.19919 12.09464-6.19919 5.7647 0 9.4692 2.66321 11.7712 6.23125 2.3312 3.6131 3.2318 8.1799 3.2318 11.8717z" fill="#fbc546" stroke="#000" stroke-width="1.7935"/><path d="m11.639 20.5132h3.9979c1.8104 0 3.5466.7192 4.8263 1.9989.3268.3268.5606.5606.5606.5606" stroke="#593604" stroke-linecap="round" stroke-miterlimit="2" stroke-width="1.70631"/><g clip-rule="evenodd" fill-rule="evenodd"><path d="m12.3335 12.8347h.7841c.1467.3532.2278.7397.2278 1.145v1.708c0 .7917-.3148 1.551-.8745 2.1107s-1.3181.8736-2.1099.8736h-.0017c-1.64911 0-2.98601-1.3369-2.98601-2.986 0-.5606 0-1.1467 0-1.7081 0-.3958.07849-.784.22779-1.1432h1.63721c-.10323.2227 3.19851.2227 3.09521 0z" fill="#fff"/><path d="m12.3335 12.8347c.1033.2227.1587.4684.1587.7184v2.5458c0 .4522-.18.8864-.4999 1.2064-.32.3199-.7542.4999-1.2064.4999s-.88643-.18-1.20636-.4999c-.31993-.32-.49995-.7542-.49995-1.2064 0-.7986 0-1.7473 0-2.5458 0-.25.05545-.4957.15869-.7184z" fill="#000"/><path d="m21.4486 18.6735c-.7917 0-1.5501-.3139-2.1098-.8736s-.8745-1.319-.8745-2.1107c0-.5605 0-1.1467 0-1.708 0-1.6492 1.3369-2.9861 2.986-2.9861h.0018c.7917 0 1.5501.3148 2.1098.8745s.8745 1.319.8745 2.1099v1.708c0 1.6491-1.3369 2.986-2.9861 2.986z" fill="#fff"/><path d="m22.7301 13.5546c0-.4522-.18-.8864-.5-1.2064-.3199-.3199-.7542-.4999-1.2063-.4999-.4522 0-.8865.18-1.2064.4999-.3199.32-.5.7542-.5 1.2064v2.5458c0 .4522.1801.8864.5 1.2064.3199.3199.7542.4999 1.2064.4999.4521 0 .8864-.18 1.2063-.4999.32-.32.5-.7542.5-1.2064 0-.7986 0-1.7473 0-2.5458z" fill="#000"/></g><path d="m18.4643 8.56897h1.6457c1.1313 0 2.2165.44961 3.0159 1.24902.2603.26021.4573.45731.4573.45731" stroke="#000" stroke-linecap="round" stroke-miterlimit="1.5" stroke-width="1.70631"/></svg>