<svg fill="none" height="32" viewBox="0 0 32 32" width="32" xmlns="http://www.w3.org/2000/svg"><path d="m31.1028 20.9925c0 2.0091-.5252 3.4351-1.3444 4.4745-.8271 1.0495-2.0166 1.7841-3.4762 2.2907-2.9616 1.0282-6.7719 1.0379-10.1824 1.0379-3.4093 0-7.27255-.0094-10.28664-1.0393-1.48698-.5081-2.7015-1.2447-3.54601-2.2958-.83532-1.0397-1.370401-2.4634-1.370401-4.468 0-3.748.807291-8.3097 3.108411-11.90376 2.26699-3.54072 6.01294-6.19919 12.09464-6.19919 5.7647 0 9.4692 2.66321 11.7712 6.23125 2.3312 3.6131 3.2318 8.1799 3.2318 11.8717z" fill="#fbc546" stroke="#000" stroke-width="1.7935"/><g clip-rule="evenodd" fill-rule="evenodd"><path d="m19.3175 23.359c0-.4709-.3822-.8531-.8532-.8531-1.3113 0-3.8076 0-5.1189 0-.4709 0-.8532.3822-.8532.8531 0 .471.3823.8532.8532.8532h5.1189c.471 0 .8532-.3822.8532-.8532z" fill="#593604"/><path d="m18.4942 15.6807c-.0197-.1391-.0299-.2815-.0299-.4266 0-.5605 0-1.1475 0-1.708 0-.7917.3148-1.5502.8745-2.1098.5597-.5597 1.3181-.8745 2.1098-.8745h.0017c.814 0 1.5519.3259 2.0903.854-.5972.0145-.808 2.5057-.6314 4.2649z" fill="#fff"/><path d="m21.877 15.6799v-2.5595c0-.9283.7413-1.6833 1.6636-1.7055.5529.5418.8958 1.2968.8958 2.1321v1.708c0 .1553-.0119.3097-.0358.4607l-.0111-.0017c-.1254-.0222-.2525-.0341-.3797-.0341z" fill="#000"/><path d="m10.3593 10.5618c.814 0 1.5519.3259 2.0903.854-.9223.0222-.9223 5.9482.0008 5.9704-.5571.5468-1.3079.854-2.0894.854h-.0017c-1.64911 0-2.98601-1.3369-2.98601-2.9861 0-.5605 0-1.1475 0-1.708 0-.7917.31482-1.5502.87449-2.1098.55967-.5597 1.31813-.8745 2.10982-.8745z" fill="#fff"/><path d="m12.4495 11.4149c.5529.5418.8959 1.2968.8959 2.1321v1.708c0 .7917-.3149 1.5502-.8745 2.1098-.0069.0069-.0137.0137-.0205.0205-.9231-.0222-1.6645-.7772-1.6645-1.7055 0-.8028 0-1.7566 0-2.5594 0-.9283.7414-1.6833 1.6636-1.7055z" fill="#000"/><path d="m24.0098 14.8275c.7918 0 1.5511.3148 2.1116.8745.5597.5597.8745 1.3198.8745 2.1116 0 .7917-.3148 1.5519-.8745 2.1115-.5605.5597-1.3198.8745-2.1116.8745-3.0005 0-8.105 0-8.105 0v-1.7063h8.105c.3396 0 .6647-.1348.9052-.3745.2398-.2406.3746-.5657.3746-.9052 0-.3396-.1348-.6646-.3746-.9052-.2405-.2398-.5656-.3746-.9052-.3746h-8.105v-1.7063z" fill="#7e5108"/></g></svg>