<svg fill="none" height="32" viewBox="0 0 32 32" width="32" xmlns="http://www.w3.org/2000/svg" xmlns:xlink="http://www.w3.org/1999/xlink"><clipPath id="a"><path d="m0 0h32v32h-32z"/></clipPath><g clip-path="url(#a)"><path d="m31.1028 20.9925c0 2.0091-.5252 3.4351-1.3444 4.4745-.8271 1.0495-2.0166 1.7841-3.4762 2.2907-2.9616 1.0282-6.7719 1.0379-10.1824 1.0379-3.4093 0-7.27255-.0094-10.28664-1.0393-1.48698-.5081-2.7015-1.2447-3.54601-2.2958-.83532-1.0397-1.370401-2.4634-1.370401-4.468 0-3.748.807291-8.3097 3.108411-11.90376 2.26699-3.54072 6.01294-6.19919 12.09464-6.19919 5.7647 0 9.4692 2.66321 11.7712 6.23125 2.3312 3.6131 3.2318 8.1799 3.2318 11.8717z" fill="#fbc546" stroke="#000" stroke-width="1.7935"/><g clip-rule="evenodd" fill-rule="evenodd"><path d="m13.1523 18.7321h1.6458c1.1313 0 2.2165.4496 3.0159 1.249 2.1721 2.1721 6.2986 7.4195 6.2986 7.4195s-1.4946.2989-2.8895.3986c-1.395.0996-2.6903.0996-2.6903.0996l-5.3805 1.9098z" fill="#e59a10"/><path d="m9.60083 20.5123h5.34067c.4717 0 .9248.1878 1.2586.5216s.5216.7869.5216 1.2586v7.1209h-7.12087l-.8901.8901h-3.56043v-3.5604h-.89011l5.34064-5.3407z" fill="#fff"/><path d="m11.4309 23.1844.0498.0036.0499.0071.0489.0098.0481.0124.0472.0152.0471.0178.0454.0204.0445.0232.0428.0249.0418.0276.0392.0303.0382.032.0365.0347.0347.0365.0321.0383.0302.0392.0276.0418.025.0427.0231.0445.0205.0454.0178.0472.0151.0472.0125.048.0098.049.0071.0498.0035.0499.0018.0498-.0018.0499-.0035.0498-.0071.0499-.0098.0489-.0125.0481-.0151.0472-.0178.0471-.0205.0454-.0231.0445-.025.0428-.0276.0418-.0302.0392-.0321.0382-.0347.0365-7.12083 7.1209-.0365.0347-.03827.032-.03917.0303-.04183.0276-.04273.0249-.0445.0232-.0454.0204-.04717.0178-.04718.0152-.04806.0124-.04896.0098-.04985.0071-.04984.0036-.04985.0018-.04984-.0018-.04985-.0036-.04985-.0071-.04895-.0098-.04807-.0124-.04717-.0152-.04718-.0178-.04539-.0204-.04451-.0232-.04272-.0249-.04184-.0276-.03916-.0303-.03828-.032-.03649-.0347-.03472-.0365-.03204-.0383-.03026-.0392-.0276-.0418-.02492-.0427-.02314-.0445-.02048-.0454-.0178-.0472-.01513-.0472-.01246-.048-.00979-.049-.00712-.0498-.00356-.0499-.00178-.0498.00178-.0499.00356-.0498.00712-.0499.00979-.0489.01246-.0481.01513-.0472.0178-.0471.02048-.0454.02314-.0445.02492-.0428.0276-.0418.03026-.0392.03204-.0382.03472-.0365 7.12084-7.1209.0365-.0347.0383-.032.0391-.0303.0419-.0276.0427-.0249.0445-.0232.0454-.0204.0472-.0178.0472-.0152.048-.0124.049-.0098.0498-.0071.0499-.0036.0498-.0018z" fill="#b3b3b3"/><path d="m8.71069 30.3035 6.23071-6.2307v7.1057z" fill="#b3b3b3"/><path d="m15.029 18.7329.0882.0036.0881.0053.0872.0072.0872.0098.0873.0124.0863.0134.0855.016.0854.0187.0846.0205.0845.0213.0828.0249.0837.0259.0819.0284.081.0303.081.032.0792.0348.0792.0356.0783.0382.0766.0401.0765.0418.0757.0436.0739.0463.073.0472.0721.049.0712.0516.0694.0525.0685.0552.0677.0561.0658.0587.0641.0597.0641.0614.0614.0641.0597.064.0587.0659.0561.0677.0552.0685.0525.0694.0516.0712.049.0721.0472.073.0463.0739.0436.0757.0418.0756.0401.0775.0382.0783.0356.0792.0347.0792.0321.081.0303.081.0284.0819.0259.0837.024.0828.0222.0845.0205.0846.0187.0854.016.0855.0134.0863.0124.0873.0098.0872.0071.0872.0054.0881.0036.0882.0008.0765v8.9126h-8.164l-.89012.8902h-6.07765v-3.5605h-2.22616l-.346251-.8358 7.022941-7.022v-1.9333h7.13244zm-5.42873 1.7794v.8901l-5.34064 5.3406h.89011v3.5604h3.56043l.8901-.8901h7.12083v-7.1208l-.0009-.0445-.0009-.0436-.0035-.0445-.0036-.0437-.0044-.0436-.0063-.0427-.0071-.0436-.008-.0427-.0089-.0428-.0098-.0418-.0116-.0427-.0115-.0419-.0134-.0409-.0142-.0409-.0151-.041-.0161-.04-.0169-.0401-.0187-.0401-.0187-.0382-.0204-.0392-.0205-.0383-.0223-.0374-.0222-.0373-.024-.0365-.025-.0356-.0249-.0356-.0267-.0348-.0276-.0347-.0285-.0329-.0285-.0329-.0302-.033-.0312-.0311-.0311-.0312-.033-.0302-.0329-.0285-.0329-.0285-.0347-.0276-.0348-.0267-.0356-.0249-.0356-.025-.0365-.024-.0373-.0222-.0374-.0223-.0383-.0205-.0392-.0204-.0382-.0187-.0401-.0187-.0401-.0169-.04-.0161-.041-.0151-.0409-.0142-.0409-.0134-.0419-.0116-.0418-.0115-.0427-.0098-.0428-.0089-.0427-.008-.0436-.0071-.0427-.0063-.0436-.0044-.0437-.0036-.0445-.0036-.0436-.0008-.0445-.0009z" fill="#929292"/><path d="m22.7042 11.559.0392.0017.0384.0042.0384.006.0384.0068.0376.0094.0375.0111.0367.0128.0358.0137.035.0162.035.017.0341.0196.0324.0205.0324.0222.0308.023.0298.0248.029.0264.0273.0273.0265.029.0247.0299.0231.0307.0221.0324.0205.0325.0196.0341.0171.035.0162.0349.0137.0359.0128.0367.011.0375.0094.0375.0069.0384.0059.0384.0043.0384.0017.0393.0009.0383-.0018.0393-.0025.0384-.0051.0384-.0069.0384-.0076.0384-.0103.0375-.0119.0367-.0137.0367-.0145.0358-.017.035-.018.0341-.0204.0333-.0214.0324-.0221.0316-.0248.0307-.0247.029-.0273.0281-2.4366 2.4367 2.103.7013.0367.0128.0358.0145.035.017.035.0179.0332.0188.0325.0213.0324.0231.0298.0239.0299.0247.0282.0264.0273.0282.0256.029.0247.0299.023.0315.0214.0325.0204.0332.018.0342.017.0349.0154.0359.0136.0358.012.0375.0111.0367.0085.0384.0068.0384.0051.0384.0034.0384.0018.0392v.0384l-.0026.0393-.0034.0384-.0051.0384-.0077.0384-.0085.0375-.0103.0375-.0128.0367-.0136.0367-.0154.035-.0179.035-.0179.0341-.0205.0333-.0222.0315-.023.0316-.0248.0299-.0256.029-.0273.0281-.029.0265-.029.0247-.0307.0239-.0324.0222-.0324.0205-.0341.0196-.0342.0179-.035.0162-.0366.0145-.0367.0128-.0367.0111-.0376.0094-.0383.0077-.0384.0059-.0384.0043-.0393.0026-.0384.0008-.0392-.0008-.0384-.0026-.0384-.0043-.0384-.0068-.0384-.0077-.0375-.0102-.0367-.0111-4.34-1.4461-.0973-.4129 4.1037-4.1037.0282-.0273.029-.0248.0307-.0247.0316-.0222.0324-.0213.0332-.0205.0342-.0179.035-.0171.0358-.0145.0367-.0136.0367-.012.0375-.0102.0384-.0077.0384-.0068.0384-.0051.0384-.0026.0392-.0017z" fill="#000"/><path d="m9.07214 11.5598.03839.0026.03839.0051.03839.0068.0384.0077.03753.0102.03669.012.03668.0136.03584.0145.03498.0171.03412.0179.03328.0205.03242.0213.03156.0222.03072.0247.029.0248.02816.0273 4.10371 4.1037-.0973.4129-4.34 1.4461-.03668.0111-.03754.0102-.03839.0077-.03839.0068-.0384.0043-.03839.0026-.03924.0008-.0384-.0008-.03924-.0026-.03839-.0043-.0384-.0059-.03839-.0077-.03754-.0094-.03668-.0111-.03669-.0128-.03668-.0145-.03498-.0162-.03413-.0179-.03413-.0196-.03242-.0205-.03242-.0222-.03071-.0239-.02901-.0247-.029-.0265-.02731-.0281-.02559-.029-.02474-.0299-.02304-.0316-.02218-.0315-.02047-.0333-.01792-.0341-.01792-.035-.01535-.035-.01365-.0367-.0128-.0367-.01024-.0375-.00853-.0375-.00768-.0384-.00512-.0384-.00341-.0384-.00256-.0393v-.0384l.00171-.0392.00341-.0384.00512-.0384.00682-.0384.00853-.0384.0111-.0367.01194-.0375.01365-.0358.01536-.0359.01706-.0349.01792-.0342.02047-.0332.02133-.0325.02304-.0315.02474-.0299.02559-.029.0273-.0282.02816-.0264.02986-.0247.02986-.0239.03242-.0231.03242-.0213.03327-.0188.03498-.0179.03498-.017.03583-.0145.03669-.0128 2.10299-.7013-2.43658-2.4367-.0273-.0281-.02474-.029-.02474-.0307-.02218-.0316-.02133-.0324-.02048-.0333-.01791-.0341-.01707-.035-.0145-.0358-.01365-.0367-.01194-.0367-.01024-.0375-.00768-.0384-.00683-.0384-.00511-.0384-.00256-.0384-.00171-.0393.00085-.0383.00171-.0393.00426-.0384.00598-.0384.00682-.0384.00939-.0375.01109-.0375.01279-.0367.01366-.0359.01621-.0349.01706-.035.01962-.0341.02048-.0325.02218-.0324.02303-.0307.02475-.0299.02644-.029.0273-.0273.02901-.0264.02986-.0248.03072-.023.03242-.0222.03242-.0205.03412-.0196.03498-.017.03498-.0162.03583-.0137.03669-.0128.03754-.0111.03754-.0094.03839-.0068.03839-.006.03839-.0042.03925-.0017.03839-.0009z" fill="#000"/></g></g></svg>