<svg fill="none" height="32" viewBox="0 0 32 32" width="32" xmlns="http://www.w3.org/2000/svg"><path d="m31.1028 20.9925c0 2.0091-.5252 3.4351-1.3444 4.4745-.8271 1.0495-2.0166 1.7841-3.4762 2.2907-2.9616 1.0282-6.7719 1.0379-10.1824 1.0379-3.4093 0-7.27255-.0094-10.28664-1.0393-1.48698-.5081-2.7015-1.2447-3.54601-2.2958-.83532-1.0397-1.370401-2.4634-1.370401-4.468 0-3.748.807291-8.3097 3.108411-11.90376 2.26699-3.54072 6.01294-6.19919 12.09464-6.19919 5.7647 0 9.4692 2.66321 11.7712 6.23125 2.3312 3.6131 3.2318 8.1799 3.2318 11.8717z" fill="#fbc546" stroke="#000" stroke-width="1.7935"/><g clip-rule="evenodd" fill-rule="evenodd"><path d="m22.4554 13.0227 1.011-.8668c.023.0213.0461.0435.0682.0665.5597.5597.8745 1.3182.8745 2.1099v1.708c0 1.6492-1.3369 2.9861-2.986 2.9861h-.0017c-.7918 0-1.5502-.3149-2.1099-.8745-.4641-.4641-.7602-1.0648-.8472-1.708l.8259-.7082s1.9435-.8881 3.1652-2.713z" fill="#fff"/><path d="m22.456 13.0225c.1604.2644.2474.5699.2474.8847v2.545c0 .453-.18.8864-.4999 1.2072-.32.3199-.7542.4991-1.2064.4991s-.8864-.1792-1.2063-.4991c-.32-.3208-.5-.7542-.5-1.2072v-.7167z" fill="#000"/><path d="m9.32699 13.0227-1.01099-.8668c-.02389.0213-.04607.0435-.06911.0665-.55967.5597-.87363 1.3182-.87363 2.1099v1.708c0 1.6492 1.3369 2.9861 2.98604 2.9861h.0017c.7917 0 1.5502-.3149 2.1099-.8745.4641-.4641.7601-1.0648.8472-1.708l-.8259-.7082s-1.9435-.8881-3.16521-2.713z" fill="#fff"/><path d="m9.32701 13.0225c-.1604.2644-.24742.5699-.24742.8847v2.545c0 .453.18002.8864.49995 1.2072.31993.3199.75336.4991 1.20636.4991.4522 0 .8864-.1792 1.2064-.4991.3199-.3208.4999-.7542.4999-1.2072v-.7167z" fill="#000"/></g><path d="m28.0982 19.9277h-24.31191v11.2041h24.31191z" fill="#000"/><path d="m18.3772 29.1952c-.5574-.3011-.9912-.7228-1.3017-1.2642-.3104-.5423-.4656-1.1679-.4656-1.8757v-.6583c0-.7088.1552-1.3334.4656-1.8758.3105-.5423.7443-.964 1.3017-1.2642.5582-.3011 1.1978-.4516 1.9187-.4516.7079 0 1.3409.1486 1.8991.4469.5574.2974.9931.7154 1.3063 1.2549.3133.5386.4704 1.1529.4704 1.843v.6574c0 .6022-.1506 1.0613-.4517 1.3773-.3001.317-.6798.4751-1.137.4751-.2824 0-.5236-.0533-.7247-.1599-.2001-.1066-.3534-.2572-.46-.4507-.2011.4067-.6022.6106-1.2035.6106-.9463 0-1.4194-.5667-1.4194-1.7019v-.8275c0-.5386.1103-.9585.3329-1.2596.2225-.301.5629-.4507 1.0201-.4507.2263 0 .4255.0431.5975.131.1721.0878.2993.2038.3806.3478v-.3759h1.0249v2.6799c0 .2001.042.3488.1271.446.0842.0973.1955.1459.3339.1459.1748 0 .3067-.0767.3945-.23.0879-.1534.1319-.403.1319-.7481v-.6573c0-.533-.1057-.9949-.3151-1.3867-.2104-.3918-.5106-.6948-.9024-.908s-.8602-.3198-1.4054-.3198c-.8219 0-1.4652.2357-1.9328.706-.4666.4694-.7003 1.1118-.7003 1.9272v.6676c0 .5321.1047.9996.3151 1.4008.2104.4011.5124.7115.907.9304.3955.2197.8649.3291 1.411.3291.3759 0 .7144-.0393 1.0146-.1178.3011-.0776.6115-.1983.9313-.3619l.4133.7995c-.3637.2132-.7331.3693-1.109.4703-.3759.1001-.7929.1506-1.2502.1506-.7209 0-1.3605-.1506-1.9187-.4517zm-4.3154-.2636h-.8369v-.8556c-.5573-.0561-.993-.2422-1.3063-.5592-.3132-.3161-.4825-.7443-.5077-1.2829h1.0809c.0374.3067.1487.5264.3338.6583.1852.1309.4685.1973.8509.1973.3451 0 .6069-.0627.7855-.188s.2674-.3104.2674-.5554c0-.2188-.0598-.3881-.1786-.5078-.1187-.1187-.3132-.1935-.5825-.2253l-.7051-.0935c-1.1351-.1506-1.7018-.6957-1.7018-1.6364 0-.4825.1459-.8762.4367-1.1801.2917-.3039.7004-.4899 1.2268-.5591v-.7331h.8369v.7237c.5208.0561.9276.2319 1.2221.5265.2946.2945.461.6957.4984 1.2034h-1.0996c-.0253-.2637-.1225-.4573-.2918-.5826-.1692-.1262-.417-.1888-.7424-.1888-.3076 0-.5423.0617-.7051.1842-.1627.1215-.2449.2955-.2449.5217 0 .2001.0673.3582.2029.4741.1346.116.3525.1964.6527.2403l.734.1029c1.0585.1505 1.5887.6994 1.5887 1.6457 0 .5199-.1599.9351-.4797 1.2455-.3198.3105-.7649.4966-1.3353.5592zm-6.70354-.5639h-.9678l.25341-1.9178h-.98744v-.865h1.10058l.1412-1.0342h-.97809v-.8649h1.0903l.23564-1.8056h.96779l-.2347 1.8056h1.05289l.23471-1.8056h.96875l-.2347 1.8056h.9771v.8649h-1.09027l-.13184 1.0342h.95941v.865h-1.07162l-.25434 1.9178h-.97809l.25434-1.9178h-1.05289zm18.82304 0h-1.2315v-1.2221h1.2315zm-5.2935-2.2376v-.7892c0-.5583-.2066-.8369-.6209-.8369-.2188 0-.3805.0729-.4834.2207-.1038.1468-.1552.3497-.1552.6059v.7714c0 .2824.0495.4984.1505.649.1001.1505.2628.2253.4881.2253.4143 0 .6209-.2824.6209-.8462zm5.1149.0757h-.8743l-.2263-4.3256h1.3259zm-17.0838-1.6551h-1.05289l-.1412 1.0342h1.05383z" fill="#fff"/><path d="m19.7285 4.29689s.6893.68935 1.3531 1.35311c.6663.66631.6663 1.74641 0 2.41273-.6638.66375-1.3531 1.3531-1.3531 1.3531m10.2378-5.11894s-.6894.68935-1.3531 1.35311c-.6664.66631-.6664 1.74641 0 2.41273.6637.66375 1.3531 1.3531 1.3531 1.3531m-7.6783 1.70617s.6893-.6893 1.3531-1.35306c.6663-.66632 1.7464-.66632 2.4127 0 .6637.66376 1.3531 1.35306 1.3531 1.35306m-5.1189-8.53142s.6893.68935 1.3531 1.3531c.6663.66632 1.7464.66632 2.4127 0 .6637-.66375 1.3531-1.3531 1.3531-1.3531" stroke="#f00" stroke-linecap="round" stroke-miterlimit="1.5" stroke-width="1.70631"/></svg>