<svg fill="none" height="32" viewBox="0 0 32 32" width="32" xmlns="http://www.w3.org/2000/svg" xmlns:xlink="http://www.w3.org/1999/xlink"><clipPath id="a"><path d="m0 0h32v32h-32z"/></clipPath><g clip-path="url(#a)"><path d="m31.1028 20.9925c0 2.0091-.5252 3.4351-1.3444 4.4745-.8271 1.0495-2.0166 1.7841-3.4762 2.2907-2.9616 1.0282-6.7719 1.0379-10.1824 1.0379-3.4093 0-7.27255-.0094-10.28664-1.0393-1.48698-.5081-2.7015-1.2447-3.54601-2.2958-.83532-1.0397-1.370401-2.4634-1.370401-4.468 0-3.748.807291-8.3097 3.108411-11.90376 2.26699-3.54072 6.01294-6.19919 12.09464-6.19919 5.7647 0 9.4692 2.66321 11.7712 6.23125 2.3312 3.6131 3.2318 8.1799 3.2318 11.8717z" fill="#77b84c" stroke="#000" stroke-width="1.7935"/><g clip-rule="evenodd" fill-rule="evenodd"><path d="m16.2447 19.4647.0989.0017.198.0086.0989.0068.099.0077.0981.0093.0981.0111.0982.012.0981.0136.0972.0154.0973.0162.0972.0179.0973.0188.0964.0205.0964.0221.0956.0231.0955.0247.0947.0265.0956.0273.0938.029.0939.0307.0938.0316.093.0324.093.035.0922.0349.0921.0376.0913.0384.0904.0392.0904.0418.0896.0418.0862.0427 2.1542 1.0775.0512.0273.0495.0316.0469.0341.0444.0376.0418.0409.0392.0435.0359.0461.0324.0478.029.0503.0256.052.0222.0546.0187.0546.0145.0564.0111.058.0069.0571.0025.0589-.0008.058-.0052.058-.0093.0572-.0128.0571-.0171.0555-.0205.0546-.0247.0529-.0273.0512-.0316.0495-.0341.0469-.0376.0444-.0409.0418-.0435.0392-.0461.0358-.0478.0325-.0503.029-.052.0256-.0546.0221-.0546.0188-.0563.0145-.0581.0111-.0571.0068-.0589.0026-.058-.0009-.058-.0051-.0572-.0094-.0571-.0128-.0555-.017-.0546-.0205-.0529-.0247-2.1491-1.0742-.07-.0341-.0665-.0316-.0683-.0307-.0682-.0298-.0683-.029-.0682-.0282-.0691-.0264-.07-.0256-.0699-.0248-.07-.0239-.0708-.023-.0708-.0213-.0708-.0205-.0717-.0196-.0717-.0188-.0716-.0171-.0726-.017-.0716-.0154-.0725-.0145-.0734-.0128-.0725-.0128-.0734-.0111-.0734-.0102-.0733-.0094-.0743-.0077-.0733-.0068-.0743-.006-.0742-.0051-.0742-.0034-.0742-.0026-.0743-.0017-.0776-.0008h-.587l-.0776.0008-.0742.0017-.0743.0026-.0742.0034-.0742.0051-.0742.006-.0734.0068-.0742.0077-.0734.0094-.0734.0102-.0733.0111-.0726.0128-.0733.0128-.0725.0145-.0717.0154-.0725.017-.0717.0171-.0717.0188-.0716.0196-.0708.0205-.0709.0213-.0708.023-.0699.0239-.07.0248-.0699.0256-.0691.0264-.0683.0282-.0683.029-.0682.0298-.0683.0307-.0665.0316-.07.0341-2.1491 1.0742-.0529.0247-.0546.0205-.0554.017-.0572.0128-.0571.0094-.0581.0051-.058.0009-.0588-.0026-.0572-.0068-.058-.0111-.0563-.0145-.0546-.0188-.0546-.0221-.0521-.0256-.0503-.029-.0478-.0325-.0461-.0358-.0435-.0392-.0409-.0418-.0376-.0444-.0341-.0469-.03155-.0495-.0273-.0512-.02474-.0529-.02048-.0546-.01706-.0555-.0128-.0571-.00938-.0572-.00512-.058-.00085-.058.00256-.0589.00682-.0571.01109-.058.01451-.0564.01877-.0546.02218-.0546.02559-.052.02896-.0503.0325-.0478.0358-.0461.0392-.0435.0419-.0409.0443-.0376.0469-.0341.0495-.0316.0512-.0273 2.1542-1.0775.0862-.0427.0896-.0418.0904-.0418.0905-.0392.0912-.0384.0922-.0376.0921-.0349.093-.035.093-.0324.0939-.0316.0938-.0307.0939-.029.0955-.0273.0947-.0265.0956-.0247.0955-.0231.0964-.0221.0964-.0205.0973-.0188.0972-.0179.0973-.0162.0973-.0154.0981-.0136.0981-.012.0981-.0111.0981-.0093.099-.0077.099-.0068.1979-.0086.099-.0017.0964-.0008h.5989z" fill="#23480a"/><path d="m21.8643 19.4647.0333.0026.0341.0034.0333.0051.0333.0068.0332.0077.0325.0085.0324.0103.0324.0119.0307.0128.0316.0137.0298.0153.0299.0171.029.0171.0282.0187.0273.0205.0264.0205.0265.0222.0247.023.0239.0239.023.0247.0222.0265.0205.0264.0205.0273.0187.0282.0171.029.0171.0298.0153.0299.0137.0316.0128.0307.0119.0324.0102.0324.0086.0324.0077.0333.0068.0333.0051.0333.0034.0341.0026.0333.0008.0341v.0341l-.0017.0341-.0034.0333-.0043.0341-.0059.0333-.0069.0333-.0085.0324-.0094.0324-.0111.0325-.0119.0315-.0137.0316-.0145.0298-.0162.0308-.017.029-.018.029-.0196.0273-.0205.0273-.0213.0264-.0222.0248-.0239.0247.0035-.0034-.0308.0316-.0264.0281-.0256.029-.0247.0299-.0239.0298-.0231.0308-.0221.0307-.0427.0631-.0196.0324-.0196.0333-.018.0333-.0179.0341-.0162.0341-.0162.035-.0145.0341-.0145.0359-.0256.0716-.0119.0359-.0103.0366-.0094.0367-.0094.0376-.0076.0375-.0137.0751-.0051.0384-.0043.0375-.0051.0768-.0017.0392-.0008.0384.0008.0384.0017.0393.0051.0768.0043.0375.0051.0384.0137.0751.0076.0375.0094.0375.0094.0367.0103.0367.0119.0359.0256.0716.0145.0358.0145.0342.0162.035.0162.0341.0179.0341.018.0333.0196.0333.0196.0324.0427.0631.0221.0307.0231.0307.0239.0299.0247.0299.0256.029.0264.0281.0308.0316-.0035-.0034.0239.0247.0222.0248.0213.0264.0205.0273.0196.0273.018.029.017.029.0162.0307.0145.0299.0137.0316.0119.0315.0111.0324.0094.0325.0085.0324.0069.0333.0059.0332.0043.0342.0034.0332.0017.0342v.0341l-.0008.0341-.0026.0333-.0034.0341-.0051.0333-.0068.0333-.0077.0332-.0086.0325-.0102.0324-.0119.0324-.0128.0307-.0137.0316-.0153.0298-.0171.0299-.0171.029-.0187.0282-.0205.0273-.0205.0264-.0222.0264-.023.0248-.0239.0239-.0247.023-.0265.0222-.0264.0205-.0273.0204-.0282.0188-.029.0171-.0299.017-.0298.0154-.0316.0137-.0307.0127-.0324.012-.0324.0102-.0325.0086-.0332.0076-.0333.0069-.0333.0051-.0341.0034-.0333.0026-.0341.0008h-.0341l-.0342-.0017-.0332-.0034-.0342-.0043-.0332-.0059-.0333-.0069-.0324-.0085-.0324-.0094-.0325-.0111-.0315-.0119-.0316-.0137-.0299-.0145-.0307-.0162-.029-.0171-.029-.0179-.0273-.0196-.0273-.0205-.0264-.0213-.0248-.0222-.0247-.0239-.0043-.0042-.0529-.0538-.0546-.0597-.0537-.0606-.0521-.0614-.0503-.0631-.0478-.0632-.0469-.0657-.0461-.0657-.0435-.0674-.0418-.0682-.0401-.0683-.0384-.0699-.0367-.0708-.035-.0717-.0324-.0725-.0315-.0734-.0299-.0742-.0282-.0742-.0255-.076-.0239-.0759-.0222-.0759-.0205-.0777-.0188-.0776-.0162-.0785-.0153-.0785-.0128-.0793-.0103-.0794-.0093-.0802-.0069-.0802-.0051-.0802-.0034-.081-.0009-.0811.0009-.081.0034-.0811.0051-.0802.0069-.0802.0093-.0802.0103-.0793.0128-.0793.0153-.0785.0162-.0785.0188-.0777.0205-.0776.0222-.0759.0239-.076.0255-.0759.0282-.0742.0299-.0742.0315-.0734.0324-.0725.035-.0717.0367-.0708.0384-.07.0401-.0682.0418-.0683.0435-.0674.0461-.0657.0469-.0657.0478-.0631.0503-.0631.0521-.0614.0537-.0606.0546-.0597.0529-.0538.0043-.0043.0247-.0238.0248-.0222.0264-.0214.0273-.0204.0273-.0197.029-.0179.029-.017.0307-.0162.0299-.0145.0316-.0137.0315-.0119.0325-.0111.0324-.0094.0324-.0086.0333-.0068.0332-.0059.0342-.0043.0332-.0034.0342-.0017h.0341z" fill="#23480a"/><path d="m9.90231 19.4639.03413.0017.03327.0034.03409.0043.0333.0059.0333.0068.0324.0086.0324.0094.0324.0111.0316.0119.0316.0137.0298.0145.0308.0162.029.017.029.0179.0273.0197.0273.0204.0264.0214.0248.0222.0247.0238.0043.0043.0529.0538.0546.0597.0537.0606.0521.0614.0503.0631.0478.0631.0469.0657.0461.0657.0435.0674.0418.0683.0401.0682.0384.07.0367.0708.0349.0717.0325.0725.0315.0734.0299.0742.0281.0742.0256.0759.0239.076.0222.0759.0205.0776.0187.0777.0163.0785.0153.0785.0128.0793.0102.0793.0094.0802.0069.0802.0051.0802.0034.0811.0008.081-.0008.0811-.0034.081-.0051.0802-.0069.0802-.0094.0802-.0102.0794-.0128.0793-.0153.0785-.0163.0785-.0187.0776-.0205.0777-.0222.0759-.0239.0759-.0256.076-.0281.0742-.0299.0742-.0315.0734-.0325.0725-.0349.0717-.0367.0708-.0384.0699-.0401.0683-.0418.0682-.0435.0674-.0461.0657-.0469.0657-.0478.0632-.0503.0631-.0521.0614-.0537.0606-.0546.0597-.0529.0538-.0043.0042-.0247.0239-.0248.0222-.0264.0213-.0273.0205-.0273.0196-.029.0179-.029.0171-.0308.0162-.0298.0145-.0316.0137-.0316.0119-.0324.0111-.0324.0094-.0324.0085-.0333.0069-.0333.0059-.03409.0043-.03327.0034-.03413.0017h-.03412l-.03413-.0008-.03327-.0026-.03413-.0034-.03327-.0051-.03328-.0069-.03327-.0076-.03242-.0086-.03242-.0102-.03242-.012-.03071-.0127-.03157-.0137-.02986-.0154-.02986-.017-.02901-.0171-.02815-.0188-.0273-.0204-.02645-.0205-.02645-.0222-.02474-.023-.02389-.0239-.02303-.0248-.02219-.0264-.02047-.0264-.02048-.0273-.01877-.0282-.01706-.029-.01706-.0299-.01536-.0298-.01365-.0316-.0128-.0307-.01194-.0324-.01024-.0324-.00853-.0325-.00768-.0332-.00683-.0333-.00511-.0333-.00342-.0341-.00256-.0333-.00085-.0341v-.0341l.00171-.0342.00341-.0332.00426-.0342.00598-.0332.00682-.0333.00853-.0324.00939-.0325.01109-.0324.01194-.0315.01365-.0316.01451-.0299.01621-.0307.01706-.029.01792-.029.01962-.0273.02048-.0273.02132-.0264.02219-.0248.02388-.0247-.00341.0034.03072-.0316.02644-.0281.0256-.029.02474-.0299.02389-.0299.02303-.0307.02219-.0307.04265-.0631.01963-.0324.01962-.0333.01791-.0333.01792-.0341.01621-.0341.01621-.035.01451-.0342.0145-.0358.02559-.0716.01195-.0359.01024-.0367.00938-.0367.00939-.0375.00767-.0375.01365-.0751.00512-.0384.00427-.0375.00512-.0768.0017-.0393.00086-.0384-.00086-.0384-.0017-.0392-.00512-.0768-.00427-.0375-.00512-.0384-.01365-.0751-.00767-.0375-.00939-.0376-.00938-.0367-.01024-.0366-.01195-.0359-.02559-.0716-.0145-.0359-.01451-.0341-.01621-.035-.01621-.0341-.01792-.0341-.01791-.0333-.01962-.0333-.01963-.0324-.04265-.0631-.02219-.0307-.02303-.0308-.02389-.0298-.02474-.0299-.0256-.029-.02644-.0281-.03072-.0316.00341.0034-.02388-.0247-.02219-.0248-.02132-.0264-.02048-.0273-.01962-.0273-.01792-.029-.01706-.029-.01621-.0308-.01451-.0298-.01365-.0316-.01194-.0315-.01109-.0325-.00939-.0324-.00853-.0324-.00682-.0333-.00598-.0333-.00426-.0341-.00341-.0333-.00171-.0341v-.0341l.00085-.0341.00256-.0333.00342-.0341.00511-.0333.00683-.0333.00768-.0333.00853-.0324.01024-.0324.01194-.0324.0128-.0307.01365-.0316.01536-.0299.01706-.0298.01706-.029.01877-.0282.02048-.0273.02047-.0264.02219-.0265.02303-.0247.02389-.0239.02474-.023.02645-.0222.02645-.0205.0273-.0205.02815-.0187.02901-.0171.02986-.0171.02986-.0153.03157-.0137.03071-.0128.03242-.0119.03242-.0103.03242-.0085.03327-.0077.03328-.0068.03327-.0051.03413-.0034.03327-.0026.03413-.0008z" fill="#23480a"/><path d="m22.7043 11.3596.0392.0017.0384.0043.0384.006.0384.0068.0375.0094.0376.0111.0367.0128.0358.0136.035.0162.0349.0171.0342.0196.0324.0205.0324.0222.0307.023.0299.0247.029.0265.0273.0273.0264.029.0248.0299.023.0307.0222.0324.0205.0324.0196.0341.0171.035.0162.035.0136.0358.0128.0367.0111.0376.0094.0375.0068.0384.006.0384.0043.0384.0017.0392.0008.0384-.0017.0393-.0026.0383-.0051.0384-.0068.0384-.0077.0384-.0102.0376-.012.0366-.0136.0367-.0145.0359-.0171.0349-.0179.0342-.0205.0332-.0213.0325-.0222.0315-.0247.0307-.0248.029-.0273.0282-2.4366 2.4366 2.1031.7013.0366.0128.0359.0145.035.0171.0349.0179.0333.0188.0324.0213.0324.023.0299.0239.0299.0248.0281.0264.0273.0282.0256.029.0248.0298.023.0316.0213.0324.0205.0333.0179.0341.0171.035.0153.0358.0137.0359.0119.0375.0111.0367.0086.0384.0068.0384.0051.0384.0034.0384.0017.0392v.0384l-.0025.0392-.0035.0384-.0051.0384-.0077.0384-.0085.0376-.0102.0375-.0128.0367-.0137.0367-.0153.0349-.0179.035-.018.0341-.0204.0333-.0222.0316-.0231.0316-.0247.0298-.0256.029-.0273.0282-.029.0264-.029.0248-.0307.0239-.0324.0221-.0325.0205-.0341.0196-.0341.018-.035.0162-.0367.0145-.0367.0128-.0366.0111-.0376.0093-.0384.0077-.0384.006-.0384.0043-.0392.0025-.0384.0009-.0392-.0009-.0384-.0025-.0384-.0043-.0384-.0068-.0384-.0077-.0376-.0103-.0366-.011-4.3401-1.4461-.0972-.413 4.1037-4.1037.0281-.0273.029-.0247.0308-.0247.0315-.0222.0324-.0214.0333-.0204.0341-.0179.035-.0171.0358-.0145.0367-.0137.0367-.0119.0376-.0102.0384-.0077.0383-.0069.0384-.0051.0384-.0025.0393-.0017z" fill="#000"/><path d="m9.0722 11.3605.03839.0025.03839.0051.03839.0069.0384.0077.03753.0102.03669.0119.03669.0137.03583.0145.03498.0171.03412.0179.03328.0204.03242.0214.03156.0222.03072.0247.02901.0247.02815.0273 4.10365 4.1037-.0972.413-4.34003 1.4461-.03669.011-.03754.0103-.03839.0077-.03839.0068-.0384.0043-.03839.0025-.03924.0009-.03839-.0009-.03925-.0025-.03839-.0043-.03839-.006-.0384-.0077-.03754-.0093-.03668-.0111-.03669-.0128-.03668-.0145-.03498-.0162-.03413-.018-.03413-.0196-.03241-.0205-.03242-.0221-.03072-.0239-.02901-.0248-.029-.0264-.0273-.0282-.0256-.029-.02474-.0298-.02304-.0316-.02218-.0316-.02047-.0333-.01792-.0341-.01792-.035-.01535-.0349-.01365-.0367-.0128-.0367-.01024-.0375-.00853-.0376-.00768-.0384-.00512-.0384-.00341-.0384-.00256-.0392v-.0384l.00171-.0392.00341-.0384.00512-.0384.00682-.0384.00854-.0384.01109-.0367.01194-.0375.01365-.0359.01536-.0358.01706-.035.01792-.0341.02047-.0333.02133-.0324.02304-.0316.02474-.0298.02559-.029.0273-.0282.02816-.0264.02986-.0248.02986-.0239.03242-.023.03242-.0213.03327-.0188.03498-.0179.03498-.0171.03583-.0145.03669-.0128 2.10303-.7013-2.43661-2.4366-.02731-.0282-.02474-.029-.02474-.0307-.02218-.0315-.02133-.0325-.02048-.0332-.01791-.0342-.01707-.0349-.0145-.0359-.01365-.0367-.01194-.0366-.01024-.0376-.00768-.0384-.00682-.0384-.00512-.0384-.00256-.0383-.00171-.0393.00085-.0384.00171-.0392.00427-.0384.00597-.0384.00682-.0384.00939-.0375.01109-.0376.0128-.0367.01365-.0358.01621-.035.01706-.035.01962-.0341.02048-.0324.02218-.0324.02304-.0307.02474-.0299.02644-.029.02731-.0273.029-.0265.02986-.0247.03072-.023.03242-.0222.03242-.0205.03412-.0196.03498-.0171.03498-.0162.03583-.0136.03669-.0128.03754-.0111.03754-.0094.03839-.0068.03839-.006.03839-.0043.03925-.0017.03839-.0008z" fill="#000"/></g></g></svg>