<svg fill="none" height="32" viewBox="0 0 32 32" width="32" xmlns="http://www.w3.org/2000/svg" xmlns:xlink="http://www.w3.org/1999/xlink"><clipPath id="a"><path d="m0 0h32v32h-32z"/></clipPath><g clip-path="url(#a)"><path d="m28.8516 7.49275c1.4207 1.42066 2.0577 2.80035 2.2134 4.11465.1572 1.3269-.1644 2.6874-.8383 4.0777-1.3672 2.8212-4.0546 5.5224-6.4661 7.934-2.4107 2.4107-5.1492 5.1358-8.0087 6.5388-1.4107.6922-2.7904 1.0301-4.1308.884-1.3258-.1445-2.71092-.7728-4.12834-2.1903-2.65027-2.6502-5.30505-6.4467-6.21927-10.6152-.900661-4.1067-.1317-8.63526 4.16869-12.93565 4.07631-4.07632 8.57892-4.812559 12.72972-3.91739 4.2032.90647 8.0692 3.49887 10.6797 6.10939z" fill="#fbc546" stroke="#000" stroke-width="1.7935"/><g clip-rule="evenodd" fill-rule="evenodd"><path d="m17.5248 10.4054 1.983-.99122c.4211-.21115.9338-.03982 1.145.38126.2099.42106.0392.93446-.3819 1.14446l-4.4521 2.226v-6.20644c0-.47056.3824-.85303.853-.85303.4705 0 .853.38247.853.85303zm-7.0595 7.0595h-3.44589c-.47056 0-.85303-.3825-.85303-.8531 0-.4705.38247-.853.85303-.853h6.20649l-2.2261 4.4522c-.2099.421-.7233.5918-1.14441.3818-.42108-.2111-.59241-.7239-.38126-1.145z" fill="#000"/><path d="m16.2875 23.7255c-1.9027.3946-3.8718.2208-5.4458-.6798l12.2646-12.2646c.9007 1.5739 1.0744 3.543.6799 5.4458-1.4521-.1056-7.6043 6.0466-7.4987 7.4986z" fill="#722245"/><path d="m16.2893 23.7236c-.1056-1.4521.4114-2.9175 1.4859-3.9919.6575-.6575 1.3634-1.3634 2.0209-2.0209 1.0745-1.0745 2.5398-1.5915 3.9919-1.4859-.3807 1.837-1.2916 3.6118-2.5892 4.9094-1.2977 1.2977-3.0725 2.2086-4.9095 2.5893z" fill="#ca3b8f"/><path d="m20.6126 9.99875s3.7017.44425 6.2801.75395c1.4119.1695 2.5045 1.3207 2.5994 2.7403.0007.0146.0014.0293.0021.0439.1032 1.5437-1.0011 2.9061-2.533 3.1256-.0739.0098-.1478.021-.2203.0307-1.1783.1687-2.3427-.385-2.955-1.4057-1.2383-2.0639-3.1733-5.28875-3.1733-5.28875z" fill="#e59a10"/><path d="m10.0205 20.5909s.4441 3.7017.7537 6.2802c.1694 1.4119 1.3206 2.5045 2.7402 2.5994.0146.0007.0293.0013.0439.002 1.5437.1032 2.9062-1.0012 3.1258-2.5331.0098-.0739.0209-.1478.0307-.2203.1687-1.1784-.3849-2.3428-1.4057-2.955-2.0638-1.2383-5.2886-3.1732-5.2886-3.1732z" fill="#e59a10"/><path d="m19.7671 9.15329s3.7017.44429 6.2801.75398c1.4119.16953 2.5046 1.32063 2.5994 2.74023.0007.0147.0014.0293.0021.044.1033 1.5437-1.0011 2.906-2.5329 3.1256-.0739.0097-.1478.0209-.2203.0307-1.1784.1686-2.3428-.385-2.955-1.4058-1.2384-2.0639-3.1734-5.28871-3.1734-5.28871z" fill="#1bb0e6"/><path d="m9.175 19.7455s.44415 3.7017.75374 6.2801c.16946 1.412 1.32056 2.5046 2.74016 2.5994.0147.0007.0293.0014.044.0021 1.5437.1032 2.9061-1.0013 3.1258-2.5331.0097-.0739.0209-.1479.0306-.2204.1688-1.1783-.3848-2.3427-1.4056-2.9549-2.0639-1.2384-5.2887-3.1732-5.2887-3.1732z" fill="#1bb0e6"/></g></g></svg>