<svg fill="none" height="32" viewBox="0 0 32 32" width="32" xmlns="http://www.w3.org/2000/svg"><path d="m31.1028 20.9925c0 2.0091-.5252 3.4351-1.3444 4.4745-.8271 1.0495-2.0166 1.7841-3.4762 2.2907-2.9616 1.0282-6.7719 1.0379-10.1824 1.0379-3.4093 0-7.27255-.0094-10.28664-1.0393-1.48698-.5081-2.7015-1.2447-3.54601-2.2958-.83532-1.0397-1.370401-2.4634-1.370401-4.468 0-3.748.807291-8.3097 3.108411-11.90376 2.26699-3.54072 6.01294-6.19919 12.09464-6.19919 5.7647 0 9.4692 2.66321 11.7712 6.23125 2.3312 3.6131 3.2318 8.1799 3.2318 11.8717z" fill="#fbc546" stroke="#000" stroke-width="1.7935"/><g clip-rule="evenodd" fill-rule="evenodd"><path d="m10.8545 23.4576c-1.17309-.9897-2.08341-2.359-2.4332-4.0841h15.0139c-.3498 1.7251-1.2602 3.0944-2.4332 4.0841-.9411-.9538-9.2065-.9538-10.1475 0z" fill="#722245"/><path d="m10.8575 23.4576c.941-.9539 2.2429-1.5246 3.6447-1.5246h2.858c1.4018 0 2.7037.5707 3.6447 1.5246-1.4725 1.243-3.3606 1.888-5.0737 1.888s-3.6012-.645-5.0737-1.888z" fill="#ca3b8f"/><path d="m21.6314 8.78891c.0265-.08105.0666-.15698.1186-.22352.0657-.08447.1493-.15357.244-.2022.0768-.03925.1604-.06484.2466-.07508.0725-.00939.1467-.00683.2192.00597.0777.01451.1527.04095.2219.07934.0767.04181.1458.09812.203.16381.0631.07423.1101.15954.1408.25168l.6671 2.05269h4.1805v1.6338c.012.2432-.0981.4812-.3011.6296-1.1979.8703-2.5433 1.848-2.5433 1.848l.3933 1.2123.6134.3046v1.6696c.0094.2406-.0998.4761-.302.6228-.2568.1869-.6049.1869-.8617 0-1.1978-.8702-2.5433-1.8479-2.5433-1.8479s-1.3454.9777-2.5432 1.8479c-.2568.1869-.6049.1869-.8617 0-.2022-.1467-.3114-.3822-.302-.6228v-1.6696l.5972-.256.4095-1.2609s-1.3454-.9777-2.5433-1.848c-.1936-.1407-.302-.3634-.302-.5929v-1.6705h4.1813zm-12.79734 0c.02645-.08105.06654-.15698.11859-.22352.06569-.08447.1493-.15357.244-.2022.07678-.03925.16039-.06484.24656-.07508.07252-.00939.14675-.00683.21926.00597.07764.01451.15272.04095.22182.07934.07679.04181.14591.09812.20301.16381.0632.07423.1101.15954.1408.25168l.6672 2.05269h4.1805v1.6338c.0119.2432-.0982.4812-.3012.6296-1.1978.8703-2.5433 1.848-2.5433 1.848l.3933 1.2123.6135.3046v1.6696c.0093.2406-.0999.4761-.3021.6228-.2568.1869-.6049.1869-.8617 0-1.1978-.8702-2.54321-1.8479-2.54321-1.8479s-1.34543.9777-2.54326 1.8479c-.2568.1869-.60489.1869-.86169 0-.2022-.1467-.31141-.3822-.30202-.6228v-1.6696l.59721-.256.40951-1.2609s-1.34542-.9777-2.54326-1.848c-.19366-.1407-.30201-.3634-.30201-.5929v-1.6705h4.18132z" fill="#d69200"/><path d="m21.6315 7.08295c.0981-.30202.3797-.50678.697-.50678.3174 0 .5989.20476.6971.50678.4573 1.40771.9717 2.99035.9717 2.99035h3.1439c.3174 0 .5989.2039.697.5059s-.0094.633-.2662.8199c-1.1978.8702-2.5432 1.8479-2.5432 1.8479s.5136 1.5818.9709 2.9895c.0981.302-.0094.633-.2662.8199-.2568.1868-.6049.1868-.8617 0-1.1978-.8703-2.5433-1.848-2.5433-1.848s-1.3454.9777-2.5432 1.848c-.2568.1868-.6049.1868-.8617 0-.2568-.1869-.3643-.5179-.2662-.8199.4573-1.4077.9709-2.9895.9709-2.9895s-1.3454-.9777-2.5433-1.8479c-.2568-.1869-.3643-.5179-.2662-.8199.0982-.302.3797-.5059.6971-.5059h3.1439s.5144-1.58264.9717-2.99035zm-12.79736 0c.09812-.30202.37966-.50678.69703-.50678.31738 0 .59893.20476.69703.50678.4573 1.40771.9717 2.99035.9717 2.99035h3.1439c.3174 0 .599.2039.6971.5059s-.0094.633-.2662.8199c-1.1979.8702-2.5433 1.8479-2.5433 1.8479s.5136 1.5818.9709 2.9895c.0981.302-.0094.633-.2662.8199-.2568.1868-.6049.1868-.8617 0-1.1978-.8703-2.54323-1.848-2.54323-1.848s-1.34543.9777-2.54326 1.848c-.2568.1868-.60489.1868-.86169 0-.2568-.1869-.3643-.5179-.26618-.8199.45729-1.4077.97089-2.9895.97089-2.9895s-1.34543-.9777-2.54326-1.8479c-.2568-.1869-.3643-.5179-.26619-.8199.09812-.302.37966-.5059.69703-.5059h3.14389s.51445-1.58264.97174-2.99035z" fill="#fff9ef"/></g></svg>