<svg fill="none" height="32" viewBox="0 0 32 32" width="32" xmlns="http://www.w3.org/2000/svg" xmlns:xlink="http://www.w3.org/1999/xlink"><clipPath id="a"><path d="m0 0h32v32h-32z"/></clipPath><g clip-path="url(#a)"><path d="m31.1028 20.9925c0 2.0091-.5252 3.4351-1.3444 4.4745-.8271 1.0495-2.0166 1.784-3.4762 2.2907-2.9616 1.0281-6.7719 1.0379-10.1824 1.0379-3.4093 0-7.27255-.0094-10.28664-1.0393-1.48698-.5081-2.7015-1.2448-3.54601-2.2959-.83532-1.0396-1.370401-2.4634-1.370401-4.4679 0-3.7442.805701-7.6213 3.062911-10.5439 2.22495-2.88081 5.96452-4.96848 12.14014-4.96848 5.8587 0 9.5576 2.0958 11.8169 5.00038 2.2888 2.9423 3.1861 6.8267 3.1861 10.512z" fill="#fbc546" stroke="#000" stroke-width="1.7935"/><path d="m15.9582 22.7176v6.9747h2.1761c.3985 0 2.0585-.0621 2.0585-.0621v-8.0086c0-.1993-1.361.7971-2.0585 1.096-.6975.299-2.1761 0-2.1761 0z" fill="#009ad2"/><path clip-rule="evenodd" d="m10.7395 21.6018c-1.59968-1.2302-2.75059-3.0133-3.16693-5.0618h16.72013c-.4163 2.0485-1.5672 3.8316-3.1669 5.0618-.9487-1.028-9.4376-1.028-10.3863 0z" fill="#722245" fill-rule="evenodd"/><path clip-rule="evenodd" d="m10.7402 21.6018c.9487-1.0281 2.3019-1.6492 3.7642-1.6492h2.858c1.4624 0 2.8155.6211 3.7642 1.6492-1.4385 1.1057-3.2395 1.7635-5.1932 1.7635s-3.7547-.6578-5.1932-1.7635z" fill="#ca3b8f" fill-rule="evenodd"/><g fill="#000"><path d="m13.3389 12.0388c.0983.1957.1144.4226.0449.6301-.0694.2075-.2176.3786-.4141.4769-.9122.4556-2.4578 1.2288-3.38776 1.6938-.20665.1033-.44464.1203-.66314.0474-.21851-.0728-.39891-.2295-.50223-.4353v-.0008c-.09825-.1957-.11434-.4226-.04489-.6301s.21766-.3786.41415-.4769c.91214-.4556 2.45777-1.2289 3.38767-1.6938.2067-.1034.4447-.1203.6632-.0475.2185.0729.3989.2296.5022.4354z"/><path d="m23.1328 12.5468c.1965.0983.3447.2693.4142.4768.0694.2075.0533.4345-.0449.6302v.0008c-.1033.2058-.2837.3625-.5022.4353-.2186.0729-.4565.0559-.6632-.0474-.9299-.465-2.4756-1.2382-3.3877-1.6939-.1965-.0982-.3447-.2693-.4142-.4768-.0694-.2075-.0533-.4345.0449-.6301v-.0008c.1034-.2058.2837-.3625.5023-.4354.2185-.0728.4564-.0559.6631.0475.9299.4649 2.4756 1.2382 3.3877 1.6938z"/></g></g></svg>