<svg fill="none" height="32" viewBox="0 0 32 32" width="32" xmlns="http://www.w3.org/2000/svg"><path d="m31.1028 20.9925c0 2.0091-.5252 3.435-1.3444 4.4745-.8271 1.0494-2.0166 1.784-3.4762 2.2907-2.9616 1.0281-6.7719 1.0379-10.1824 1.0379-3.4093 0-7.27255-.0095-10.28664-1.0393-1.48698-.5081-2.7015-1.2448-3.54601-2.2959-.83532-1.0397-1.370401-2.4634-1.370401-4.4679 0-2.6698.409011-4.7659 1.512571-7.1427h27.07368c1.1586 2.3984 1.6198 4.4996 1.6198 7.1427z" fill="#fbc546" stroke="#000" stroke-width="1.7935"/><g clip-rule="evenodd" fill-rule="evenodd"><path d="m15.9698 3.68665-1.5239 3.80971-5.33357-2.28583 1.52387 3.04778-5.33359.76194 4.57167 2.28585-3.04778 3.0478h4.5717l-2.28587 2.2858h13.71497l-2.2858-2.2858h4.5717l-3.0478-3.0478 4.5716-2.28585-5.3336-.76194 1.5239-3.04778-5.3336 2.28583z" fill="#f30800"/><path d="m15.964 0 2.4073 5.37759 7.8442-3.36178-2.4856 4.97113 8.2098 1.17282-7.1703 3.58514 1.9249 1.9056v2.3051h-2.2858-16.8773-2.4663v-2.1054l2.10536-2.1053-7.17026-3.58514 8.20973-1.17282-2.48557-4.97113 7.84414 3.36178zm-1.5181 7.49637-5.33356-2.28583 1.52386 3.04777-5.33358.76195 4.57166 2.28584-3.04778 3.0478h4.5717l-2.28586 2.2858h13.71496l-2.2858-2.2858h4.5717l-3.0478-3.0478 4.5716-2.28584-5.3336-.76195 1.5239-3.04777-5.3336 2.28583-1.5239-3.80972z" fill="#000"/><path d="m15.9698 6.7345-1.5239 2.28583-3.0478-1.52389 1.5239 2.28583h-3.8097l3.0478 1.52393-2.28585 2.2858h3.04775l-1.5239 2.2858 3.0478-.7619 1.5239 1.5239 1.5239-1.5239 2.2858.7619-.7619-2.2858h3.0478l-2.2859-2.2858 3.0478-1.52393h-3.8097l1.5239-2.28583-3.0478 1.52389z" fill="#ffa32b"/><path d="m2.59064 14.4476v-1.0979c0-1.0305.40965-2.0173 1.13683-2.7458l.00069-.0007c.72824-.72825 1.41955-1.03789 2.44947-1.03789l1.99278 1.81289-1.59422 3.0694zm1.91253-3.0694c-.25415.2546-.45421.553-.59268.8774-.14627.3426-.22383.7143-.22383 1.0941v.0019h2.78989v-2.7899h-.00186c-.37966 0-.75148.0775-1.09417.2237-.32462.1384-.6231.3386-.87735.5928z" fill="#000"/></g><path d="m21.7773 4.8449c.8839 0 1.6004-.71655 1.6004-1.60045s-.7165-1.60045-1.6004-1.60045-1.6005.71655-1.6005 1.60045.7166 1.60045 1.6005 1.60045z" fill="#fbc546" stroke="#000" stroke-width="1.09603"/><path clip-rule="evenodd" d="m3.68665 13.3517v-.0019c0-.7393.29386-1.448.8165-1.9715.52264-.5227 1.2322-.8165 1.97152-.8165h.00186v2.7899z" fill="#fbc546" fill-rule="evenodd"/><path clip-rule="evenodd" d="m28.422 11.3394-.8532 1.7063-2.5595-.8532s.1485-.1484.3575-.3575c.8054-.8053 2.0365-1.005 3.0552-.4956z" fill="#fbc546" fill-rule="evenodd"/><path clip-rule="evenodd" d="m28.9121 10.359.9804.4902-1.7685 3.5368-4.0114-2.551.1217-.4175.7751.775 2.5594.8532.8532-1.7064-.0002-.0001c-.346-.1729-.7164-.2641-1.0864-.2775-.4622-.0168-.9236.0877-1.3355.3056-.2292.1213-.443.2776-.6331.4677l-.3574.3575-.7751-.775.3575-.3575c1.1391-1.13902 2.8798-1.42125 4.3203-.701z" fill="#000" fill-rule="evenodd"/><path d="m12.1858 9.7176-.2793.27923.1766.35317.9383 1.8766.245.49.4901-.245 1.8765-.9383.6799-.3399-.5375-.5375-1.8765-1.87657-.3875-.38742-.3874.38742z" fill="#fbc546" stroke="#000" stroke-width="1.09578"/><path d="m13.4404 2.80292-.4699-.28195c-1.2858-.77147-2.9219-.63377-4.06046.34216l-.30632.26255-.08803.07545-.02344.02009-.00603.00517-.00154.00132-.00038.00033-.0001.00008-.00002.00002-.00001.00001.35664.41608-.35664-.41608-.67324.57705.81721.3441 2.75876 1.1616.438.18445.2446-.40756 1.0889-1.81495z" fill="#fbc546" stroke="#000" stroke-width="1.09603"/><path d="m3.18842 14.7466h25.50748v6.5761h-25.50748z" fill="#fbc546"/><path clip-rule="evenodd" d="m12.3132 26.5039h-1.2851c-.408 0-.7854-.2105-1.0006-.5573-.21394-.3469-.23276-.7795-.05052-1.144.33042-.6619.72072-1.4415 1.09812-2.1975.9677-1.934 2.9429-3.1556 5.1051-3.1556s4.1374 1.2216 5.105 3.1556c.3774.756.7678 1.5356 1.0982 2.1975.1822.3645.1634.7971-.0506 1.144-.2151.3468-.5926.5573-1.0005.5573h-1.2851c-1.8271-.3574-3.1051-.3269-3.9928-.3269-.9289-.0011-2.3386.0482-3.7412.3269z" fill="#722245" fill-rule="evenodd"/><path clip-rule="evenodd" d="m12.3143 26.5039c1.1204-.7502 2.4584-1.1758 3.867-1.1758 1.4085 0 2.7465.4256 3.867 1.1758z" fill="#ca3b8f" fill-rule="evenodd"/><path d="m9.41587 21.2231c1.78843 0 3.23823-1.4498 3.23823-3.2383 0-1.7884-1.4498-3.2382-3.23823-3.2382-1.78844 0-3.23826 1.4498-3.23826 3.2382 0 1.7885 1.44982 3.2383 3.23826 3.2383z" fill="#fff"/><path clip-rule="evenodd" d="m11.3588 18.0051c0-.5155-.2046-1.0103-.5686-1.3743-.3653-.364-.85881-.5687-1.37434-.5687s-1.00904.2047-1.37432.5687c-.36398.364-.56864.8588-.56864 1.3743v.0233c0 .5155.20466 1.009.56864 1.373.36528.3653.85879.57 1.37432.57s1.00904-.2047 1.37434-.57c.364-.364.5686-.8575.5686-1.373z" fill="#000" fill-rule="evenodd"/><path d="m22.9667 21.2231c1.7885 0 3.2383-1.4498 3.2383-3.2383 0-1.7884-1.4498-3.2382-3.2383-3.2382-1.7884 0-3.2382 1.4498-3.2382 3.2382 0 1.7885 1.4498 3.2383 3.2382 3.2383z" fill="#fff"/><path clip-rule="evenodd" d="m24.9097 18.0051c0-.5155-.2046-1.0103-.5686-1.3743-.3653-.364-.8588-.5687-1.3743-.5687-.5156 0-1.0091.2047-1.3744.5687-.3639.364-.5686.8588-.5686 1.3743v.0233c0 .5155.2047 1.009.5686 1.373.3653.3653.8588.57 1.3744.57.5155 0 1.009-.2047 1.3743-.57.364-.364.5686-.8575.5686-1.373z" fill="#000" fill-rule="evenodd"/></svg>