<svg fill="none" height="32" viewBox="0 0 32 32" width="32" xmlns="http://www.w3.org/2000/svg"><path d="m31.1028 20.9925c0 2.0091-.5252 3.4351-1.3444 4.4745-.8271 1.0495-2.0166 1.7841-3.4762 2.2907-2.9616 1.0282-6.7719 1.0379-10.1824 1.0379-3.4093 0-7.27255-.0094-10.28664-1.0393-1.48698-.5081-2.7015-1.2447-3.54601-2.2958-.83532-1.0397-1.370401-2.4634-1.370401-4.468 0-3.748.807291-8.3097 3.108411-11.90376 2.26699-3.54072 6.01294-6.19919 12.09464-6.19919 5.7647 0 9.4692 2.66321 11.7712 6.23125 2.3312 3.6131 3.2318 8.1799 3.2318 11.8717z" fill="#fbc546" stroke="#000" stroke-width="1.7935"/><path clip-rule="evenodd" d="m14.2893 22.6849c-.221-.2875-.3523-.6475-.3523-1.0383 0-.8028 0-1.7566 0-2.5594 0-.9428.7635-1.7063 1.7063-1.7063.9427 0 1.7063.7635 1.7063 1.7063v2.5594c0 .3908-.1314.7508-.3524 1.0383-.4607.2287-1.9025.2133-2.7079 0z" fill="#722245" fill-rule="evenodd"/><path clip-rule="evenodd" d="m14.2902 22.6848c.4334-.1212.8882-.1852 1.354-.1852s.9205.064 1.3539.1852c-.3114.4061-.8019.668-1.3539.668s-1.0426-.2619-1.354-.668z" fill="#ca3b8f" fill-rule="evenodd"/><path clip-rule="evenodd" d="m20.5264 20.5286c.4656.21.8856.4976 1.2497.8576l1.8911 1.8911-4.138 1.0345c0-.69.5565-3.2225.959-3.7863z" fill="#e59a10" fill-rule="evenodd"/><path d="m17.3496 30.1781h-.8967v.8967h.8967 2.6363c.7521 0 1.468-.3253 1.9626-.8928l.0002-.0003c.2474-.2841.5414-.6215.7756-.8898l.0016-.0018c.4113-.4736.6394-1.0797.6394-1.709v-.0029-.0028-.0028-.0028-.0029-.0028-.0028-.0029-.0028-.0029-.0029-.0028-.0029-.0029-.0028-.0029-.0029-.0029-.0029-.0029-.0028-.0029-.003-.0029-.0029-.0029-.0029-.0029-.003-.0029-.0029-.003-.0029-.003-.0029-.003-.0029-.003-.0029-.003-.003-.003-.0029-.003-.003-.003-.003-.003-.003-.003-.003-.003-.003-.003-.0031-.003-.003-.003-.0031-.003-.0031-.003-.0031-.003-.0031-.003-.0031-.003-.0031-.0031-.003-.0031-.0031-.0031-.0031-.0031-.0031-.0031-.0031-.0031-.0031-.0031-.0031-.0031-.0031-.0031-.0031-.0032-.0031-.0031-.0032-.0031-.0031-.0032-.0031-.0032-.0031-.0032-.0031-.0032-.0032-.0031-.0032-.0032-.0031-.0032-.0032-.0032-.0032-.0031-.0032-.0032-.0032-.0032-.0032-.0032-.0032-.0032-.0032-.0032-.0033-.0032-.0032-.0032-.0032-.0033-.0032-.0032-.0033-.0032-.0032-.0033-.0032-.0033-.0032-.0033-.0032-.0033-.0032-.0033-.0032-.0033-.0033-.0032-.0033-.0033-.0032-.0033-.0033-.0033-.0033-.0032-.0033-.0033-.0033-.0033-.0033-.0033-.0033-.0033-.0033-.0033-.0033-.0033-.0033-.0033-.0033-.0033-.0034-.0033-.0033-.0033-.0033-.0034-.0033-.0033-.0033-.0034-.0033-.0033-.0034-.0033-.0033-.0034-.0033-.0034-.0033-.0034-.0033-.0034-.0033-.0034-.0033-.0034-.0033-.0034-.0034-.0033-.0034-.0033-.0034-.0034-.0033-.0034-.0034-.0033-.0034-.0034-.0034-.0033-.0034-.0034-.0034-.0034-.0033-.0034-.0034-.0034-.0034-.0034-.0034-.0033-.0034-.0034-.0034-.0034-.0034-.0034-.0034-.0034-.0034-.0034-.0034-.0034-.0034-.0034-.0034-.0034-.0034-.0034-.0034-.0034-.0034-.0034-.0034-.0035-.0034-.0034-.0034-.0034-.0034-.0034-.0034-.0034-.0035-.0034-.0034-.0034-.0034-.0034-.0035-.0034-.0034-.0034-.0034-.0035-.0034-.0034-.0034-.0034-.0035-.0034-.0034-.0034-.0034-.0035-.0034-.0034-.0034-.0035-.0034-.0034-.0034-.0035-.0034-.0034-.0034-.0035-.0034-.0034-.0034-.0035-.0034-.0034-.0034-.0035-.0034-.0034-.0034-.0035-.0034-.0034-.0034-.0035-.0034-.0034-.0034-.0035-.0034-.0034-.0034-.0034-.0035-.0034-.0034-.0034-.0034-.0035-.0034-.0034-.0034-.0034-.0035-.0034-.0034-.0034-.0034-.0034-.0035-.0034-.0034-.0034-.0034-.0034-.0034-.0035-.0034-.0034-.0034-.0034-.0034-.0034-.0034-.0034-.0034-.0034-.0034-.0034-.0034-.0034-.0034-.0034-.0034-.0034-.0034-.0034-.0034-.0034-.0034-.0034-.0034-.0034-.0034-.0034-.0034-.0033-.0034-.0034-.0034-.0034-.0034-.0033-.0034-.0034-.0034-.0033-.0034-.0034-.0034-.0033-.0034-.0034-.0033-.0034-.0034-.0033-.0034-.0034-.0033-.0034-.0033-.0034-.0033-.0034-.0033-.0034-.0033-.0034-.0033-.0034-.0033-.0033-.0034-.0033-.0034-.0033-.0033-.0033-.0034-.0033-.0033-.0033-.0034-.0033-.0033-.0033-.0033-.0034-.0033-.0033-.0033-.0033-.0033-.0033-.0033-.0033-.0033-.0033-.0033-.0033-.0032-.0033-.0033-.0033-.0033-.0033-.0032-.0033-.0033-.0032-.0033-.0033-.0032-.0033-.0033-.0032-.0033-.0032-.0033-.0032-.0033-.0032-.0033-.0032-.0032-.0033-.0032-.0032-.0033-.0032-.0032-.0032-.0032-.0033-.0032-.0032-.0032-.0032-.0032-.0032-.0032-.0032-.0032-.0032-.0032-.0031-.0032-.0032-.0032-.0031-.0032-.0032-.0032-.0031-.0032-.0031-.0032-.0031-.0032-.0031-.0032-.0031-.0032-.0031-.0031-.0032-.0031-.0031-.0031-.0031-.0032-.0031-.0031-.0031-.0031-.0031-.0031-.0031-.0031-.0031-.003-.0031c0-.4617-.1825-.908-.5126-1.2373-.3293-.3301-.7756-.5126-1.2373-.5126h-.0059-.006-.0059-.006-.006-.006-.006-.006-.006-.006-.0061-.006-.0061-.0061-.0061-.0061-.0061-.0061-.0062-.0061-.0062-.0061-.0062-.0062-.0062-.0062-.0062-.0063-.0062-.0062-.0063-.0063-.0062-.0063-.0063-.0063-.0063-.0063-.0064-.0063-.0063-.0064-.0064-.0063-.0064-.0064-.0064-.0064-.0064-.0064-.0065-.0064-.0064-.0065-.0064-.0065-.0065-.0064-.0065-.0065-.0065-.0065-.0065-.0065-.0066-.0065-.0065-.0066-.0065-.0066-.0065-.0066-.0066-.0065-.0066-.0066-.0066-.0066-.0066-.0066-.0066-.0066-.0067-.0066-.0066-.0067-.0066-.0066-.0067-.0066-.0067-.0067-.0066-.0067-.0067-.0066-.0067-.0067-.0067-.0067-.0066-.0067-.0067-.0067-.0067-.0067-.0067-.0067-.0068-.0067-.0067-.0067-.0067-.0067-.0067-.0068-.0067-.0067-.0067-.0068-.0067-.0067-.0068-.0067-.0067-.0068-.0067-.0067-.0068-.0067-.0067-.0068-.0067-.0067-.0068-.0067-.0067-.0068-.0067-.0067-.0068-.0067-.0067-.0068-.0067-.0067-.0067-.0068-.0067-.0067-.0067-.0068-.0067-.0067-.0067-.0067-.0067-.0067-.0067-.0067-.0067-.0067-.0067-.0067-.0067-.0067-.0066-.0067-.0067-.0067-.0066-.0067-.0066-.0067-.0066-.0067-.0066-.0067-.0066-.0066-.0067-.0066-.0066-.0066-.0066-.0066-.0066-.0066-.0066-.0066-.0066-.0065-.0066-.0065-.0066-.0065-.0066-.0065-.0065-.0066-.0065-.0065-.0065-.0065-.0065-.0065-.0064-.0065-.0065-.0064-.0065-.0064-.0064-.0065-.0064-.0064-.0064-.0064-.0064-.0064-.0063-.0064-.0063-.0064-.0063-.0063-.0064-.0063-.0063-.0063-.0063-.0062-.0063-.0062-.0063-.0062-.0062-.0063-.0062-.0062-.0062-.0061-.0062-.0061-.0062-.0061-.0061-.0062-.0061-.0061-.006-.0061-.0061-.006-.006-.0061-.0038v-2.5159c0-.4617-.1825-.908-.5127-1.2373-.3292-.3301-.7756-.5126-1.2372-.5126-.9662 0-1.7499.7837-1.7499 1.7499v.0136.0137.0137.0139.014.014.0141.0142.0143.0144.0145.0145.0147.0147.0148.0149.0149.0151.0151.0152.0153.0154.0154.0155.0157.0156.0158.0158.016.0159.0161.0162.0162.0163.0163.0165.0165.0166.0166.0168.0168.0168.017.017.0171.0171.0173.0172.0174.0174.0175.0176.0176.0177.0177.0178.0179.018.018.018.0182.0182.0182.0183.0184.0185.0185.0185.0186.0187.0187.0188.0189.0189.0189.019.0191.0191.0192.0192.0193.0193.0194.0195.0194.0196.0196.0196.0197.0198.0197.0199.0199.0199.02.02.0201.0201.0202.0202.0202.0203.0203.0204.0204.0205.0205.0206.0205.0207.0206.0208.0207.0208.0208.0209.0209.0209.021.021.021.0211.0211.0211.0212.0212.0212.0213.0213.0213.0214.0214.0214.0215.0215.0215.0215.0216.0216.0216.0216.0217.0217.0217.0218.0217.0218.0218.0219.0218.0219.0219.0219.022.0219.022.022.022.0221.022.0221.0221.0221.0221.0222.0221.0222.0221.0222.0222.0222.0223.0222.0223.0222.0223.0223.0223.0223.0223.0223.0223.0223.0224.0223.0224.0223.0224.0223.0224.0224.0224.0223.0224.0224.0224.0223.0224.0224.0224.0224.0223.0224.0224.0224.0223.0224.0223.0224.0223.0224.0223.0224.0223.0223.0223.0223.0223.0223.0222.0223.0223.0222.0222.0222.0222.0222.0222.0222.0221.0222.0221.0221.0221.022.0221.022.022.0221.0219.022.0219.022.0219.0218.0219.0218.0219.0217.0218.0218.0217.0217.0217.0216.0216.0216.0216.0215.0215.0215.0215.0214.0214.0214.0213.0213.0213.0212.0212.0212.0211.0211.0211.0211.021.0209.021.0209.0208.0208.0208.0208.0207.0206.0207.0206.0205.0205.0205.0204.0204.0203.0203.0203.0202.0202.0201.02.0201.02.0199.0199.0198.0198.0197.0197.0197.0196.0195.0195.0194.0194.0194.0193.0192.0192.0191.0191.019.0189.0189.0189.0188.0187.0187.0186.0185.0185.0185.0184.0183.0182.0182.0182.018.018.018.0179.0178.0178.0176.0177.0175.0175.0174.0174.0173.0172.0172.017.0171.0169.0169.0168.0167.0167.0166.0165.0164.0164.0163.0162.0162.016.016.0159.0159.0158.0156.0156.0156.0154.0154.0153.0152.0151.0151.015.0148.0148.0148.0146.0146.0144.0144.0143.0142.0142.014.0139.0139.0138.0137.0136.0135.0134.0133.0133.0131.0131.0129.0129.0128.0127.0126.0125.0124.0123.0122.0121.012.012.0118.0117.0116.0116.0114.0113.0112.0112.011.0109.0109.0107.0106.0105.0104.0103.0102.0101.01.0099.0098.0097.0095.0095.0093.0093.0091.009.0089.0088.0087.0086.0084.0084.0082.0082.008.0079.0078.0076.0076.0074.0073.0072.0071.007.0068.0068.0066.0065.0063.0063.0061.006.0059.0058.0056.0055.0054.0053.0051.0051.0049.0047.0047.0045.0044.0042.0042.004.0038.0038.0036.0035.0033.0032.0031.003.0028.0027.0025.0025.0023.0021.002.0019.0017.0017.0014.0014.0011.0011.0009.0008.0006.0005.0004.0002z" fill="#fbc546" stroke="#7e5108" stroke-width="1.7935"/><path clip-rule="evenodd" d="m22.8173 29.4121v-4.7017l-1.2588-1.4448h2.1898c1.6969 0 3.0732 1.3763 3.0732 3.0733 0 1.6969-1.3763 3.0732-3.0732 3.0732z" fill="#7e5108" fill-rule="evenodd"/><path d="m23.7483 25.0592c.7064 0 1.2797.5733 1.2797 1.2797 0 .7065-.5733 1.2798-1.2797 1.2798h-.4266v-2.5595z" fill="#fbc546"/><g clip-rule="evenodd" fill-rule="evenodd"><path d="m10.0995 18.234c.7917 0 1.5502-.3149 2.1099-.8745.5596-.5597.8745-1.3182.8745-2.1099 0-.5605 0-1.1475 0-1.708 0-1.6492-1.3369-2.9861-2.9861-2.9861h-.0017c-.79173 0-1.55019.3149-2.10986.8745-.55967.5597-.87448 1.3182-.87448 2.1099v1.708c0 1.6492 1.33689 2.9861 2.98604 2.9861z" fill="#fff"/><path d="m8.81805 13.1149c0-.4522.18002-.8864.49995-1.2064.31994-.3199.7542-.4999 1.2064-.4999.4521 0 .8864.18 1.2063.4999.32.32.5.7542.5 1.2064v2.545c0 .453-.18.8864-.5 1.2072-.3199.3199-.7542.4991-1.2063.4991-.4522 0-.88646-.1792-1.2064-.4991-.31993-.3208-.49995-.7542-.49995-1.2072 0-.7977 0-1.7465 0-2.545z" fill="#000"/><path d="m21.1871 18.234c-.7917 0-1.5502-.3149-2.1099-.8745-.5596-.5597-.8744-1.3182-.8744-2.1099 0-.5605 0-1.1475 0-1.708 0-1.6492 1.3369-2.9861 2.986-2.9861h.0017c.7917 0 1.5502.3149 2.1099.8745.5596.5597.8745 1.3182.8745 2.1099v1.708c0 1.6492-1.3369 2.9861-2.9861 2.9861z" fill="#fff"/><path d="m22.4685 13.1149c0-.4522-.18-.8864-.4999-1.2064-.3199-.3199-.7542-.4999-1.2064-.4999s-.8864.18-1.2063.4999c-.32.32-.5.7542-.5 1.2064v2.545c0 .453.18.8864.5 1.2072.3199.3199.7541.4991 1.2063.4991s.8865-.1792 1.2064-.4991c.3199-.3208.4999-.7542.4999-1.2072 0-.7977 0-1.7465 0-2.545z" fill="#000"/></g></svg>