<svg fill="none" height="32" viewBox="0 0 32 32" width="32" xmlns="http://www.w3.org/2000/svg"><path d="m31.1028 20.9925c0 2.0091-.5252 3.4351-1.3444 4.4745-.8271 1.0495-2.0166 1.7841-3.4762 2.2907-2.9616 1.0282-6.7719 1.0379-10.1824 1.0379-3.4093 0-7.27255-.0094-10.28664-1.0393-1.48698-.5081-2.7015-1.2447-3.54601-2.2958-.83532-1.0397-1.370401-2.4634-1.370401-4.468 0-3.748.807291-8.3097 3.108411-11.90376 2.26699-3.54072 6.01294-6.19919 12.09464-6.19919 5.7647 0 9.4692 2.66321 11.7712 6.23125 2.3312 3.6131 3.2318 8.1799 3.2318 11.8717z" fill="#fb4646" stroke="#000" stroke-width="1.7935"/><g clip-rule="evenodd" fill-rule="evenodd"><path d="m10.7307 23.5303h-1.07416c-.30543 0-.58783-.1629-.73969-.4283-.15186-.2644-.15101-.5912.00256-.8548.15869-.2713.33188-.5682.50933-.8728 1.07076-1.8351 3.03466-2.963 5.15906-2.963h2.5236c2.1244 0 4.0884 1.1279 5.1591 2.963.1774.3046.3506.6015.5093.8728.1536.2636.1544.5904.0026.8548-.1519.2654-.4343.4283-.7397.4283h-1.0742l-1.7993-.5665c-.4752-.7124-6.164-.7124-6.6392 0z" fill="#4d0b0b"/><path d="m20.9677 23.5303h-.8531l-.8532-.8531.8532-.4266zm-9.3847-1.2797.8532.4266-.8532.8531h-.8531z" fill="#801e36"/><path d="m11.583 23.1037v-.8531l.093-.14c.4752-.7123 1.2746-1.1398 2.1303-1.1398h4.085c.8557 0 1.6551.4275 2.1303 1.1398l.093.14v.8531h-.0043c-.0469.9999-.4641 1.9486-1.1748 2.6602-.7559.755-1.7797 1.179-2.8478 1.179-.1587 0-.3191 0-.4778 0-1.0681 0-2.0919-.424-2.8478-1.179-.7107-.7116-1.1279-1.6603-1.1748-2.6602z" fill="#9a1756"/><path d="m20.8409 15.0521 2.103.7013c.4471.1484.6885.6322.5401 1.0792-.1493.4462-.6331.6885-1.0793.5392l-4.7222-1.5741 4.3886-4.3886c.3328-.3327.8737-.3327 1.2064 0s.3327.8736 0 1.2064zm-9.9837 0-2.43657-2.4366c-.33273-.3328-.33273-.8737 0-1.2064s.87363-.3327 1.20637 0l4.3886 4.3886-4.72219 1.5741c-.4462.1493-.92994-.093-1.07924-.5392-.14845-.447.09299-.9308.54005-1.0792z" fill="#000"/><path d="m22.9169 5.48018c.9964.59783 1.7903 1.28955 2.3914 1.79349 1.9474 1.77978 2.7898 3.78623 3.7225 6.42153-.4095.1199-.8344.1908-1.2667.2101-1.4237.0637-2.8149-.4405-3.8665-1.4021 0 0-.0001-.001-.0011-.001-1.7037-1.5588-1.976-4.03288-1.2803-6.14221z" fill="#dc2a2a"/><path d="m6.97475 6.97473c-.00001-.19928-1.89315 2.09241-2.98919 2.78987-1.38184 1.7517.00047-1.30968-.59782 1.6939-.19934 1.5942-.49819 1.7935-.99639 4.0852 0 0 .4557.0761.88543.0253 1.41528-.1675 2.70658-.89 3.58887-2.0091 0 0-.00012-.001.00089-.0011 1.42915-1.8139 1.29767-4.29939.26996-6.26843z" fill="#dc2a2a"/><path d="m27.2927 1.19568s-1.7848 3.56948-2.9885 5.9769c-.642 1.28396-.3901 2.83402.6247 3.84882 0 0 0 0 .001.001.6268.6268 1.476.9782 2.3628.9782.8867 0 1.7359-.3514 2.3627-.9782.001-.001.001-.001.001-.001 1.0148-1.0148 1.2667-2.56486.6247-3.84882-1.2037-2.40742-2.9884-5.9769-2.9884-5.9769z" fill="#2ac2f9"/><path d="m3.34057 2.98914s-1.78475 3.56948-2.988456 5.9769c-.641979 1.28396-.3900638 2.83406.62471 3.84886 0 0 0 0 .001015.001.626741.6267 1.475941.9782 2.362731.9782.88678 0 1.73598-.3515 2.36272-.9782.00102-.001.00102-.001.00102-.001 1.01477-1.0148 1.26669-2.5649.62471-3.84886-1.20371-2.40742-2.98845-5.9769-2.98845-5.9769z" fill="#2ac2f9"/></g></svg>