<svg fill="none" height="32" viewBox="0 0 32 32" width="32" xmlns="http://www.w3.org/2000/svg"><path d="m31.1028 20.9924c0 2.0091-.5252 3.4351-1.3444 4.4745-.8271 1.0495-2.0166 1.784-3.4762 2.2907-2.9616 1.0281-6.7719 1.0379-10.1824 1.0379-3.4093 0-7.27255-.0094-10.28664-1.0393-1.48698-.5081-2.7015-1.2448-3.54601-2.2959-.83532-1.0396-1.370401-2.4634-1.370401-4.4679 0-3.748.807291-8.3098 3.108411-11.90378 2.26699-3.54072 6.01294-6.19919 12.09464-6.19919 5.7647 0 9.4692 2.66321 11.7712 6.23124 2.3312 3.61303 3.2318 8.17993 3.2318 11.87173z" fill="#fbc546" stroke="#000" stroke-width="1.7935"/><g clip-rule="evenodd" fill-rule="evenodd"><path d="m16.0417 21.5456-2.0859 1.3907c-.3925.2611-.9223.1553-1.1834-.2372-.261-.3916-.1552-.9214.2364-1.1825l2.5594-1.7063c.2867-.1911.6604-.1911.947 0l2.5595 1.7063c.3916.2611.4974.7909.2363 1.1825-.261.3925-.7908.4983-1.1833.2372z" fill="#593604"/><path d="m20.4552 9.52696c-.0725.22097.4096 1.14154 1.3054 1.69524.8386.5187 1.9486.517 1.9426.4701l1.7234 1.1492v1.2797c0 1.0178-.4044 1.9947-1.1245 2.7148-.72.72-1.6969 1.1244-2.7147 1.1244s-1.9947-.4044-2.7148-1.1244c-.72-.7201-1.1244-1.697-1.1244-2.7148 0-.5639 0-1.1449 0-1.708 0-1.0178.4044-1.9938 1.1236-2.7139.2593-.25851.5511-.47691.8668-.65011z" fill="#fff"/><path d="m20.4552 9.52917 3.248 2.16533c.0111.0972.0171.1954.0171.2943v1.6953c0 .6782-.2696 1.3292-.7491 1.8086-.4795.4795-1.1304.7491-1.8087.7491h-.0034c-.6783 0-1.3292-.2696-1.8087-.7491-.4795-.4794-.7491-1.1304-.7491-1.8086 0-.5546 0-1.1407 0-1.6953 0-.6782.2696-1.3292.7491-1.8087.3097-.30966.691-.53234 1.1048-.65093z" fill="#000"/><path d="m11.6285 9.52696c.0725.22097-.4095 1.14154-1.3053 1.69524-.8387.5187-1.94866.517-1.94269.4701l-1.72337 1.1492v1.2797c0 1.0178.40439 1.9947 1.12446 2.7148.72006.72 1.69693 1.1244 2.7147 1.1244 1.0179 0 1.9947-.4044 2.7148-1.1244.7201-.7201 1.1245-1.697 1.1245-2.7148 0-.5639 0-1.1449 0-1.708 0-1.0178-.4044-1.9938-1.1237-2.7139-.2593-.25851-.5511-.47691-.8668-.65011z" fill="#fff"/><path d="m11.6285 9.52917-3.248 2.16533c-.01109.0972-.01707.1954-.01707.2943v1.6953c0 .6782.2696 1.3292.74908 1.8086.47947.4795 1.13039.7491 1.80869.7491h.0034c.6783 0 1.3292-.2696 1.8087-.7491.4795-.4794.7491-1.1304.7491-1.8086 0-.5546 0-1.1407 0-1.6953 0-.6782-.2696-1.3292-.7491-1.8087-.3097-.30966-.6911-.53234-1.1048-.65093z" fill="#000"/></g></svg>