<svg fill="none" height="32" viewBox="0 0 32 32" width="32" xmlns="http://www.w3.org/2000/svg"><path d="m31.1028 20.9925c0 2.0091-.5252 3.4351-1.3444 4.4745-.8271 1.0495-2.0166 1.7841-3.4762 2.2907-2.9616 1.0281-6.7719 1.0379-10.1824 1.0379-3.4093 0-7.27255-.0094-10.28664-1.0393-1.48698-.5081-2.7015-1.2447-3.54601-2.2958-.83532-1.0397-1.370401-2.4634-1.370401-4.468 0-3.748.807291-8.3097 3.108411-11.90376 2.26699-3.54072 6.01294-6.19919 12.09464-6.19919 5.7647 0 9.4692 2.66321 11.7712 6.23125 2.3312 3.6131 3.2318 8.1799 3.2318 11.8717z" fill="#fbc546" stroke="#000" stroke-width="1.7935"/><path d="m7.37329 19.9091s.12456.3745.27898.8369c.36771 1.1031 1.15859 2.0152 2.19859 2.5347 0 0 0 0 .00085.0009 1.04679.523 2.31719.2576 3.06709-.6416.3208-.3856.6732-.8088 1.0195-1.2243.4863-.5835 1.2073-.9214 1.9666-.9214s1.4802.3379 1.9665.9214c.1681.2022.3378.4061.5051.6066.4607.552 1.1321.8856 1.8505.918.7183.0324 1.4171-.2389 1.9255-.7473 1.1143-1.1143 2.2839-2.2839 2.2839-2.2839" stroke="#593604" stroke-linecap="round" stroke-miterlimit="1.5" stroke-width="1.70631"/><g clip-rule="evenodd" fill-rule="evenodd"><path d="m12.2994 13.1463.9675-.3224c.0512.2192.0785.4487.0785.6842v1.708c0 .7917-.3148 1.551-.8745 2.1107s-1.3181.8736-2.1099.8736h-.0017c-1.64911 0-2.98601-1.3368-2.98601-2.986v-.4266l1.70632-.5682c.64925.6689 2.93149-.2892 3.21979-1.0733z" fill="#fff"/><path d="m12.2994 13.1438c.1229.2355.1928.5042.1928.7883v.8395c0 .4522-.18.8865-.4999 1.2064-.32.3199-.7542.4999-1.2064.4999-.94273 0-1.70631-.7644-1.70631-1.7063v-.5545z" fill="#000"/><path d="m19.0334 11.7574 5.2725.8788c.0862.2798.1305.5742.1305.8728v1.708c0 1.6492-1.3369 2.986-2.986 2.986h-.0017c-.7918 0-1.5502-.3139-2.1099-.8736s-.8745-1.319-.8745-2.1107c0-.5605 0-1.1466 0-1.708 0-.6552.2108-1.261.5691-1.7533z" fill="#fff"/><path d="m22.7301 13.9369c0-.4522-.18-.8864-.4999-1.2064-.32-.3199-.7542-.4999-1.2064-.4999-.9427 0-1.7063.7644-1.7063 1.7063v.8395c0 .4522.18.8864.4999 1.2064.32.3199.7542.4999 1.2064.4999.9427 0 1.7063-.7644 1.7063-1.7063z" fill="#000"/></g></svg>