<svg fill="none" height="32" viewBox="0 0 32 32" width="32" xmlns="http://www.w3.org/2000/svg" xmlns:xlink="http://www.w3.org/1999/xlink"><clipPath id="a"><path d="m0 0h32v32h-32z"/></clipPath><g clip-path="url(#a)"><path d="m31.1028 20.9925c0 2.0091-.5252 3.4351-1.3444 4.4745-.8271 1.0495-2.0166 1.7841-3.4762 2.2907-2.9616 1.0282-6.7719 1.0379-10.1824 1.0379-3.4093 0-7.27255-.0094-10.28664-1.0393-1.48698-.5081-2.7015-1.2447-3.54601-2.2958-.83532-1.0397-1.370401-2.4634-1.370401-4.468 0-3.748.807291-8.3097 3.108411-11.90376 2.26699-3.54072 6.01294-6.19919 12.09464-6.19919 5.7647 0 9.4692 2.66321 11.7712 6.23125 2.3312 3.6131 3.2318 8.1799 3.2318 11.8717z" fill="#fbc546" stroke="#000" stroke-width="1.7935"/><g clip-rule="evenodd" fill-rule="evenodd"><path d="m5.94318 32.0214s-2.80266-2.8211-4.948126-4.9789c-1.3292-1.3379-1.326734-3.4993.007396-4.8335.0296-.0283.05795-.0567.08631-.0863.64488-.6436 1.51909-1.0049 2.42906-1.0024.91121.0024 1.78296.3674 2.42413 1.0147.00123.0013.00123.0013.00123.0013s.03699-.0358.10111-.0987c1.33783-1.3033 3.4722-1.2934 4.79891.0198.0333.0333.0666.0678.1011.1011.6461.6399 1.0111 1.5129 1.0123 2.4229.0025.9112-.3575 1.7841-1.0024 2.4278-2.17136 2.1713-5.01102 5.0122-5.01102 5.0122z" fill="#d92020"/><path d="m7.93598 11.3537s-2.80266-2.82115-4.94813-4.97895c-1.3292-1.33783-1.32673-3.49932.0074-4.83345.02959-.02836.05795-.05672.08631-.08632.64487-.643634 1.51909-1.00491 2.42906-1.002444.91121.002466 1.78295.367441 2.42413 1.014784.00123.00123.00123.00123.00123.00123s.03699-.03576.10111-.09864c1.33783-1.3033114 3.47221-1.2934463 4.79891.01973.0333.03329.0666.06781.1011.1011.6461.63994 1.0111 1.51292 1.0123 2.4229.0025.9112-.3575 1.78418-1.0024 2.42782-2.1714 2.17136-5.01102 5.01224-5.01102 5.01224z" fill="#d92020"/><path d="m26.8906 27.6187s-2.4481-2.4663-4.2246-4.2562c-.997-1.0043-.9933-2.6254.0073-3.626 0-.0012.0012-.0012.0012-.0024.4845-.4845 1.1427-.7565 1.8287-.7541.6861.0012 1.3419.2769 1.8252.7638.3242.3279.5622.5683.5622.5683s.289-.2817.6703-.6533c1.0006-.9751 2.5987-.969 3.592.0133.0012 0 .0012.0013.0024.0013.4894.4845.7662 1.1439.7687 1.8324.0024.6885-.2708 1.3503-.7578 1.8372-1.8008 1.8009-4.2756 4.2757-4.2756 4.2757z" fill="#d92020"/></g><path d="m10.9229 19.853s.4795.6399 1.0238 1.3651c.9666 1.2891 2.4835 2.0476 4.0952 2.0476 1.6116 0 3.1285-.7585 4.0951-2.0476.5443-.7252 1.0238-1.3651 1.0238-1.3651" stroke="#593604" stroke-linecap="round" stroke-miterlimit="1.5" stroke-width="1.70631"/><path clip-rule="evenodd" d="m7.32785 15.3465c.1604.1596.3771.25.60319.25.22608 0 .44279-.0904.60233-.25.00597-.006.00938-.0085.00938-.0085.51872-.5187 1.22172-.8105 1.95545-.8105.7337 0 1.4367.2918 1.9554.8105 0 0 .0034.0025.0094.0085.3327.3327.8719.3327 1.2055 0 0 0 0 0 0-.0008.3336-.3328.3336-.8728 0-1.2064-.0051-.0051-.0077-.0085-.0077-.0085-.8386-.8387-1.9767-1.3096-3.1626-1.3096s-2.32401.4709-3.16267 1.3096c0 0-.00256.0034-.00853.0093-.15954.1596-.24997.3763-.24997.6024s.09043.4428.24997.6032z" fill="#000" fill-rule="evenodd"/><path clip-rule="evenodd" d="m24.7589 15.3465c-.1604.1596-.3771.25-.6032.25-.226 0-.4427-.0904-.6023-.25-.006-.006-.0094-.0085-.0094-.0085-.5187-.5187-1.2217-.8105-1.9554-.8105s-1.4367.2918-1.9554.8105c0 0-.0035.0025-.0094.0085-.3328.3327-.872.3327-1.2055 0 0 0 0 0 0-.0008-.3336-.3328-.3336-.8728 0-1.2064.0051-.0051.0076-.0085.0076-.0085.8387-.8387 1.9768-1.3096 3.1627-1.3096s2.324.4709 3.1626 1.3096c0 0 .0026.0034.0086.0093.1595.1596.25.3763.25.6024s-.0905.4428-.25.6032z" fill="#000" fill-rule="evenodd"/></g></svg>