<svg fill="none" height="32" viewBox="0 0 32 32" width="32" xmlns="http://www.w3.org/2000/svg" xmlns:xlink="http://www.w3.org/1999/xlink"><clipPath id="a"><path d="m0 0h32v32h-32z"/></clipPath><g clip-path="url(#a)"><path d="m31.1028 20.9925c0 2.0091-.5252 3.4351-1.3444 4.4745-.8271 1.0495-2.0166 1.7841-3.4762 2.2907-2.9616 1.0282-6.7719 1.0379-10.1824 1.0379-3.4093 0-7.27255-.0094-10.28664-1.0393-1.48698-.5081-2.7015-1.2447-3.54601-2.2958-.83532-1.0397-1.370401-2.4634-1.370401-4.468 0-3.748.807291-8.3097 3.108411-11.90376 2.26699-3.54072 6.01294-6.19919 12.09464-6.19919 5.7647 0 9.4692 2.66321 11.7712 6.23125 2.3312 3.6131 3.2318 8.1799 3.2318 11.8717z" fill="#fbc546" stroke="#000" stroke-width="1.7935"/><path d="m9.07959 19.9537c1.61081 2.1474 4.13951 3.4127 6.82441 3.4127 2.6857 0 5.2145-1.2644 6.8261-3.4127" stroke="#593604" stroke-linecap="round" stroke-miterlimit="1.5" stroke-width="1.70631"/><g clip-rule="evenodd" fill-rule="evenodd"><path d="m20.267 10.7463c-.1894.4855 2.0834 1.6654 2.4588 1.4052l1.7106.9777v1.2815c0 .7917-.3148 1.5501-.8745 2.1098s-1.3181.8745-2.1098.8745h-.0018c-1.6491 0-2.986-1.3369-2.986-2.986 0-.5606 0-1.1475 0-1.7081 0-.7917.3148-1.5502.8745-2.1098.081-.0819.1663-.1579.2559-.2287z" fill="#fff"/><path d="m20.267 10.749 2.4588 1.4052c.0026.0409.0043.0827.0043.1245v2.545c0 .453-.18.8864-.5 1.2072-.3199.32-.7542.4991-1.2063.4991-.4522 0-.8865-.1791-1.2064-.4991-.3199-.3208-.5-.7542-.5-1.2072 0-.7977 0-1.7464 0-2.545 0-.4521.1801-.8864.5-1.2063.1322-.1331.2849-.2415.4496-.3234z" fill="#000"/><path d="m11.5427 10.7463c.1894.4855-2.08344 1.6654-2.45883 1.4052l-1.71058.9777v1.2815c0 .7917.31482 1.5501.87449 2.1098s1.31813.8745 2.10982.8745h.0017c1.6492 0 2.9861-1.3369 2.9861-2.986 0-.5606 0-1.1475 0-1.7081 0-.7917-.3148-1.5502-.8745-2.1098-.081-.0819-.1664-.1579-.2559-.2287z" fill="#fff"/><path d="m11.5427 10.749-2.45884 1.4052c-.00256.0409-.00427.0827-.00427.1245v2.545c0 .453.18002.8864.49995 1.2072.31993.32.75416.4991 1.20636.4991s.8864-.1791 1.2064-.4991c.3199-.3208.4999-.7542.4999-1.2072 0-.7977 0-1.7464 0-2.545 0-.4521-.18-.8864-.4999-1.2063-.1323-.1331-.285-.2415-.4496-.3234z" fill="#000"/><path d="m24.4648 13.9495s-1.6787 3.3574-2.8109 5.6219c-.6039 1.2076-.3669 2.6657.5876 3.6202 0 0 0 0 .001.0009.5895.5895 1.3882.9201 2.2223.9201s1.6329-.3306 2.2224-.9201c.001-.0009.001-.0009.001-.0009.9545-.9545 1.1914-2.4126.5876-3.6202-1.1322-2.2645-2.811-5.6219-2.811-5.6219z" fill="#41b4de"/></g></g></svg>