<svg fill="none" height="32" viewBox="0 0 32 32" width="32" xmlns="http://www.w3.org/2000/svg" xmlns:xlink="http://www.w3.org/1999/xlink"><clipPath id="a"><path d="m0 0h32v32h-32z"/></clipPath><g clip-path="url(#a)"><path d="m31.1028 20.9925c0 2.0091-.5252 3.4351-1.3444 4.4745-.8271 1.0495-2.0166 1.7841-3.4762 2.2907-2.9616 1.0282-6.7719 1.0379-10.1824 1.0379-3.4093 0-7.27255-.0094-10.28664-1.0393-1.48698-.5081-2.7015-1.2447-3.54601-2.2958-.83532-1.0397-1.370401-2.4634-1.370401-4.468 0-3.748.807291-8.3097 3.108411-11.90376 2.26699-3.54072 6.01294-6.19919 12.09464-6.19919 5.7647 0 9.4692 2.66321 11.7712 6.23125 2.3312 3.6131 3.2318 8.1799 3.2318 11.8717z" fill="#fbc546" stroke="#000" stroke-width="1.7935"/><path clip-rule="evenodd" d="m13.5509 21.0337c0 .0588.0099.1186.0289.1754.1614.4862.9814 2.9463 1.5095 4.5296.271.814 1.0333 1.363 1.8911 1.363h3.5452c1.101 0 1.9928-.8917 1.9928-1.9928 0 0-3.0609-3.6736-4.3841-5.2609-.3787-.4543-.9396-.7174-1.5315-.7174-.3447 0-.7503 0-1.1508 0-1.0502 0-1.9011.8509-1.9011 1.9011z" fill="#5462cb" fill-rule="evenodd"/><path clip-rule="evenodd" d="m24.5113 25.108c0-.5281-.2103-1.0352-.5839-1.4089-.3737-.3736-.8808-.5839-1.4089-.5839-1.4826 0-3.4993 0-4.982 0-.528 0-1.0352.2103-1.4089.5839-.3736.3737-.5838.8808-.5838 1.4089s.2102 1.0353.5838 1.4089c.3737.3736.8809.5839 1.4089.5839h4.982c.5281 0 1.0352-.2103 1.4089-.5839.3736-.3736.5839-.8808.5839-1.4089z" fill="#2438b9" fill-rule="evenodd"/><path d="m23.8985 16.1208c.3336.3328.3336.8737 0 1.2064-.3327.3336-.8736.3336-1.2064 0-.6304-.6305-1.5297-1.5297-1.5297-1.5297s-.9137.9137-1.545 1.5451c-.1562.1561-.3678.244-.5879.244s-.4317-.0879-.5878-.244c-.1647-.1638-.2568-.3865-.2568-.6186 0-.232.0921-.4547.2568-.6185.9649-.9649 2.7207-2.7207 2.7207-2.7207s1.7746 1.7737 2.7361 2.736z" fill="#000"/><path d="m13.6614 16.1245c.1595.1595.2491.3762.2491.6023s-.0896.4428-.2491.6024c0 .0008-.0008.0008-.0008.0008-.3328.3336-.8737.3336-1.2064 0-.6305-.6305-1.5297-1.5297-1.5297-1.5297s-.9138.9137-1.54509 1.5451c-.15613.1561-.36771.244-.58782.244-.22012 0-.4317-.0879-.58783-.244-.16466-.1638-.2568-.3865-.2568-.6186 0-.232.09214-.4547.2568-.6185.96492-.9649 2.72074-2.7207 2.72074-2.7207s1.7745 1.7745 2.7369 2.7369z" fill="#000"/><path d="m6.16145 23.9465c-.76784-.256-1.5681-.401-2.37519-.4317-1.69386 0-1.55113 2.1089 2.59062 3.4873l.17702-.0807.85316-2.5594s-.61769-.2057-1.24561-.4155z" fill="#e59a10"/><path d="m30.0909 19.1306c.1993.0997-.6974-4.683-.8432-4.3841h-1.558l-1.1858 2.3714c1.3067.4352 2.5436 1.1424 3.587 2.0127z" fill="#e59a10"/><path d="m18.6391 3.98561c3.68.59783 6.5695 2.69024 8.4627 5.57977-5.3805.89672-9.2665-2.88953-8.4627-5.57977z" fill="#e59a10"/><g clip-rule="evenodd" fill-rule="evenodd"><path d="m0 7.22379 2.29169-3.43754c1.46783 1.46783 3.45702 2.2917 5.53215 2.2917h1.34293l-2.29169 3.43754c-2.24128 0-4.43328-.66345-6.297574-1.90669-.344899-.23032-.577506-.38501-.577506-.38501z" fill="#f229a2"/><path d="m32.1585 14.8313v-3.871s-.6039.2013-1.3355.4452c-1.6232.5406-3.3949.4155-4.9252-.3497-.12-.0593-.191-.0955-.191-.0955v3.871s.071.0362.191.0955c1.5303.7652 3.302.8904 4.9252.3497.7316-.2439 1.3355-.4452 1.3355-.4452z" fill="#f229a2"/><path d="m26.3175 8.3825v-3.83382h-1.1872c-1.6946 0-3.3201-.67348-4.5176-1.87091-.3897-.38977-.6849-.68497-.6849-.68497v3.83382s.2952.2952.6849.68498c1.1975 1.19743 2.823 1.8709 4.5176 1.8709z" fill="#f229a2"/><path d="m0 25.5075 1.2526-3.7578c2.45009 0 4.84632-.7252 6.8843-2.0843.37704-.2518.63132-.4209.63132-.4209l-1.25261 3.7578s-.25428.1691-.63131.4209c-2.03798 1.3591-4.43421 2.0843-6.8843 2.0843z" fill="#f229a2"/><path d="m23.9133 25.7806s.157.2354.3877.5827c1.2 1.7989 3.2181 2.8788 5.3804 2.8788h.0011l2.3077-3.4615h-.0011c-2.1623 0-4.1804-1.08-5.3804-2.8788-.2308-.3473-.3877-.5827-.3877-.5827z" fill="#f229a2"/><path d="m8.76965 10.7102c-.97519.4792-2.05115.7704-3.17458.8371-.06165.0037-.12329.0074-.18388.011-.56331.0334-1.11762-.1587-1.53988-.5335-.42226-.3749-.67867-.9026-.71216-1.46589-.20038-3.37135-.56854-9.56562387-.56854-9.56562387l1.62742 1.36025387 4.88099 7.3073z" fill="#8012da"/><path d="m8.76965 10.7102-6.17904-10.71691387s5.98655 2.56133387 9.10349 3.89492387c1.0168.43553 1.4888 1.61167 1.0532 2.62843 0 0 0 0 .0001.00107-.7971 1.8606-2.2243 3.32988-3.97775 4.19249z" fill="#982eee"/></g></g></svg>