<svg fill="none" height="32" viewBox="0 0 32 32" width="32" xmlns="http://www.w3.org/2000/svg"><path d="m31.1028 20.9925c0 2.0091-.5252 3.4351-1.3444 4.4745-.8271 1.0495-2.0166 1.784-3.4762 2.2907-2.9616 1.0281-6.7719 1.0379-10.1824 1.0379-3.4093 0-7.27255-.0094-10.28664-1.0393-1.48698-.5081-2.7015-1.2448-3.54601-2.2959-.83532-1.0396-1.370401-2.4634-1.370401-4.4679 0-3.7442.805701-7.6213 3.062911-10.5439 2.22495-2.88081 5.96452-4.96848 12.14014-4.96848 5.8587 0 9.5576 2.0958 11.8169 5.00038 2.2888 2.9423 3.1861 6.8267 3.1861 10.512z" fill="#fbc546" stroke="#000" stroke-width="1.7935"/><g clip-rule="evenodd" fill-rule="evenodd"><path d="m19.9724 22.1276c.0103.0093.0205.0196.0308.0298l4.209 5.1437c.3986.0996-3.0888.5978-5.9783.5978 0 0 1.6225-4.1819 1.7309-5.779z" fill="#e59a10"/><path d="m10.6201 23.1536h-.87706c-.29605 0-.56991-.1527-.72604-.4044-.15527-.2517-.16892-.5656-.03668-.8301.32249-.6467.73542-1.4725 1.14408-2.289 1.0118-2.0237 3.0799-3.3017 5.3416-3.3017h1.1501c2.2617 0 4.3297 1.278 5.3416 3.3017.4087.8165.8216 1.6423 1.1441 2.289.1322.2645.1186.5784-.0367.8301-.1561.2517-.43.4044-.726.4044h-.8771c-1.1756-1.5758-9.6663-1.5758-10.8419 0z" fill="#722245"/><path d="m16.3639 20.5941c2.0527 0 3.9254.9837 5.101 2.5595h-10.8419c1.1756-1.5758 3.0483-2.5595 5.101-2.5595z" fill="#ca3b8f"/></g><path d="m9.57451 28.8127c-.90512-.9051-.89575-.6979-1.42495-1.3594-1.71991-2.1498.95325-4.6603.95325-4.6603l1.87189 1.7558 2.363-2.363c.4248-.4248 1.0014-.6638 1.6018-.6638s1.177.239 1.6018.6638l1.3277 1.3276c.4248.4248.6638 1.0014.6638 1.6018s-.239 1.177-.6638 1.6018l-2.0968 2.0968c-1.7106 1.7106-4.486 1.7106-6.19656 0z" fill="#fbc546"/><path clip-rule="evenodd" d="m8.3063 30.0809.00114.0012c2.41096 2.4108 6.32196 2.4109 8.73286 0l2.0969-2.0968c.7608-.7608 1.1891-1.7934 1.1891-2.87s-.4283-2.1093-1.1891-2.87l-1.3277-1.3277c-.7608-.7607-1.7934-1.1891-2.87-1.1891s-2.1092.4284-2.87 1.1891l-1.1347 1.1348-1.83275-1.7191-1.22706 1.1524 1.2278 1.3073 1.87191 1.7559 2.363-2.3631c.4248-.4248 1.0014-.6638 1.6018-.6638s1.177.239 1.6018.6638l1.3277 1.3277c.4248.4248.6638 1.0014.6638 1.6018s-.239 1.177-.6638 1.6018l-2.0969 2.0968c-1.7105 1.7105-4.4859 1.7105-6.19648 0l-.00113-.0012c-.41813-.4181-.6411-.5988-.81216-.7375-.19924-.1615-.32806-.2659-.61279-.6218-.88538-1.1067-.60659-2.309-.12759-3.2152.24833-.4698.55048-.86.77212-1.1161.1813-.2094.30872-.3291.30872-.3291-1.2278-1.3073-1.22829-1.3069-1.22879-1.3064l-.00105.001-.00229.0022-.00534.005c-.00389.0037-.00844.0081-.01362.013-.01036.01-.02326.0225-.03847.0376-.03039.03-.07018.07-.1175.1195-.09431.0985-.22036.2361-.36254.407-.2791.3355-.64631.8303-.95247 1.4357-.6031 1.1926-1.12257 3.2026.36833 5.0662.34994.4374.5715.6405.83985.8589.01419.0116.02847.0231.04298.0349.14805.1198.32023.2592.67442.6133z" fill="#9d6e17" fill-rule="evenodd"/><path clip-rule="evenodd" d="m12.2477 13.006-3.41263 1.7063c-.42146.2098-.59209.7234-.38137 1.144.20988.4215.72348.5921 1.14409.3814l3.41261-1.7063c.4215-.2099.5921-.7235.3814-1.1441-.2099-.4214-.7235-.5921-1.1441-.3813z" fill="#000" fill-rule="evenodd"/><path clip-rule="evenodd" d="m19.073 14.5314 3.4126 1.7063c.4206.2107.9342.0401 1.1441-.3814.2107-.4206.0401-.9342-.3814-1.144l-3.4126-1.7063c-.4206-.2108-.9342-.0401-1.1441.3813-.2107.4206-.0401.9342.3814 1.1441z" fill="#000" fill-rule="evenodd"/></svg>