<svg fill="none" height="32" viewBox="0 0 32 32" width="32" xmlns="http://www.w3.org/2000/svg" xmlns:xlink="http://www.w3.org/1999/xlink"><clipPath id="a"><path d="m0 0h32v32h-32z"/></clipPath><g clip-path="url(#a)"><path d="m31.1028 20.9925c0 2.0091-.5252 3.4351-1.3444 4.4745-.8271 1.0495-2.0166 1.7841-3.4762 2.2907-2.9616 1.0282-6.7719 1.0379-10.1824 1.0379-3.4093 0-7.27255-.0094-10.28664-1.0393-1.48698-.5081-2.7015-1.2447-3.54601-2.2958-.83532-1.0397-1.370401-2.4634-1.370401-4.468 0-3.748.807291-8.3097 3.108411-11.90376 2.26699-3.54072 6.01294-6.19919 12.09464-6.19919 5.7647 0 9.4692 2.66321 11.7712 6.23125 2.3312 3.6131 3.2318 8.1799 3.2318 11.8717z" fill="#579aff" stroke="#000" stroke-width="1.7935"/><g clip-rule="evenodd" fill-rule="evenodd"><path d="m24.4364 21.2542c0-.6791-.2696-1.3301-.7499-1.8096-.4795-.4803-1.1304-.7499-1.8095-.7499-3.2216 0-8.7227 0-11.94424 0-.67911 0-1.33007.2696-1.80954.7499-.48033.4795-.74993 1.1305-.74993 1.8096v.8531c0 .6791.2696 1.3301.74993 1.8096.47947.4803 1.13043.7499 1.80954.7499h11.94424c.6791 0 1.33-.2696 1.8095-.7499.4803-.4795.7499-1.1305.7499-1.8096 0-.2824 0-.5707 0-.8531z" fill="#0c6dff"/><path d="m9.27345 23.6823c.12712-.3063.31396-.587.55285-.8259.4795-.4795 1.1304-.7491 1.8087-.7491h8.5333c1.0647 0 1.9776.6501 2.3632 1.575-.2064.0861-.4291.1313-.6569.1313-2.9545 0-8.9897 0-11.94422 0-.22779 0-.45046-.0452-.65693-.1313zm-.38051-3.7829c.29605-.227.66035-.3515 1.03744-.3515h11.94422c.3771 0 .7414.1245 1.0374.3515-.6962.8403-1.7438 1.3548-2.8811 1.3548h-8.2568c-1.1373 0-2.18498-.5145-2.88116-1.3548z" fill="#fff"/><path d="m10.3593 17.8416c1.6492 0 2.9861-1.3369 2.9861-2.986v-1.7063c0-1.6492-1.3369-2.9861-2.9861-2.9861h-.0017c-.79169 0-1.55015.3148-2.10982.8745s-.87449 1.3181-.87449 2.1099v1.708c0 1.6491 1.3369 2.986 2.98601 2.986z" fill="#fff"/><path d="m9.07959 13.5758c0-.4522.18002-.8864.49995-1.2063.31993-.32.75416-.5 1.20636-.5s.8864.18 1.2064.5c.3199.3199.4999.7541.4999 1.2063v.8532c0 .4522-.18.8864-.4999 1.2063-.32.32-.7542.5-1.2064.5s-.88643-.18-1.20636-.5c-.31993-.3199-.49995-.7541-.49995-1.2063 0-.2807 0-.5725 0-.8532z" fill="#000"/><path d="m21.4503 17.8416c-1.6491 0-2.986-1.3369-2.986-2.986v-1.7063c0-1.6492 1.3369-2.9861 2.986-2.9861h.0018c.7917 0 1.5501.3148 2.1098.8745s.8745 1.3181.8745 2.1099v1.708c0 1.6491-1.3369 2.986-2.9861 2.986z" fill="#fff"/><path d="m22.7301 13.5758c0-.4522-.18-.8864-.4999-1.2063-.32-.32-.7542-.5-1.2064-.5s-.8864.18-1.2063.5c-.32.3199-.5.7541-.5 1.2063v.8532c0 .4522.18.8864.5 1.2063.3199.32.7541.5 1.2063.5s.8864-.18 1.2064-.5c.3199-.3199.4999-.7541.4999-1.2063 0-.2807 0-.5725 0-.8532z" fill="#000"/><path d="m3.78625 24.7105h6.57685l-3.28842 4.6977z" fill="#e6f0ff"/><path d="m4.9846 3.9856h9.0826l-2.8186 5.6373-1.40935-3.7582-2.34887 5.6373z" fill="#e6f0ff"/><path d="m20.3263 17.935h9.7084l-1.8791 5.6373-1.4094-2.8186-3.2884 6.5768z" fill="#e6f0ff"/></g></g></svg>