<svg fill="none" height="32" viewBox="0 0 32 32" width="32" xmlns="http://www.w3.org/2000/svg"><path d="m31.1028 20.9925c0 2.0091-.5252 3.4351-1.3444 4.4745-.8271 1.0495-2.0166 1.7841-3.4762 2.2907-2.9616 1.0282-6.7719 1.0379-10.1824 1.0379-3.4093 0-7.27255-.0094-10.28664-1.0393-1.48698-.5081-2.7015-1.2447-3.54601-2.2958-.83532-1.0397-1.370401-2.4634-1.370401-4.468 0-3.748.807291-8.3097 3.108411-11.90376 2.26699-3.54072 6.01294-6.19919 12.09464-6.19919 5.7647 0 9.4692 2.66321 11.7712 6.23125 2.3312 3.6131 3.2318 8.1799 3.2318 11.8717z" fill="#fbc546" stroke="#000" stroke-width="1.7935"/><path clip-rule="evenodd" d="m12.2667 23.7311s1.2934-1.2934 2.4562-2.4562c.32-.32.7542-.4991 1.2064-.4991s.8864.1791 1.2064.4991c1.1628 1.1628 2.4562 2.4562 2.4562 2.4562.3327.3327.8736.3327 1.2064 0 .3327-.3327.3327-.8736 0-1.2064 0 0-1.2934-1.2933-2.4563-2.4562-.6398-.6399-1.5075-.999-2.4127-.999s-1.7729.3591-2.4127.999c-1.1629 1.1629-2.4563 2.4562-2.4563 2.4562-.3327.3328-.3327.8737 0 1.2064.3328.3327.8737.3327 1.2064 0z" fill="#593604" fill-rule="evenodd"/><path d="m9.36608 21.522c3.63192 0 6.57612-2.8551 6.57612-6.3769 0-3.5219-2.9442-6.37691-6.57612-6.37691s-6.57616 2.85501-6.57616 6.37691c0 3.5218 2.94424 6.3769 6.57616 6.3769z" fill="#e59a10"/><path clip-rule="evenodd" d="m1.89313 22.5184c2.49097 1.096 3.28808.7833 3.88591.6975.98334-.1412 1.61599-.8508 1.61599-1.7935v-1.7063h1.70631v1.7063c0 1.8846-1.528 3.4126-3.41263 3.4126l-1.70317-.0249c-.59783 0-1.20999-.2904-1.2953-.2989 0 0-.39856-.2989-.79711-1.9928z" fill="#808080" fill-rule="evenodd"/><path d="m10.3842 20.5691c3.5339 0 6.3987-2.8648 6.3987-6.3987s-2.8648-6.39867-6.3987-6.39867c-3.53388 0-6.39867 2.86477-6.39867 6.39867s2.86479 6.3987 6.39867 6.3987z" fill="#999"/><path d="m10.3843 18.8629c2.5915 0 4.6923-2.1009 4.6923-4.6924s-2.1008-4.69235-4.6923-4.69235c-2.59156 0-4.69241 2.10085-4.69241 4.69235s2.10085 4.6924 4.69241 4.6924z" fill="#fff"/><g clip-rule="evenodd" fill="#000" fill-rule="evenodd"><path d="m8.56897 12.8659c0-.4522.18002-.8865.49995-1.2064s.75419-.5 1.20638-.5c.4522 0 .8864.1801 1.2063.5.32.3199.5.7542.5 1.2064v2.5449c0 .4531-.18.8865-.5 1.2072-.3199.32-.7541.4991-1.2063.4991-.45219 0-.88645-.1791-1.20638-.4991-.31993-.3207-.49995-.7541-.49995-1.2072 0-.7977 0-1.7464 0-2.5449z"/><path d="m24.4614 14.5971c0-.2261-.0896-.4437-.25-.6032-.1596-.1604-.3771-.25-.6032-.25-1.1356 0-3.1302 0-4.2658 0-.2261 0-.4436.0896-.6032.25-.1604.1595-.2499.3771-.2499.6032s.0895.4436.2499.6032c.1596.1604.3771.2499.6032.2499h4.2658c.2261 0 .4436-.0895.6032-.2499.1604-.1596.25-.3771.25-.6032z"/></g></svg>