<svg fill="none" height="32" viewBox="0 0 32 32" width="32" xmlns="http://www.w3.org/2000/svg"><path d="m31.1028 20.9925c0 2.0091-.5252 3.4351-1.3444 4.4745-.8271 1.0495-2.0166 1.784-3.4762 2.2907-2.9616 1.0281-6.7719 1.0379-10.1824 1.0379-3.4093 0-7.27255-.0094-10.28664-1.0393-1.48698-.5081-2.7015-1.2448-3.54601-2.2959-.83532-1.0396-1.370401-2.4634-1.370401-4.4679 0-3.7442.805701-7.6213 3.062911-10.5439 2.22495-2.88081 5.96452-4.96848 12.14014-4.96848 5.8587 0 9.5576 2.0958 11.8169 5.00038 2.2888 2.9423 3.1861 6.8267 3.1861 10.512z" fill="#fbc546" stroke="#000" stroke-width="1.7935"/><path clip-rule="evenodd" d="m25.4266 17.2936c.9385 0 1.7003.7576 1.7063 1.6952v.0111c0 .9427-.7636 1.7063-1.7063 1.7063-1.0426 0-2.3701 0-3.4126 0-.9428 0-1.7064-.7636-1.7064-1.7063s.7636-1.7063 1.7064-1.7063zm-15.3569 0c.9385 0 1.7004.7576 1.7064 1.6952v.0111c0 .9427-.7636 1.7063-1.7064 1.7063-1.04251 0-2.37002 0-3.41258 0-.94274 0-1.70631-.7636-1.70631-1.7063s.76357-1.7063 1.70631-1.7063z" fill="#ed6b44" fill-rule="evenodd"/><path d="m10.9229 19.853s.4795.6399 1.0238 1.3651c.9666 1.2891 2.4835 2.0476 4.0952 2.0476 1.6116 0 3.1285-.7585 4.0951-2.0476.5443-.7252 1.0238-1.3651 1.0238-1.3651" stroke="#593604" stroke-linecap="round" stroke-miterlimit="1.5" stroke-width="1.70631"/><path d="m12.9656 13.5002c.1015.2022.1186.4368.0469.651-.0717.215-.2261.3924-.4283.4931-.9282.4641-2.4852 1.2431-3.41346 1.7072-.4206.2107-.9325.0401-1.14323-.3814 0 0 0 0 0-.0008-.10152-.2022-.11859-.4369-.04692-.651.07166-.215.22608-.3924.42828-.4931.92824-.4641 2.48523-1.2431 3.41353-1.7072.4206-.2107.9325-.0401 1.1432.3814zm10.7097 1.325c.2022.1007.3566.2781.4283.4931.0716.2141.0546.4488-.047.651-.1006.2022-.2781.3566-.4931.4282-.2141.0717-.4488.0547-.651-.0469-.9282-.4632-2.4852-1.2422-3.4126-1.7063-.2022-.1007-.3566-.2781-.4283-.4931-.0716-.2142-.0546-.4488.047-.651.1006-.2022.2781-.3566.4931-.4283.2141-.0716.4487-.0546.6509.047.9283.4632 2.4853 1.2422 3.4127 1.7063z" fill="#000"/></svg>